# MagicaVoxel @ Ephtracy

# group
o 

# material
mtllib Crown.mtl
usemtl palette

# normals
vn -1 0 0
vn 1 0 0
vn 0 0 1
vn 0 0 -1
vn 0 -1 0
vn 0 1 0

# texcoords
vt 0.302734 0.5
vt 0.318359 0.5
vt 0.962891 0.5
vt 0.982422 0.5
vt 0.986328 0.5

# verts
v -0.5 0 0.5
v -0.5 0 0.4
v -0.5 0 0.3
v -0.5 0 0.1
v -0.5 0 0
v -0.5 0 -0.2
v -0.5 0 -0.3
v -0.5 0 -0.4
v -0.5 0.1 0.5
v -0.5 0.1 0.4
v -0.5 0.1 0.3
v -0.5 0.1 0.2
v -0.5 0.1 0.1
v -0.5 0.1 0
v -0.5 0.1 -0.1
v -0.5 0.1 -0.2
v -0.5 0.1 -0.3
v -0.5 0.1 -0.4
v -0.5 0.2 0.5
v -0.5 0.2 0.4
v -0.5 0.2 0.2
v -0.5 0.2 0.1
v -0.5 0.2 0
v -0.5 0.2 -0.1
v -0.5 0.2 -0.3
v -0.5 0.2 -0.4
v -0.5 0.3 0.3
v -0.5 0.3 0.2
v -0.5 0.3 0.1
v -0.5 0.3 0
v -0.5 0.3 -0.1
v -0.5 0.3 -0.2
v -0.5 0.4 0.4
v -0.5 0.4 0.3
v -0.5 0.4 0.2
v -0.5 0.4 0.1
v -0.5 0.4 0
v -0.5 0.4 -0.1
v -0.5 0.4 -0.2
v -0.5 0.4 -0.3
v -0.5 0.5 0.5
v -0.5 0.5 0.4
v -0.5 0.5 0.1
v -0.5 0.5 0
v -0.5 0.5 -0.3
v -0.5 0.5 -0.4
v -0.1 0.3 0.5
v -0.1 0.3 0.4
v -0.1 0.3 -0.3
v -0.1 0.3 -0.4
v -0.1 0.4 0.5
v -0.1 0.4 0.4
v -0.1 0.4 -0.3
v -0.1 0.4 -0.4
v 0.2 0.3 0.5
v 0.2 0.3 0.4
v 0.2 0.3 -0.3
v 0.2 0.3 -0.4
v 0.2 0.4 0.5
v 0.2 0.4 0.4
v 0.2 0.4 -0.3
v 0.2 0.4 -0.4
v 0.3 0 0.4
v 0.3 0 0.3
v 0.3 0 0.1
v 0.3 0 0
v 0.3 0 -0.2
v 0.3 0 -0.3
v 0.3 0.1 0.4
v 0.3 0.1 0.3
v 0.3 0.1 0.2
v 0.3 0.1 0.1
v 0.3 0.1 0
v 0.3 0.1 -0.1
v 0.3 0.1 -0.2
v 0.3 0.1 -0.3
v 0.3 0.2 0.4
v 0.3 0.2 0.2
v 0.3 0.2 0.1
v 0.3 0.2 0
v 0.3 0.2 -0.1
v 0.3 0.2 -0.3
v 0.3 0.3 0.3
v 0.3 0.3 0.2
v 0.3 0.3 0.1
v 0.3 0.3 0
v 0.3 0.3 -0.1
v 0.3 0.3 -0.2
v 0.3 0.4 0.5
v 0.3 0.4 0.4
v 0.3 0.4 0.3
v 0.3 0.4 0.2
v 0.3 0.4 0.1
v 0.3 0.4 0
v 0.3 0.4 -0.1
v 0.3 0.4 -0.2
v 0.3 0.4 -0.3
v 0.3 0.4 -0.4
v 0.3 0.5 0.5
v 0.3 0.5 0.4
v 0.3 0.5 0.1
v 0.3 0.5 0
v 0.3 0.5 -0.3
v 0.3 0.5 -0.4
v -0.4 0 0.4
v -0.4 0 0.3
v -0.4 0 0.1
v -0.4 0 0
v -0.4 0 -0.2
v -0.4 0 -0.3
v -0.4 0.1 0.4
v -0.4 0.1 0.3
v -0.4 0.1 0.2
v -0.4 0.1 0.1
v -0.4 0.1 0
v -0.4 0.1 -0.1
v -0.4 0.1 -0.2
v -0.4 0.1 -0.3
v -0.4 0.2 0.4
v -0.4 0.2 0.2
v -0.4 0.2 0.1
v -0.4 0.2 0
v -0.4 0.2 -0.1
v -0.4 0.2 -0.3
v -0.4 0.3 0.3
v -0.4 0.3 0.2
v -0.4 0.3 0.1
v -0.4 0.3 0
v -0.4 0.3 -0.1
v -0.4 0.3 -0.2
v -0.4 0.4 0.5
v -0.4 0.4 0.4
v -0.4 0.4 0.3
v -0.4 0.4 0.2
v -0.4 0.4 0.1
v -0.4 0.4 0
v -0.4 0.4 -0.1
v -0.4 0.4 -0.2
v -0.4 0.4 -0.3
v -0.4 0.4 -0.4
v -0.4 0.5 0.5
v -0.4 0.5 0.4
v -0.4 0.5 0.1
v -0.4 0.5 0
v -0.4 0.5 -0.3
v -0.4 0.5 -0.4
v -0.3 0.3 0.5
v -0.3 0.3 0.4
v -0.3 0.3 -0.3
v -0.3 0.3 -0.4
v -0.3 0.4 0.5
v -0.3 0.4 0.4
v -0.3 0.4 -0.3
v -0.3 0.4 -0.4
v 0 0.3 0.5
v 0 0.3 0.4
v 0 0.3 -0.3
v 0 0.3 -0.4
v 0 0.4 0.5
v 0 0.4 0.4
v 0 0.4 -0.3
v 0 0.4 -0.4
v 0.4 0 0.5
v 0.4 0 0.4
v 0.4 0 0.3
v 0.4 0 0.1
v 0.4 0 0
v 0.4 0 -0.2
v 0.4 0 -0.3
v 0.4 0 -0.4
v 0.4 0.1 0.5
v 0.4 0.1 0.4
v 0.4 0.1 0.3
v 0.4 0.1 0.2
v 0.4 0.1 0.1
v 0.4 0.1 0
v 0.4 0.1 -0.1
v 0.4 0.1 -0.2
v 0.4 0.1 -0.3
v 0.4 0.1 -0.4
v 0.4 0.2 0.5
v 0.4 0.2 0.4
v 0.4 0.2 0.2
v 0.4 0.2 0.1
v 0.4 0.2 0
v 0.4 0.2 -0.1
v 0.4 0.2 -0.3
v 0.4 0.2 -0.4
v 0.4 0.3 0.3
v 0.4 0.3 0.2
v 0.4 0.3 0.1
v 0.4 0.3 0
v 0.4 0.3 -0.1
v 0.4 0.3 -0.2
v 0.4 0.4 0.4
v 0.4 0.4 0.3
v 0.4 0.4 0.2
v 0.4 0.4 0.1
v 0.4 0.4 0
v 0.4 0.4 -0.1
v 0.4 0.4 -0.2
v 0.4 0.4 -0.3
v 0.4 0.5 0.5
v 0.4 0.5 0.4
v 0.4 0.5 0.1
v 0.4 0.5 0
v 0.4 0.5 -0.3
v 0.4 0.5 -0.4
v -0.5 0 0.5
v -0.5 0.1 0.5
v -0.5 0.2 0.5
v -0.5 0.5 0.5
v -0.4 0 0.5
v -0.4 0.1 0.5
v -0.4 0.2 0.5
v -0.4 0.4 0.5
v -0.4 0.5 0.5
v -0.3 0 0.5
v -0.3 0.1 0.5
v -0.3 0.3 0.5
v -0.3 0.4 0.5
v -0.1 0 0.5
v -0.1 0.1 0.5
v -0.1 0.3 0.5
v -0.1 0.4 0.5
v 0 0 0.5
v 0 0.1 0.5
v 0 0.3 0.5
v 0 0.4 0.5
v 0.2 0 0.5
v 0.2 0.1 0.5
v 0.2 0.3 0.5
v 0.2 0.4 0.5
v 0.3 0 0.5
v 0.3 0.1 0.5
v 0.3 0.2 0.5
v 0.3 0.4 0.5
v 0.3 0.5 0.5
v 0.4 0 0.5
v 0.4 0.1 0.5
v 0.4 0.2 0.5
v 0.4 0.5 0.5
v -0.5 0.3 0.2
v -0.5 0.4 0.2
v -0.4 0.3 0.2
v -0.4 0.4 0.2
v 0.3 0.3 0.2
v 0.3 0.4 0.2
v 0.4 0.3 0.2
v 0.4 0.4 0.2
v -0.5 0.4 0.1
v -0.5 0.5 0.1
v -0.4 0.4 0.1
v -0.4 0.5 0.1
v 0.3 0.4 0.1
v 0.3 0.5 0.1
v 0.4 0.4 0.1
v 0.4 0.5 0.1
v -0.5 0.3 -0.2
v -0.5 0.4 -0.2
v -0.4 0.3 -0.2
v -0.4 0.4 -0.2
v 0.3 0.3 -0.2
v 0.3 0.4 -0.2
v 0.4 0.3 -0.2
v 0.4 0.4 -0.2
v -0.5 0.4 -0.3
v -0.5 0.5 -0.3
v -0.4 0 -0.3
v -0.4 0.1 -0.3
v -0.4 0.2 -0.3
v -0.4 0.4 -0.3
v -0.4 0.5 -0.3
v -0.3 0 -0.3
v -0.3 0.1 -0.3
v -0.3 0.3 -0.3
v -0.3 0.4 -0.3
v -0.1 0 -0.3
v -0.1 0.1 -0.3
v -0.1 0.3 -0.3
v -0.1 0.4 -0.3
v 0 0 -0.3
v 0 0.1 -0.3
v 0 0.3 -0.3
v 0 0.4 -0.3
v 0.2 0 -0.3
v 0.2 0.1 -0.3
v 0.2 0.3 -0.3
v 0.2 0.4 -0.3
v 0.3 0 -0.3
v 0.3 0.1 -0.3
v 0.3 0.2 -0.3
v 0.3 0.4 -0.3
v 0.3 0.5 -0.3
v 0.4 0.4 -0.3
v 0.4 0.5 -0.3
v -0.5 0.4 0.4
v -0.5 0.5 0.4
v -0.4 0 0.4
v -0.4 0.1 0.4
v -0.4 0.2 0.4
v -0.4 0.4 0.4
v -0.4 0.5 0.4
v -0.3 0 0.4
v -0.3 0.1 0.4
v -0.3 0.3 0.4
v -0.3 0.4 0.4
v -0.1 0 0.4
v -0.1 0.1 0.4
v -0.1 0.3 0.4
v -0.1 0.4 0.4
v 0 0 0.4
v 0 0.1 0.4
v 0 0.3 0.4
v 0 0.4 0.4
v 0.2 0 0.4
v 0.2 0.1 0.4
v 0.2 0.3 0.4
v 0.2 0.4 0.4
v 0.3 0 0.4
v 0.3 0.1 0.4
v 0.3 0.2 0.4
v 0.3 0.4 0.4
v 0.3 0.5 0.4
v 0.4 0.4 0.4
v 0.4 0.5 0.4
v -0.5 0.3 0.3
v -0.5 0.4 0.3
v -0.4 0.3 0.3
v -0.4 0.4 0.3
v 0.3 0.3 0.3
v 0.3 0.4 0.3
v 0.4 0.3 0.3
v 0.4 0.4 0.3
v -0.5 0.4 0
v -0.5 0.5 0
v -0.4 0.4 0
v -0.4 0.5 0
v 0.3 0.4 0
v 0.3 0.5 0
v 0.4 0.4 0
v 0.4 0.5 0
v -0.5 0.3 -0.1
v -0.5 0.4 -0.1
v -0.4 0.3 -0.1
v -0.4 0.4 -0.1
v 0.3 0.3 -0.1
v 0.3 0.4 -0.1
v 0.4 0.3 -0.1
v 0.4 0.4 -0.1
v -0.5 0 -0.4
v -0.5 0.1 -0.4
v -0.5 0.2 -0.4
v -0.5 0.5 -0.4
v -0.4 0 -0.4
v -0.4 0.1 -0.4
v -0.4 0.2 -0.4
v -0.4 0.4 -0.4
v -0.4 0.5 -0.4
v -0.3 0 -0.4
v -0.3 0.1 -0.4
v -0.3 0.3 -0.4
v -0.3 0.4 -0.4
v -0.1 0 -0.4
v -0.1 0.1 -0.4
v -0.1 0.3 -0.4
v -0.1 0.4 -0.4
v 0 0 -0.4
v 0 0.1 -0.4
v 0 0.3 -0.4
v 0 0.4 -0.4
v 0.2 0 -0.4
v 0.2 0.1 -0.4
v 0.2 0.3 -0.4
v 0.2 0.4 -0.4
v 0.3 0 -0.4
v 0.3 0.1 -0.4
v 0.3 0.2 -0.4
v 0.3 0.4 -0.4
v 0.3 0.5 -0.4
v 0.4 0 -0.4
v 0.4 0.1 -0.4
v 0.4 0.2 -0.4
v 0.4 0.5 -0.4
v -0.5 0 0.5
v -0.4 0 0.5
v -0.3 0 0.5
v -0.1 0 0.5
v 0 0 0.5
v 0.2 0 0.5
v 0.3 0 0.5
v 0.4 0 0.5
v -0.5 0 0.4
v -0.4 0 0.4
v -0.3 0 0.4
v -0.1 0 0.4
v 0 0 0.4
v 0.2 0 0.4
v 0.3 0 0.4
v 0.4 0 0.4
v -0.5 0 0.3
v -0.4 0 0.3
v 0.3 0 0.3
v 0.4 0 0.3
v -0.5 0 0.1
v -0.4 0 0.1
v 0.3 0 0.1
v 0.4 0 0.1
v -0.5 0 0
v -0.4 0 0
v 0.3 0 0
v 0.4 0 0
v -0.5 0 -0.2
v -0.4 0 -0.2
v 0.3 0 -0.2
v 0.4 0 -0.2
v -0.5 0 -0.3
v -0.4 0 -0.3
v -0.3 0 -0.3
v -0.1 0 -0.3
v 0 0 -0.3
v 0.2 0 -0.3
v 0.3 0 -0.3
v 0.4 0 -0.3
v -0.5 0 -0.4
v -0.4 0 -0.4
v -0.3 0 -0.4
v -0.1 0 -0.4
v 0 0 -0.4
v 0.2 0 -0.4
v 0.3 0 -0.4
v 0.4 0 -0.4
v -0.3 0.3 0.5
v -0.1 0.3 0.5
v 0 0.3 0.5
v 0.2 0.3 0.5
v -0.3 0.3 0.4
v -0.1 0.3 0.4
v 0 0.3 0.4
v 0.2 0.3 0.4
v -0.5 0.3 0.3
v -0.4 0.3 0.3
v 0.3 0.3 0.3
v 0.4 0.3 0.3
v -0.5 0.3 0.2
v -0.4 0.3 0.2
v 0.3 0.3 0.2
v 0.4 0.3 0.2
v -0.5 0.3 -0.1
v -0.4 0.3 -0.1
v 0.3 0.3 -0.1
v 0.4 0.3 -0.1
v -0.5 0.3 -0.2
v -0.4 0.3 -0.2
v 0.3 0.3 -0.2
v 0.4 0.3 -0.2
v -0.3 0.3 -0.3
v -0.1 0.3 -0.3
v 0 0.3 -0.3
v 0.2 0.3 -0.3
v -0.3 0.3 -0.4
v -0.1 0.3 -0.4
v 0 0.3 -0.4
v 0.2 0.3 -0.4
v -0.4 0.4 0.5
v -0.3 0.4 0.5
v -0.1 0.4 0.5
v 0 0.4 0.5
v 0.2 0.4 0.5
v 0.3 0.4 0.5
v -0.5 0.4 0.4
v -0.4 0.4 0.4
v -0.3 0.4 0.4
v -0.1 0.4 0.4
v 0 0.4 0.4
v 0.2 0.4 0.4
v 0.3 0.4 0.4
v 0.4 0.4 0.4
v -0.5 0.4 0.3
v -0.4 0.4 0.3
v 0.3 0.4 0.3
v 0.4 0.4 0.3
v -0.5 0.4 0.2
v -0.4 0.4 0.2
v 0.3 0.4 0.2
v 0.4 0.4 0.2
v -0.5 0.4 0.1
v -0.4 0.4 0.1
v 0.3 0.4 0.1
v 0.4 0.4 0.1
v -0.5 0.4 0
v -0.4 0.4 0
v 0.3 0.4 0
v 0.4 0.4 0
v -0.5 0.4 -0.1
v -0.4 0.4 -0.1
v 0.3 0.4 -0.1
v 0.4 0.4 -0.1
v -0.5 0.4 -0.2
v -0.4 0.4 -0.2
v 0.3 0.4 -0.2
v 0.4 0.4 -0.2
v -0.5 0.4 -0.3
v -0.4 0.4 -0.3
v -0.3 0.4 -0.3
v -0.1 0.4 -0.3
v 0 0.4 -0.3
v 0.2 0.4 -0.3
v 0.3 0.4 -0.3
v 0.4 0.4 -0.3
v -0.4 0.4 -0.4
v -0.3 0.4 -0.4
v -0.1 0.4 -0.4
v 0 0.4 -0.4
v 0.2 0.4 -0.4
v 0.3 0.4 -0.4
v -0.5 0.5 0.5
v -0.4 0.5 0.5
v 0.3 0.5 0.5
v 0.4 0.5 0.5
v -0.5 0.5 0.4
v -0.4 0.5 0.4
v 0.3 0.5 0.4
v 0.4 0.5 0.4
v -0.5 0.5 0.1
v -0.4 0.5 0.1
v 0.3 0.5 0.1
v 0.4 0.5 0.1
v -0.5 0.5 0
v -0.4 0.5 0
v 0.3 0.5 0
v 0.4 0.5 0
v -0.5 0.5 -0.3
v -0.4 0.5 -0.3
v 0.3 0.5 -0.3
v 0.4 0.5 -0.3
v -0.5 0.5 -0.4
v -0.4 0.5 -0.4
v 0.3 0.5 -0.4
v 0.4 0.5 -0.4

# faces
f 9/4/1 2/4/1 1/4/1
f 10/5/1 3/5/1 2/5/1
f 10/4/1 2/4/1 9/4/1
f 11/4/1 4/4/1 3/4/1
f 11/5/1 3/5/1 10/5/1
f 12/4/1 4/4/1 11/4/1
f 13/5/1 5/5/1 4/5/1
f 13/4/1 4/4/1 12/4/1
f 14/4/1 6/4/1 5/4/1
f 14/5/1 5/5/1 13/5/1
f 15/4/1 6/4/1 14/4/1
f 16/5/1 7/5/1 6/5/1
f 16/4/1 6/4/1 15/4/1
f 17/4/1 8/4/1 7/4/1
f 17/5/1 7/5/1 16/5/1
f 18/4/1 8/4/1 17/4/1
f 19/2/1 10/2/1 9/2/1
f 19/2/1 12/2/1 11/2/1
f 19/2/1 11/2/1 10/2/1
f 20/2/1 12/2/1 19/2/1
f 21/1/1 13/1/1 12/1/1
f 21/2/1 12/2/1 20/2/1
f 21/1/1 15/1/1 14/1/1
f 21/1/1 14/1/1 13/1/1
f 22/1/1 15/1/1 21/1/1
f 23/1/1 15/1/1 22/1/1
f 24/2/1 16/2/1 15/2/1
f 24/1/1 15/1/1 23/1/1
f 24/2/1 18/2/1 17/2/1
f 24/2/1 17/2/1 16/2/1
f 25/2/1 18/2/1 24/2/1
f 26/2/1 18/2/1 25/2/1
f 27/5/1 22/5/1 21/5/1
f 27/5/1 21/5/1 20/5/1
f 28/5/1 22/5/1 27/5/1
f 29/3/1 23/3/1 22/3/1
f 29/5/1 22/5/1 28/5/1
f 30/5/1 24/5/1 23/5/1
f 30/3/1 23/3/1 29/3/1
f 30/5/1 25/5/1 24/5/1
f 31/5/1 25/5/1 30/5/1
f 32/5/1 25/5/1 31/5/1
f 33/4/1 20/4/1 19/4/1
f 33/5/1 27/5/1 20/5/1
f 34/5/1 27/5/1 33/5/1
f 35/5/1 31/5/1 30/5/1
f 35/5/1 29/5/1 28/5/1
f 35/5/1 30/5/1 29/5/1
f 36/5/1 31/5/1 35/5/1
f 37/5/1 31/5/1 36/5/1
f 38/5/1 31/5/1 37/5/1
f 39/5/1 25/5/1 32/5/1
f 40/4/1 26/4/1 25/4/1
f 40/5/1 25/5/1 39/5/1
f 41/4/1 33/4/1 19/4/1
f 42/4/1 33/4/1 41/4/1
f 43/5/1 37/5/1 36/5/1
f 44/5/1 37/5/1 43/5/1
f 45/4/1 26/4/1 40/4/1
f 46/4/1 26/4/1 45/4/1
f 51/4/1 48/4/1 47/4/1
f 52/4/1 48/4/1 51/4/1
f 53/4/1 50/4/1 49/4/1
f 54/4/1 50/4/1 53/4/1
f 59/5/1 56/5/1 55/5/1
f 60/5/1 56/5/1 59/5/1
f 61/5/1 58/5/1 57/5/1
f 62/5/1 58/5/1 61/5/1
f 69/5/1 64/5/1 63/5/1
f 70/4/1 65/4/1 64/4/1
f 70/5/1 64/5/1 69/5/1
f 71/4/1 65/4/1 70/4/1
f 72/5/1 66/5/1 65/5/1
f 72/4/1 65/4/1 71/4/1
f 73/4/1 67/4/1 66/4/1
f 73/5/1 66/5/1 72/5/1
f 74/4/1 67/4/1 73/4/1
f 75/5/1 68/5/1 67/5/1
f 75/4/1 67/4/1 74/4/1
f 76/5/1 68/5/1 75/5/1
f 77/2/1 71/2/1 70/2/1
f 77/2/1 70/2/1 69/2/1
f 78/1/1 74/1/1 73/1/1
f 78/2/1 71/2/1 77/2/1
f 78/1/1 72/1/1 71/1/1
f 78/1/1 73/1/1 72/1/1
f 79/1/1 74/1/1 78/1/1
f 80/1/1 74/1/1 79/1/1
f 81/2/1 75/2/1 74/2/1
f 81/1/1 74/1/1 80/1/1
f 81/2/1 76/2/1 75/2/1
f 82/2/1 76/2/1 81/2/1
f 83/5/1 79/5/1 78/5/1
f 83/5/1 78/5/1 77/5/1
f 84/5/1 79/5/1 83/5/1
f 85/3/1 80/3/1 79/3/1
f 85/5/1 79/5/1 84/5/1
f 86/5/1 82/5/1 81/5/1
f 86/3/1 80/3/1 85/3/1
f 86/5/1 81/5/1 80/5/1
f 87/5/1 82/5/1 86/5/1
f 88/5/1 82/5/1 87/5/1
f 90/5/1 83/5/1 77/5/1
f 91/5/1 83/5/1 90/5/1
f 92/5/1 85/5/1 84/5/1
f 92/5/1 87/5/1 86/5/1
f 92/5/1 86/5/1 85/5/1
f 93/5/1 87/5/1 92/5/1
f 94/5/1 87/5/1 93/5/1
f 95/5/1 87/5/1 94/5/1
f 96/5/1 82/5/1 88/5/1
f 97/5/1 82/5/1 96/5/1
f 99/4/1 90/4/1 89/4/1
f 100/4/1 90/4/1 99/4/1
f 101/5/1 94/5/1 93/5/1
f 102/5/1 94/5/1 101/5/1
f 103/4/1 98/4/1 97/4/1
f 104/4/1 98/4/1 103/4/1
f 105/5/2 106/5/2 111/5/2
f 106/4/2 107/4/2 112/4/2
f 111/5/2 106/5/2 112/5/2
f 112/4/2 107/4/2 113/4/2
f 107/5/2 108/5/2 114/5/2
f 113/4/2 107/4/2 114/4/2
f 108/4/2 109/4/2 115/4/2
f 114/5/2 108/5/2 115/5/2
f 115/4/2 109/4/2 116/4/2
f 109/5/2 110/5/2 117/5/2
f 116/4/2 109/4/2 117/4/2
f 117/5/2 110/5/2 118/5/2
f 112/2/2 113/2/2 119/2/2
f 111/2/2 112/2/2 119/2/2
f 115/1/2 116/1/2 120/1/2
f 119/2/2 113/2/2 120/2/2
f 113/1/2 114/1/2 120/1/2
f 114/1/2 115/1/2 120/1/2
f 120/1/2 116/1/2 121/1/2
f 121/1/2 116/1/2 122/1/2
f 116/2/2 117/2/2 123/2/2
f 122/1/2 116/1/2 123/1/2
f 117/2/2 118/2/2 123/2/2
f 123/2/2 118/2/2 124/2/2
f 120/5/2 121/5/2 125/5/2
f 119/5/2 120/5/2 125/5/2
f 125/5/2 121/5/2 126/5/2
f 121/3/2 122/3/2 127/3/2
f 126/5/2 121/5/2 127/5/2
f 123/5/2 124/5/2 128/5/2
f 127/3/2 122/3/2 128/3/2
f 122/5/2 123/5/2 128/5/2
f 128/5/2 124/5/2 129/5/2
f 129/5/2 124/5/2 130/5/2
f 119/5/2 125/5/2 132/5/2
f 132/5/2 125/5/2 133/5/2
f 126/5/2 127/5/2 134/5/2
f 128/5/2 129/5/2 134/5/2
f 127/5/2 128/5/2 134/5/2
f 134/5/2 129/5/2 135/5/2
f 135/5/2 129/5/2 136/5/2
f 136/5/2 129/5/2 137/5/2
f 130/5/2 124/5/2 138/5/2
f 138/5/2 124/5/2 139/5/2
f 131/4/2 132/4/2 141/4/2
f 141/4/2 132/4/2 142/4/2
f 135/5/2 136/5/2 143/5/2
f 143/5/2 136/5/2 144/5/2
f 139/4/2 140/4/2 145/4/2
f 145/4/2 140/4/2 146/4/2
f 147/5/2 148/5/2 151/5/2
f 151/5/2 148/5/2 152/5/2
f 149/5/2 150/5/2 153/5/2
f 153/5/2 150/5/2 154/5/2
f 155/4/2 156/4/2 159/4/2
f 159/4/2 156/4/2 160/4/2
f 157/4/2 158/4/2 161/4/2
f 161/4/2 158/4/2 162/4/2
f 163/4/2 164/4/2 171/4/2
f 164/5/2 165/5/2 172/5/2
f 171/4/2 164/4/2 172/4/2
f 165/4/2 166/4/2 173/4/2
f 172/5/2 165/5/2 173/5/2
f 173/4/2 166/4/2 174/4/2
f 166/5/2 167/5/2 175/5/2
f 174/4/2 166/4/2 175/4/2
f 167/4/2 168/4/2 176/4/2
f 175/5/2 167/5/2 176/5/2
f 176/4/2 168/4/2 177/4/2
f 168/5/2 169/5/2 178/5/2
f 177/4/2 168/4/2 178/4/2
f 169/4/2 170/4/2 179/4/2
f 178/5/2 169/5/2 179/5/2
f 179/4/2 170/4/2 180/4/2
f 171/2/2 172/2/2 181/2/2
f 173/2/2 174/2/2 181/2/2
f 172/2/2 173/2/2 181/2/2
f 181/2/2 174/2/2 182/2/2
f 174/1/2 175/1/2 183/1/2
f 182/2/2 174/2/2 183/2/2
f 176/1/2 177/1/2 183/1/2
f 175/1/2 176/1/2 183/1/2
f 183/1/2 177/1/2 184/1/2
f 184/1/2 177/1/2 185/1/2
f 177/2/2 178/2/2 186/2/2
f 185/1/2 177/1/2 186/1/2
f 179/2/2 180/2/2 186/2/2
f 178/2/2 179/2/2 186/2/2
f 186/2/2 180/2/2 187/2/2
f 187/2/2 180/2/2 188/2/2
f 183/5/2 184/5/2 189/5/2
f 182/5/2 183/5/2 189/5/2
f 189/5/2 184/5/2 190/5/2
f 184/3/2 185/3/2 191/3/2
f 190/5/2 184/5/2 191/5/2
f 185/5/2 186/5/2 192/5/2
f 191/3/2 185/3/2 192/3/2
f 186/5/2 187/5/2 192/5/2
f 192/5/2 187/5/2 193/5/2
f 193/5/2 187/5/2 194/5/2
f 181/4/2 182/4/2 195/4/2
f 182/5/2 189/5/2 195/5/2
f 195/5/2 189/5/2 196/5/2
f 192/5/2 193/5/2 197/5/2
f 190/5/2 191/5/2 197/5/2
f 191/5/2 192/5/2 197/5/2
f 197/5/2 193/5/2 198/5/2
f 198/5/2 193/5/2 199/5/2
f 199/5/2 193/5/2 200/5/2
f 194/5/2 187/5/2 201/5/2
f 187/4/2 188/4/2 202/4/2
f 201/5/2 187/5/2 202/5/2
f 181/4/2 195/4/2 203/4/2
f 203/4/2 195/4/2 204/4/2
f 198/5/2 199/5/2 205/5/2
f 205/5/2 199/5/2 206/5/2
f 202/4/2 188/4/2 207/4/2
f 207/4/2 188/4/2 208/4/2
f 213/4/3 210/4/3 209/4/3
f 214/2/3 211/2/3 210/2/3
f 214/4/3 210/4/3 213/4/3
f 215/4/3 212/4/3 211/4/3
f 215/2/3 211/2/3 214/2/3
f 216/4/3 212/4/3 215/4/3
f 217/4/3 212/4/3 216/4/3
f 218/5/3 214/5/3 213/5/3
f 219/2/3 215/2/3 214/2/3
f 219/5/3 214/5/3 218/5/3
f 220/5/3 216/5/3 215/5/3
f 221/5/3 216/5/3 220/5/3
f 222/4/3 219/4/3 218/4/3
f 223/2/3 215/2/3 219/2/3
f 223/4/3 219/4/3 222/4/3
f 224/5/3 220/5/3 215/5/3
f 226/5/3 223/5/3 222/5/3
f 227/2/3 215/2/3 223/2/3
f 227/5/3 223/5/3 226/5/3
f 228/4/3 225/4/3 224/4/3
f 228/5/3 224/5/3 215/5/3
f 229/4/3 225/4/3 228/4/3
f 230/4/3 227/4/3 226/4/3
f 231/2/3 215/2/3 227/2/3
f 231/4/3 227/4/3 230/4/3
f 232/5/3 228/5/3 215/5/3
f 234/5/3 231/5/3 230/5/3
f 235/2/3 215/2/3 231/2/3
f 235/5/3 231/5/3 234/5/3
f 236/5/3 233/5/3 232/5/3
f 236/2/3 215/2/3 235/2/3
f 236/5/3 232/5/3 215/5/3
f 237/5/3 233/5/3 236/5/3
f 239/4/3 235/4/3 234/4/3
f 240/2/3 236/2/3 235/2/3
f 240/4/3 235/4/3 239/4/3
f 241/4/3 237/4/3 236/4/3
f 241/2/3 236/2/3 240/2/3
f 241/4/3 238/4/3 237/4/3
f 242/4/3 238/4/3 241/4/3
f 245/5/3 244/5/3 243/5/3
f 246/5/3 244/5/3 245/5/3
f 249/5/3 248/5/3 247/5/3
f 250/5/3 248/5/3 249/5/3
f 253/5/3 252/5/3 251/5/3
f 254/5/3 252/5/3 253/5/3
f 257/5/3 256/5/3 255/5/3
f 258/5/3 256/5/3 257/5/3
f 261/5/3 260/5/3 259/5/3
f 262/5/3 260/5/3 261/5/3
f 265/5/3 264/5/3 263/5/3
f 266/5/3 264/5/3 265/5/3
f 272/4/3 268/4/3 267/4/3
f 273/4/3 268/4/3 272/4/3
f 274/5/3 270/5/3 269/5/3
f 275/2/3 271/2/3 270/2/3
f 275/5/3 270/5/3 274/5/3
f 276/5/3 272/5/3 271/5/3
f 277/5/3 272/5/3 276/5/3
f 278/4/3 275/4/3 274/4/3
f 279/2/3 271/2/3 275/2/3
f 279/4/3 275/4/3 278/4/3
f 280/5/3 276/5/3 271/5/3
f 282/5/3 279/5/3 278/5/3
f 283/2/3 271/2/3 279/2/3
f 283/5/3 279/5/3 282/5/3
f 284/4/3 281/4/3 280/4/3
f 284/5/3 280/5/3 271/5/3
f 285/4/3 281/4/3 284/4/3
f 286/4/3 283/4/3 282/4/3
f 287/2/3 271/2/3 283/2/3
f 287/4/3 283/4/3 286/4/3
f 288/5/3 284/5/3 271/5/3
f 290/5/3 287/5/3 286/5/3
f 291/2/3 271/2/3 287/2/3
f 291/5/3 287/5/3 290/5/3
f 292/5/3 289/5/3 288/5/3
f 292/2/3 271/2/3 291/2/3
f 292/5/3 288/5/3 271/5/3
f 293/5/3 289/5/3 292/5/3
f 295/4/3 294/4/3 293/4/3
f 296/4/3 294/4/3 295/4/3
f 297/4/4 298/4/4 302/4/4
f 302/4/4 298/4/4 303/4/4
f 299/5/4 300/5/4 304/5/4
f 300/2/4 301/2/4 305/2/4
f 304/5/4 300/5/4 305/5/4
f 301/5/4 302/5/4 306/5/4
f 306/5/4 302/5/4 307/5/4
f 304/4/4 305/4/4 308/4/4
f 305/2/4 301/2/4 309/2/4
f 308/4/4 305/4/4 309/4/4
f 301/5/4 306/5/4 310/5/4
f 308/5/4 309/5/4 312/5/4
f 309/2/4 301/2/4 313/2/4
f 312/5/4 309/5/4 313/5/4
f 310/4/4 311/4/4 314/4/4
f 301/5/4 310/5/4 314/5/4
f 314/4/4 311/4/4 315/4/4
f 312/4/4 313/4/4 316/4/4
f 313/2/4 301/2/4 317/2/4
f 316/4/4 313/4/4 317/4/4
f 301/5/4 314/5/4 318/5/4
f 316/5/4 317/5/4 320/5/4
f 317/2/4 301/2/4 321/2/4
f 320/5/4 317/5/4 321/5/4
f 318/5/4 319/5/4 322/5/4
f 321/2/4 301/2/4 322/2/4
f 301/5/4 318/5/4 322/5/4
f 322/5/4 319/5/4 323/5/4
f 323/4/4 324/4/4 325/4/4
f 325/4/4 324/4/4 326/4/4
f 327/5/4 328/5/4 329/5/4
f 329/5/4 328/5/4 330/5/4
f 331/5/4 332/5/4 333/5/4
f 333/5/4 332/5/4 334/5/4
f 335/5/4 336/5/4 337/5/4
f 337/5/4 336/5/4 338/5/4
f 339/5/4 340/5/4 341/5/4
f 341/5/4 340/5/4 342/5/4
f 343/5/4 344/5/4 345/5/4
f 345/5/4 344/5/4 346/5/4
f 347/5/4 348/5/4 349/5/4
f 349/5/4 348/5/4 350/5/4
f 351/4/4 352/4/4 355/4/4
f 352/2/4 353/2/4 356/2/4
f 355/4/4 352/4/4 356/4/4
f 353/4/4 354/4/4 357/4/4
f 356/2/4 353/2/4 357/2/4
f 357/4/4 354/4/4 358/4/4
f 358/4/4 354/4/4 359/4/4
f 355/5/4 356/5/4 360/5/4
f 356/2/4 357/2/4 361/2/4
f 360/5/4 356/5/4 361/5/4
f 357/5/4 358/5/4 362/5/4
f 362/5/4 358/5/4 363/5/4
f 360/4/4 361/4/4 364/4/4
f 361/2/4 357/2/4 365/2/4
f 364/4/4 361/4/4 365/4/4
f 357/5/4 362/5/4 366/5/4
f 364/5/4 365/5/4 368/5/4
f 365/2/4 357/2/4 369/2/4
f 368/5/4 365/5/4 369/5/4
f 366/4/4 367/4/4 370/4/4
f 357/5/4 366/5/4 370/5/4
f 370/4/4 367/4/4 371/4/4
f 368/4/4 369/4/4 372/4/4
f 369/2/4 357/2/4 373/2/4
f 372/4/4 369/4/4 373/4/4
f 357/5/4 370/5/4 374/5/4
f 372/5/4 373/5/4 376/5/4
f 373/2/4 357/2/4 377/2/4
f 376/5/4 373/5/4 377/5/4
f 374/5/4 375/5/4 378/5/4
f 377/2/4 357/2/4 378/2/4
f 357/5/4 374/5/4 378/5/4
f 378/5/4 375/5/4 379/5/4
f 376/4/4 377/4/4 381/4/4
f 377/2/4 378/2/4 382/2/4
f 381/4/4 377/4/4 382/4/4
f 378/4/4 379/4/4 383/4/4
f 382/2/4 378/2/4 383/2/4
f 379/4/4 380/4/4 383/4/4
f 383/4/4 380/4/4 384/4/4
f 393/4/5 386/4/5 385/4/5
f 394/5/5 387/5/5 386/5/5
f 394/4/5 386/4/5 393/4/5
f 395/4/5 388/4/5 387/4/5
f 395/5/5 387/5/5 394/5/5
f 396/5/5 389/5/5 388/5/5
f 396/4/5 388/4/5 395/4/5
f 397/4/5 390/4/5 389/4/5
f 397/5/5 389/5/5 396/5/5
f 398/5/5 391/5/5 390/5/5
f 398/4/5 390/4/5 397/4/5
f 399/4/5 392/4/5 391/4/5
f 399/5/5 391/5/5 398/5/5
f 400/4/5 392/4/5 399/4/5
f 401/5/5 394/5/5 393/5/5
f 402/5/5 394/5/5 401/5/5
f 403/5/5 400/5/5 399/5/5
f 404/5/5 400/5/5 403/5/5
f 405/4/5 402/4/5 401/4/5
f 406/4/5 402/4/5 405/4/5
f 407/4/5 404/4/5 403/4/5
f 408/4/5 404/4/5 407/4/5
f 409/5/5 406/5/5 405/5/5
f 410/5/5 406/5/5 409/5/5
f 411/5/5 408/5/5 407/5/5
f 412/5/5 408/5/5 411/5/5
f 413/4/5 410/4/5 409/4/5
f 414/4/5 410/4/5 413/4/5
f 415/4/5 412/4/5 411/4/5
f 416/4/5 412/4/5 415/4/5
f 417/5/5 414/5/5 413/5/5
f 418/5/5 414/5/5 417/5/5
f 423/5/5 416/5/5 415/5/5
f 424/5/5 416/5/5 423/5/5
f 425/4/5 418/4/5 417/4/5
f 426/5/5 419/5/5 418/5/5
f 426/4/5 418/4/5 425/4/5
f 427/4/5 420/4/5 419/4/5
f 427/5/5 419/5/5 426/5/5
f 428/5/5 421/5/5 420/5/5
f 428/4/5 420/4/5 427/4/5
f 429/4/5 422/4/5 421/4/5
f 429/5/5 421/5/5 428/5/5
f 430/5/5 423/5/5 422/5/5
f 430/4/5 422/4/5 429/4/5
f 431/4/5 424/4/5 423/4/5
f 431/5/5 423/5/5 430/5/5
f 432/4/5 424/4/5 431/4/5
f 433/5/6 434/5/6 437/5/6
f 437/5/6 434/5/6 438/5/6
f 435/5/6 436/5/6 439/5/6
f 439/5/6 436/5/6 440/5/6
f 441/5/6 442/5/6 445/5/6
f 445/5/6 442/5/6 446/5/6
f 443/5/6 444/5/6 447/5/6
f 447/5/6 444/5/6 448/5/6
f 449/5/6 450/5/6 453/5/6
f 453/5/6 450/5/6 454/5/6
f 451/5/6 452/5/6 455/5/6
f 455/5/6 452/5/6 456/5/6
f 457/5/6 458/5/6 461/5/6
f 461/5/6 458/5/6 462/5/6
f 459/5/6 460/5/6 463/5/6
f 463/5/6 460/5/6 464/5/6
f 465/5/6 466/5/6 472/5/6
f 472/5/6 466/5/6 473/5/6
f 467/4/6 468/4/6 474/4/6
f 474/4/6 468/4/6 475/4/6
f 469/5/6 470/5/6 476/5/6
f 476/5/6 470/5/6 477/5/6
f 471/5/6 472/5/6 479/5/6
f 479/5/6 472/5/6 480/5/6
f 477/5/6 478/5/6 481/5/6
f 481/5/6 478/5/6 482/5/6
f 483/5/6 484/5/6 487/5/6
f 487/5/6 484/5/6 488/5/6
f 485/5/6 486/5/6 489/5/6
f 489/5/6 486/5/6 490/5/6
f 491/5/6 492/5/6 495/5/6
f 495/5/6 492/5/6 496/5/6
f 493/5/6 494/5/6 497/5/6
f 497/5/6 494/5/6 498/5/6
f 499/5/6 500/5/6 503/5/6
f 503/5/6 500/5/6 504/5/6
f 501/5/6 502/5/6 509/5/6
f 509/5/6 502/5/6 510/5/6
f 504/5/6 505/5/6 511/5/6
f 511/5/6 505/5/6 512/5/6
f 506/4/6 507/4/6 513/4/6
f 513/4/6 507/4/6 514/4/6
f 508/5/6 509/5/6 515/5/6
f 515/5/6 509/5/6 516/5/6
f 517/4/6 518/4/6 521/4/6
f 521/4/6 518/4/6 522/4/6
f 519/4/6 520/4/6 523/4/6
f 523/4/6 520/4/6 524/4/6
f 525/5/6 526/5/6 529/5/6
f 529/5/6 526/5/6 530/5/6
f 527/5/6 528/5/6 531/5/6
f 531/5/6 528/5/6 532/5/6
f 533/4/6 534/4/6 537/4/6
f 537/4/6 534/4/6 538/4/6
f 535/4/6 536/4/6 539/4/6
f 539/4/6 536/4/6 540/4/6
