# MagicaVoxel @ Ephtracy

# group
o 

# material
mtllib tree.mtl
usemtl palette

# normals
vn -1 0 0
vn 1 0 0
vn 0 0 1
vn 0 0 -1
vn 0 -1 0
vn 0 1 0

# texcoords
vt 0.263672 0.5
vt 0.306641 0.5
vt 0.310547 0.5
vt 0.583984 0.5
vt 0.634766 0.5

# verts
v -0.8 0.9 0.8
v -0.8 0.9 -0.8
v -0.8 1.1 0.2
v -0.8 1.1 -0.4
v -0.8 1.2 0.2
v -0.8 1.2 -0.4
v -0.8 1.3 0.8
v -0.8 1.3 -0.8
v -0.6 1.3 0.6
v -0.6 1.3 -0.6
v -0.6 1.5 -5.96046e-08
v -0.6 1.5 -0.1
v -0.6 1.6 -5.96046e-08
v -0.6 1.6 -0.1
v -0.6 1.7 0.6
v -0.6 1.7 -0.6
v -0.5 1.7 0.5
v -0.5 1.7 -0.5
v -0.5 1.8 0.2
v -0.5 1.8 0.1
v -0.5 1.9 0.2
v -0.5 1.9 0.1
v -0.5 1.9 -0.1
v -0.5 1.9 -0.3
v -0.5 2 -0.1
v -0.5 2 -0.3
v -0.5 2.1 0.5
v -0.5 2.1 -0.5
v -0.4 2.1 0.4
v -0.4 2.1 -0.4
v -0.4 2.3 -5.96046e-08
v -0.4 2.3 -0.1
v -0.4 2.4 -5.96046e-08
v -0.4 2.4 -0.1
v -0.4 2.5 0.4
v -0.4 2.5 -0.4
v -0.3 2.5 0.3
v -0.3 2.5 -0.3
v -0.3 2.7 0.1
v -0.3 2.7 -5.96046e-08
v -0.3 2.8 0.1
v -0.3 2.8 -5.96046e-08
v -0.3 2.9 0.3
v -0.3 2.9 -0.3
v -0.2 0 0.2
v -0.2 0 0.1
v -0.2 0 -0.2
v -0.2 0.3 0.2
v -0.2 0.3 0.1
v -0.2 0.4 -0.1
v -0.2 0.4 -0.2
v -0.2 0.7 -0.1
v -0.2 0.7 -0.2
v -0.2 0.8 0.2
v -0.2 0.8 0.1
v -0.2 0.9 0.2
v -0.2 0.9 0.1
v -0.2 0.9 -0.2
v -0.2 2.9 0.2
v -0.2 2.9 -0.2
v -0.2 3 -0.1
v -0.2 3 -0.2
v -0.2 3.1 0.1
v -0.2 3.1 -5.96046e-08
v -0.2 3.1 -0.1
v -0.2 3.1 -0.2
v -0.2 3.2 0.1
v -0.2 3.2 -5.96046e-08
v -0.2 3.3 0.2
v -0.2 3.3 -0.2
v -0.1 3.3 0.1
v -0.1 3.3 -5.96046e-08
v -0.1 3.3 -0.1
v -0.1 3.5 0.1
v -0.1 3.5 -5.96046e-08
v -0.1 3.6 0.1
v -0.1 3.6 -0.1
v -0.1 3.7 0.1
v -0.1 3.7 -0.1
v 0.1 0.1 0.1
v 0.1 0.1 -5.96046e-08
v 0.1 0.1 -0.1
v 0.1 0.3 0.1
v 0.1 0.3 -5.96046e-08
v 0.1 0.9 0.1
v 0.1 0.9 -0.1
v -0.1 0.1 0.1
v -0.1 0.1 -0.1
v -0.1 0.9 0.1
v -0.1 0.9 -0.1
v 0.1 3.3 0.1
v 0.1 3.3 -0.1
v 0.1 3.6 0.1
v 0.1 3.6 -0.1
v 0.1 3.7 0.1
v 0.1 3.7 -0.1
v 0.2 0 0.2
v 0.2 0 0.1
v 0.2 0 -5.96046e-08
v 0.2 0 -0.2
v 0.2 0.1 -0.1
v 0.2 0.1 -0.2
v 0.2 0.3 0.1
v 0.2 0.3 -5.96046e-08
v 0.2 0.5 -0.1
v 0.2 0.5 -0.2
v 0.2 0.7 0.2
v 0.2 0.7 0.1
v 0.2 0.9 0.2
v 0.2 0.9 0.1
v 0.2 0.9 -0.2
v 0.2 2.9 0.2
v 0.2 2.9 -0.2
v 0.2 3.3 0.2
v 0.2 3.3 -0.2
v 0.3 2.5 0.3
v 0.3 2.5 -0.3
v 0.3 2.7 0.3
v 0.3 2.7 0.1
v 0.3 2.8 0.3
v 0.3 2.8 0.1
v 0.3 2.9 0.3
v 0.3 2.9 -0.3
v 0.4 2.1 0.4
v 0.4 2.1 -0.4
v 0.4 2.2 -0.2
v 0.4 2.2 -0.3
v 0.4 2.3 0.4
v 0.4 2.3 -5.96046e-08
v 0.4 2.3 -0.2
v 0.4 2.3 -0.3
v 0.4 2.4 0.4
v 0.4 2.4 -5.96046e-08
v 0.4 2.5 0.4
v 0.4 2.5 -0.4
v 0.5 1.7 0.5
v 0.5 1.7 -0.4
v 0.5 1.7 -0.5
v 0.5 1.8 0.1
v 0.5 1.8 -0.4
v 0.5 1.8 -0.5
v 0.5 1.9 0.1
v 0.5 1.9 -0.4
v 0.5 2.1 0.5
v 0.5 2.1 -0.5
v 0.6 1.3 0.6
v 0.6 1.3 -0.6
v 0.6 1.4 0.3
v 0.6 1.4 -0.2
v 0.6 1.5 0.3
v 0.6 1.5 -0.2
v 0.6 1.7 0.6
v 0.6 1.7 -0.6
v 0.8 0.9 0.8
v 0.8 0.9 -0.2
v 0.8 0.9 -0.6
v 0.8 0.9 -0.8
v 0.8 1 -0.2
v 0.8 1 -0.6
v 0.8 1.1 0.6
v 0.8 1.1 0.1
v 0.8 1.2 0.6
v 0.8 1.2 0.1
v 0.8 1.3 0.8
v 0.8 1.3 -0.8
v -0.8 0.9 0.8
v -0.8 1.3 0.8
v -0.6 1 0.8
v -0.6 1.1 0.8
v -0.1 1 0.8
v -0.1 1.1 0.8
v 0.3 0.9 0.8
v 0.3 1 0.8
v 0.6 0.9 0.8
v 0.6 1 0.8
v 0.8 0.9 0.8
v 0.8 1.3 0.8
v -0.6 1.3 0.6
v -0.6 1.7 0.6
v -0.3 1.5 0.6
v -0.3 1.6 0.6
v 0.2 1.5 0.6
v 0.2 1.6 0.6
v 0.6 1.3 0.6
v 0.6 1.7 0.6
v -0.5 1.7 0.5
v -0.5 2.1 0.5
v -0.4 1.8 0.5
v -0.4 1.9 0.5
v -0.3 1.8 0.5
v -0.3 1.9 0.5
v 5.96046e-08 2 0.5
v 5.96046e-08 2.1 0.5
v 0.2 2 0.5
v 0.2 2.1 0.5
v 0.5 1.7 0.5
v 0.5 2.1 0.5
v -0.4 2.1 0.4
v -0.4 2.5 0.4
v 5.96046e-08 2.1 0.4
v 0.2 2.1 0.4
v 0.3 2.3 0.4
v 0.3 2.4 0.4
v 0.4 2.1 0.4
v 0.4 2.3 0.4
v 0.4 2.4 0.4
v 0.4 2.5 0.4
v -0.3 2.5 0.3
v -0.3 2.9 0.3
v -0.2 2.6 0.3
v -0.2 2.7 0.3
v -0.1 2.6 0.3
v -0.1 2.7 0.3
v 0.2 2.7 0.3
v 0.2 2.8 0.3
v 0.3 2.5 0.3
v 0.3 2.7 0.3
v 0.3 2.8 0.3
v 0.3 2.9 0.3
v -0.2 0 0.2
v -0.2 0.3 0.2
v -0.2 0.8 0.2
v -0.2 0.9 0.2
v -0.2 2.9 0.2
v -0.2 3.3 0.2
v -0.1 0 0.2
v -0.1 0.3 0.2
v -0.1 0.8 0.2
v -0.1 0.9 0.2
v -0.1 3 0.2
v -0.1 3.1 0.2
v 5.96046e-08 3 0.2
v 5.96046e-08 3.1 0.2
v 0.1 0.7 0.2
v 0.1 0.9 0.2
v 0.2 0 0.2
v 0.2 0.7 0.2
v 0.2 0.9 0.2
v 0.2 2.9 0.2
v 0.2 3.3 0.2
v -0.1 3.3 0.1
v -0.1 3.5 0.1
v -0.1 3.6 0.1
v -0.1 3.7 0.1
v 5.96046e-08 3.3 0.1
v 5.96046e-08 3.5 0.1
v 0.1 3.3 0.1
v 0.1 3.6 0.1
v 0.1 3.7 0.1
v -0.1 0.1 -0.1
v -0.1 0.9 -0.1
v 0.1 0.1 -0.1
v 0.1 0.9 -0.1
v -0.1 0.1 0.1
v -0.1 0.9 0.1
v 0.1 0.1 0.1
v 0.1 0.3 0.1
v 0.1 0.9 0.1
v -0.1 3.3 -0.1
v -0.1 3.6 -0.1
v -0.1 3.7 -0.1
v 0.1 3.3 -0.1
v 0.1 3.6 -0.1
v 0.1 3.7 -0.1
v -0.2 0 -0.2
v -0.2 0.4 -0.2
v -0.2 0.7 -0.2
v -0.2 0.9 -0.2
v -0.2 2.9 -0.2
v -0.2 3 -0.2
v -0.2 3.1 -0.2
v -0.2 3.3 -0.2
v -0.1 0.4 -0.2
v -0.1 0.7 -0.2
v 5.96046e-08 3 -0.2
v 5.96046e-08 3.1 -0.2
v 0.1 0.1 -0.2
v 0.1 0.5 -0.2
v 0.2 0 -0.2
v 0.2 0.1 -0.2
v 0.2 0.5 -0.2
v 0.2 0.9 -0.2
v 0.2 2.9 -0.2
v 0.2 3.3 -0.2
v -0.3 2.5 -0.3
v -0.3 2.9 -0.3
v 0.1 2.6 -0.3
v 0.1 2.7 -0.3
v 0.2 2.6 -0.3
v 0.2 2.7 -0.3
v 0.3 2.5 -0.3
v 0.3 2.9 -0.3
v -0.4 2.1 -0.4
v -0.4 2.5 -0.4
v -0.3 2.3 -0.4
v -0.3 2.4 -0.4
v -0.1 2.3 -0.4
v -0.1 2.4 -0.4
v 0.1 2.2 -0.4
v 0.1 2.3 -0.4
v 0.2 2.2 -0.4
v 0.2 2.3 -0.4
v 0.4 2.1 -0.4
v 0.4 2.5 -0.4
v -0.5 1.7 -0.5
v -0.5 2.1 -0.5
v -0.2 1.9 -0.5
v -0.2 2 -0.5
v 0.1 1.9 -0.5
v 0.1 2 -0.5
v 0.2 1.7 -0.5
v 0.2 1.8 -0.5
v 0.5 1.7 -0.5
v 0.5 1.8 -0.5
v 0.5 2.1 -0.5
v -0.6 1.3 -0.6
v -0.6 1.7 -0.6
v -0.2 1.3 -0.6
v -0.2 1.4 -0.6
v -0.1 1.3 -0.6
v -0.1 1.4 -0.6
v 0.1 1.5 -0.6
v 0.1 1.6 -0.6
v 0.4 1.5 -0.6
v 0.4 1.6 -0.6
v 0.6 1.3 -0.6
v 0.6 1.7 -0.6
v -0.8 0.9 -0.8
v -0.8 1.3 -0.8
v -0.1 1.1 -0.8
v -0.1 1.2 -0.8
v 0.4 1.1 -0.8
v 0.4 1.2 -0.8
v 0.8 0.9 -0.8
v 0.8 1.3 -0.8
v -0.2 0 0.2
v -0.1 0 0.2
v 0.2 0 0.2
v -0.2 0 0.1
v -0.1 0 0.1
v 0.1 0 0.1
v 0.2 0 0.1
v 0.1 0 -5.96046e-08
v 0.2 0 -5.96046e-08
v -0.1 0 -0.1
v 0.1 0 -0.1
v -0.2 0 -0.2
v 0.2 0 -0.2
v -0.8 0.9 0.8
v 0.3 0.9 0.8
v 0.6 0.9 0.8
v 0.8 0.9 0.8
v 0.3 0.9 0.7
v 0.6 0.9 0.7
v -0.2 0.9 0.2
v -0.1 0.9 0.2
v 0.1 0.9 0.2
v 0.2 0.9 0.2
v -0.2 0.9 0.1
v -0.1 0.9 0.1
v 0.1 0.9 0.1
v 0.2 0.9 0.1
v -0.1 0.9 -0.1
v 0.1 0.9 -0.1
v -0.2 0.9 -0.2
v 0.2 0.9 -0.2
v 0.7 0.9 -0.2
v 0.8 0.9 -0.2
v 0.7 0.9 -0.6
v 0.8 0.9 -0.6
v -0.8 0.9 -0.8
v 0.8 0.9 -0.8
v -0.1 0.1 0.1
v 0.1 0.1 0.1
v 0.1 0.1 -5.96046e-08
v -0.1 0.1 -0.1
v 0.1 0.1 -0.1
v -0.8 1.3 0.8
v 0.8 1.3 0.8
v -0.6 1.3 0.6
v 0.6 1.3 0.6
v -0.6 1.3 -0.6
v -0.2 1.3 -0.6
v -0.1 1.3 -0.6
v 0.6 1.3 -0.6
v -0.8 1.3 -0.8
v 0.8 1.3 -0.8
v -0.6 1.7 0.6
v 0.6 1.7 0.6
v -0.5 1.7 0.5
v 0.5 1.7 0.5
v 0.5 1.7 -0.4
v -0.5 1.7 -0.5
v 0.2 1.7 -0.5
v 0.5 1.7 -0.5
v -0.6 1.7 -0.6
v 0.6 1.7 -0.6
v -0.5 2.1 0.5
v 5.96046e-08 2.1 0.5
v 0.2 2.1 0.5
v 0.5 2.1 0.5
v -0.4 2.1 0.4
v 5.96046e-08 2.1 0.4
v 0.2 2.1 0.4
v 0.4 2.1 0.4
v -0.4 2.1 -0.4
v 0.4 2.1 -0.4
v -0.5 2.1 -0.5
v 0.5 2.1 -0.5
v -0.4 2.5 0.4
v 0.4 2.5 0.4
v -0.3 2.5 0.3
v 0.3 2.5 0.3
v -0.3 2.5 -0.3
v 0.3 2.5 -0.3
v -0.4 2.5 -0.4
v 0.4 2.5 -0.4
v -0.3 2.9 0.3
v 0.3 2.9 0.3
v -0.2 2.9 0.2
v 0.2 2.9 0.2
v -0.2 2.9 -0.2
v 0.2 2.9 -0.2
v -0.3 2.9 -0.3
v 0.3 2.9 -0.3
v -0.2 3.3 0.2
v 0.2 3.3 0.2
v -0.1 3.3 0.1
v 5.96046e-08 3.3 0.1
v 0.1 3.3 0.1
v -0.1 3.3 -5.96046e-08
v -0.1 3.3 -0.1
v 0.1 3.3 -0.1
v -0.2 3.3 -0.2
v 0.2 3.3 -0.2
v -0.1 3.7 0.1
v 0.1 3.7 0.1
v -0.1 3.7 -0.1
v 0.1 3.7 -0.1

# faces
f 3/4/1 2/4/1 1/4/1
f 4/4/1 2/4/1 3/4/1
f 5/4/1 3/4/1 1/4/1
f 5/5/1 4/5/1 3/5/1
f 6/4/1 2/4/1 4/4/1
f 6/5/1 4/5/1 5/5/1
f 7/4/1 5/4/1 1/4/1
f 7/4/1 6/4/1 5/4/1
f 8/4/1 2/4/1 6/4/1
f 8/4/1 6/4/1 7/4/1
f 11/4/1 10/4/1 9/4/1
f 12/4/1 10/4/1 11/4/1
f 13/4/1 11/4/1 9/4/1
f 13/5/1 12/5/1 11/5/1
f 14/4/1 10/4/1 12/4/1
f 14/5/1 12/5/1 13/5/1
f 15/4/1 13/4/1 9/4/1
f 15/4/1 14/4/1 13/4/1
f 16/4/1 10/4/1 14/4/1
f 16/4/1 14/4/1 15/4/1
f 19/4/1 18/4/1 17/4/1
f 20/4/1 18/4/1 19/4/1
f 21/4/1 19/4/1 17/4/1
f 21/5/1 20/5/1 19/5/1
f 22/4/1 18/4/1 20/4/1
f 22/5/1 20/5/1 21/5/1
f 23/4/1 18/4/1 22/4/1
f 24/4/1 18/4/1 23/4/1
f 25/4/1 22/4/1 21/4/1
f 25/4/1 23/4/1 22/4/1
f 25/5/1 24/5/1 23/5/1
f 26/4/1 18/4/1 24/4/1
f 26/5/1 24/5/1 25/5/1
f 27/4/1 21/4/1 17/4/1
f 27/4/1 25/4/1 21/4/1
f 27/4/1 26/4/1 25/4/1
f 28/4/1 18/4/1 26/4/1
f 28/4/1 26/4/1 27/4/1
f 31/4/1 30/4/1 29/4/1
f 32/4/1 30/4/1 31/4/1
f 33/4/1 31/4/1 29/4/1
f 33/5/1 32/5/1 31/5/1
f 34/4/1 30/4/1 32/4/1
f 34/5/1 32/5/1 33/5/1
f 35/4/1 33/4/1 29/4/1
f 35/4/1 34/4/1 33/4/1
f 36/4/1 30/4/1 34/4/1
f 36/4/1 34/4/1 35/4/1
f 39/4/1 38/4/1 37/4/1
f 40/4/1 38/4/1 39/4/1
f 41/4/1 39/4/1 37/4/1
f 41/5/1 40/5/1 39/5/1
f 42/4/1 38/4/1 40/4/1
f 42/5/1 40/5/1 41/5/1
f 43/4/1 41/4/1 37/4/1
f 43/4/1 42/4/1 41/4/1
f 44/4/1 38/4/1 42/4/1
f 44/4/1 42/4/1 43/4/1
f 48/3/1 46/3/1 45/3/1
f 49/1/1 47/1/1 46/1/1
f 49/3/1 46/3/1 48/3/1
f 50/1/1 49/1/1 48/1/1
f 50/1/1 47/1/1 49/1/1
f 51/1/1 47/1/1 50/1/1
f 52/1/1 50/1/1 48/1/1
f 52/3/1 51/3/1 50/3/1
f 53/3/1 51/3/1 52/3/1
f 54/1/1 52/1/1 48/1/1
f 54/1/1 53/1/1 52/1/1
f 55/1/1 53/1/1 54/1/1
f 56/3/1 55/3/1 54/3/1
f 57/1/1 53/1/1 55/1/1
f 57/3/1 55/3/1 56/3/1
f 58/1/1 53/1/1 57/1/1
f 61/4/1 60/4/1 59/4/1
f 62/4/1 60/4/1 61/4/1
f 63/4/1 61/4/1 59/4/1
f 64/4/1 61/4/1 63/4/1
f 65/5/1 62/5/1 61/5/1
f 65/4/1 61/4/1 64/4/1
f 66/5/1 62/5/1 65/5/1
f 67/5/1 64/5/1 63/5/1
f 67/4/1 63/4/1 59/4/1
f 68/4/1 66/4/1 65/4/1
f 68/5/1 64/5/1 67/5/1
f 68/4/1 65/4/1 64/4/1
f 69/4/1 67/4/1 59/4/1
f 69/4/1 68/4/1 67/4/1
f 70/4/1 66/4/1 68/4/1
f 70/4/1 68/4/1 69/4/1
f 74/5/1 72/5/1 71/5/1
f 75/4/1 73/4/1 72/4/1
f 75/5/1 72/5/1 74/5/1
f 76/4/1 75/4/1 74/4/1
f 77/4/1 73/4/1 75/4/1
f 77/4/1 75/4/1 76/4/1
f 78/5/1 77/5/1 76/5/1
f 79/5/1 77/5/1 78/5/1
f 83/3/1 81/3/1 80/3/1
f 84/1/1 82/1/1 81/1/1
f 84/3/1 81/3/1 83/3/1
f 85/1/1 84/1/1 83/1/1
f 86/1/1 82/1/1 84/1/1
f 86/1/1 84/1/1 85/1/1
f 87/1/2 88/1/2 89/1/2
f 89/1/2 88/1/2 90/1/2
f 91/4/2 92/4/2 93/4/2
f 93/4/2 92/4/2 94/4/2
f 93/5/2 94/5/2 95/5/2
f 95/5/2 94/5/2 96/5/2
f 99/1/2 100/1/2 101/1/2
f 101/1/2 100/1/2 102/1/2
f 97/1/2 98/1/2 103/1/2
f 98/3/2 99/3/2 103/3/2
f 99/1/2 101/1/2 104/1/2
f 103/3/2 99/3/2 104/3/2
f 101/3/2 102/3/2 105/3/2
f 104/1/2 101/1/2 105/1/2
f 103/1/2 104/1/2 105/1/2
f 105/3/2 102/3/2 106/3/2
f 97/1/2 103/1/2 107/1/2
f 103/1/2 105/1/2 107/1/2
f 105/1/2 106/1/2 107/1/2
f 107/1/2 106/1/2 108/1/2
f 107/3/2 108/3/2 109/3/2
f 108/1/2 106/1/2 110/1/2
f 109/3/2 108/3/2 110/3/2
f 110/1/2 106/1/2 111/1/2
f 112/4/2 113/4/2 114/4/2
f 114/4/2 113/4/2 115/4/2
f 116/4/2 117/4/2 118/4/2
f 118/4/2 117/4/2 119/4/2
f 118/5/2 119/5/2 120/5/2
f 119/4/2 117/4/2 121/4/2
f 120/5/2 119/5/2 121/5/2
f 120/4/2 121/4/2 122/4/2
f 121/4/2 117/4/2 123/4/2
f 122/4/2 121/4/2 123/4/2
f 124/4/2 125/4/2 126/4/2
f 126/4/2 125/4/2 127/4/2
f 124/4/2 126/4/2 128/4/2
f 128/4/2 126/4/2 129/4/2
f 126/5/2 127/5/2 130/5/2
f 129/4/2 126/4/2 130/4/2
f 127/4/2 125/4/2 131/4/2
f 130/5/2 127/5/2 131/5/2
f 128/5/2 129/5/2 132/5/2
f 129/4/2 130/4/2 133/4/2
f 132/5/2 129/5/2 133/5/2
f 130/4/2 131/4/2 133/4/2
f 132/4/2 133/4/2 134/4/2
f 131/4/2 125/4/2 135/4/2
f 134/4/2 133/4/2 135/4/2
f 133/4/2 131/4/2 135/4/2
f 136/4/2 137/4/2 139/4/2
f 137/5/2 138/5/2 140/5/2
f 139/4/2 137/4/2 140/4/2
f 140/5/2 138/5/2 141/5/2
f 136/4/2 139/4/2 142/4/2
f 139/5/2 140/5/2 142/5/2
f 140/4/2 141/4/2 143/4/2
f 142/5/2 140/5/2 143/5/2
f 136/4/2 142/4/2 144/4/2
f 142/4/2 143/4/2 144/4/2
f 143/4/2 141/4/2 145/4/2
f 144/4/2 143/4/2 145/4/2
f 146/4/2 147/4/2 148/4/2
f 148/4/2 147/4/2 149/4/2
f 146/4/2 148/4/2 150/4/2
f 148/5/2 149/5/2 150/5/2
f 149/4/2 147/4/2 151/4/2
f 150/5/2 149/5/2 151/5/2
f 146/4/2 150/4/2 152/4/2
f 150/4/2 151/4/2 152/4/2
f 151/4/2 147/4/2 153/4/2
f 152/4/2 151/4/2 153/4/2
f 154/4/2 155/4/2 158/4/2
f 155/5/2 156/5/2 158/5/2
f 156/4/2 157/4/2 159/4/2
f 158/5/2 156/5/2 159/5/2
f 154/4/2 158/4/2 160/4/2
f 158/4/2 159/4/2 160/4/2
f 160/4/2 159/4/2 161/4/2
f 154/4/2 160/4/2 162/4/2
f 160/5/2 161/5/2 162/5/2
f 161/4/2 159/4/2 163/4/2
f 162/5/2 161/5/2 163/5/2
f 154/4/2 162/4/2 164/4/2
f 162/4/2 163/4/2 164/4/2
f 159/4/2 157/4/2 165/4/2
f 164/4/2 163/4/2 165/4/2
f 163/4/2 159/4/2 165/4/2
f 168/4/3 167/4/3 166/4/3
f 169/4/3 167/4/3 168/4/3
f 170/4/3 168/4/3 166/4/3
f 170/5/3 169/5/3 168/5/3
f 171/4/3 167/4/3 169/4/3
f 171/5/3 169/5/3 170/5/3
f 172/4/3 170/4/3 166/4/3
f 172/4/3 171/4/3 170/4/3
f 173/4/3 171/4/3 172/4/3
f 174/5/3 173/5/3 172/5/3
f 175/4/3 171/4/3 173/4/3
f 175/5/3 173/5/3 174/5/3
f 176/4/3 175/4/3 174/4/3
f 177/4/3 167/4/3 171/4/3
f 177/4/3 175/4/3 176/4/3
f 177/4/3 171/4/3 175/4/3
f 180/4/3 179/4/3 178/4/3
f 181/4/3 179/4/3 180/4/3
f 182/4/3 180/4/3 178/4/3
f 182/5/3 181/5/3 180/5/3
f 183/4/3 179/4/3 181/4/3
f 183/5/3 181/5/3 182/5/3
f 184/4/3 182/4/3 178/4/3
f 184/4/3 183/4/3 182/4/3
f 185/4/3 179/4/3 183/4/3
f 185/4/3 183/4/3 184/4/3
f 188/4/3 187/4/3 186/4/3
f 189/4/3 187/4/3 188/4/3
f 190/4/3 188/4/3 186/4/3
f 190/5/3 189/5/3 188/5/3
f 191/4/3 187/4/3 189/4/3
f 191/5/3 189/5/3 190/5/3
f 192/4/3 191/4/3 190/4/3
f 192/4/3 187/4/3 191/4/3
f 193/4/3 187/4/3 192/4/3
f 194/4/3 192/4/3 190/4/3
f 194/5/3 193/5/3 192/5/3
f 195/5/3 193/5/3 194/5/3
f 196/4/3 190/4/3 186/4/3
f 196/4/3 194/4/3 190/4/3
f 196/4/3 195/4/3 194/4/3
f 197/4/3 195/4/3 196/4/3
f 200/4/3 199/4/3 198/4/3
f 201/4/3 199/4/3 200/4/3
f 202/4/3 199/4/3 201/4/3
f 203/4/3 199/4/3 202/4/3
f 204/4/3 202/4/3 201/4/3
f 205/5/3 203/5/3 202/5/3
f 205/4/3 202/4/3 204/4/3
f 206/4/3 199/4/3 203/4/3
f 206/5/3 203/5/3 205/5/3
f 207/4/3 199/4/3 206/4/3
f 210/4/3 209/4/3 208/4/3
f 211/4/3 209/4/3 210/4/3
f 212/4/3 210/4/3 208/4/3
f 212/5/3 211/5/3 210/5/3
f 213/4/3 209/4/3 211/4/3
f 213/5/3 211/5/3 212/5/3
f 214/4/3 213/4/3 212/4/3
f 214/4/3 209/4/3 213/4/3
f 215/4/3 209/4/3 214/4/3
f 216/4/3 212/4/3 208/4/3
f 216/4/3 214/4/3 212/4/3
f 217/5/3 215/5/3 214/5/3
f 217/4/3 214/4/3 216/4/3
f 218/4/3 209/4/3 215/4/3
f 218/5/3 215/5/3 217/5/3
f 219/4/3 209/4/3 218/4/3
f 226/3/3 221/3/3 220/3/3
f 227/1/3 222/1/3 221/1/3
f 227/3/3 221/3/3 226/3/3
f 228/3/3 223/3/3 222/3/3
f 228/1/3 222/1/3 227/1/3
f 229/3/3 223/3/3 228/3/3
f 230/4/3 225/4/3 224/4/3
f 231/4/3 225/4/3 230/4/3
f 232/4/3 230/4/3 224/4/3
f 232/5/3 231/5/3 230/5/3
f 233/4/3 225/4/3 231/4/3
f 233/5/3 231/5/3 232/5/3
f 234/1/3 229/1/3 228/1/3
f 234/1/3 227/1/3 226/1/3
f 234/1/3 228/1/3 227/1/3
f 235/1/3 229/1/3 234/1/3
f 236/1/3 234/1/3 226/1/3
f 237/3/3 235/3/3 234/3/3
f 237/1/3 234/1/3 236/1/3
f 238/3/3 235/3/3 237/3/3
f 239/4/3 233/4/3 232/4/3
f 239/4/3 232/4/3 224/4/3
f 240/4/3 225/4/3 233/4/3
f 240/4/3 233/4/3 239/4/3
f 245/5/3 242/5/3 241/5/3
f 246/4/3 243/4/3 242/4/3
f 246/5/3 242/5/3 245/5/3
f 247/4/3 246/4/3 245/4/3
f 248/5/3 244/5/3 243/5/3
f 248/4/3 246/4/3 247/4/3
f 248/4/3 243/4/3 246/4/3
f 249/5/3 244/5/3 248/5/3
f 252/1/3 251/1/3 250/1/3
f 253/1/3 251/1/3 252/1/3
f 254/1/4 255/1/4 256/1/4
f 256/1/4 255/1/4 257/1/4
f 257/1/4 255/1/4 258/1/4
f 259/4/4 260/4/4 262/4/4
f 260/5/4 261/5/4 263/5/4
f 262/4/4 260/4/4 263/4/4
f 263/5/4 261/5/4 264/5/4
f 265/1/4 266/1/4 273/1/4
f 266/3/4 267/3/4 273/3/4
f 267/1/4 268/1/4 274/1/4
f 273/3/4 267/3/4 274/3/4
f 270/5/4 271/5/4 275/5/4
f 269/4/4 270/4/4 275/4/4
f 271/4/4 272/4/4 276/4/4
f 275/5/4 271/5/4 276/5/4
f 265/1/4 273/1/4 277/1/4
f 273/1/4 274/1/4 277/1/4
f 277/1/4 274/1/4 278/1/4
f 265/1/4 277/1/4 279/1/4
f 277/3/4 278/3/4 280/3/4
f 279/1/4 277/1/4 280/1/4
f 278/1/4 274/1/4 281/1/4
f 280/3/4 278/3/4 281/3/4
f 274/1/4 268/1/4 282/1/4
f 281/1/4 274/1/4 282/1/4
f 269/4/4 275/4/4 283/4/4
f 275/4/4 276/4/4 283/4/4
f 276/4/4 272/4/4 284/4/4
f 283/4/4 276/4/4 284/4/4
f 285/4/4 286/4/4 287/4/4
f 287/4/4 286/4/4 288/4/4
f 285/4/4 287/4/4 289/4/4
f 287/5/4 288/5/4 289/5/4
f 288/4/4 286/4/4 290/4/4
f 289/5/4 288/5/4 290/5/4
f 285/4/4 289/4/4 291/4/4
f 289/4/4 290/4/4 291/4/4
f 290/4/4 286/4/4 292/4/4
f 291/4/4 290/4/4 292/4/4
f 293/4/4 294/4/4 295/4/4
f 295/4/4 294/4/4 296/4/4
f 293/4/4 295/4/4 297/4/4
f 295/5/4 296/5/4 297/5/4
f 296/4/4 294/4/4 298/4/4
f 297/5/4 296/5/4 298/5/4
f 293/4/4 297/4/4 299/4/4
f 297/4/4 298/4/4 299/4/4
f 299/4/4 298/4/4 300/4/4
f 293/4/4 299/4/4 301/4/4
f 299/5/4 300/5/4 301/5/4
f 300/4/4 298/4/4 302/4/4
f 301/5/4 300/5/4 302/5/4
f 293/4/4 301/4/4 303/4/4
f 301/4/4 302/4/4 303/4/4
f 298/4/4 294/4/4 304/4/4
f 303/4/4 302/4/4 304/4/4
f 302/4/4 298/4/4 304/4/4
f 305/4/4 306/4/4 307/4/4
f 307/4/4 306/4/4 308/4/4
f 305/4/4 307/4/4 309/4/4
f 307/5/4 308/5/4 309/5/4
f 308/4/4 306/4/4 310/4/4
f 309/5/4 308/5/4 310/5/4
f 305/4/4 309/4/4 311/4/4
f 309/4/4 310/4/4 311/4/4
f 311/4/4 310/4/4 312/4/4
f 311/5/4 312/5/4 313/5/4
f 312/4/4 310/4/4 314/4/4
f 313/5/4 312/5/4 314/5/4
f 310/4/4 306/4/4 315/4/4
f 314/4/4 310/4/4 315/4/4
f 316/4/4 317/4/4 318/4/4
f 318/4/4 317/4/4 319/4/4
f 318/5/4 319/5/4 320/5/4
f 319/4/4 317/4/4 321/4/4
f 320/5/4 319/5/4 321/5/4
f 320/4/4 321/4/4 322/4/4
f 321/4/4 317/4/4 322/4/4
f 322/4/4 317/4/4 323/4/4
f 320/4/4 322/4/4 324/4/4
f 322/5/4 323/5/4 324/5/4
f 323/4/4 317/4/4 325/4/4
f 324/5/4 323/5/4 325/5/4
f 320/4/4 324/4/4 326/4/4
f 324/4/4 325/4/4 326/4/4
f 325/4/4 317/4/4 327/4/4
f 326/4/4 325/4/4 327/4/4
f 328/4/4 329/4/4 330/4/4
f 330/4/4 329/4/4 331/4/4
f 328/4/4 330/4/4 332/4/4
f 330/5/4 331/5/4 332/5/4
f 331/4/4 329/4/4 333/4/4
f 332/5/4 331/5/4 333/5/4
f 328/4/4 332/4/4 334/4/4
f 332/4/4 333/4/4 334/4/4
f 333/4/4 329/4/4 335/4/4
f 334/4/4 333/4/4 335/4/4
f 339/3/5 337/3/5 336/3/5
f 340/1/5 338/1/5 337/1/5
f 340/3/5 337/3/5 339/3/5
f 341/1/5 338/1/5 340/1/5
f 342/1/5 338/1/5 341/1/5
f 343/2/5 341/2/5 340/2/5
f 343/3/5 342/3/5 341/3/5
f 344/3/5 342/3/5 343/3/5
f 345/1/5 340/1/5 339/1/5
f 345/2/5 343/2/5 340/2/5
f 346/1/5 344/1/5 343/1/5
f 346/2/5 343/2/5 345/2/5
f 347/1/5 345/1/5 339/1/5
f 347/1/5 346/1/5 345/1/5
f 348/1/5 344/1/5 346/1/5
f 348/1/5 346/1/5 347/1/5
f 353/4/5 350/4/5 349/4/5
f 353/5/5 351/5/5 350/5/5
f 354/4/5 352/4/5 351/4/5
f 354/5/5 351/5/5 353/5/5
f 355/4/5 353/4/5 349/4/5
f 355/4/5 354/4/5 353/4/5
f 356/4/5 354/4/5 355/4/5
f 357/4/5 354/4/5 356/4/5
f 358/4/5 354/4/5 357/4/5
f 359/4/5 355/4/5 349/4/5
f 362/4/5 354/4/5 358/4/5
f 363/4/5 361/4/5 360/4/5
f 364/4/5 361/4/5 363/4/5
f 365/4/5 359/4/5 349/4/5
f 366/4/5 354/4/5 362/4/5
f 367/4/5 352/4/5 354/4/5
f 367/4/5 354/4/5 366/4/5
f 368/4/5 352/4/5 367/4/5
f 369/4/5 366/4/5 365/4/5
f 369/4/5 367/4/5 366/4/5
f 369/5/5 368/5/5 367/5/5
f 370/5/5 368/5/5 369/5/5
f 371/4/5 365/4/5 349/4/5
f 371/4/5 369/4/5 365/4/5
f 371/4/5 370/4/5 369/4/5
f 372/4/5 370/4/5 371/4/5
f 373/2/6 374/2/6 375/2/6
f 373/2/6 375/2/6 376/2/6
f 376/2/6 375/2/6 377/2/6
f 378/4/6 379/4/6 380/4/6
f 380/4/6 379/4/6 381/4/6
f 378/4/6 380/4/6 382/4/6
f 381/4/6 379/4/6 385/4/6
f 383/4/6 384/4/6 386/4/6
f 384/4/6 385/4/6 386/4/6
f 378/4/6 382/4/6 386/4/6
f 382/4/6 383/4/6 386/4/6
f 385/4/6 379/4/6 387/4/6
f 386/4/6 385/4/6 387/4/6
f 388/4/6 389/4/6 390/4/6
f 390/4/6 389/4/6 391/4/6
f 391/4/6 389/4/6 392/4/6
f 388/4/6 390/4/6 393/4/6
f 392/4/6 389/4/6 395/4/6
f 393/4/6 394/4/6 396/4/6
f 394/4/6 395/4/6 396/4/6
f 388/4/6 393/4/6 396/4/6
f 395/4/6 389/4/6 397/4/6
f 396/4/6 395/4/6 397/4/6
f 398/4/6 399/4/6 402/4/6
f 399/5/6 400/5/6 403/5/6
f 402/4/6 399/4/6 403/4/6
f 400/4/6 401/4/6 404/4/6
f 403/5/6 400/5/6 404/5/6
f 404/4/6 401/4/6 405/4/6
f 398/4/6 402/4/6 406/4/6
f 405/4/6 401/4/6 407/4/6
f 398/4/6 406/4/6 408/4/6
f 406/4/6 407/4/6 408/4/6
f 407/4/6 401/4/6 409/4/6
f 408/4/6 407/4/6 409/4/6
f 410/4/6 411/4/6 412/4/6
f 412/4/6 411/4/6 413/4/6
f 410/4/6 412/4/6 414/4/6
f 413/4/6 411/4/6 415/4/6
f 410/4/6 414/4/6 416/4/6
f 414/4/6 415/4/6 416/4/6
f 415/4/6 411/4/6 417/4/6
f 416/4/6 415/4/6 417/4/6
f 418/4/6 419/4/6 420/4/6
f 420/4/6 419/4/6 421/4/6
f 418/4/6 420/4/6 422/4/6
f 421/4/6 419/4/6 423/4/6
f 418/4/6 422/4/6 424/4/6
f 422/4/6 423/4/6 424/4/6
f 423/4/6 419/4/6 425/4/6
f 424/4/6 423/4/6 425/4/6
f 426/4/6 427/4/6 428/4/6
f 428/4/6 427/4/6 429/4/6
f 429/4/6 427/4/6 430/4/6
f 426/4/6 428/4/6 431/4/6
f 426/4/6 431/4/6 432/4/6
f 430/4/6 427/4/6 433/4/6
f 426/4/6 432/4/6 434/4/6
f 432/4/6 433/4/6 434/4/6
f 433/4/6 427/4/6 435/4/6
f 434/4/6 433/4/6 435/4/6
f 436/5/6 437/5/6 438/5/6
f 438/5/6 437/5/6 439/5/6
