# MagicaVoxel @ Ephtracy

# group
o 

# material
mtllib tree4.mtl
usemtl palette

# normals
vn -1 0 0
vn 1 0 0
vn 0 0 1
vn 0 0 -1
vn 0 -1 0
vn 0 1 0

# texcoords
vt 0.982422 0.5
vt 0.990234 0.5

# verts
v -0.8 0.5 0.5
v -0.8 0.5 -0.5
v -0.8 0.6 0.5
v -0.8 0.6 -0.5
v -0.7 0.6 0.4
v -0.7 0.6 -0.4
v -0.7 0.7 0.4
v -0.7 0.7 -0.4
v -0.7 0.9 0.4
v -0.7 0.9 -0.4
v -0.7 1 0.4
v -0.7 1 -0.4
v -0.6 0.7 0.3
v -0.6 0.7 -0.3
v -0.6 0.8 0.3
v -0.6 0.8 -0.3
v -0.6 1 0.3
v -0.6 1 -0.3
v -0.6 1.1 0.3
v -0.6 1.1 -0.3
v -0.5 0 0.1
v -0.5 0 -0.1
v -0.5 0.5 0.1
v -0.5 0.5 -0.1
v -0.5 0.8 0.1
v -0.5 0.8 -0.1
v -0.5 0.9 0.1
v -0.5 0.9 -0.1
v -0.5 1.1 0.2
v -0.5 1.1 -0.2
v -0.5 1.2 0.2
v -0.5 1.2 -0.2
v -0.5 1.3 0.2
v -0.5 1.3 -0.2
v -0.5 1.4 0.2
v -0.5 1.4 -0.2
v -0.4 0 0.2
v -0.4 0 0.1
v -0.4 0 -0.1
v -0.4 0 -0.2
v -0.4 0.5 0.2
v -0.4 0.5 0.1
v -0.4 0.5 -0.1
v -0.4 0.5 -0.2
v -0.4 0.8 0.2
v -0.4 0.8 0.1
v -0.4 0.8 -0.1
v -0.4 0.8 -0.2
v -0.4 0.9 0.2
v -0.4 0.9 0.1
v -0.4 0.9 -0.1
v -0.4 0.9 -0.2
v -0.4 1.2 0.1
v -0.4 1.2 -0.1
v -0.4 1.3 0.1
v -0.4 1.3 -0.1
v -0.4 1.4 0.1
v -0.4 1.4 -0.1
v -0.4 1.5 0.1
v -0.4 1.5 -0.1
v -0.2 0 0.2
v -0.2 0 0.1
v -0.2 0 -0.1
v -0.2 0 -0.2
v -0.2 0.5 0.2
v -0.2 0.5 0.1
v -0.2 0.5 -0.1
v -0.2 0.5 -0.2
v -0.2 0.8 0.2
v -0.2 0.8 0.1
v -0.2 0.8 -0.1
v -0.2 0.8 -0.2
v -0.2 0.9 0.2
v -0.2 0.9 0.1
v -0.2 0.9 -0.1
v -0.2 0.9 -0.2
v -0.2 1.2 0.1
v -0.2 1.2 -0.1
v -0.2 1.3 0.1
v -0.2 1.3 -0.1
v -0.2 1.4 0.1
v -0.2 1.4 -0.1
v -0.2 1.5 0.1
v -0.2 1.5 -0.1
v -0.1 0 0.1
v -0.1 0 -0.1
v -0.1 0.5 0.1
v -0.1 0.5 -0.1
v -0.1 0.8 0.1
v -0.1 0.8 -0.1
v -0.1 0.9 0.1
v -0.1 0.9 -0.1
v -0.1 1.1 0.2
v -0.1 1.1 -0.2
v -0.1 1.2 0.2
v -0.1 1.2 -0.2
v -0.1 1.3 0.2
v -0.1 1.3 -0.2
v -0.1 1.4 0.2
v -0.1 1.4 -0.2
v 5.96046e-08 0.7 0.3
v 5.96046e-08 0.7 -0.3
v 5.96046e-08 0.8 0.3
v 5.96046e-08 0.8 -0.3
v 5.96046e-08 1 0.3
v 5.96046e-08 1 -0.3
v 5.96046e-08 1.1 0.3
v 5.96046e-08 1.1 -0.3
v 0.1 0.6 0.4
v 0.1 0.6 -0.4
v 0.1 0.7 0.4
v 0.1 0.7 -0.4
v 0.1 0.9 0.4
v 0.1 0.9 -0.4
v 0.1 1 0.4
v 0.1 1 -0.4
v 0.2 0.5 0.5
v 0.2 0.5 -0.5
v 0.2 0.6 0.5
v 0.2 0.6 -0.5
v -0.8 0.5 0.5
v -0.8 0.6 0.5
v 0.2 0.5 0.5
v 0.2 0.6 0.5
v -0.7 0.6 0.4
v -0.7 0.7 0.4
v -0.7 0.9 0.4
v -0.7 1 0.4
v 0.1 0.6 0.4
v 0.1 0.7 0.4
v 0.1 0.9 0.4
v 0.1 1 0.4
v -0.6 0.7 0.3
v -0.6 0.8 0.3
v -0.6 1 0.3
v -0.6 1.1 0.3
v 5.96046e-08 0.7 0.3
v 5.96046e-08 0.8 0.3
v 5.96046e-08 1 0.3
v 5.96046e-08 1.1 0.3
v -0.5 1.1 0.2
v -0.5 1.2 0.2
v -0.5 1.3 0.2
v -0.5 1.4 0.2
v -0.4 0 0.2
v -0.4 0.5 0.2
v -0.4 0.8 0.2
v -0.4 0.9 0.2
v -0.2 0 0.2
v -0.2 0.5 0.2
v -0.2 0.8 0.2
v -0.2 0.9 0.2
v -0.1 1.1 0.2
v -0.1 1.2 0.2
v -0.1 1.3 0.2
v -0.1 1.4 0.2
v -0.5 0 0.1
v -0.5 0.5 0.1
v -0.5 0.8 0.1
v -0.5 0.9 0.1
v -0.4 0 0.1
v -0.4 0.5 0.1
v -0.4 0.8 0.1
v -0.4 0.9 0.1
v -0.4 1.2 0.1
v -0.4 1.3 0.1
v -0.4 1.4 0.1
v -0.4 1.5 0.1
v -0.2 0 0.1
v -0.2 0.5 0.1
v -0.2 0.8 0.1
v -0.2 0.9 0.1
v -0.2 1.2 0.1
v -0.2 1.3 0.1
v -0.2 1.4 0.1
v -0.2 1.5 0.1
v -0.1 0 0.1
v -0.1 0.5 0.1
v -0.1 0.8 0.1
v -0.1 0.9 0.1
v -0.5 0 -0.1
v -0.5 0.5 -0.1
v -0.5 0.8 -0.1
v -0.5 0.9 -0.1
v -0.4 0 -0.1
v -0.4 0.5 -0.1
v -0.4 0.8 -0.1
v -0.4 0.9 -0.1
v -0.4 1.2 -0.1
v -0.4 1.3 -0.1
v -0.4 1.4 -0.1
v -0.4 1.5 -0.1
v -0.2 0 -0.1
v -0.2 0.5 -0.1
v -0.2 0.8 -0.1
v -0.2 0.9 -0.1
v -0.2 1.2 -0.1
v -0.2 1.3 -0.1
v -0.2 1.4 -0.1
v -0.2 1.5 -0.1
v -0.1 0 -0.1
v -0.1 0.5 -0.1
v -0.1 0.8 -0.1
v -0.1 0.9 -0.1
v -0.5 1.1 -0.2
v -0.5 1.2 -0.2
v -0.5 1.3 -0.2
v -0.5 1.4 -0.2
v -0.4 0 -0.2
v -0.4 0.5 -0.2
v -0.4 0.8 -0.2
v -0.4 0.9 -0.2
v -0.2 0 -0.2
v -0.2 0.5 -0.2
v -0.2 0.8 -0.2
v -0.2 0.9 -0.2
v -0.1 1.1 -0.2
v -0.1 1.2 -0.2
v -0.1 1.3 -0.2
v -0.1 1.4 -0.2
v -0.6 0.7 -0.3
v -0.6 0.8 -0.3
v -0.6 1 -0.3
v -0.6 1.1 -0.3
v 5.96046e-08 0.7 -0.3
v 5.96046e-08 0.8 -0.3
v 5.96046e-08 1 -0.3
v 5.96046e-08 1.1 -0.3
v -0.7 0.6 -0.4
v -0.7 0.7 -0.4
v -0.7 0.9 -0.4
v -0.7 1 -0.4
v 0.1 0.6 -0.4
v 0.1 0.7 -0.4
v 0.1 0.9 -0.4
v 0.1 1 -0.4
v -0.8 0.5 -0.5
v -0.8 0.6 -0.5
v 0.2 0.5 -0.5
v 0.2 0.6 -0.5
v -0.4 0 0.2
v -0.2 0 0.2
v -0.5 0 0.1
v -0.4 0 0.1
v -0.2 0 0.1
v -0.1 0 0.1
v -0.5 0 -0.1
v -0.4 0 -0.1
v -0.2 0 -0.1
v -0.1 0 -0.1
v -0.4 0 -0.2
v -0.2 0 -0.2
v -0.8 0.5 0.5
v 0.2 0.5 0.5
v -0.4 0.5 0.2
v -0.2 0.5 0.2
v -0.5 0.5 0.1
v -0.4 0.5 0.1
v -0.2 0.5 0.1
v -0.1 0.5 0.1
v -0.5 0.5 -0.1
v -0.4 0.5 -0.1
v -0.2 0.5 -0.1
v -0.1 0.5 -0.1
v -0.4 0.5 -0.2
v -0.2 0.5 -0.2
v -0.8 0.5 -0.5
v 0.2 0.5 -0.5
v -0.7 0.9 0.4
v 0.1 0.9 0.4
v -0.4 0.9 0.2
v -0.2 0.9 0.2
v -0.5 0.9 0.1
v -0.4 0.9 0.1
v -0.2 0.9 0.1
v -0.1 0.9 0.1
v -0.5 0.9 -0.1
v -0.4 0.9 -0.1
v -0.2 0.9 -0.1
v -0.1 0.9 -0.1
v -0.4 0.9 -0.2
v -0.2 0.9 -0.2
v -0.7 0.9 -0.4
v 0.1 0.9 -0.4
v -0.5 1.3 0.2
v -0.1 1.3 0.2
v -0.4 1.3 0.1
v -0.2 1.3 0.1
v -0.4 1.3 -0.1
v -0.2 1.3 -0.1
v -0.5 1.3 -0.2
v -0.1 1.3 -0.2
v -0.8 0.6 0.5
v 0.2 0.6 0.5
v -0.7 0.6 0.4
v 0.1 0.6 0.4
v -0.7 0.6 -0.4
v 0.1 0.6 -0.4
v -0.8 0.6 -0.5
v 0.2 0.6 -0.5
v -0.7 0.7 0.4
v 0.1 0.7 0.4
v -0.6 0.7 0.3
v 5.96046e-08 0.7 0.3
v -0.6 0.7 -0.3
v 5.96046e-08 0.7 -0.3
v -0.7 0.7 -0.4
v 0.1 0.7 -0.4
v -0.6 0.8 0.3
v 5.96046e-08 0.8 0.3
v -0.4 0.8 0.2
v -0.2 0.8 0.2
v -0.5 0.8 0.1
v -0.4 0.8 0.1
v -0.2 0.8 0.1
v -0.1 0.8 0.1
v -0.5 0.8 -0.1
v -0.4 0.8 -0.1
v -0.2 0.8 -0.1
v -0.1 0.8 -0.1
v -0.4 0.8 -0.2
v -0.2 0.8 -0.2
v -0.6 0.8 -0.3
v 5.96046e-08 0.8 -0.3
v -0.7 1 0.4
v 0.1 1 0.4
v -0.6 1 0.3
v 5.96046e-08 1 0.3
v -0.6 1 -0.3
v 5.96046e-08 1 -0.3
v -0.7 1 -0.4
v 0.1 1 -0.4
v -0.6 1.1 0.3
v 5.96046e-08 1.1 0.3
v -0.5 1.1 0.2
v -0.1 1.1 0.2
v -0.5 1.1 -0.2
v -0.1 1.1 -0.2
v -0.6 1.1 -0.3
v 5.96046e-08 1.1 -0.3
v -0.5 1.2 0.2
v -0.1 1.2 0.2
v -0.4 1.2 0.1
v -0.2 1.2 0.1
v -0.4 1.2 -0.1
v -0.2 1.2 -0.1
v -0.5 1.2 -0.2
v -0.1 1.2 -0.2
v -0.5 1.4 0.2
v -0.1 1.4 0.2
v -0.4 1.4 0.1
v -0.2 1.4 0.1
v -0.4 1.4 -0.1
v -0.2 1.4 -0.1
v -0.5 1.4 -0.2
v -0.1 1.4 -0.2
v -0.4 1.5 0.1
v -0.2 1.5 0.1
v -0.4 1.5 -0.1
v -0.2 1.5 -0.1

# faces
f 3/1/1 2/1/1 1/1/1
f 4/1/1 2/1/1 3/1/1
f 7/1/1 6/1/1 5/1/1
f 8/1/1 6/1/1 7/1/1
f 11/1/1 10/1/1 9/1/1
f 12/1/1 10/1/1 11/1/1
f 15/1/1 14/1/1 13/1/1
f 16/1/1 14/1/1 15/1/1
f 19/1/1 18/1/1 17/1/1
f 20/1/1 18/1/1 19/1/1
f 23/2/1 22/2/1 21/2/1
f 24/2/1 22/2/1 23/2/1
f 27/2/1 26/2/1 25/2/1
f 28/2/1 26/2/1 27/2/1
f 31/1/1 30/1/1 29/1/1
f 32/1/1 30/1/1 31/1/1
f 35/1/1 34/1/1 33/1/1
f 36/1/1 34/1/1 35/1/1
f 41/2/1 38/2/1 37/2/1
f 42/2/1 38/2/1 41/2/1
f 43/2/1 40/2/1 39/2/1
f 44/2/1 40/2/1 43/2/1
f 49/2/1 46/2/1 45/2/1
f 50/2/1 46/2/1 49/2/1
f 51/2/1 48/2/1 47/2/1
f 52/2/1 48/2/1 51/2/1
f 55/2/1 54/2/1 53/2/1
f 56/2/1 54/2/1 55/2/1
f 59/1/1 58/1/1 57/1/1
f 60/1/1 58/1/1 59/1/1
f 61/2/2 62/2/2 65/2/2
f 65/2/2 62/2/2 66/2/2
f 63/2/2 64/2/2 67/2/2
f 67/2/2 64/2/2 68/2/2
f 69/2/2 70/2/2 73/2/2
f 73/2/2 70/2/2 74/2/2
f 71/2/2 72/2/2 75/2/2
f 75/2/2 72/2/2 76/2/2
f 77/2/2 78/2/2 79/2/2
f 79/2/2 78/2/2 80/2/2
f 81/1/2 82/1/2 83/1/2
f 83/1/2 82/1/2 84/1/2
f 85/2/2 86/2/2 87/2/2
f 87/2/2 86/2/2 88/2/2
f 89/2/2 90/2/2 91/2/2
f 91/2/2 90/2/2 92/2/2
f 93/1/2 94/1/2 95/1/2
f 95/1/2 94/1/2 96/1/2
f 97/1/2 98/1/2 99/1/2
f 99/1/2 98/1/2 100/1/2
f 101/1/2 102/1/2 103/1/2
f 103/1/2 102/1/2 104/1/2
f 105/1/2 106/1/2 107/1/2
f 107/1/2 106/1/2 108/1/2
f 109/1/2 110/1/2 111/1/2
f 111/1/2 110/1/2 112/1/2
f 113/1/2 114/1/2 115/1/2
f 115/1/2 114/1/2 116/1/2
f 117/1/2 118/1/2 119/1/2
f 119/1/2 118/1/2 120/1/2
f 123/1/3 122/1/3 121/1/3
f 124/1/3 122/1/3 123/1/3
f 129/1/3 126/1/3 125/1/3
f 130/1/3 126/1/3 129/1/3
f 131/1/3 128/1/3 127/1/3
f 132/1/3 128/1/3 131/1/3
f 137/1/3 134/1/3 133/1/3
f 138/1/3 134/1/3 137/1/3
f 139/1/3 136/1/3 135/1/3
f 140/1/3 136/1/3 139/1/3
f 149/2/3 146/2/3 145/2/3
f 150/2/3 146/2/3 149/2/3
f 151/2/3 148/2/3 147/2/3
f 152/2/3 148/2/3 151/2/3
f 153/1/3 142/1/3 141/1/3
f 154/1/3 142/1/3 153/1/3
f 155/1/3 144/1/3 143/1/3
f 156/1/3 144/1/3 155/1/3
f 161/2/3 158/2/3 157/2/3
f 162/2/3 158/2/3 161/2/3
f 163/2/3 160/2/3 159/2/3
f 164/2/3 160/2/3 163/2/3
f 173/2/3 166/2/3 165/2/3
f 174/2/3 166/2/3 173/2/3
f 175/1/3 168/1/3 167/1/3
f 176/1/3 168/1/3 175/1/3
f 177/2/3 170/2/3 169/2/3
f 178/2/3 170/2/3 177/2/3
f 179/2/3 172/2/3 171/2/3
f 180/2/3 172/2/3 179/2/3
f 181/2/4 182/2/4 185/2/4
f 185/2/4 182/2/4 186/2/4
f 183/2/4 184/2/4 187/2/4
f 187/2/4 184/2/4 188/2/4
f 189/2/4 190/2/4 197/2/4
f 197/2/4 190/2/4 198/2/4
f 191/1/4 192/1/4 199/1/4
f 199/1/4 192/1/4 200/1/4
f 193/2/4 194/2/4 201/2/4
f 201/2/4 194/2/4 202/2/4
f 195/2/4 196/2/4 203/2/4
f 203/2/4 196/2/4 204/2/4
f 209/2/4 210/2/4 213/2/4
f 213/2/4 210/2/4 214/2/4
f 211/2/4 212/2/4 215/2/4
f 215/2/4 212/2/4 216/2/4
f 205/1/4 206/1/4 217/1/4
f 217/1/4 206/1/4 218/1/4
f 207/1/4 208/1/4 219/1/4
f 219/1/4 208/1/4 220/1/4
f 221/1/4 222/1/4 225/1/4
f 225/1/4 222/1/4 226/1/4
f 223/1/4 224/1/4 227/1/4
f 227/1/4 224/1/4 228/1/4
f 229/1/4 230/1/4 233/1/4
f 233/1/4 230/1/4 234/1/4
f 231/1/4 232/1/4 235/1/4
f 235/1/4 232/1/4 236/1/4
f 237/1/4 238/1/4 239/1/4
f 239/1/4 238/1/4 240/1/4
f 244/2/5 242/2/5 241/2/5
f 245/2/5 242/2/5 244/2/5
f 247/2/5 244/2/5 243/2/5
f 247/2/5 246/2/5 245/2/5
f 247/2/5 245/2/5 244/2/5
f 248/2/5 246/2/5 247/2/5
f 249/2/5 246/2/5 248/2/5
f 250/2/5 246/2/5 249/2/5
f 251/2/5 249/2/5 248/2/5
f 252/2/5 249/2/5 251/2/5
f 255/1/5 254/1/5 253/1/5
f 256/1/5 254/1/5 255/1/5
f 257/1/5 255/1/5 253/1/5
f 258/1/5 255/1/5 257/1/5
f 259/1/5 254/1/5 256/1/5
f 260/1/5 254/1/5 259/1/5
f 261/1/5 257/1/5 253/1/5
f 264/1/5 254/1/5 260/1/5
f 265/1/5 262/1/5 261/1/5
f 266/1/5 264/1/5 263/1/5
f 267/1/5 265/1/5 261/1/5
f 267/1/5 266/1/5 265/1/5
f 267/1/5 261/1/5 253/1/5
f 268/1/5 264/1/5 266/1/5
f 268/1/5 266/1/5 267/1/5
f 268/1/5 254/1/5 264/1/5
f 271/1/5 270/1/5 269/1/5
f 272/1/5 270/1/5 271/1/5
f 273/1/5 271/1/5 269/1/5
f 274/1/5 271/1/5 273/1/5
f 275/1/5 270/1/5 272/1/5
f 276/1/5 270/1/5 275/1/5
f 277/1/5 273/1/5 269/1/5
f 280/1/5 270/1/5 276/1/5
f 281/1/5 278/1/5 277/1/5
f 282/1/5 280/1/5 279/1/5
f 283/1/5 281/1/5 277/1/5
f 283/1/5 282/1/5 281/1/5
f 283/1/5 277/1/5 269/1/5
f 284/1/5 280/1/5 282/1/5
f 284/1/5 282/1/5 283/1/5
f 284/1/5 270/1/5 280/1/5
f 287/1/5 286/1/5 285/1/5
f 288/1/5 286/1/5 287/1/5
f 289/1/5 287/1/5 285/1/5
f 290/1/5 286/1/5 288/1/5
f 291/1/5 289/1/5 285/1/5
f 291/1/5 290/1/5 289/1/5
f 292/1/5 286/1/5 290/1/5
f 292/1/5 290/1/5 291/1/5
f 293/1/6 294/1/6 295/1/6
f 295/1/6 294/1/6 296/1/6
f 293/1/6 295/1/6 297/1/6
f 296/1/6 294/1/6 298/1/6
f 293/1/6 297/1/6 299/1/6
f 297/1/6 298/1/6 299/1/6
f 298/1/6 294/1/6 300/1/6
f 299/1/6 298/1/6 300/1/6
f 301/1/6 302/1/6 303/1/6
f 303/1/6 302/1/6 304/1/6
f 301/1/6 303/1/6 305/1/6
f 304/1/6 302/1/6 306/1/6
f 301/1/6 305/1/6 307/1/6
f 305/1/6 306/1/6 307/1/6
f 306/1/6 302/1/6 308/1/6
f 307/1/6 306/1/6 308/1/6
f 309/1/6 310/1/6 311/1/6
f 311/1/6 310/1/6 312/1/6
f 309/1/6 311/1/6 313/1/6
f 313/1/6 311/1/6 314/1/6
f 312/1/6 310/1/6 315/1/6
f 315/1/6 310/1/6 316/1/6
f 309/1/6 313/1/6 317/1/6
f 316/1/6 310/1/6 320/1/6
f 317/1/6 318/1/6 321/1/6
f 319/1/6 320/1/6 322/1/6
f 317/1/6 321/1/6 323/1/6
f 321/1/6 322/1/6 323/1/6
f 309/1/6 317/1/6 323/1/6
f 322/1/6 320/1/6 324/1/6
f 323/1/6 322/1/6 324/1/6
f 320/1/6 310/1/6 324/1/6
f 325/1/6 326/1/6 327/1/6
f 327/1/6 326/1/6 328/1/6
f 325/1/6 327/1/6 329/1/6
f 328/1/6 326/1/6 330/1/6
f 325/1/6 329/1/6 331/1/6
f 329/1/6 330/1/6 331/1/6
f 330/1/6 326/1/6 332/1/6
f 331/1/6 330/1/6 332/1/6
f 333/1/6 334/1/6 335/1/6
f 335/1/6 334/1/6 336/1/6
f 333/1/6 335/1/6 337/1/6
f 336/1/6 334/1/6 338/1/6
f 333/1/6 337/1/6 339/1/6
f 337/1/6 338/1/6 339/1/6
f 338/1/6 334/1/6 340/1/6
f 339/1/6 338/1/6 340/1/6
f 341/1/6 342/1/6 343/1/6
f 343/1/6 342/1/6 344/1/6
f 341/1/6 343/1/6 345/1/6
f 344/1/6 342/1/6 346/1/6
f 341/1/6 345/1/6 347/1/6
f 345/1/6 346/1/6 347/1/6
f 346/1/6 342/1/6 348/1/6
f 347/1/6 346/1/6 348/1/6
f 349/1/6 350/1/6 351/1/6
f 351/1/6 350/1/6 352/1/6
f 349/1/6 351/1/6 353/1/6
f 352/1/6 350/1/6 354/1/6
f 349/1/6 353/1/6 355/1/6
f 353/1/6 354/1/6 355/1/6
f 354/1/6 350/1/6 356/1/6
f 355/1/6 354/1/6 356/1/6
f 357/1/6 358/1/6 359/1/6
f 359/1/6 358/1/6 360/1/6
