# MagicaVoxel @ Ephtracy

# group
o 

# material
mtllib tree2.mtl
usemtl palette

# normals
vn -1 0 0
vn 1 0 0
vn 0 0 1
vn 0 0 -1
vn 0 -1 0
vn 0 1 0

# texcoords
vt 0.970703 0.5
vt 0.974609 0.5
vt 0.978516 0.5
vt 0.982422 0.5

# verts
v -0.6 2.2 0.6
v -0.6 2.2 -0.5
v -0.6 2.3 0.5
v -0.6 2.3 0.3
v -0.6 2.3 -5.96046e-08
v -0.6 2.3 -0.2
v -0.6 2.4 0.5
v -0.6 2.4 0.3
v -0.6 2.4 -5.96046e-08
v -0.6 2.4 -0.2
v -0.6 2.4 -0.5
v -0.6 2.5 0.6
v -0.6 2.5 0.3
v -0.6 2.5 -0.2
v -0.6 2.5 -0.5
v -0.6 2.6 0.6
v -0.6 2.6 0.3
v -0.6 2.7 0.6
v -0.6 2.7 0.5
v -0.6 2.8 0.6
v -0.6 2.8 0.5
v -0.6 2.8 -5.96046e-08
v -0.6 2.8 -0.5
v -0.6 2.9 0.6
v -0.6 2.9 -5.96046e-08
v -0.6 2.9 -0.5
v -0.5 2.1 0.5
v -0.5 2.1 -0.3
v -0.5 2.2 0.5
v -0.5 2.2 -0.3
v -0.5 2.9 0.5
v -0.5 2.9 -5.96046e-08
v -0.5 2.9 -0.4
v -0.5 3 0.5
v -0.5 3 -0.4
v -0.4 2 0.4
v -0.4 2 -0.2
v -0.4 2 -0.3
v -0.4 2.1 0.4
v -0.4 2.1 -0.2
v -0.4 2.1 -0.3
v -0.4 3 0.4
v -0.4 3 -0.3
v -0.4 3.1 0.4
v -0.4 3.1 -0.3
v -0.2 0 0.2
v -0.2 0 -0.1
v -0.2 0.1 0.2
v -0.2 0.1 -0.1
v -0.2 0.4 0.2
v -0.2 0.4 -0.1
v -0.2 0.7 0.2
v -0.2 0.7 -0.1
v -0.2 0.9 0.2
v -0.2 0.9 -0.1
v -0.2 1.1 0.2
v -0.2 1.1 -0.1
v -0.2 1.2 0.2
v -0.2 1.2 -0.1
v -0.2 1.5 0.2
v -0.2 1.5 -0.1
v -0.2 1.6 0.2
v -0.2 1.6 -0.1
v -0.2 1.7 0.2
v -0.2 1.7 -0.1
v -0.2 1.8 0.2
v -0.2 1.8 -0.1
v -0.2 2 0.2
v -0.2 2 -0.1
v -0.2 2.1 -0.3
v -0.2 2.1 -0.4
v -0.2 2.2 -0.3
v -0.2 2.2 -0.4
v 0.1 0 0.2
v 0.1 0 -0.1
v 0.1 0.1 0.2
v 0.1 0.1 -0.1
v 0.1 0.4 0.2
v 0.1 0.4 -0.1
v 0.1 0.7 0.2
v 0.1 0.7 -0.1
v 0.1 0.9 0.2
v 0.1 0.9 -0.1
v 0.1 1.1 0.2
v 0.1 1.1 -0.1
v 0.1 1.2 0.2
v 0.1 1.2 -0.1
v 0.1 1.5 0.2
v 0.1 1.5 -0.1
v 0.1 1.6 0.2
v 0.1 1.6 -0.1
v 0.1 1.7 0.2
v 0.1 1.7 -0.1
v 0.1 1.8 0.2
v 0.1 1.8 -0.1
v 0.1 2 0.2
v 0.1 2 -0.1
v 0.3 3 0.4
v 0.3 3 0.0999999
v 0.3 3 -0.3
v 0.3 3.1 0.4
v 0.3 3.1 0.0999999
v 0.3 3.1 -0.3
v 0.4 2 0.4
v 0.4 2 -0.3
v 0.4 2.1 0.4
v 0.4 2.1 -0.2
v 0.4 2.1 -0.3
v 0.4 2.9 0.5
v 0.4 2.9 -0.4
v 0.4 3 0.5
v 0.4 3 -0.4
v 0.5 2.1 0.5
v 0.5 2.1 -0.2
v 0.5 2.1 -0.3
v 0.5 2.1 -0.4
v 0.5 2.2 0.6
v 0.5 2.2 0.5
v 0.5 2.2 -0.1
v 0.5 2.2 -0.2
v 0.5 2.2 -0.3
v 0.5 2.2 -0.4
v 0.5 2.2 -0.5
v 0.5 2.3 -0.1
v 0.5 2.3 -0.5
v 0.5 2.6 0.6
v 0.5 2.6 0.0999999
v 0.5 2.6 -0.2
v 0.5 2.6 -0.5
v 0.5 2.7 0.6
v 0.5 2.7 0.0999999
v 0.5 2.7 -0.2
v 0.5 2.7 -0.5
v 0.5 2.9 0.6
v 0.5 2.9 -0.5
v -0.6 2.2 0.6
v -0.6 2.5 0.6
v -0.6 2.6 0.6
v -0.6 2.7 0.6
v -0.6 2.8 0.6
v -0.6 2.9 0.6
v -0.5 2.3 0.6
v -0.5 2.4 0.6
v -0.5 2.5 0.6
v -0.5 2.6 0.6
v -0.3 2.3 0.6
v -0.3 2.4 0.6
v -0.3 2.7 0.6
v -0.3 2.8 0.6
v -0.0999999 2.3 0.6
v -0.0999999 2.4 0.6
v -0.0999999 2.7 0.6
v -0.0999999 2.8 0.6
v 5.96046e-08 2.3 0.6
v 5.96046e-08 2.4 0.6
v 5.96046e-08 2.6 0.6
v 5.96046e-08 2.7 0.6
v 0.1 2.7 0.6
v 0.1 2.8 0.6
v 0.2 2.6 0.6
v 0.2 2.7 0.6
v 0.4 2.6 0.6
v 0.4 2.7 0.6
v 0.5 2.2 0.6
v 0.5 2.6 0.6
v 0.5 2.7 0.6
v 0.5 2.9 0.6
v -0.5 2.1 0.5
v -0.5 2.2 0.5
v -0.5 2.9 0.5
v -0.5 3 0.5
v 0.4 2.9 0.5
v 0.4 3 0.5
v 0.5 2.1 0.5
v 0.5 2.2 0.5
v -0.4 2 0.4
v -0.4 2.1 0.4
v -0.4 3 0.4
v -0.4 3.1 0.4
v -0.3 2 0.4
v -0.3 2.1 0.4
v 0.1 2 0.4
v 0.1 2.1 0.4
v 0.2 2 0.4
v 0.2 2.1 0.4
v 0.2 3 0.4
v 0.2 3.1 0.4
v 0.3 3 0.4
v 0.3 3.1 0.4
v 0.4 2 0.4
v 0.4 2.1 0.4
v -0.2 0 0.2
v -0.2 0.1 0.2
v -0.2 0.4 0.2
v -0.2 0.7 0.2
v -0.2 0.9 0.2
v -0.2 1.1 0.2
v -0.2 1.2 0.2
v -0.2 1.5 0.2
v -0.2 1.6 0.2
v -0.2 1.7 0.2
v -0.2 1.8 0.2
v -0.2 2 0.2
v 0.1 0 0.2
v 0.1 0.1 0.2
v 0.1 0.4 0.2
v 0.1 0.7 0.2
v 0.1 0.9 0.2
v 0.1 1.1 0.2
v 0.1 1.2 0.2
v 0.1 1.5 0.2
v 0.1 1.6 0.2
v 0.1 1.7 0.2
v 0.1 1.8 0.2
v 0.1 2 0.2
v -0.2 0 -0.1
v -0.2 0.1 -0.1
v -0.2 0.4 -0.1
v -0.2 0.7 -0.1
v -0.2 0.9 -0.1
v -0.2 1.1 -0.1
v -0.2 1.2 -0.1
v -0.2 1.5 -0.1
v -0.2 1.6 -0.1
v -0.2 1.7 -0.1
v -0.2 1.8 -0.1
v -0.2 2 -0.1
v 0.1 0 -0.1
v 0.1 0.1 -0.1
v 0.1 0.4 -0.1
v 0.1 0.7 -0.1
v 0.1 0.9 -0.1
v 0.1 1.1 -0.1
v 0.1 1.2 -0.1
v 0.1 1.5 -0.1
v 0.1 1.6 -0.1
v 0.1 1.7 -0.1
v 0.1 1.8 -0.1
v 0.1 2 -0.1
v -0.5 2.1 -0.3
v -0.5 2.2 -0.3
v -0.4 2 -0.3
v -0.4 2.1 -0.3
v -0.4 3 -0.3
v -0.4 3.1 -0.3
v -0.2 2.1 -0.3
v -0.2 2.2 -0.3
v 0.2 2 -0.3
v 0.2 2.1 -0.3
v 0.3 2 -0.3
v 0.3 2.1 -0.3
v 0.3 3 -0.3
v 0.3 3.1 -0.3
v 0.4 2 -0.3
v 0.4 2.1 -0.3
v -0.5 2.9 -0.4
v -0.5 3 -0.4
v -0.2 2.1 -0.4
v -0.2 2.2 -0.4
v 0.4 2.2 -0.4
v 0.4 2.9 -0.4
v 0.4 3 -0.4
v 0.5 2.1 -0.4
v 0.5 2.2 -0.4
v -0.6 2.2 -0.5
v -0.6 2.4 -0.5
v -0.6 2.5 -0.5
v -0.6 2.8 -0.5
v -0.6 2.9 -0.5
v -0.5 2.2 -0.5
v -0.5 2.4 -0.5
v -0.5 2.5 -0.5
v -0.5 2.8 -0.5
v -0.5 2.9 -0.5
v -0.4 2.2 -0.5
v -0.4 2.4 -0.5
v -0.4 2.6 -0.5
v -0.3 2.4 -0.5
v -0.3 2.6 -0.5
v -0.2 2.7 -0.5
v -0.2 2.8 -0.5
v -0.0999999 2.4 -0.5
v -0.0999999 2.5 -0.5
v 0.3 2.4 -0.5
v 0.3 2.5 -0.5
v 0.3 2.7 -0.5
v 0.3 2.8 -0.5
v 0.4 2.2 -0.5
v 0.4 2.3 -0.5
v 0.4 2.6 -0.5
v 0.4 2.7 -0.5
v 0.5 2.2 -0.5
v 0.5 2.3 -0.5
v 0.5 2.6 -0.5
v 0.5 2.7 -0.5
v 0.5 2.9 -0.5
v -0.2 0 0.2
v 0.1 0 0.2
v -0.2 0 -0.1
v 0.1 0 -0.1
v -0.4 2 0.4
v -0.3 2 0.4
v 0.1 2 0.4
v 0.2 2 0.4
v 0.4 2 0.4
v -0.2 2 0.2
v 0.1 2 0.2
v 0.2 2 0.2
v 0.2 2 -5.96046e-08
v 0.3 2 -5.96046e-08
v -0.2 2 -0.1
v 0.1 2 -0.1
v -0.4 2 -0.2
v -0.3 2 -0.2
v -0.4 2 -0.3
v 0.2 2 -0.3
v 0.3 2 -0.3
v 0.4 2 -0.3
v -0.5 2.1 0.5
v 0.5 2.1 0.5
v -0.4 2.1 0.4
v -0.3 2.1 0.4
v 0.1 2.1 0.4
v 0.2 2.1 0.4
v 0.4 2.1 0.4
v -0.4 2.1 -0.2
v 0.4 2.1 -0.2
v 0.5 2.1 -0.2
v -0.5 2.1 -0.3
v -0.4 2.1 -0.3
v -0.2 2.1 -0.3
v 0.2 2.1 -0.3
v 0.3 2.1 -0.3
v 0.4 2.1 -0.3
v 0.5 2.1 -0.3
v -0.2 2.1 -0.4
v 0.5 2.1 -0.4
v -0.6 2.2 0.6
v 0.5 2.2 0.6
v -0.5 2.2 0.5
v 0.5 2.2 0.5
v -0.5 2.2 -0.3
v -0.2 2.2 -0.3
v -0.5 2.2 -0.4
v -0.4 2.2 -0.4
v -0.2 2.2 -0.4
v 0.4 2.2 -0.4
v 0.5 2.2 -0.4
v -0.6 2.2 -0.5
v -0.5 2.2 -0.5
v -0.4 2.2 -0.5
v 0.4 2.2 -0.5
v 0.5 2.2 -0.5
v -0.6 2.9 0.6
v 0.5 2.9 0.6
v -0.5 2.9 0.5
v 0.4 2.9 0.5
v -0.6 2.9 -5.96046e-08
v -0.5 2.9 -5.96046e-08
v -0.5 2.9 -0.4
v 0.4 2.9 -0.4
v -0.6 2.9 -0.5
v -0.5 2.9 -0.5
v 0.5 2.9 -0.5
v -0.5 3 0.5
v 0.4 3 0.5
v -0.4 3 0.4
v 0.2 3 0.4
v 0.3 3 0.4
v 0.3 3 0.0999999
v -0.4 3 -0.3
v 0.3 3 -0.3
v -0.5 3 -0.4
v 0.4 3 -0.4
v -0.4 3.1 0.4
v 0.2 3.1 0.4
v 0.3 3.1 0.4
v 0.2 3.1 0.0999999
v 0.3 3.1 0.0999999
v -0.4 3.1 -0.3
v 0.3 3.1 -0.3

# faces
f 3/2/1 2/2/1 1/2/1
f 4/2/1 2/2/1 3/2/1
f 5/2/1 2/2/1 4/2/1
f 6/2/1 2/2/1 5/2/1
f 7/2/1 3/2/1 1/2/1
f 7/4/1 4/4/1 3/4/1
f 8/2/1 5/2/1 4/2/1
f 8/4/1 4/4/1 7/4/1
f 9/4/1 6/4/1 5/4/1
f 9/2/1 5/2/1 8/2/1
f 10/2/1 2/2/1 6/2/1
f 10/4/1 6/4/1 9/4/1
f 11/2/1 2/2/1 10/2/1
f 12/2/1 9/2/1 8/2/1
f 12/2/1 8/2/1 7/2/1
f 12/2/1 7/2/1 1/2/1
f 12/2/1 10/2/1 9/2/1
f 13/2/1 10/2/1 12/2/1
f 14/4/1 11/4/1 10/4/1
f 14/2/1 10/2/1 13/2/1
f 15/4/1 11/4/1 14/4/1
f 16/4/1 13/4/1 12/4/1
f 17/2/1 14/2/1 13/2/1
f 17/4/1 13/4/1 16/4/1
f 17/2/1 15/2/1 14/2/1
f 18/2/1 17/2/1 16/2/1
f 19/2/1 17/2/1 18/2/1
f 20/4/1 19/4/1 18/4/1
f 21/2/1 17/2/1 19/2/1
f 21/4/1 19/4/1 20/4/1
f 22/2/1 15/2/1 17/2/1
f 22/2/1 17/2/1 21/2/1
f 23/2/1 15/2/1 22/2/1
f 24/2/1 21/2/1 20/2/1
f 24/2/1 22/2/1 21/2/1
f 25/4/1 23/4/1 22/4/1
f 25/2/1 22/2/1 24/2/1
f 26/4/1 23/4/1 25/4/1
f 29/2/1 28/2/1 27/2/1
f 30/2/1 28/2/1 29/2/1
f 34/2/1 32/2/1 31/2/1
f 34/2/1 33/2/1 32/2/1
f 35/2/1 33/2/1 34/2/1
f 39/4/1 37/4/1 36/4/1
f 40/2/1 38/2/1 37/2/1
f 40/4/1 37/4/1 39/4/1
f 41/2/1 38/2/1 40/2/1
f 44/2/1 43/2/1 42/2/1
f 45/2/1 43/2/1 44/2/1
f 48/1/1 47/1/1 46/1/1
f 49/1/1 47/1/1 48/1/1
f 50/3/1 49/3/1 48/3/1
f 51/3/1 49/3/1 50/3/1
f 52/1/1 51/1/1 50/1/1
f 53/1/1 51/1/1 52/1/1
f 54/3/1 53/3/1 52/3/1
f 55/3/1 53/3/1 54/3/1
f 56/1/1 55/1/1 54/1/1
f 57/1/1 55/1/1 56/1/1
f 58/3/1 57/3/1 56/3/1
f 59/3/1 57/3/1 58/3/1
f 60/1/1 59/1/1 58/1/1
f 61/1/1 59/1/1 60/1/1
f 62/3/1 61/3/1 60/3/1
f 63/3/1 61/3/1 62/3/1
f 64/1/1 63/1/1 62/1/1
f 65/1/1 63/1/1 64/1/1
f 66/3/1 65/3/1 64/3/1
f 67/3/1 65/3/1 66/3/1
f 68/1/1 67/1/1 66/1/1
f 69/1/1 67/1/1 68/1/1
f 72/2/1 71/2/1 70/2/1
f 73/2/1 71/2/1 72/2/1
f 74/1/2 75/1/2 76/1/2
f 76/1/2 75/1/2 77/1/2
f 76/3/2 77/3/2 78/3/2
f 78/3/2 77/3/2 79/3/2
f 78/1/2 79/1/2 80/1/2
f 80/1/2 79/1/2 81/1/2
f 80/3/2 81/3/2 82/3/2
f 82/3/2 81/3/2 83/3/2
f 82/1/2 83/1/2 84/1/2
f 84/1/2 83/1/2 85/1/2
f 84/3/2 85/3/2 86/3/2
f 86/3/2 85/3/2 87/3/2
f 86/1/2 87/1/2 88/1/2
f 88/1/2 87/1/2 89/1/2
f 88/3/2 89/3/2 90/3/2
f 90/3/2 89/3/2 91/3/2
f 90/1/2 91/1/2 92/1/2
f 92/1/2 91/1/2 93/1/2
f 92/3/2 93/3/2 94/3/2
f 94/3/2 93/3/2 95/3/2
f 94/1/2 95/1/2 96/1/2
f 96/1/2 95/1/2 97/1/2
f 98/4/2 99/4/2 101/4/2
f 99/2/2 100/2/2 102/2/2
f 101/4/2 99/4/2 102/4/2
f 102/2/2 100/2/2 103/2/2
f 104/2/2 105/2/2 106/2/2
f 106/2/2 105/2/2 107/2/2
f 107/2/2 105/2/2 108/2/2
f 109/2/2 110/2/2 111/2/2
f 111/2/2 110/2/2 112/2/2
f 113/2/2 114/2/2 118/2/2
f 118/2/2 114/2/2 119/2/2
f 114/4/2 115/4/2 120/4/2
f 119/2/2 114/2/2 120/2/2
f 115/2/2 116/2/2 121/2/2
f 120/4/2 115/4/2 121/4/2
f 121/2/2 116/2/2 122/2/2
f 119/4/2 120/4/2 124/4/2
f 122/4/2 123/4/2 124/4/2
f 121/4/2 122/4/2 124/4/2
f 120/4/2 121/4/2 124/4/2
f 117/2/2 118/2/2 124/2/2
f 118/2/2 119/2/2 124/2/2
f 124/4/2 123/4/2 125/4/2
f 117/2/2 124/2/2 126/2/2
f 124/2/2 125/2/2 126/2/2
f 126/2/2 125/2/2 127/2/2
f 127/2/2 125/2/2 128/2/2
f 128/2/2 125/2/2 129/2/2
f 126/4/2 127/4/2 130/4/2
f 127/2/2 128/2/2 131/2/2
f 130/4/2 127/4/2 131/4/2
f 128/4/2 129/4/2 132/4/2
f 131/2/2 128/2/2 132/2/2
f 132/4/2 129/4/2 133/4/2
f 130/2/2 131/2/2 134/2/2
f 131/2/2 132/2/2 134/2/2
f 132/2/2 133/2/2 134/2/2
f 134/2/2 133/2/2 135/2/2
f 142/2/3 137/2/3 136/2/3
f 143/2/3 137/2/3 142/2/3
f 144/4/3 138/4/3 137/4/3
f 144/2/3 137/2/3 143/2/3
f 145/2/3 139/2/3 138/2/3
f 145/4/3 138/4/3 144/4/3
f 146/4/3 143/4/3 142/4/3
f 146/2/3 142/2/3 136/2/3
f 147/2/3 144/2/3 143/2/3
f 147/4/3 143/4/3 146/4/3
f 147/2/3 145/2/3 144/2/3
f 148/2/3 139/2/3 145/2/3
f 148/2/3 145/2/3 147/2/3
f 148/4/3 140/4/3 139/4/3
f 149/2/3 141/2/3 140/2/3
f 149/4/3 140/4/3 148/4/3
f 150/2/3 148/2/3 147/2/3
f 150/2/3 147/2/3 146/2/3
f 150/2/3 149/2/3 148/2/3
f 150/2/3 146/2/3 136/2/3
f 151/2/3 149/2/3 150/2/3
f 152/2/3 149/2/3 151/2/3
f 153/2/3 141/2/3 149/2/3
f 153/2/3 149/2/3 152/2/3
f 154/2/3 150/2/3 136/2/3
f 154/4/3 151/4/3 150/4/3
f 155/2/3 152/2/3 151/2/3
f 155/4/3 151/4/3 154/4/3
f 156/2/3 152/2/3 155/2/3
f 157/4/3 153/4/3 152/4/3
f 157/2/3 152/2/3 156/2/3
f 158/4/3 157/4/3 156/4/3
f 158/4/3 153/4/3 157/4/3
f 159/2/3 141/2/3 153/2/3
f 159/4/3 153/4/3 158/4/3
f 160/4/3 158/4/3 156/4/3
f 160/2/3 156/2/3 155/2/3
f 160/2/3 155/2/3 154/2/3
f 161/2/3 159/2/3 158/2/3
f 161/4/3 158/4/3 160/4/3
f 162/2/3 160/2/3 154/2/3
f 162/2/3 161/2/3 160/2/3
f 163/2/3 159/2/3 161/2/3
f 163/2/3 161/2/3 162/2/3
f 164/2/3 154/2/3 136/2/3
f 164/2/3 162/2/3 154/2/3
f 165/4/3 163/4/3 162/4/3
f 165/2/3 162/2/3 164/2/3
f 166/2/3 159/2/3 163/2/3
f 166/4/3 163/4/3 165/4/3
f 167/2/3 141/2/3 159/2/3
f 167/2/3 159/2/3 166/2/3
f 172/2/3 171/2/3 170/2/3
f 173/2/3 171/2/3 172/2/3
f 174/2/3 169/2/3 168/2/3
f 175/2/3 169/2/3 174/2/3
f 180/4/3 177/4/3 176/4/3
f 181/4/3 177/4/3 180/4/3
f 182/2/3 181/2/3 180/2/3
f 183/2/3 181/2/3 182/2/3
f 184/4/3 183/4/3 182/4/3
f 185/4/3 183/4/3 184/4/3
f 186/2/3 179/2/3 178/2/3
f 187/2/3 179/2/3 186/2/3
f 188/4/3 187/4/3 186/4/3
f 189/4/3 187/4/3 188/4/3
f 190/2/3 185/2/3 184/2/3
f 191/2/3 185/2/3 190/2/3
f 204/1/3 193/1/3 192/1/3
f 205/3/3 194/3/3 193/3/3
f 205/1/3 193/1/3 204/1/3
f 206/1/3 195/1/3 194/1/3
f 206/3/3 194/3/3 205/3/3
f 207/3/3 196/3/3 195/3/3
f 207/1/3 195/1/3 206/1/3
f 208/1/3 197/1/3 196/1/3
f 208/3/3 196/3/3 207/3/3
f 209/3/3 198/3/3 197/3/3
f 209/1/3 197/1/3 208/1/3
f 210/1/3 199/1/3 198/1/3
f 210/3/3 198/3/3 209/3/3
f 211/3/3 200/3/3 199/3/3
f 211/1/3 199/1/3 210/1/3
f 212/1/3 201/1/3 200/1/3
f 212/3/3 200/3/3 211/3/3
f 213/3/3 202/3/3 201/3/3
f 213/1/3 201/1/3 212/1/3
f 214/1/3 203/1/3 202/1/3
f 214/3/3 202/3/3 213/3/3
f 215/1/3 203/1/3 214/1/3
f 216/1/4 217/1/4 228/1/4
f 217/3/4 218/3/4 229/3/4
f 228/1/4 217/1/4 229/1/4
f 218/1/4 219/1/4 230/1/4
f 229/3/4 218/3/4 230/3/4
f 219/3/4 220/3/4 231/3/4
f 230/1/4 219/1/4 231/1/4
f 220/1/4 221/1/4 232/1/4
f 231/3/4 220/3/4 232/3/4
f 221/3/4 222/3/4 233/3/4
f 232/1/4 221/1/4 233/1/4
f 222/1/4 223/1/4 234/1/4
f 233/3/4 222/3/4 234/3/4
f 223/3/4 224/3/4 235/3/4
f 234/1/4 223/1/4 235/1/4
f 224/1/4 225/1/4 236/1/4
f 235/3/4 224/3/4 236/3/4
f 225/3/4 226/3/4 237/3/4
f 236/1/4 225/1/4 237/1/4
f 226/1/4 227/1/4 238/1/4
f 237/3/4 226/3/4 238/3/4
f 238/1/4 227/1/4 239/1/4
f 240/2/4 241/2/4 243/2/4
f 243/2/4 241/2/4 246/2/4
f 242/2/4 243/2/4 246/2/4
f 246/2/4 241/2/4 247/2/4
f 242/2/4 246/2/4 248/2/4
f 248/2/4 246/2/4 249/2/4
f 248/4/4 249/4/4 250/4/4
f 250/4/4 249/4/4 251/4/4
f 244/2/4 245/2/4 252/2/4
f 252/2/4 245/2/4 253/2/4
f 250/2/4 251/2/4 254/2/4
f 254/2/4 251/2/4 255/2/4
f 258/2/4 259/2/4 260/2/4
f 256/2/4 257/2/4 261/2/4
f 261/2/4 257/2/4 262/2/4
f 258/2/4 260/2/4 263/2/4
f 263/2/4 260/2/4 264/2/4
f 265/2/4 266/2/4 270/2/4
f 266/4/4 267/4/4 271/4/4
f 270/2/4 266/2/4 271/2/4
f 267/2/4 268/2/4 272/2/4
f 271/4/4 267/4/4 272/4/4
f 268/4/4 269/4/4 273/4/4
f 272/2/4 268/2/4 273/2/4
f 273/4/4 269/4/4 274/4/4
f 270/4/4 271/4/4 275/4/4
f 271/2/4 272/2/4 276/2/4
f 275/4/4 271/4/4 276/4/4
f 272/2/4 273/2/4 276/2/4
f 273/2/4 274/2/4 276/2/4
f 276/2/4 274/2/4 277/2/4
f 275/2/4 276/2/4 278/2/4
f 276/4/4 277/4/4 278/4/4
f 277/2/4 274/2/4 279/2/4
f 278/4/4 277/4/4 279/4/4
f 278/2/4 279/2/4 280/2/4
f 279/2/4 274/2/4 280/2/4
f 280/2/4 274/2/4 281/2/4
f 275/2/4 278/2/4 282/2/4
f 278/2/4 280/2/4 282/2/4
f 282/2/4 280/2/4 283/2/4
f 275/2/4 282/2/4 284/2/4
f 282/4/4 283/4/4 284/4/4
f 283/2/4 280/2/4 285/2/4
f 284/4/4 283/4/4 285/4/4
f 280/4/4 281/4/4 286/4/4
f 285/2/4 280/2/4 286/2/4
f 281/2/4 274/2/4 287/2/4
f 286/4/4 281/4/4 287/4/4
f 285/2/4 286/2/4 288/2/4
f 284/2/4 285/2/4 288/2/4
f 286/2/4 287/2/4 288/2/4
f 275/2/4 284/2/4 288/2/4
f 288/2/4 287/2/4 289/2/4
f 289/2/4 287/2/4 290/2/4
f 290/2/4 287/2/4 291/2/4
f 288/4/4 289/4/4 292/4/4
f 289/2/4 290/2/4 293/2/4
f 292/4/4 289/4/4 293/4/4
f 290/4/4 291/4/4 294/4/4
f 293/2/4 290/2/4 294/2/4
f 291/2/4 287/2/4 295/2/4
f 294/4/4 291/4/4 295/4/4
f 287/2/4 274/2/4 296/2/4
f 295/2/4 287/2/4 296/2/4
f 299/1/5 298/1/5 297/1/5
f 300/1/5 298/1/5 299/1/5
f 306/2/5 303/2/5 302/2/5
f 307/4/5 304/4/5 303/4/5
f 307/2/5 303/2/5 306/2/5
f 308/2/5 305/2/5 304/2/5
f 308/4/5 304/4/5 307/4/5
f 309/2/5 305/2/5 308/2/5
f 309/2/5 308/2/5 307/2/5
f 310/2/5 305/2/5 309/2/5
f 311/2/5 306/2/5 302/2/5
f 312/2/5 309/2/5 307/2/5
f 313/4/5 302/4/5 301/4/5
f 314/2/5 312/2/5 311/2/5
f 314/4/5 302/4/5 313/4/5
f 314/2/5 311/2/5 302/2/5
f 315/2/5 314/2/5 313/2/5
f 316/2/5 309/2/5 312/2/5
f 316/2/5 314/2/5 315/2/5
f 316/4/5 310/4/5 309/4/5
f 316/2/5 312/2/5 314/2/5
f 317/2/5 305/2/5 310/2/5
f 317/4/5 310/4/5 316/4/5
f 318/2/5 305/2/5 317/2/5
f 321/2/5 320/2/5 319/2/5
f 322/2/5 320/2/5 321/2/5
f 323/2/5 320/2/5 322/2/5
f 324/2/5 320/2/5 323/2/5
f 325/2/5 320/2/5 324/2/5
f 326/2/5 321/2/5 319/2/5
f 327/2/5 320/2/5 325/2/5
f 328/2/5 320/2/5 327/2/5
f 329/2/5 326/2/5 319/2/5
f 330/2/5 326/2/5 329/2/5
f 334/4/5 328/4/5 327/4/5
f 335/4/5 328/4/5 334/4/5
f 336/2/5 333/2/5 332/2/5
f 336/2/5 335/2/5 334/2/5
f 336/2/5 334/2/5 333/2/5
f 336/2/5 332/2/5 331/2/5
f 337/2/5 335/2/5 336/2/5
f 340/2/5 339/2/5 338/2/5
f 341/2/5 339/2/5 340/2/5
f 342/2/5 340/2/5 338/2/5
f 344/2/5 342/2/5 338/2/5
f 344/2/5 343/2/5 342/2/5
f 345/2/5 343/2/5 344/2/5
f 346/2/5 343/2/5 345/2/5
f 349/2/5 344/2/5 338/2/5
f 350/4/5 345/4/5 344/4/5
f 350/2/5 344/2/5 349/2/5
f 351/2/5 346/2/5 345/2/5
f 351/4/5 345/4/5 350/4/5
f 351/2/5 347/2/5 346/2/5
f 352/4/5 348/4/5 347/4/5
f 352/2/5 347/2/5 351/2/5
f 353/4/5 348/4/5 352/4/5
f 354/2/6 355/2/6 356/2/6
f 356/2/6 355/2/6 357/2/6
f 354/2/6 356/2/6 358/2/6
f 358/2/6 356/2/6 359/2/6
f 358/4/6 359/4/6 360/4/6
f 357/2/6 355/2/6 361/2/6
f 358/4/6 360/4/6 362/4/6
f 360/2/6 361/2/6 363/2/6
f 362/4/6 360/4/6 363/4/6
f 361/2/6 355/2/6 364/2/6
f 363/2/6 361/2/6 364/2/6
f 365/2/6 366/2/6 367/2/6
f 367/2/6 366/2/6 368/2/6
f 368/2/6 366/2/6 369/2/6
f 369/2/6 366/2/6 370/2/6
f 365/2/6 367/2/6 371/2/6
f 370/2/6 366/2/6 372/2/6
f 365/2/6 371/2/6 373/2/6
f 371/2/6 372/2/6 373/2/6
f 372/2/6 366/2/6 374/2/6
f 373/2/6 372/2/6 374/2/6
f 375/2/6 376/2/6 378/2/6
f 376/4/6 377/4/6 378/4/6
f 378/4/6 377/4/6 379/4/6
f 375/2/6 378/2/6 380/2/6
f 378/2/6 379/2/6 380/2/6
f 380/2/6 379/2/6 381/2/6
