# MagicaVoxel @ Ephtracy

# group
o 

# material
mtllib BossPillars.mtl
usemtl palette

# normals
vn -1 0 0
vn 1 0 0
vn 0 0 1
vn 0 0 -1
vn 0 -1 0
vn 0 1 0

# texcoords
vt 0.205078 0.5
vt 0.537109 0.5
vt 0.669922 0.5
vt 0.986328 0.5

# verts
v -1.6 -2.5 1.6
v -1.6 -2.5 -1.6
v -1.6 -2.3 1.6
v -1.6 -2.3 -1.6
v -1.6 6.5 1.6
v -1.6 6.5 -1.6
v -1.6 6.7 1.6
v -1.6 6.7 -1.6
v -1.4 -2.3 1.4
v -1.4 -2.3 -1.4
v -1.4 -2.1 1.4
v -1.4 -2.1 -1.4
v -1.4 6.3 1.4
v -1.4 6.3 -1.4
v -1.4 6.5 1.4
v -1.4 6.5 -1.4
v -1.2 -2.1 1.2
v -1.2 -2.1 -1.2
v -1.2 6.3 1.2
v -1.2 6.3 -1.2
v -1 5.7 1.3
v -1 5.7 1.2
v -1 5.8 1.3
v -1 5.8 1.2
v -0.9 5.6 1.4
v -0.9 5.6 1.2
v -0.9 5.7 1.4
v -0.9 5.7 1.3
v -0.9 5.7 1.2
v -0.9 5.8 1.4
v -0.9 5.8 1.3
v -0.9 5.8 1.2
v -0.9 5.9 1.4
v -0.9 5.9 1.2
v -0.8 1.2 1.4
v -0.8 1.2 1.3
v -0.8 5.6 1.4
v -0.8 5.6 1.3
v -0.8 5.7 1.4
v -0.8 5.7 1.3
v -0.8 5.8 1.4
v -0.8 5.8 1.3
v -0.7 1.1 1.4
v -0.7 1.1 1.3
v -0.7 1.2 1.4
v -0.7 1.2 1.3
v -0.6 1 1.4
v -0.6 1 1.3
v -0.6 1.1 1.4
v -0.6 1.1 1.3
v -0.5 0.9 1.4
v -0.5 0.9 1.3
v -0.5 1 1.4
v -0.5 1 1.3
v -0.4 0.8 1.4
v -0.4 0.8 1.3
v -0.4 0.9 1.4
v -0.4 0.9 1.3
v -0.3 0.7 1.4
v -0.3 0.7 1.3
v -0.3 0.8 1.4
v -0.3 0.8 1.3
v 0.8 5.6 1.3
v 0.8 5.6 1.2
v 0.8 5.7 1.3
v 0.8 5.8 1.4
v 0.8 5.8 1.3
v 0.8 5.9 1.4
v 0.8 5.9 1.2
v -0.8 5.6 1.3
v -0.8 5.6 1.2
v -0.8 5.7 1.3
v -0.8 5.8 1.4
v -0.8 5.8 1.3
v -0.8 5.9 1.4
v -0.8 5.9 1.2
v 0.3 0.7 1.4
v 0.3 0.7 1.3
v 0.3 0.8 1.4
v 0.3 0.8 1.3
v 0.4 0.8 1.4
v 0.4 0.8 1.3
v 0.4 0.9 1.4
v 0.4 0.9 1.3
v 0.5 0.9 1.4
v 0.5 0.9 1.3
v 0.5 1 1.4
v 0.5 1 1.3
v 0.6 1 1.4
v 0.6 1 1.3
v 0.6 1.1 1.4
v 0.6 1.1 1.3
v 0.7 1.1 1.4
v 0.7 1.1 1.3
v 0.7 1.2 1.4
v 0.7 1.2 1.3
v 0.8 1.2 1.4
v 0.8 1.2 1.3
v 0.8 5.6 1.4
v 0.8 5.6 1.3
v 0.8 5.7 1.4
v 0.8 5.7 1.3
v 0.8 5.8 1.4
v 0.8 5.8 1.3
v 0.9 5.6 1.4
v 0.9 5.6 1.2
v 0.9 5.7 1.4
v 0.9 5.7 1.3
v 0.9 5.7 1.2
v 0.9 5.8 1.4
v 0.9 5.8 1.3
v 0.9 5.8 1.2
v 0.9 5.9 1.4
v 0.9 5.9 1.2
v 1 5.7 1.3
v 1 5.7 1.2
v 1 5.8 1.3
v 1 5.8 1.2
v 1.2 -2.1 1.2
v 1.2 -2.1 -1.2
v 1.2 6.3 1.2
v 1.2 6.3 -1.2
v 1.4 -2.3 1.4
v 1.4 -2.3 -1.4
v 1.4 -2.1 1.4
v 1.4 -2.1 -1.4
v 1.4 6.3 1.4
v 1.4 6.3 -1.4
v 1.4 6.5 1.4
v 1.4 6.5 -1.4
v 1.6 -2.5 1.6
v 1.6 -2.5 -1.6
v 1.6 -2.3 1.6
v 1.6 -2.3 -1.6
v 1.6 6.5 1.6
v 1.6 6.5 -1.6
v 1.6 6.7 1.6
v 1.6 6.7 -1.6
v -1.6 -2.5 1.6
v -1.6 -2.3 1.6
v -1.6 6.5 1.6
v -1.6 6.7 1.6
v 1.6 -2.5 1.6
v 1.6 -2.3 1.6
v 1.6 6.5 1.6
v 1.6 6.7 1.6
v -1.4 -2.3 1.4
v -1.4 -2.1 1.4
v -1.4 6.3 1.4
v -1.4 6.5 1.4
v -0.9 5.6 1.4
v -0.9 5.7 1.4
v -0.9 5.8 1.4
v -0.9 5.9 1.4
v -0.8 1.2 1.4
v -0.8 5.6 1.4
v -0.8 5.7 1.4
v -0.8 5.8 1.4
v -0.8 5.9 1.4
v -0.7 1.1 1.4
v -0.7 1.2 1.4
v -0.7 1.3 1.4
v -0.7 5.7 1.4
v -0.6 1 1.4
v -0.6 1.1 1.4
v -0.6 1.2 1.4
v -0.6 1.3 1.4
v -0.5 0.9 1.4
v -0.5 1 1.4
v -0.5 1.1 1.4
v -0.5 1.2 1.4
v -0.4 0.8 1.4
v -0.4 0.9 1.4
v -0.4 1 1.4
v -0.4 1.1 1.4
v -0.3 0.7 1.4
v -0.3 0.8 1.4
v -0.3 0.9 1.4
v -0.3 1 1.4
v -0.2 0.8 1.4
v -0.2 0.9 1.4
v 0.2 0.8 1.4
v 0.2 0.9 1.4
v 0.3 0.7 1.4
v 0.3 0.8 1.4
v 0.3 0.9 1.4
v 0.3 1 1.4
v 0.4 0.8 1.4
v 0.4 0.9 1.4
v 0.4 1 1.4
v 0.4 1.1 1.4
v 0.5 0.9 1.4
v 0.5 1 1.4
v 0.5 1.1 1.4
v 0.5 1.2 1.4
v 0.6 1 1.4
v 0.6 1.1 1.4
v 0.6 1.2 1.4
v 0.6 1.3 1.4
v 0.7 1.1 1.4
v 0.7 1.2 1.4
v 0.7 1.3 1.4
v 0.7 5.7 1.4
v 0.8 1.2 1.4
v 0.8 5.6 1.4
v 0.8 5.7 1.4
v 0.8 5.8 1.4
v 0.8 5.9 1.4
v 0.9 5.6 1.4
v 0.9 5.7 1.4
v 0.9 5.8 1.4
v 0.9 5.9 1.4
v 1.4 -2.3 1.4
v 1.4 -2.1 1.4
v 1.4 6.3 1.4
v 1.4 6.5 1.4
v -1 5.7 1.3
v -1 5.8 1.3
v -0.9 5.7 1.3
v -0.9 5.8 1.3
v -0.8 5.7 1.3
v -0.8 5.8 1.3
v 0.8 5.7 1.3
v 0.8 5.8 1.3
v 0.9 5.7 1.3
v 0.9 5.8 1.3
v 1 5.7 1.3
v 1 5.8 1.3
v -1.2 -2.1 1.2
v -1.2 6.3 1.2
v -1 5.7 1.2
v -1 5.8 1.2
v -0.9 5.6 1.2
v -0.9 5.7 1.2
v -0.9 5.8 1.2
v -0.9 5.9 1.2
v -0.8 5.6 1.2
v -0.8 5.9 1.2
v 0.8 5.6 1.2
v 0.8 5.9 1.2
v 0.9 5.6 1.2
v 0.9 5.7 1.2
v 0.9 5.8 1.2
v 0.9 5.9 1.2
v 1 5.7 1.2
v 1 5.8 1.2
v 1.2 -2.1 1.2
v 1.2 6.3 1.2
v -0.8 1.2 1.3
v -0.8 5.6 1.3
v -0.8 5.7 1.3
v -0.8 5.8 1.3
v -0.7 1.1 1.3
v -0.7 1.2 1.3
v -0.7 1.3 1.3
v -0.7 5.7 1.3
v -0.6 1 1.3
v -0.6 1.1 1.3
v -0.6 1.2 1.3
v -0.6 1.3 1.3
v -0.5 0.9 1.3
v -0.5 1 1.3
v -0.5 1.1 1.3
v -0.5 1.2 1.3
v -0.4 0.8 1.3
v -0.4 0.9 1.3
v -0.4 1 1.3
v -0.4 1.1 1.3
v -0.3 0.7 1.3
v -0.3 0.8 1.3
v -0.3 0.9 1.3
v -0.3 1 1.3
v -0.2 0.8 1.3
v -0.2 0.9 1.3
v 0.2 0.8 1.3
v 0.2 0.9 1.3
v 0.3 0.7 1.3
v 0.3 0.8 1.3
v 0.3 0.9 1.3
v 0.3 1 1.3
v 0.4 0.8 1.3
v 0.4 0.9 1.3
v 0.4 1 1.3
v 0.4 1.1 1.3
v 0.5 0.9 1.3
v 0.5 1 1.3
v 0.5 1.1 1.3
v 0.5 1.2 1.3
v 0.6 1 1.3
v 0.6 1.1 1.3
v 0.6 1.2 1.3
v 0.6 1.3 1.3
v 0.7 1.1 1.3
v 0.7 1.2 1.3
v 0.7 1.3 1.3
v 0.7 5.7 1.3
v 0.8 1.2 1.3
v 0.8 5.6 1.3
v 0.8 5.7 1.3
v 0.8 5.8 1.3
v -1.2 -2.1 -1.2
v -1.2 6.3 -1.2
v 1.2 -2.1 -1.2
v 1.2 6.3 -1.2
v -1.4 -2.3 -1.4
v -1.4 -2.1 -1.4
v -1.4 6.3 -1.4
v -1.4 6.5 -1.4
v 1.4 -2.3 -1.4
v 1.4 -2.1 -1.4
v 1.4 6.3 -1.4
v 1.4 6.5 -1.4
v -1.6 -2.5 -1.6
v -1.6 -2.3 -1.6
v -1.6 6.5 -1.6
v -1.6 6.7 -1.6
v 1.6 -2.5 -1.6
v 1.6 -2.3 -1.6
v 1.6 6.5 -1.6
v 1.6 6.7 -1.6
v -1.6 -2.5 1.6
v 1.6 -2.5 1.6
v -1.6 -2.5 -1.6
v 1.6 -2.5 -1.6
v -0.3 0.7 1.4
v 0.3 0.7 1.4
v -0.3 0.7 1.3
v 0.3 0.7 1.3
v -0.4 0.8 1.4
v -0.3 0.8 1.4
v 0.3 0.8 1.4
v 0.4 0.8 1.4
v -0.4 0.8 1.3
v -0.3 0.8 1.3
v 0.3 0.8 1.3
v 0.4 0.8 1.3
v -0.5 0.9 1.4
v -0.4 0.9 1.4
v 0.4 0.9 1.4
v 0.5 0.9 1.4
v -0.5 0.9 1.3
v -0.4 0.9 1.3
v 0.4 0.9 1.3
v 0.5 0.9 1.3
v -0.6 1 1.4
v -0.5 1 1.4
v 0.5 1 1.4
v 0.6 1 1.4
v -0.6 1 1.3
v -0.5 1 1.3
v 0.5 1 1.3
v 0.6 1 1.3
v -0.7 1.1 1.4
v -0.6 1.1 1.4
v 0.6 1.1 1.4
v 0.7 1.1 1.4
v -0.7 1.1 1.3
v -0.6 1.1 1.3
v 0.6 1.1 1.3
v 0.7 1.1 1.3
v -0.8 1.2 1.4
v -0.7 1.2 1.4
v 0.7 1.2 1.4
v 0.8 1.2 1.4
v -0.8 1.2 1.3
v -0.7 1.2 1.3
v 0.7 1.2 1.3
v 0.8 1.2 1.3
v -0.9 5.6 1.4
v -0.8 5.6 1.4
v 0.8 5.6 1.4
v 0.9 5.6 1.4
v -0.8 5.6 1.3
v 0.8 5.6 1.3
v -0.9 5.6 1.2
v -0.8 5.6 1.2
v 0.8 5.6 1.2
v 0.9 5.6 1.2
v -1 5.7 1.3
v -0.9 5.7 1.3
v 0.9 5.7 1.3
v 1 5.7 1.3
v -1 5.7 1.2
v -0.9 5.7 1.2
v 0.9 5.7 1.2
v 1 5.7 1.2
v -0.9 5.8 1.4
v -0.8 5.8 1.4
v 0.8 5.8 1.4
v 0.9 5.8 1.4
v -0.9 5.8 1.3
v -0.8 5.8 1.3
v 0.8 5.8 1.3
v 0.9 5.8 1.3
v -1.4 6.3 1.4
v 1.4 6.3 1.4
v -1.2 6.3 1.2
v 1.2 6.3 1.2
v -1.2 6.3 -1.2
v 1.2 6.3 -1.2
v -1.4 6.3 -1.4
v 1.4 6.3 -1.4
v -1.6 6.5 1.6
v 1.6 6.5 1.6
v -1.4 6.5 1.4
v 1.4 6.5 1.4
v -1.4 6.5 -1.4
v 1.4 6.5 -1.4
v -1.6 6.5 -1.6
v 1.6 6.5 -1.6
v -1.6 -2.3 1.6
v 1.6 -2.3 1.6
v -1.4 -2.3 1.4
v 1.4 -2.3 1.4
v -1.4 -2.3 -1.4
v 1.4 -2.3 -1.4
v -1.6 -2.3 -1.6
v 1.6 -2.3 -1.6
v -1.4 -2.1 1.4
v 1.4 -2.1 1.4
v -1.2 -2.1 1.2
v 1.2 -2.1 1.2
v -1.2 -2.1 -1.2
v 1.2 -2.1 -1.2
v -1.4 -2.1 -1.4
v 1.4 -2.1 -1.4
v -0.9 5.7 1.4
v -0.8 5.7 1.4
v 0.8 5.7 1.4
v 0.9 5.7 1.4
v -0.9 5.7 1.3
v -0.8 5.7 1.3
v 0.8 5.7 1.3
v 0.9 5.7 1.3
v -0.8 5.8 1.4
v 0.8 5.8 1.4
v -1 5.8 1.3
v -0.9 5.8 1.3
v -0.8 5.8 1.3
v 0.8 5.8 1.3
v 0.9 5.8 1.3
v 1 5.8 1.3
v -1 5.8 1.2
v -0.9 5.8 1.2
v 0.9 5.8 1.2
v 1 5.8 1.2
v -0.9 5.9 1.4
v -0.8 5.9 1.4
v 0.8 5.9 1.4
v 0.9 5.9 1.4
v -0.9 5.9 1.2
v -0.8 5.9 1.2
v 0.8 5.9 1.2
v 0.9 5.9 1.2
v -1.6 6.7 1.6
v 1.6 6.7 1.6
v -1.6 6.7 -1.6
v 1.6 6.7 -1.6

# faces
f 3/4/1 2/4/1 1/4/1
f 4/4/1 2/4/1 3/4/1
f 7/4/1 6/4/1 5/4/1
f 8/4/1 6/4/1 7/4/1
f 11/4/1 10/4/1 9/4/1
f 12/4/1 10/4/1 11/4/1
f 15/4/1 14/4/1 13/4/1
f 16/4/1 14/4/1 15/4/1
f 19/4/1 18/4/1 17/4/1
f 20/4/1 18/4/1 19/4/1
f 23/2/1 22/2/1 21/2/1
f 24/2/1 22/2/1 23/2/1
f 27/2/1 26/2/1 25/2/1
f 28/2/1 26/2/1 27/2/1
f 29/2/1 26/2/1 28/2/1
f 33/2/1 31/2/1 30/2/1
f 33/2/1 32/2/1 31/2/1
f 34/2/1 32/2/1 33/2/1
f 37/1/1 36/1/1 35/1/1
f 38/1/1 36/1/1 37/1/1
f 41/2/1 40/2/1 39/2/1
f 42/2/1 40/2/1 41/2/1
f 45/1/1 44/1/1 43/1/1
f 46/1/1 44/1/1 45/1/1
f 49/1/1 48/1/1 47/1/1
f 50/1/1 48/1/1 49/1/1
f 53/1/1 52/1/1 51/1/1
f 54/1/1 52/1/1 53/1/1
f 57/1/1 56/1/1 55/1/1
f 58/1/1 56/1/1 57/1/1
f 61/1/1 60/1/1 59/1/1
f 62/1/1 60/1/1 61/1/1
f 65/2/1 64/2/1 63/2/1
f 67/2/1 64/2/1 65/2/1
f 68/2/1 67/2/1 66/2/1
f 69/2/1 64/2/1 67/2/1
f 69/2/1 67/2/1 68/2/1
f 70/2/2 71/2/2 72/2/2
f 72/2/2 71/2/2 74/2/2
f 73/2/2 74/2/2 75/2/2
f 74/2/2 71/2/2 76/2/2
f 75/2/2 74/2/2 76/2/2
f 77/1/2 78/1/2 79/1/2
f 79/1/2 78/1/2 80/1/2
f 81/1/2 82/1/2 83/1/2
f 83/1/2 82/1/2 84/1/2
f 85/1/2 86/1/2 87/1/2
f 87/1/2 86/1/2 88/1/2
f 89/1/2 90/1/2 91/1/2
f 91/1/2 90/1/2 92/1/2
f 93/1/2 94/1/2 95/1/2
f 95/1/2 94/1/2 96/1/2
f 97/1/2 98/1/2 99/1/2
f 99/1/2 98/1/2 100/1/2
f 101/2/2 102/2/2 103/2/2
f 103/2/2 102/2/2 104/2/2
f 105/2/2 106/2/2 107/2/2
f 107/2/2 106/2/2 108/2/2
f 108/2/2 106/2/2 109/2/2
f 110/2/2 111/2/2 113/2/2
f 111/2/2 112/2/2 113/2/2
f 113/2/2 112/2/2 114/2/2
f 115/2/2 116/2/2 117/2/2
f 117/2/2 116/2/2 118/2/2
f 119/4/2 120/4/2 121/4/2
f 121/4/2 120/4/2 122/4/2
f 123/4/2 124/4/2 125/4/2
f 125/4/2 124/4/2 126/4/2
f 127/4/2 128/4/2 129/4/2
f 129/4/2 128/4/2 130/4/2
f 131/4/2 132/4/2 133/4/2
f 133/4/2 132/4/2 134/4/2
f 135/4/2 136/4/2 137/4/2
f 137/4/2 136/4/2 138/4/2
f 143/4/3 140/4/3 139/4/3
f 144/4/3 140/4/3 143/4/3
f 145/4/3 142/4/3 141/4/3
f 146/4/3 142/4/3 145/4/3
f 156/2/3 152/2/3 151/2/3
f 157/2/3 152/2/3 156/2/3
f 158/2/3 154/2/3 153/2/3
f 159/2/3 154/2/3 158/2/3
f 161/1/3 157/1/3 156/1/3
f 161/1/3 156/1/3 155/1/3
f 162/1/3 157/1/3 161/1/3
f 163/2/3 158/2/3 157/2/3
f 163/1/3 157/1/3 162/1/3
f 165/1/3 162/1/3 161/1/3
f 165/1/3 161/1/3 160/1/3
f 166/1/3 162/1/3 165/1/3
f 167/3/3 163/3/3 162/3/3
f 167/1/3 162/1/3 166/1/3
f 169/1/3 166/1/3 165/1/3
f 169/1/3 165/1/3 164/1/3
f 170/1/3 166/1/3 169/1/3
f 171/3/3 167/3/3 166/3/3
f 171/1/3 166/1/3 170/1/3
f 173/1/3 170/1/3 169/1/3
f 173/1/3 169/1/3 168/1/3
f 174/1/3 170/1/3 173/1/3
f 175/3/3 171/3/3 170/3/3
f 175/1/3 170/1/3 174/1/3
f 177/1/3 174/1/3 173/1/3
f 177/1/3 173/1/3 172/1/3
f 178/1/3 174/1/3 177/1/3
f 179/3/3 175/3/3 174/3/3
f 179/1/3 174/1/3 178/1/3
f 180/1/3 178/1/3 177/1/3
f 180/1/3 177/1/3 176/1/3
f 181/3/3 179/3/3 178/3/3
f 181/1/3 178/1/3 180/1/3
f 182/1/3 180/1/3 176/1/3
f 182/3/3 181/3/3 180/3/3
f 183/3/3 179/3/3 181/3/3
f 183/3/3 181/3/3 182/3/3
f 184/1/3 182/1/3 176/1/3
f 184/1/3 183/1/3 182/1/3
f 185/1/3 183/1/3 184/1/3
f 186/3/3 179/3/3 183/3/3
f 186/1/3 183/1/3 185/1/3
f 187/3/3 175/3/3 179/3/3
f 187/3/3 179/3/3 186/3/3
f 188/1/3 186/1/3 185/1/3
f 188/1/3 187/1/3 186/1/3
f 189/1/3 187/1/3 188/1/3
f 190/3/3 175/3/3 187/3/3
f 190/1/3 187/1/3 189/1/3
f 191/3/3 171/3/3 175/3/3
f 191/3/3 175/3/3 190/3/3
f 192/1/3 190/1/3 189/1/3
f 192/1/3 191/1/3 190/1/3
f 193/1/3 191/1/3 192/1/3
f 194/3/3 171/3/3 191/3/3
f 194/1/3 191/1/3 193/1/3
f 195/3/3 167/3/3 171/3/3
f 195/3/3 171/3/3 194/3/3
f 196/1/3 194/1/3 193/1/3
f 196/1/3 195/1/3 194/1/3
f 197/1/3 195/1/3 196/1/3
f 198/3/3 167/3/3 195/3/3
f 198/1/3 195/1/3 197/1/3
f 199/3/3 163/3/3 167/3/3
f 199/3/3 167/3/3 198/3/3
f 200/1/3 198/1/3 197/1/3
f 200/1/3 199/1/3 198/1/3
f 201/1/3 199/1/3 200/1/3
f 202/3/3 163/3/3 199/3/3
f 202/1/3 199/1/3 201/1/3
f 203/2/3 158/2/3 163/2/3
f 203/3/3 163/3/3 202/3/3
f 204/1/3 202/1/3 201/1/3
f 204/1/3 203/1/3 202/1/3
f 205/1/3 203/1/3 204/1/3
f 206/2/3 158/2/3 203/2/3
f 206/1/3 203/1/3 205/1/3
f 207/2/3 158/2/3 206/2/3
f 209/2/3 206/2/3 205/2/3
f 210/2/3 206/2/3 209/2/3
f 211/2/3 208/2/3 207/2/3
f 212/2/3 208/2/3 211/2/3
f 213/4/3 148/4/3 147/4/3
f 214/4/3 148/4/3 213/4/3
f 215/4/3 150/4/3 149/4/3
f 216/4/3 150/4/3 215/4/3
f 219/2/3 218/2/3 217/2/3
f 220/2/3 218/2/3 219/2/3
f 221/2/3 220/2/3 219/2/3
f 222/2/3 220/2/3 221/2/3
f 225/2/3 224/2/3 223/2/3
f 226/2/3 224/2/3 225/2/3
f 227/2/3 226/2/3 225/2/3
f 228/2/3 226/2/3 227/2/3
f 231/4/3 230/4/3 229/4/3
f 232/4/3 230/4/3 231/4/3
f 233/4/3 231/4/3 229/4/3
f 234/4/3 231/4/3 233/4/3
f 235/4/3 230/4/3 232/4/3
f 236/4/3 230/4/3 235/4/3
f 237/4/3 233/4/3 229/4/3
f 238/4/3 230/4/3 236/4/3
f 239/4/3 237/4/3 229/4/3
f 239/4/3 238/4/3 237/4/3
f 240/4/3 230/4/3 238/4/3
f 240/4/3 238/4/3 239/4/3
f 241/4/3 239/4/3 229/4/3
f 244/4/3 230/4/3 240/4/3
f 245/4/3 242/4/3 241/4/3
f 246/4/3 244/4/3 243/4/3
f 247/4/3 245/4/3 241/4/3
f 247/4/3 246/4/3 245/4/3
f 247/4/3 241/4/3 229/4/3
f 248/4/3 244/4/3 246/4/3
f 248/4/3 246/4/3 247/4/3
f 248/4/3 230/4/3 244/4/3
f 249/1/4 250/1/4 254/1/4
f 250/1/4 251/1/4 254/1/4
f 254/1/4 251/1/4 255/1/4
f 251/2/4 252/2/4 256/2/4
f 255/1/4 251/1/4 256/1/4
f 254/1/4 255/1/4 258/1/4
f 253/1/4 254/1/4 258/1/4
f 258/1/4 255/1/4 259/1/4
f 255/3/4 256/3/4 260/3/4
f 259/1/4 255/1/4 260/1/4
f 258/1/4 259/1/4 262/1/4
f 257/1/4 258/1/4 262/1/4
f 262/1/4 259/1/4 263/1/4
f 259/3/4 260/3/4 264/3/4
f 263/1/4 259/1/4 264/1/4
f 262/1/4 263/1/4 266/1/4
f 261/1/4 262/1/4 266/1/4
f 266/1/4 263/1/4 267/1/4
f 263/3/4 264/3/4 268/3/4
f 267/1/4 263/1/4 268/1/4
f 266/1/4 267/1/4 270/1/4
f 265/1/4 266/1/4 270/1/4
f 270/1/4 267/1/4 271/1/4
f 267/3/4 268/3/4 272/3/4
f 271/1/4 267/1/4 272/1/4
f 270/1/4 271/1/4 273/1/4
f 269/1/4 270/1/4 273/1/4
f 271/3/4 272/3/4 274/3/4
f 273/1/4 271/1/4 274/1/4
f 269/1/4 273/1/4 275/1/4
f 273/3/4 274/3/4 275/3/4
f 274/3/4 272/3/4 276/3/4
f 275/3/4 274/3/4 276/3/4
f 269/1/4 275/1/4 277/1/4
f 275/1/4 276/1/4 277/1/4
f 277/1/4 276/1/4 278/1/4
f 276/3/4 272/3/4 279/3/4
f 278/1/4 276/1/4 279/1/4
f 272/3/4 268/3/4 280/3/4
f 279/3/4 272/3/4 280/3/4
f 278/1/4 279/1/4 281/1/4
f 279/1/4 280/1/4 281/1/4
f 281/1/4 280/1/4 282/1/4
f 280/3/4 268/3/4 283/3/4
f 282/1/4 280/1/4 283/1/4
f 268/3/4 264/3/4 284/3/4
f 283/3/4 268/3/4 284/3/4
f 282/1/4 283/1/4 285/1/4
f 283/1/4 284/1/4 285/1/4
f 285/1/4 284/1/4 286/1/4
f 284/3/4 264/3/4 287/3/4
f 286/1/4 284/1/4 287/1/4
f 264/3/4 260/3/4 288/3/4
f 287/3/4 264/3/4 288/3/4
f 286/1/4 287/1/4 289/1/4
f 287/1/4 288/1/4 289/1/4
f 289/1/4 288/1/4 290/1/4
f 288/3/4 260/3/4 291/3/4
f 290/1/4 288/1/4 291/1/4
f 260/3/4 256/3/4 292/3/4
f 291/3/4 260/3/4 292/3/4
f 290/1/4 291/1/4 293/1/4
f 291/1/4 292/1/4 293/1/4
f 293/1/4 292/1/4 294/1/4
f 292/3/4 256/3/4 295/3/4
f 294/1/4 292/1/4 295/1/4
f 256/2/4 252/2/4 296/2/4
f 295/3/4 256/3/4 296/3/4
f 294/1/4 295/1/4 297/1/4
f 295/1/4 296/1/4 297/1/4
f 297/1/4 296/1/4 298/1/4
f 296/2/4 252/2/4 299/2/4
f 298/1/4 296/1/4 299/1/4
f 299/2/4 252/2/4 300/2/4
f 301/4/4 302/4/4 303/4/4
f 303/4/4 302/4/4 304/4/4
f 305/4/4 306/4/4 309/4/4
f 309/4/4 306/4/4 310/4/4
f 307/4/4 308/4/4 311/4/4
f 311/4/4 308/4/4 312/4/4
f 313/4/4 314/4/4 317/4/4
f 317/4/4 314/4/4 318/4/4
f 315/4/4 316/4/4 319/4/4
f 319/4/4 316/4/4 320/4/4
f 323/4/5 322/4/5 321/4/5
f 324/4/5 322/4/5 323/4/5
f 327/1/5 326/1/5 325/1/5
f 328/1/5 326/1/5 327/1/5
f 333/1/5 330/1/5 329/1/5
f 334/1/5 330/1/5 333/1/5
f 335/1/5 332/1/5 331/1/5
f 336/1/5 332/1/5 335/1/5
f 341/1/5 338/1/5 337/1/5
f 342/1/5 338/1/5 341/1/5
f 343/1/5 340/1/5 339/1/5
f 344/1/5 340/1/5 343/1/5
f 349/1/5 346/1/5 345/1/5
f 350/1/5 346/1/5 349/1/5
f 351/1/5 348/1/5 347/1/5
f 352/1/5 348/1/5 351/1/5
f 357/1/5 354/1/5 353/1/5
f 358/1/5 354/1/5 357/1/5
f 359/1/5 356/1/5 355/1/5
f 360/1/5 356/1/5 359/1/5
f 365/1/5 362/1/5 361/1/5
f 366/1/5 362/1/5 365/1/5
f 367/1/5 364/1/5 363/1/5
f 368/1/5 364/1/5 367/1/5
f 373/2/5 370/2/5 369/2/5
f 374/2/5 372/2/5 371/2/5
f 375/2/5 373/2/5 369/2/5
f 376/2/5 373/2/5 375/2/5
f 377/2/5 372/2/5 374/2/5
f 378/2/5 372/2/5 377/2/5
f 383/2/5 380/2/5 379/2/5
f 384/2/5 380/2/5 383/2/5
f 385/2/5 382/2/5 381/2/5
f 386/2/5 382/2/5 385/2/5
f 391/2/5 388/2/5 387/2/5
f 392/2/5 388/2/5 391/2/5
f 393/2/5 390/2/5 389/2/5
f 394/2/5 390/2/5 393/2/5
f 397/4/5 396/4/5 395/4/5
f 398/4/5 396/4/5 397/4/5
f 399/4/5 397/4/5 395/4/5
f 400/4/5 396/4/5 398/4/5
f 401/4/5 399/4/5 395/4/5
f 401/4/5 400/4/5 399/4/5
f 402/4/5 396/4/5 400/4/5
f 402/4/5 400/4/5 401/4/5
f 405/4/5 404/4/5 403/4/5
f 406/4/5 404/4/5 405/4/5
f 407/4/5 405/4/5 403/4/5
f 408/4/5 404/4/5 406/4/5
f 409/4/5 407/4/5 403/4/5
f 409/4/5 408/4/5 407/4/5
f 410/4/5 404/4/5 408/4/5
f 410/4/5 408/4/5 409/4/5
f 411/4/6 412/4/6 413/4/6
f 413/4/6 412/4/6 414/4/6
f 411/4/6 413/4/6 415/4/6
f 414/4/6 412/4/6 416/4/6
f 411/4/6 415/4/6 417/4/6
f 415/4/6 416/4/6 417/4/6
f 416/4/6 412/4/6 418/4/6
f 417/4/6 416/4/6 418/4/6
f 419/4/6 420/4/6 421/4/6
f 421/4/6 420/4/6 422/4/6
f 419/4/6 421/4/6 423/4/6
f 422/4/6 420/4/6 424/4/6
f 419/4/6 423/4/6 425/4/6
f 423/4/6 424/4/6 425/4/6
f 424/4/6 420/4/6 426/4/6
f 425/4/6 424/4/6 426/4/6
f 427/2/6 428/2/6 431/2/6
f 431/2/6 428/2/6 432/2/6
f 429/2/6 430/2/6 433/2/6
f 433/2/6 430/2/6 434/2/6
f 435/2/6 436/2/6 439/2/6
f 439/2/6 436/2/6 440/2/6
f 437/2/6 438/2/6 443/2/6
f 443/2/6 438/2/6 444/2/6
f 441/2/6 442/2/6 445/2/6
f 445/2/6 442/2/6 446/2/6
f 447/2/6 448/2/6 451/2/6
f 451/2/6 448/2/6 452/2/6
f 449/2/6 450/2/6 453/2/6
f 453/2/6 450/2/6 454/2/6
f 455/4/6 456/4/6 457/4/6
f 457/4/6 456/4/6 458/4/6
