# MagicaVoxel @ Ephtracy

# group
o 

# material
mtllib Crown2.mtl
usemtl palette

# normals
vn -1 0 0
vn 1 0 0
vn 0 0 1
vn 0 0 -1
vn 0 -1 0
vn 0 1 0

# texcoords
vt 0.0644531 0.5
vt 0.427734 0.5
vt 0.431641 0.5

# verts
v -0.5 0 0.4
v -0.5 0 0.3
v -0.5 0 -0.2
v -0.5 0 -0.3
v -0.5 0.1 0.3
v -0.5 0.1 0.2
v -0.5 0.1 0.1
v -0.5 0.1 0
v -0.5 0.1 -0.1
v -0.5 0.1 -0.2
v -0.5 0.2 0.4
v -0.5 0.2 0.2
v -0.5 0.2 -0.1
v -0.5 0.2 -0.3
v -0.5 0.3 0.1
v -0.5 0.3 0
v -0.5 0.4 0.2
v -0.5 0.4 0.1
v -0.5 0.4 0
v -0.5 0.4 -0.1
v -0.4 0 0.5
v -0.4 0 0.4
v -0.4 0 -0.3
v -0.4 0 -0.4
v -0.4 0.2 0.4
v -0.4 0.2 -0.3
v -0.4 0.3 0.5
v -0.4 0.3 0.4
v -0.4 0.3 -0.3
v -0.4 0.3 -0.4
v -0.2 0.2 0.5
v -0.2 0.2 0.4
v -0.2 0.2 -0.3
v -0.2 0.2 -0.4
v -0.2 0.4 0.5
v -0.2 0.4 0.4
v -0.2 0.4 -0.3
v -0.2 0.4 -0.4
v 0 0.3 0.5
v 0 0.3 0.4
v 0 0.3 -0.3
v 0 0.3 -0.4
v 0 0.4 0.5
v 0 0.4 0.4
v 0 0.4 -0.3
v 0 0.4 -0.4
v 0.2 0.2 0.5
v 0.2 0.2 0.4
v 0.2 0.2 -0.3
v 0.2 0.2 -0.4
v 0.2 0.3 0.5
v 0.2 0.3 0.4
v 0.2 0.3 -0.3
v 0.2 0.3 -0.4
v 0.3 0 0.4
v 0.3 0 0.3
v 0.3 0 -0.2
v 0.3 0 -0.3
v 0.3 0.1 0.3
v 0.3 0.1 0.2
v 0.3 0.1 0.1
v 0.3 0.1 0
v 0.3 0.1 -0.1
v 0.3 0.1 -0.2
v 0.3 0.2 0.4
v 0.3 0.2 0.2
v 0.3 0.2 -0.1
v 0.3 0.2 -0.3
v 0.3 0.3 0.1
v 0.3 0.3 0
v 0.3 0.4 0.2
v 0.3 0.4 0.1
v 0.3 0.4 0
v 0.3 0.4 -0.1
v -0.4 0 0.4
v -0.4 0 0.3
v -0.4 0 -0.2
v -0.4 0 -0.3
v -0.4 0.1 0.3
v -0.4 0.1 0.2
v -0.4 0.1 0.1
v -0.4 0.1 0
v -0.4 0.1 -0.1
v -0.4 0.1 -0.2
v -0.4 0.2 0.4
v -0.4 0.2 0.2
v -0.4 0.2 -0.1
v -0.4 0.2 -0.3
v -0.4 0.3 0.1
v -0.4 0.3 0
v -0.4 0.4 0.2
v -0.4 0.4 0.1
v -0.4 0.4 0
v -0.4 0.4 -0.1
v -0.3 0.2 0.5
v -0.3 0.2 0.4
v -0.3 0.2 -0.3
v -0.3 0.2 -0.4
v -0.3 0.3 0.5
v -0.3 0.3 0.4
v -0.3 0.3 -0.3
v -0.3 0.3 -0.4
v -0.1 0.3 0.5
v -0.1 0.3 0.4
v -0.1 0.3 -0.3
v -0.1 0.3 -0.4
v -0.1 0.4 0.5
v -0.1 0.4 0.4
v -0.1 0.4 -0.3
v -0.1 0.4 -0.4
v 0.1 0.2 0.5
v 0.1 0.2 0.4
v 0.1 0.2 -0.3
v 0.1 0.2 -0.4
v 0.1 0.4 0.5
v 0.1 0.4 0.4
v 0.1 0.4 -0.3
v 0.1 0.4 -0.4
v 0.3 0 0.5
v 0.3 0 0.4
v 0.3 0 -0.3
v 0.3 0 -0.4
v 0.3 0.2 0.4
v 0.3 0.2 -0.3
v 0.3 0.3 0.5
v 0.3 0.3 0.4
v 0.3 0.3 -0.3
v 0.3 0.3 -0.4
v 0.4 0 0.4
v 0.4 0 0.3
v 0.4 0 -0.2
v 0.4 0 -0.3
v 0.4 0.1 0.3
v 0.4 0.1 0.2
v 0.4 0.1 0.1
v 0.4 0.1 0
v 0.4 0.1 -0.1
v 0.4 0.1 -0.2
v 0.4 0.2 0.4
v 0.4 0.2 0.2
v 0.4 0.2 -0.1
v 0.4 0.2 -0.3
v 0.4 0.3 0.1
v 0.4 0.3 0
v 0.4 0.4 0.2
v 0.4 0.4 0.1
v 0.4 0.4 0
v 0.4 0.4 -0.1
v -0.4 0 0.5
v -0.4 0.3 0.5
v -0.3 0 0.5
v -0.3 0.1 0.5
v -0.3 0.2 0.5
v -0.3 0.3 0.5
v -0.2 0.1 0.5
v -0.2 0.2 0.5
v -0.2 0.4 0.5
v -0.1 0.1 0.5
v -0.1 0.3 0.5
v -0.1 0.4 0.5
v 0 0.1 0.5
v 0 0.3 0.5
v 0 0.4 0.5
v 0.1 0.1 0.5
v 0.1 0.2 0.5
v 0.1 0.4 0.5
v 0.2 0 0.5
v 0.2 0.1 0.5
v 0.2 0.2 0.5
v 0.2 0.3 0.5
v 0.3 0 0.5
v 0.3 0.3 0.5
v -0.5 0 0.4
v -0.5 0.2 0.4
v -0.4 0 0.4
v -0.4 0.2 0.4
v 0.3 0 0.4
v 0.3 0.2 0.4
v 0.4 0 0.4
v 0.4 0.2 0.4
v -0.5 0.2 0.2
v -0.5 0.4 0.2
v -0.4 0.2 0.2
v -0.4 0.4 0.2
v 0.3 0.2 0.2
v 0.3 0.4 0.2
v 0.4 0.2 0.2
v 0.4 0.4 0.2
v -0.5 0.3 0
v -0.5 0.4 0
v -0.4 0.3 0
v -0.4 0.4 0
v 0.3 0.3 0
v 0.3 0.4 0
v 0.4 0.3 0
v 0.4 0.4 0
v -0.4 0 -0.3
v -0.4 0.2 -0.3
v -0.4 0.3 -0.3
v -0.3 0 -0.3
v -0.3 0.1 -0.3
v -0.3 0.2 -0.3
v -0.3 0.3 -0.3
v -0.2 0.1 -0.3
v -0.2 0.2 -0.3
v -0.2 0.4 -0.3
v -0.1 0.1 -0.3
v -0.1 0.3 -0.3
v -0.1 0.4 -0.3
v 0 0.1 -0.3
v 0 0.3 -0.3
v 0 0.4 -0.3
v 0.1 0.1 -0.3
v 0.1 0.2 -0.3
v 0.1 0.4 -0.3
v 0.2 0 -0.3
v 0.2 0.1 -0.3
v 0.2 0.2 -0.3
v 0.2 0.3 -0.3
v 0.3 0 -0.3
v 0.3 0.2 -0.3
v 0.3 0.3 -0.3
v -0.4 0 0.4
v -0.4 0.2 0.4
v -0.4 0.3 0.4
v -0.3 0 0.4
v -0.3 0.1 0.4
v -0.3 0.2 0.4
v -0.3 0.3 0.4
v -0.2 0.1 0.4
v -0.2 0.2 0.4
v -0.2 0.4 0.4
v -0.1 0.1 0.4
v -0.1 0.3 0.4
v -0.1 0.4 0.4
v 0 0.1 0.4
v 0 0.3 0.4
v 0 0.4 0.4
v 0.1 0.1 0.4
v 0.1 0.2 0.4
v 0.1 0.4 0.4
v 0.2 0 0.4
v 0.2 0.1 0.4
v 0.2 0.2 0.4
v 0.2 0.3 0.4
v 0.3 0 0.4
v 0.3 0.2 0.4
v 0.3 0.3 0.4
v -0.5 0.3 0.1
v -0.5 0.4 0.1
v -0.4 0.3 0.1
v -0.4 0.4 0.1
v 0.3 0.3 0.1
v 0.3 0.4 0.1
v 0.4 0.3 0.1
v 0.4 0.4 0.1
v -0.5 0.2 -0.1
v -0.5 0.4 -0.1
v -0.4 0.2 -0.1
v -0.4 0.4 -0.1
v 0.3 0.2 -0.1
v 0.3 0.4 -0.1
v 0.4 0.2 -0.1
v 0.4 0.4 -0.1
v -0.5 0 -0.3
v -0.5 0.2 -0.3
v -0.4 0 -0.3
v -0.4 0.2 -0.3
v 0.3 0 -0.3
v 0.3 0.2 -0.3
v 0.4 0 -0.3
v 0.4 0.2 -0.3
v -0.4 0 -0.4
v -0.4 0.3 -0.4
v -0.3 0 -0.4
v -0.3 0.1 -0.4
v -0.3 0.2 -0.4
v -0.3 0.3 -0.4
v -0.2 0.1 -0.4
v -0.2 0.2 -0.4
v -0.2 0.4 -0.4
v -0.1 0.1 -0.4
v -0.1 0.3 -0.4
v -0.1 0.4 -0.4
v 0 0.1 -0.4
v 0 0.3 -0.4
v 0 0.4 -0.4
v 0.1 0.1 -0.4
v 0.1 0.2 -0.4
v 0.1 0.4 -0.4
v 0.2 0 -0.4
v 0.2 0.1 -0.4
v 0.2 0.2 -0.4
v 0.2 0.3 -0.4
v 0.3 0 -0.4
v 0.3 0.3 -0.4
v -0.4 0 0.5
v -0.3 0 0.5
v 0.2 0 0.5
v 0.3 0 0.5
v -0.5 0 0.4
v -0.4 0 0.4
v -0.3 0 0.4
v 0.2 0 0.4
v 0.3 0 0.4
v 0.4 0 0.4
v -0.5 0 0.3
v -0.4 0 0.3
v 0.3 0 0.3
v 0.4 0 0.3
v -0.5 0 -0.2
v -0.4 0 -0.2
v 0.3 0 -0.2
v 0.4 0 -0.2
v -0.5 0 -0.3
v -0.4 0 -0.3
v -0.3 0 -0.3
v 0.2 0 -0.3
v 0.3 0 -0.3
v 0.4 0 -0.3
v -0.4 0 -0.4
v -0.3 0 -0.4
v 0.2 0 -0.4
v 0.3 0 -0.4
v -0.3 0.2 0.5
v -0.2 0.2 0.5
v 0.1 0.2 0.5
v 0.2 0.2 0.5
v -0.5 0.2 0.4
v -0.4 0.2 0.4
v -0.3 0.2 0.4
v -0.2 0.2 0.4
v 0.1 0.2 0.4
v 0.2 0.2 0.4
v 0.3 0.2 0.4
v 0.4 0.2 0.4
v -0.5 0.2 0.2
v -0.4 0.2 0.2
v 0.3 0.2 0.2
v 0.4 0.2 0.2
v -0.5 0.2 -0.1
v -0.4 0.2 -0.1
v 0.3 0.2 -0.1
v 0.4 0.2 -0.1
v -0.5 0.2 -0.3
v -0.4 0.2 -0.3
v -0.3 0.2 -0.3
v -0.2 0.2 -0.3
v 0.1 0.2 -0.3
v 0.2 0.2 -0.3
v 0.3 0.2 -0.3
v 0.4 0.2 -0.3
v -0.3 0.2 -0.4
v -0.2 0.2 -0.4
v 0.1 0.2 -0.4
v 0.2 0.2 -0.4
v -0.4 0.3 0.5
v -0.3 0.3 0.5
v -0.1 0.3 0.5
v 0 0.3 0.5
v 0.2 0.3 0.5
v 0.3 0.3 0.5
v -0.4 0.3 0.4
v -0.3 0.3 0.4
v -0.1 0.3 0.4
v 0 0.3 0.4
v 0.2 0.3 0.4
v 0.3 0.3 0.4
v -0.5 0.3 0.1
v -0.4 0.3 0.1
v 0.3 0.3 0.1
v 0.4 0.3 0.1
v -0.5 0.3 0
v -0.4 0.3 0
v 0.3 0.3 0
v 0.4 0.3 0
v -0.4 0.3 -0.3
v -0.3 0.3 -0.3
v -0.1 0.3 -0.3
v 0 0.3 -0.3
v 0.2 0.3 -0.3
v 0.3 0.3 -0.3
v -0.4 0.3 -0.4
v -0.3 0.3 -0.4
v -0.1 0.3 -0.4
v 0 0.3 -0.4
v 0.2 0.3 -0.4
v 0.3 0.3 -0.4
v -0.2 0.4 0.5
v -0.1 0.4 0.5
v 0 0.4 0.5
v 0.1 0.4 0.5
v -0.2 0.4 0.4
v -0.1 0.4 0.4
v 0 0.4 0.4
v 0.1 0.4 0.4
v -0.5 0.4 0.2
v -0.4 0.4 0.2
v 0.3 0.4 0.2
v 0.4 0.4 0.2
v -0.5 0.4 0.1
v -0.4 0.4 0.1
v 0.3 0.4 0.1
v 0.4 0.4 0.1
v -0.5 0.4 0
v -0.4 0.4 0
v 0.3 0.4 0
v 0.4 0.4 0
v -0.5 0.4 -0.1
v -0.4 0.4 -0.1
v 0.3 0.4 -0.1
v 0.4 0.4 -0.1
v -0.2 0.4 -0.3
v -0.1 0.4 -0.3
v 0 0.4 -0.3
v 0.1 0.4 -0.3
v -0.2 0.4 -0.4
v -0.1 0.4 -0.4
v 0 0.4 -0.4
v 0.1 0.4 -0.4

# faces
f 5/3/1 2/3/1 1/3/1
f 5/2/1 3/2/1 2/2/1
f 6/2/1 3/2/1 5/2/1
f 7/2/1 3/2/1 6/2/1
f 8/2/1 3/2/1 7/2/1
f 9/2/1 3/2/1 8/2/1
f 10/3/1 4/3/1 3/3/1
f 10/2/1 3/2/1 9/2/1
f 11/3/1 5/3/1 1/3/1
f 11/3/1 6/3/1 5/3/1
f 12/2/1 7/2/1 6/2/1
f 12/3/1 6/3/1 11/3/1
f 13/2/1 9/2/1 8/2/1
f 13/3/1 10/3/1 9/3/1
f 14/3/1 4/3/1 10/3/1
f 14/3/1 10/3/1 13/3/1
f 15/2/1 7/2/1 12/2/1
f 15/1/1 8/1/1 7/1/1
f 16/2/1 13/2/1 8/2/1
f 16/1/1 8/1/1 15/1/1
f 17/2/1 15/2/1 12/2/1
f 18/2/1 15/2/1 17/2/1
f 19/2/1 13/2/1 16/2/1
f 20/2/1 13/2/1 19/2/1
f 25/3/1 22/3/1 21/3/1
f 26/3/1 24/3/1 23/3/1
f 27/3/1 25/3/1 21/3/1
f 28/3/1 25/3/1 27/3/1
f 29/3/1 24/3/1 26/3/1
f 30/3/1 24/3/1 29/3/1
f 35/2/1 32/2/1 31/2/1
f 36/2/1 32/2/1 35/2/1
f 37/2/1 34/2/1 33/2/1
f 38/2/1 34/2/1 37/2/1
f 43/2/1 40/2/1 39/2/1
f 44/2/1 40/2/1 43/2/1
f 45/2/1 42/2/1 41/2/1
f 46/2/1 42/2/1 45/2/1
f 51/3/1 48/3/1 47/3/1
f 52/3/1 48/3/1 51/3/1
f 53/3/1 50/3/1 49/3/1
f 54/3/1 50/3/1 53/3/1
f 59/3/1 56/3/1 55/3/1
f 59/2/1 57/2/1 56/2/1
f 60/2/1 57/2/1 59/2/1
f 61/2/1 57/2/1 60/2/1
f 62/2/1 57/2/1 61/2/1
f 63/2/1 57/2/1 62/2/1
f 64/3/1 58/3/1 57/3/1
f 64/2/1 57/2/1 63/2/1
f 65/3/1 59/3/1 55/3/1
f 65/3/1 60/3/1 59/3/1
f 66/2/1 61/2/1 60/2/1
f 66/3/1 60/3/1 65/3/1
f 67/2/1 63/2/1 62/2/1
f 67/3/1 64/3/1 63/3/1
f 68/3/1 58/3/1 64/3/1
f 68/3/1 64/3/1 67/3/1
f 69/2/1 61/2/1 66/2/1
f 69/1/1 62/1/1 61/1/1
f 70/2/1 67/2/1 62/2/1
f 70/1/1 62/1/1 69/1/1
f 71/2/1 69/2/1 66/2/1
f 72/2/1 69/2/1 71/2/1
f 73/2/1 67/2/1 70/2/1
f 74/2/1 67/2/1 73/2/1
f 75/3/2 76/3/2 79/3/2
f 76/2/2 77/2/2 79/2/2
f 79/2/2 77/2/2 80/2/2
f 80/2/2 77/2/2 81/2/2
f 81/2/2 77/2/2 82/2/2
f 82/2/2 77/2/2 83/2/2
f 77/3/2 78/3/2 84/3/2
f 83/2/2 77/2/2 84/2/2
f 75/3/2 79/3/2 85/3/2
f 79/3/2 80/3/2 85/3/2
f 80/2/2 81/2/2 86/2/2
f 85/3/2 80/3/2 86/3/2
f 82/2/2 83/2/2 87/2/2
f 83/3/2 84/3/2 87/3/2
f 84/3/2 78/3/2 88/3/2
f 87/3/2 84/3/2 88/3/2
f 86/2/2 81/2/2 89/2/2
f 81/1/2 82/1/2 89/1/2
f 82/2/2 87/2/2 90/2/2
f 89/1/2 82/1/2 90/1/2
f 86/2/2 89/2/2 91/2/2
f 91/2/2 89/2/2 92/2/2
f 90/2/2 87/2/2 93/2/2
f 93/2/2 87/2/2 94/2/2
f 95/3/2 96/3/2 99/3/2
f 99/3/2 96/3/2 100/3/2
f 97/3/2 98/3/2 101/3/2
f 101/3/2 98/3/2 102/3/2
f 103/2/2 104/2/2 107/2/2
f 107/2/2 104/2/2 108/2/2
f 105/2/2 106/2/2 109/2/2
f 109/2/2 106/2/2 110/2/2
f 111/2/2 112/2/2 115/2/2
f 115/2/2 112/2/2 116/2/2
f 113/2/2 114/2/2 117/2/2
f 117/2/2 114/2/2 118/2/2
f 119/3/2 120/3/2 123/3/2
f 121/3/2 122/3/2 124/3/2
f 119/3/2 123/3/2 125/3/2
f 125/3/2 123/3/2 126/3/2
f 124/3/2 122/3/2 127/3/2
f 127/3/2 122/3/2 128/3/2
f 129/3/2 130/3/2 133/3/2
f 130/2/2 131/2/2 133/2/2
f 133/2/2 131/2/2 134/2/2
f 134/2/2 131/2/2 135/2/2
f 135/2/2 131/2/2 136/2/2
f 136/2/2 131/2/2 137/2/2
f 131/3/2 132/3/2 138/3/2
f 137/2/2 131/2/2 138/2/2
f 129/3/2 133/3/2 139/3/2
f 133/3/2 134/3/2 139/3/2
f 134/2/2 135/2/2 140/2/2
f 139/3/2 134/3/2 140/3/2
f 136/2/2 137/2/2 141/2/2
f 137/3/2 138/3/2 141/3/2
f 138/3/2 132/3/2 142/3/2
f 141/3/2 138/3/2 142/3/2
f 140/2/2 135/2/2 143/2/2
f 135/1/2 136/1/2 143/1/2
f 136/2/2 141/2/2 144/2/2
f 143/1/2 136/1/2 144/1/2
f 140/2/2 143/2/2 145/2/2
f 145/2/2 143/2/2 146/2/2
f 144/2/2 141/2/2 147/2/2
f 147/2/2 141/2/2 148/2/2
f 151/3/3 150/3/3 149/3/3
f 152/3/3 150/3/3 151/3/3
f 153/3/3 150/3/3 152/3/3
f 154/3/3 150/3/3 153/3/3
f 155/2/3 152/2/3 151/2/3
f 155/3/3 153/3/3 152/3/3
f 156/3/3 153/3/3 155/3/3
f 158/2/3 156/2/3 155/2/3
f 158/2/3 157/2/3 156/2/3
f 158/2/3 155/2/3 151/2/3
f 159/2/3 157/2/3 158/2/3
f 160/2/3 157/2/3 159/2/3
f 161/2/3 158/2/3 151/2/3
f 161/1/3 159/1/3 158/1/3
f 162/1/3 159/1/3 161/1/3
f 164/2/3 161/2/3 151/2/3
f 164/2/3 163/2/3 162/2/3
f 164/2/3 162/2/3 161/2/3
f 165/2/3 163/2/3 164/2/3
f 166/2/3 163/2/3 165/2/3
f 167/2/3 164/2/3 151/2/3
f 168/3/3 165/3/3 164/3/3
f 168/2/3 164/2/3 167/2/3
f 169/3/3 165/3/3 168/3/3
f 171/3/3 168/3/3 167/3/3
f 171/3/3 170/3/3 169/3/3
f 171/3/3 169/3/3 168/3/3
f 172/3/3 170/3/3 171/3/3
f 175/3/3 174/3/3 173/3/3
f 176/3/3 174/3/3 175/3/3
f 179/3/3 178/3/3 177/3/3
f 180/3/3 178/3/3 179/3/3
f 183/2/3 182/2/3 181/2/3
f 184/2/3 182/2/3 183/2/3
f 187/2/3 186/2/3 185/2/3
f 188/2/3 186/2/3 187/2/3
f 191/2/3 190/2/3 189/2/3
f 192/2/3 190/2/3 191/2/3
f 195/2/3 194/2/3 193/2/3
f 196/2/3 194/2/3 195/2/3
f 200/3/3 198/3/3 197/3/3
f 200/3/3 199/3/3 198/3/3
f 201/3/3 199/3/3 200/3/3
f 202/3/3 199/3/3 201/3/3
f 203/3/3 199/3/3 202/3/3
f 204/2/3 201/2/3 200/2/3
f 204/3/3 202/3/3 201/3/3
f 205/3/3 202/3/3 204/3/3
f 207/2/3 205/2/3 204/2/3
f 207/2/3 206/2/3 205/2/3
f 207/2/3 204/2/3 200/2/3
f 208/2/3 206/2/3 207/2/3
f 209/2/3 206/2/3 208/2/3
f 210/2/3 207/2/3 200/2/3
f 210/1/3 208/1/3 207/1/3
f 211/1/3 208/1/3 210/1/3
f 213/2/3 210/2/3 200/2/3
f 213/2/3 212/2/3 211/2/3
f 213/2/3 211/2/3 210/2/3
f 214/2/3 212/2/3 213/2/3
f 215/2/3 212/2/3 214/2/3
f 216/2/3 213/2/3 200/2/3
f 217/3/3 214/3/3 213/3/3
f 217/2/3 213/2/3 216/2/3
f 218/3/3 214/3/3 217/3/3
f 220/3/3 217/3/3 216/3/3
f 220/3/3 219/3/3 218/3/3
f 220/3/3 218/3/3 217/3/3
f 221/3/3 219/3/3 220/3/3
f 222/3/3 219/3/3 221/3/3
f 223/3/4 224/3/4 226/3/4
f 224/3/4 225/3/4 226/3/4
f 226/3/4 225/3/4 227/3/4
f 227/3/4 225/3/4 228/3/4
f 228/3/4 225/3/4 229/3/4
f 226/2/4 227/2/4 230/2/4
f 227/3/4 228/3/4 230/3/4
f 230/3/4 228/3/4 231/3/4
f 230/2/4 231/2/4 233/2/4
f 231/2/4 232/2/4 233/2/4
f 226/2/4 230/2/4 233/2/4
f 233/2/4 232/2/4 234/2/4
f 234/2/4 232/2/4 235/2/4
f 226/2/4 233/2/4 236/2/4
f 233/1/4 234/1/4 236/1/4
f 236/1/4 234/1/4 237/1/4
f 226/2/4 236/2/4 239/2/4
f 237/2/4 238/2/4 239/2/4
f 236/2/4 237/2/4 239/2/4
f 239/2/4 238/2/4 240/2/4
f 240/2/4 238/2/4 241/2/4
f 226/2/4 239/2/4 242/2/4
f 239/3/4 240/3/4 243/3/4
f 242/2/4 239/2/4 243/2/4
f 243/3/4 240/3/4 244/3/4
f 242/3/4 243/3/4 246/3/4
f 244/3/4 245/3/4 246/3/4
f 243/3/4 244/3/4 246/3/4
f 246/3/4 245/3/4 247/3/4
f 247/3/4 245/3/4 248/3/4
f 249/2/4 250/2/4 251/2/4
f 251/2/4 250/2/4 252/2/4
f 253/2/4 254/2/4 255/2/4
f 255/2/4 254/2/4 256/2/4
f 257/2/4 258/2/4 259/2/4
f 259/2/4 258/2/4 260/2/4
f 261/2/4 262/2/4 263/2/4
f 263/2/4 262/2/4 264/2/4
f 265/3/4 266/3/4 267/3/4
f 267/3/4 266/3/4 268/3/4
f 269/3/4 270/3/4 271/3/4
f 271/3/4 270/3/4 272/3/4
f 273/3/4 274/3/4 275/3/4
f 275/3/4 274/3/4 276/3/4
f 276/3/4 274/3/4 277/3/4
f 277/3/4 274/3/4 278/3/4
f 275/2/4 276/2/4 279/2/4
f 276/3/4 277/3/4 279/3/4
f 279/3/4 277/3/4 280/3/4
f 279/2/4 280/2/4 282/2/4
f 280/2/4 281/2/4 282/2/4
f 275/2/4 279/2/4 282/2/4
f 282/2/4 281/2/4 283/2/4
f 283/2/4 281/2/4 284/2/4
f 275/2/4 282/2/4 285/2/4
f 282/1/4 283/1/4 285/1/4
f 285/1/4 283/1/4 286/1/4
f 275/2/4 285/2/4 288/2/4
f 286/2/4 287/2/4 288/2/4
f 285/2/4 286/2/4 288/2/4
f 288/2/4 287/2/4 289/2/4
f 289/2/4 287/2/4 290/2/4
f 275/2/4 288/2/4 291/2/4
f 288/3/4 289/3/4 292/3/4
f 291/2/4 288/2/4 292/2/4
f 292/3/4 289/3/4 293/3/4
f 291/3/4 292/3/4 295/3/4
f 293/3/4 294/3/4 295/3/4
f 292/3/4 293/3/4 295/3/4
f 295/3/4 294/3/4 296/3/4
f 302/3/5 298/3/5 297/3/5
f 303/2/5 299/2/5 298/2/5
f 303/3/5 298/3/5 302/3/5
f 304/3/5 300/3/5 299/3/5
f 304/2/5 299/2/5 303/2/5
f 305/3/5 300/3/5 304/3/5
f 307/3/5 302/3/5 301/3/5
f 308/3/5 302/3/5 307/3/5
f 309/3/5 306/3/5 305/3/5
f 310/3/5 306/3/5 309/3/5
f 311/2/5 308/2/5 307/2/5
f 312/2/5 308/2/5 311/2/5
f 313/2/5 310/2/5 309/2/5
f 314/2/5 310/2/5 313/2/5
f 315/3/5 312/3/5 311/3/5
f 316/3/5 312/3/5 315/3/5
f 319/3/5 314/3/5 313/3/5
f 320/3/5 314/3/5 319/3/5
f 321/3/5 317/3/5 316/3/5
f 322/2/5 318/2/5 317/2/5
f 322/3/5 317/3/5 321/3/5
f 323/3/5 319/3/5 318/3/5
f 323/2/5 318/2/5 322/2/5
f 324/3/5 319/3/5 323/3/5
f 325/3/6 326/3/6 331/3/6
f 331/3/6 326/3/6 332/3/6
f 327/3/6 328/3/6 333/3/6
f 333/3/6 328/3/6 334/3/6
f 329/3/6 330/3/6 337/3/6
f 337/3/6 330/3/6 338/3/6
f 335/3/6 336/3/6 339/3/6
f 339/3/6 336/3/6 340/3/6
f 341/3/6 342/3/6 345/3/6
f 345/3/6 342/3/6 346/3/6
f 343/3/6 344/3/6 351/3/6
f 351/3/6 344/3/6 352/3/6
f 347/3/6 348/3/6 353/3/6
f 353/3/6 348/3/6 354/3/6
f 349/3/6 350/3/6 355/3/6
f 355/3/6 350/3/6 356/3/6
f 357/3/6 358/3/6 363/3/6
f 363/3/6 358/3/6 364/3/6
f 359/1/6 360/1/6 365/1/6
f 365/1/6 360/1/6 366/1/6
f 361/3/6 362/3/6 367/3/6
f 367/3/6 362/3/6 368/3/6
f 369/1/6 370/1/6 373/1/6
f 373/1/6 370/1/6 374/1/6
f 371/1/6 372/1/6 375/1/6
f 375/1/6 372/1/6 376/1/6
f 377/3/6 378/3/6 383/3/6
f 383/3/6 378/3/6 384/3/6
f 379/1/6 380/1/6 385/1/6
f 385/1/6 380/1/6 386/1/6
f 381/3/6 382/3/6 387/3/6
f 387/3/6 382/3/6 388/3/6
f 389/2/6 390/2/6 393/2/6
f 393/2/6 390/2/6 394/2/6
f 391/2/6 392/2/6 395/2/6
f 395/2/6 392/2/6 396/2/6
f 397/2/6 398/2/6 401/2/6
f 401/2/6 398/2/6 402/2/6
f 399/2/6 400/2/6 403/2/6
f 403/2/6 400/2/6 404/2/6
f 405/2/6 406/2/6 409/2/6
f 409/2/6 406/2/6 410/2/6
f 407/2/6 408/2/6 411/2/6
f 411/2/6 408/2/6 412/2/6
f 413/2/6 414/2/6 417/2/6
f 417/2/6 414/2/6 418/2/6
f 415/2/6 416/2/6 419/2/6
f 419/2/6 416/2/6 420/2/6
