# MagicaVoxel @ Ephtracy

# group
o 

# material
mtllib Archer2.mtl
usemtl palette

# normals
vn -1 0 0
vn 1 0 0
vn 0 0 1
vn 0 0 -1
vn 0 -1 0
vn 0 1 0

# texcoords
vt 0.0214844 0.5
vt 0.0253906 0.5
vt 0.0292969 0.5
vt 0.115234 0.5
vt 0.365234 0.5
vt 0.806641 0.5
vt 0.810547 0.5

# verts
v -2.7 1.5 0.7
v -2.7 1.5 0.3
v -2.7 1.7 0.7
v -2.7 1.7 0.3
v -2.5 1.4 0.7
v -2.5 1.4 0.3
v -2.5 1.5 0.7
v -2.5 1.5 0.3
v -2.3 1.3 0.7
v -2.3 1.3 0.3
v -2.3 1.4 0.7
v -2.3 1.4 0.3
v -0.9 0 0.9
v -0.9 0 0.1
v -0.9 0.1 0.9
v -0.9 0.1 0.7
v -0.9 0.3 0.9
v -0.9 0.3 0.7
v -0.9 0.3 0.1
v -0.7 -1.1 0.7
v -0.7 -1.1 0.3
v -0.7 -0.8 0.7
v -0.7 -0.8 0.3
v -0.7 0 0.7
v -0.7 0 0.3
v -0.7 0.3 0.9
v -0.7 0.3 0.7
v -0.7 0.3 0.1
v -0.7 0.7 0.9
v -0.7 0.7 0.1
v -0.7 0.9 0.9
v -0.7 0.9 0.3
v -0.7 0.9 0.1
v -0.7 1.1 0.3
v -0.7 1.1 0.1
v -0.7 1.3 0.9
v -0.7 1.3 0.7
v -0.7 1.3 0.3
v -0.7 1.5 0.9
v -0.7 1.5 0.7
v -0.7 1.7 0.9
v -0.7 1.7 0.7
v -0.7 1.7 0.5
v -0.7 1.7 0.3
v -0.7 1.7 0.1
v -0.7 1.9 0.7
v -0.7 1.9 0.5
v -0.7 1.9 0.3
v -0.7 2.1 0.9
v -0.7 2.1 0.1
v -0.7 2.3 1.1
v -0.7 2.3 0.9
v -0.7 2.7 1.1
v -0.7 2.7 0.1
v -0.5 1.7 0.9
v -0.5 1.7 0.7
v -0.5 1.7 0.3
v -0.5 1.7 0.1
v -0.5 1.9 0.9
v -0.5 1.9 0.7
v -0.5 1.9 0.3
v -0.5 1.9 0.1
v -0.5 2.1 0.1
v -0.5 2.1 -0.1
v -0.5 2.7 1.1
v -0.5 2.7 0.1
v -0.5 2.7 -0.1
v -0.5 2.9 1.1
v -0.5 2.9 0.1
v -0.3 1.9 0.7
v -0.3 1.9 0.3
v -0.3 2.1 0.7
v -0.3 2.1 0.3
v 0.1 -1.1 0.7
v 0.1 -1.1 0.3
v 0.1 -0.8 0.7
v 0.1 -0.8 0.3
v 0.1 0 0.7
v 0.1 0 0.3
v 0.1 2.5 1.1
v 0.1 2.5 0.9
v 0.1 2.7 1.1
v 0.1 2.7 0.9
v 0.3 2.3 1.1
v 0.3 2.3 0.9
v 0.3 2.5 1.1
v 0.3 2.5 0.9
v -0.5 2.3 1.1
v -0.5 2.3 0.9
v -0.5 2.5 1.1
v -0.5 2.5 0.9
v -0.3 -1.1 0.7
v -0.3 -1.1 0.3
v -0.3 -0.8 0.7
v -0.3 -0.8 0.3
v -0.3 0 0.7
v -0.3 0 0.3
v -0.3 2.5 1.1
v -0.3 2.5 0.9
v -0.3 2.7 1.1
v -0.3 2.7 0.9
v 0.1 1.9 0.7
v 0.1 1.9 0.3
v 0.1 2.1 0.7
v 0.1 2.1 0.3
v 0.3 1.7 0.9
v 0.3 1.7 0.7
v 0.3 1.7 0.3
v 0.3 1.7 0.1
v 0.3 1.9 0.9
v 0.3 1.9 0.7
v 0.3 1.9 0.3
v 0.3 1.9 0.1
v 0.3 2.1 0.1
v 0.3 2.1 -0.1
v 0.3 2.7 1.1
v 0.3 2.7 0.1
v 0.3 2.7 -0.1
v 0.3 2.9 1.1
v 0.3 2.9 0.1
v 0.5 -1.1 0.7
v 0.5 -1.1 0.3
v 0.5 -0.8 0.7
v 0.5 -0.8 0.3
v 0.5 0 0.7
v 0.5 0 0.3
v 0.5 0.3 0.9
v 0.5 0.3 0.7
v 0.5 0.3 0.5
v 0.5 0.3 0.1
v 0.5 0.5 0.7
v 0.5 0.5 0.5
v 0.5 0.7 0.9
v 0.5 0.7 0.7
v 0.5 0.7 0.1
v 0.5 0.9 0.9
v 0.5 0.9 0.7
v 0.5 0.9 0.1
v 0.5 1.1 0.3
v 0.5 1.1 0.1
v 0.5 1.3 0.7
v 0.5 1.3 0.3
v 0.5 1.3 0.1
v 0.5 1.7 0.9
v 0.5 1.7 0.7
v 0.5 1.7 0.3
v 0.5 1.7 0.1
v 0.5 1.9 0.7
v 0.5 1.9 0.3
v 0.5 2.1 0.9
v 0.5 2.1 0.1
v 0.5 2.3 1.1
v 0.5 2.3 0.9
v 0.5 2.7 1.1
v 0.5 2.7 0.1
v 0.7 0 0.9
v 0.7 0 0.1
v 0.7 0.3 0.9
v 0.7 0.3 0.1
v 2.1 1.3 0.7
v 2.1 1.3 0.3
v 2.1 1.4 0.7
v 2.1 1.4 0.3
v 2.3 1.4 0.7
v 2.3 1.4 0.3
v 2.3 1.5 0.7
v 2.3 1.5 0.3
v 2.5 1.5 0.7
v 2.5 1.5 0.3
v 2.5 1.7 0.7
v 2.5 1.7 0.3
v -0.7 2.3 1.1
v -0.7 2.7 1.1
v -0.5 2.3 1.1
v -0.5 2.5 1.1
v -0.5 2.7 1.1
v -0.5 2.9 1.1
v -0.3 2.5 1.1
v -0.3 2.7 1.1
v 0.1 2.5 1.1
v 0.1 2.7 1.1
v 0.3 2.3 1.1
v 0.3 2.5 1.1
v 0.3 2.7 1.1
v 0.3 2.9 1.1
v 0.5 2.3 1.1
v 0.5 2.7 1.1
v -0.9 0 0.9
v -0.9 0.1 0.9
v -0.9 0.3 0.9
v -0.7 0.1 0.9
v -0.7 0.3 0.9
v -0.7 0.7 0.9
v -0.7 0.9 0.9
v -0.7 1.3 0.9
v -0.7 1.5 0.9
v -0.7 1.7 0.9
v -0.7 2.1 0.9
v -0.7 2.3 0.9
v -0.5 1.3 0.9
v -0.5 1.5 0.9
v -0.5 1.7 0.9
v -0.5 1.9 0.9
v -0.5 2.1 0.9
v -0.5 2.3 0.9
v -0.5 2.5 0.9
v -0.3 0.9 0.9
v -0.3 1.1 0.9
v -0.3 2.5 0.9
v -0.3 2.7 0.9
v -0.0999999 0.9 0.9
v -0.0999999 1.1 0.9
v 0.1 0.1 0.9
v 0.1 0.3 0.9
v 0.1 2.5 0.9
v 0.1 2.7 0.9
v 0.3 0.1 0.9
v 0.3 0.3 0.9
v 0.3 0.7 0.9
v 0.3 0.9 0.9
v 0.3 1.7 0.9
v 0.3 1.9 0.9
v 0.3 2.1 0.9
v 0.3 2.3 0.9
v 0.3 2.5 0.9
v 0.5 0.3 0.9
v 0.5 0.7 0.9
v 0.5 0.9 0.9
v 0.5 1.7 0.9
v 0.5 2.1 0.9
v 0.5 2.3 0.9
v 0.7 0 0.9
v 0.7 0.3 0.9
v -2.7 1.5 0.7
v -2.7 1.7 0.7
v -2.5 1.4 0.7
v -2.5 1.5 0.7
v -2.3 1.3 0.7
v -2.3 1.4 0.7
v -2.3 1.7 0.7
v -2.1 1.5 0.7
v -2.1 1.7 0.7
v -1.9 1.5 0.7
v -1.9 1.7 0.7
v -1.5 1.3 0.7
v -1.5 1.5 0.7
v -1.5 1.7 0.7
v -1.3 1.3 0.7
v -1.3 1.5 0.7
v -0.7 -1.1 0.7
v -0.7 -0.8 0.7
v -0.7 0 0.7
v -0.7 1.3 0.7
v -0.7 1.5 0.7
v -0.7 1.7 0.7
v -0.7 1.9 0.7
v -0.6 -0.5 0.7
v -0.6 -0.3 0.7
v -0.5 1.7 0.7
v -0.5 1.9 0.7
v -0.4 -0.5 0.7
v -0.4 -0.3 0.7
v -0.3 -1.1 0.7
v -0.3 -0.8 0.7
v -0.3 0 0.7
v -0.3 1.9 0.7
v -0.3 2.1 0.7
v 0.1 -1.1 0.7
v 0.1 -0.8 0.7
v 0.1 0 0.7
v 0.1 1.9 0.7
v 0.1 2.1 0.7
v 0.2 -0.5 0.7
v 0.2 -0.3 0.7
v 0.3 1.7 0.7
v 0.3 1.9 0.7
v 0.4 -0.5 0.7
v 0.4 -0.3 0.7
v 0.5 -1.1 0.7
v 0.5 -0.8 0.7
v 0.5 0 0.7
v 0.5 1.3 0.7
v 0.5 1.7 0.7
v 0.5 1.9 0.7
v 0.9 1.5 0.7
v 0.9 1.7 0.7
v 1.1 1.3 0.7
v 1.1 1.5 0.7
v 1.1 1.7 0.7
v 1.3 1.5 0.7
v 1.3 1.7 0.7
v 1.5 1.5 0.7
v 1.5 1.7 0.7
v 1.7 1.5 0.7
v 1.7 1.7 0.7
v 1.9 1.5 0.7
v 1.9 1.7 0.7
v 2.1 1.3 0.7
v 2.1 1.4 0.7
v 2.1 1.5 0.7
v 2.1 1.7 0.7
v 2.3 1.4 0.7
v 2.3 1.5 0.7
v 2.5 1.5 0.7
v 2.5 1.7 0.7
v -2.7 1.5 0.3
v -2.7 1.7 0.3
v -2.5 1.4 0.3
v -2.5 1.5 0.3
v -2.3 1.3 0.3
v -2.3 1.4 0.3
v -2.3 1.7 0.3
v -1.5 1.5 0.3
v -1.5 1.7 0.3
v -1.3 1.3 0.3
v -1.3 1.5 0.3
v -1.3 1.7 0.3
v -0.7 -1.1 0.3
v -0.7 -0.8 0.3
v -0.7 0 0.3
v -0.7 1.3 0.3
v -0.7 1.7 0.3
v -0.7 1.9 0.3
v -0.5 1.7 0.3
v -0.5 1.9 0.3
v -0.3 -1.1 0.3
v -0.3 -0.8 0.3
v -0.3 0 0.3
v -0.3 1.9 0.3
v -0.3 2.1 0.3
v 0.1 -1.1 0.3
v 0.1 -0.8 0.3
v 0.1 0 0.3
v 0.1 1.9 0.3
v 0.1 2.1 0.3
v 0.3 1.7 0.3
v 0.3 1.9 0.3
v 0.5 -1.1 0.3
v 0.5 -0.8 0.3
v 0.5 0 0.3
v 0.5 1.3 0.3
v 0.5 1.7 0.3
v 0.5 1.9 0.3
v 1.1 1.3 0.3
v 1.1 1.5 0.3
v 1.3 1.3 0.3
v 1.3 1.5 0.3
v 1.3 1.7 0.3
v 1.5 1.3 0.3
v 1.5 1.5 0.3
v 2.1 1.3 0.3
v 2.1 1.4 0.3
v 2.1 1.7 0.3
v 2.3 1.4 0.3
v 2.3 1.5 0.3
v 2.5 1.5 0.3
v 2.5 1.7 0.3
v -0.9 0 0.1
v -0.9 0.3 0.1
v -0.7 0.3 0.1
v -0.7 0.7 0.1
v -0.7 0.9 0.1
v -0.7 1.1 0.1
v -0.7 1.7 0.1
v -0.7 2.1 0.1
v -0.7 2.7 0.1
v -0.5 0.7 0.1
v -0.5 0.9 0.1
v -0.5 1.1 0.1
v -0.5 1.7 0.1
v -0.5 1.9 0.1
v -0.5 2.1 0.1
v -0.5 2.7 0.1
v -0.5 2.9 0.1
v -0.3 0.7 0.1
v -0.3 0.9 0.1
v -0.0999999 0 0.1
v -0.0999999 0.1 0.1
v 0.1 0 0.1
v 0.1 0.1 0.1
v 0.3 1.1 0.1
v 0.3 1.3 0.1
v 0.3 1.7 0.1
v 0.3 1.9 0.1
v 0.3 2.1 0.1
v 0.3 2.7 0.1
v 0.3 2.9 0.1
v 0.5 0.3 0.1
v 0.5 0.7 0.1
v 0.5 0.9 0.1
v 0.5 1.1 0.1
v 0.5 1.3 0.1
v 0.5 1.7 0.1
v 0.5 2.1 0.1
v 0.5 2.7 0.1
v 0.7 0 0.1
v 0.7 0.3 0.1
v -0.5 2.1 -0.1
v -0.5 2.7 -0.1
v 0.3 2.1 -0.1
v 0.3 2.7 -0.1
v -0.7 -1.1 0.7
v -0.3 -1.1 0.7
v 0.1 -1.1 0.7
v 0.5 -1.1 0.7
v -0.7 -1.1 0.3
v -0.3 -1.1 0.3
v 0.1 -1.1 0.3
v 0.5 -1.1 0.3
v -0.9 0 0.9
v 0.7 0 0.9
v -0.7 0 0.7
v -0.3 0 0.7
v 0.1 0 0.7
v 0.5 0 0.7
v -0.7 0 0.3
v -0.3 0 0.3
v -0.0999999 0 0.3
v 0.1 0 0.3
v 0.5 0 0.3
v -0.9 0 0.1
v -0.0999999 0 0.1
v 0.1 0 0.1
v 0.7 0 0.1
v -2.3 1.3 0.7
v -1.5 1.3 0.7
v -1.3 1.3 0.7
v -0.7 1.3 0.7
v 0.5 1.3 0.7
v 1.1 1.3 0.7
v 2.1 1.3 0.7
v -1.5 1.3 0.5
v -1.3 1.3 0.5
v 1.3 1.3 0.5
v 1.5 1.3 0.5
v -2.3 1.3 0.3
v -1.3 1.3 0.3
v -0.7 1.3 0.3
v 0.5 1.3 0.3
v 1.1 1.3 0.3
v 1.3 1.3 0.3
v 1.5 1.3 0.3
v 2.1 1.3 0.3
v -2.5 1.4 0.7
v -2.3 1.4 0.7
v 2.1 1.4 0.7
v 2.3 1.4 0.7
v -2.5 1.4 0.3
v -2.3 1.4 0.3
v 2.1 1.4 0.3
v 2.3 1.4 0.3
v -2.7 1.5 0.7
v -2.5 1.5 0.7
v 2.3 1.5 0.7
v 2.5 1.5 0.7
v -2.7 1.5 0.3
v -2.5 1.5 0.3
v 2.3 1.5 0.3
v 2.5 1.5 0.3
v -0.7 2.1 0.9
v -0.5 2.1 0.9
v 0.3 2.1 0.9
v 0.5 2.1 0.9
v -0.3 2.1 0.7
v 0.1 2.1 0.7
v -0.3 2.1 0.3
v 0.1 2.1 0.3
v -0.7 2.1 0.1
v -0.5 2.1 0.1
v 0.3 2.1 0.1
v 0.5 2.1 0.1
v -0.5 2.1 -0.1
v 0.3 2.1 -0.1
v -0.7 2.3 1.1
v -0.5 2.3 1.1
v 0.3 2.3 1.1
v 0.5 2.3 1.1
v -0.7 2.3 0.9
v -0.5 2.3 0.9
v 0.3 2.3 0.9
v 0.5 2.3 0.9
v -0.5 2.5 1.1
v -0.3 2.5 1.1
v 0.1 2.5 1.1
v 0.3 2.5 1.1
v -0.5 2.5 0.9
v -0.3 2.5 0.9
v 0.1 2.5 0.9
v 0.3 2.5 0.9
v -0.3 2.7 1.1
v 0.1 2.7 1.1
v -0.3 2.7 0.9
v 0.1 2.7 0.9
v -0.9 0.3 0.9
v -0.7 0.3 0.9
v 0.5 0.3 0.9
v 0.7 0.3 0.9
v -0.9 0.3 0.7
v -0.7 0.3 0.7
v 0.5 0.3 0.7
v 0.5 0.3 0.5
v -0.9 0.3 0.1
v -0.7 0.3 0.1
v 0.5 0.3 0.1
v 0.7 0.3 0.1
v -0.7 1.7 0.9
v -0.5 1.7 0.9
v 0.3 1.7 0.9
v 0.5 1.7 0.9
v -2.7 1.7 0.7
v -2.3 1.7 0.7
v -2.1 1.7 0.7
v -1.9 1.7 0.7
v -1.5 1.7 0.7
v -0.7 1.7 0.7
v -0.5 1.7 0.7
v 0.3 1.7 0.7
v 0.5 1.7 0.7
v 0.9 1.7 0.7
v 1.1 1.7 0.7
v 1.3 1.7 0.7
v 1.5 1.7 0.7
v 1.7 1.7 0.7
v 1.9 1.7 0.7
v 2.1 1.7 0.7
v 2.5 1.7 0.7
v -2.1 1.7 0.5
v -1.9 1.7 0.5
v -1.5 1.7 0.5
v -1.3 1.7 0.5
v -0.7 1.7 0.5
v 0.9 1.7 0.5
v 1.1 1.7 0.5
v 1.5 1.7 0.5
v 1.7 1.7 0.5
v 1.9 1.7 0.5
v 2.1 1.7 0.5
v -2.7 1.7 0.3
v -2.3 1.7 0.3
v -1.5 1.7 0.3
v -1.3 1.7 0.3
v -0.7 1.7 0.3
v -0.5 1.7 0.3
v 0.3 1.7 0.3
v 0.5 1.7 0.3
v 1.3 1.7 0.3
v 2.1 1.7 0.3
v 2.5 1.7 0.3
v -0.7 1.7 0.1
v -0.5 1.7 0.1
v 0.3 1.7 0.1
v 0.5 1.7 0.1
v -0.5 1.9 0.9
v 0.3 1.9 0.9
v -0.7 1.9 0.7
v -0.5 1.9 0.7
v -0.3 1.9 0.7
v 0.1 1.9 0.7
v 0.3 1.9 0.7
v 0.5 1.9 0.7
v -0.7 1.9 0.5
v -0.5 1.9 0.5
v -0.7 1.9 0.3
v -0.5 1.9 0.3
v -0.3 1.9 0.3
v 0.1 1.9 0.3
v 0.3 1.9 0.3
v 0.5 1.9 0.3
v -0.5 1.9 0.1
v 0.3 1.9 0.1
v -0.7 2.7 1.1
v -0.5 2.7 1.1
v 0.3 2.7 1.1
v 0.5 2.7 1.1
v -0.7 2.7 0.1
v -0.5 2.7 0.1
v 0.3 2.7 0.1
v 0.5 2.7 0.1
v -0.5 2.7 -0.1
v 0.3 2.7 -0.1
v -0.5 2.9 1.1
v 0.3 2.9 1.1
v -0.5 2.9 0.1
v 0.3 2.9 0.1

# faces
f 3/3/1 2/3/1 1/3/1
f 4/3/1 2/3/1 3/3/1
f 7/3/1 6/3/1 5/3/1
f 8/3/1 6/3/1 7/3/1
f 11/2/1 10/2/1 9/2/1
f 12/2/1 10/2/1 11/2/1
f 15/7/1 14/7/1 13/7/1
f 16/7/1 14/7/1 15/7/1
f 17/6/1 16/6/1 15/6/1
f 18/7/1 14/7/1 16/7/1
f 18/6/1 16/6/1 17/6/1
f 19/7/1 14/7/1 18/7/1
f 22/2/1 21/2/1 20/2/1
f 23/2/1 21/2/1 22/2/1
f 24/1/1 23/1/1 22/1/1
f 25/1/1 23/1/1 24/1/1
f 29/7/1 27/7/1 26/7/1
f 29/7/1 28/7/1 27/7/1
f 30/7/1 28/7/1 29/7/1
f 31/2/1 30/2/1 29/2/1
f 32/2/1 30/2/1 31/2/1
f 33/2/1 30/2/1 32/2/1
f 34/7/1 32/7/1 31/7/1
f 34/6/1 33/6/1 32/6/1
f 35/6/1 33/6/1 34/6/1
f 36/7/1 34/7/1 31/7/1
f 36/7/1 35/7/1 34/7/1
f 37/7/1 35/7/1 36/7/1
f 38/7/1 35/7/1 37/7/1
f 39/6/1 37/6/1 36/6/1
f 40/6/1 37/6/1 39/6/1
f 41/7/1 40/7/1 39/7/1
f 42/7/1 40/7/1 41/7/1
f 44/7/1 35/7/1 38/7/1
f 45/7/1 35/7/1 44/7/1
f 46/7/1 43/7/1 42/7/1
f 47/6/1 44/6/1 43/6/1
f 47/7/1 43/7/1 46/7/1
f 48/6/1 44/6/1 47/6/1
f 52/2/1 50/2/1 49/2/1
f 53/2/1 52/2/1 51/2/1
f 54/2/1 50/2/1 52/2/1
f 54/2/1 52/2/1 53/2/1
f 59/5/1 56/5/1 55/5/1
f 60/5/1 56/5/1 59/5/1
f 61/5/1 58/5/1 57/5/1
f 62/5/1 58/5/1 61/5/1
f 66/2/1 64/2/1 63/2/1
f 67/2/1 64/2/1 66/2/1
f 68/2/1 66/2/1 65/2/1
f 69/2/1 66/2/1 68/2/1
f 72/3/1 71/3/1 70/3/1
f 73/3/1 71/3/1 72/3/1
f 76/2/1 75/2/1 74/2/1
f 77/2/1 75/2/1 76/2/1
f 78/1/1 77/1/1 76/1/1
f 79/1/1 77/1/1 78/1/1
f 82/2/1 81/2/1 80/2/1
f 83/2/1 81/2/1 82/2/1
f 86/2/1 85/2/1 84/2/1
f 87/2/1 85/2/1 86/2/1
f 88/2/2 89/2/2 90/2/2
f 90/2/2 89/2/2 91/2/2
f 92/2/2 93/2/2 94/2/2
f 94/2/2 93/2/2 95/2/2
f 94/1/2 95/1/2 96/1/2
f 96/1/2 95/1/2 97/1/2
f 98/2/2 99/2/2 100/2/2
f 100/2/2 99/2/2 101/2/2
f 102/3/2 103/3/2 104/3/2
f 104/3/2 103/3/2 105/3/2
f 106/5/2 107/5/2 110/5/2
f 110/5/2 107/5/2 111/5/2
f 108/5/2 109/5/2 112/5/2
f 112/5/2 109/5/2 113/5/2
f 114/2/2 115/2/2 117/2/2
f 117/2/2 115/2/2 118/2/2
f 116/2/2 117/2/2 119/2/2
f 119/2/2 117/2/2 120/2/2
f 121/2/2 122/2/2 123/2/2
f 123/2/2 122/2/2 124/2/2
f 123/1/2 124/1/2 125/1/2
f 125/1/2 124/1/2 126/1/2
f 128/6/2 129/6/2 131/6/2
f 127/7/2 128/7/2 131/7/2
f 129/7/2 130/7/2 132/7/2
f 131/6/2 129/6/2 132/6/2
f 127/7/2 131/7/2 133/7/2
f 131/7/2 132/7/2 133/7/2
f 133/7/2 132/7/2 134/7/2
f 132/7/2 130/7/2 135/7/2
f 134/7/2 132/7/2 135/7/2
f 133/4/2 134/4/2 136/4/2
f 134/2/2 135/2/2 137/2/2
f 136/4/2 134/4/2 137/4/2
f 137/2/2 135/2/2 138/2/2
f 136/7/2 137/7/2 139/7/2
f 137/7/2 138/7/2 139/7/2
f 139/7/2 138/7/2 140/7/2
f 136/7/2 139/7/2 141/7/2
f 139/6/2 140/6/2 142/6/2
f 141/7/2 139/7/2 142/7/2
f 142/6/2 140/6/2 143/6/2
f 136/7/2 141/7/2 144/7/2
f 144/7/2 141/7/2 145/7/2
f 142/7/2 143/7/2 146/7/2
f 146/7/2 143/7/2 147/7/2
f 145/7/2 146/7/2 148/7/2
f 148/7/2 146/7/2 149/7/2
f 150/2/2 151/2/2 153/2/2
f 152/2/2 153/2/2 154/2/2
f 153/2/2 151/2/2 155/2/2
f 154/2/2 153/2/2 155/2/2
f 156/7/2 157/7/2 158/7/2
f 158/7/2 157/7/2 159/7/2
f 160/2/2 161/2/2 162/2/2
f 162/2/2 161/2/2 163/2/2
f 164/3/2 165/3/2 166/3/2
f 166/3/2 165/3/2 167/3/2
f 168/3/2 169/3/2 170/3/2
f 170/3/2 169/3/2 171/3/2
f 174/2/3 173/2/3 172/2/3
f 175/2/3 173/2/3 174/2/3
f 176/2/3 173/2/3 175/2/3
f 178/2/3 177/2/3 176/2/3
f 178/2/3 176/2/3 175/2/3
f 179/2/3 177/2/3 178/2/3
f 181/2/3 177/2/3 179/2/3
f 183/2/3 181/2/3 180/2/3
f 184/2/3 177/2/3 181/2/3
f 184/2/3 181/2/3 183/2/3
f 185/2/3 177/2/3 184/2/3
f 186/2/3 183/2/3 182/2/3
f 186/2/3 184/2/3 183/2/3
f 187/2/3 184/2/3 186/2/3
f 191/7/3 189/7/3 188/7/3
f 191/6/3 190/6/3 189/6/3
f 192/6/3 190/6/3 191/6/3
f 200/7/3 195/7/3 194/7/3
f 200/6/3 196/6/3 195/6/3
f 201/7/3 197/7/3 196/7/3
f 201/6/3 196/6/3 200/6/3
f 202/7/3 197/7/3 201/7/3
f 204/2/3 199/2/3 198/2/3
f 205/2/3 199/2/3 204/2/3
f 207/2/3 194/2/3 193/2/3
f 207/7/3 200/7/3 194/7/3
f 207/7/3 201/7/3 200/7/3
f 207/7/3 202/7/3 201/7/3
f 208/7/3 202/7/3 207/7/3
f 209/3/3 206/3/3 205/3/3
f 209/3/3 205/3/3 204/3/3
f 211/6/3 208/6/3 207/6/3
f 211/2/3 207/2/3 193/2/3
f 212/7/3 202/7/3 208/7/3
f 212/6/3 208/6/3 211/6/3
f 213/7/3 191/7/3 188/7/3
f 213/7/3 192/7/3 191/7/3
f 213/7/3 193/7/3 192/7/3
f 214/7/3 193/7/3 213/7/3
f 215/3/3 209/3/3 204/3/3
f 215/3/3 210/3/3 209/3/3
f 216/3/3 210/3/3 215/3/3
f 217/6/3 214/6/3 213/6/3
f 217/7/3 213/7/3 188/7/3
f 218/7/3 193/7/3 214/7/3
f 218/6/3 214/6/3 217/6/3
f 219/2/3 211/2/3 193/2/3
f 219/7/3 193/7/3 218/7/3
f 220/7/3 212/7/3 211/7/3
f 220/2/3 211/2/3 219/2/3
f 221/7/3 202/7/3 212/7/3
f 221/7/3 212/7/3 220/7/3
f 221/5/3 203/5/3 202/5/3
f 222/5/3 203/5/3 221/5/3
f 223/3/3 215/3/3 204/3/3
f 224/3/3 215/3/3 223/3/3
f 225/3/3 215/3/3 224/3/3
f 226/7/3 219/7/3 218/7/3
f 226/7/3 218/7/3 217/7/3
f 227/4/3 220/4/3 219/4/3
f 227/7/3 219/7/3 226/7/3
f 228/7/3 221/7/3 220/7/3
f 228/4/3 220/4/3 227/4/3
f 229/7/3 221/7/3 228/7/3
f 230/2/3 224/2/3 223/2/3
f 231/2/3 224/2/3 230/2/3
f 232/7/3 226/7/3 217/7/3
f 232/7/3 217/7/3 188/7/3
f 233/7/3 226/7/3 232/7/3
f 237/3/3 235/3/3 234/3/3
f 239/3/3 237/3/3 236/3/3
f 240/3/3 235/3/3 237/3/3
f 240/3/3 237/3/3 239/3/3
f 241/2/3 239/2/3 238/2/3
f 241/2/3 240/2/3 239/2/3
f 242/2/3 240/2/3 241/2/3
f 243/2/3 241/2/3 238/2/3
f 243/4/3 242/4/3 241/4/3
f 244/4/3 242/4/3 243/4/3
f 245/2/3 243/2/3 238/2/3
f 245/2/3 244/2/3 243/2/3
f 246/2/3 244/2/3 245/2/3
f 247/2/3 244/2/3 246/2/3
f 248/4/3 246/4/3 245/4/3
f 249/7/3 247/7/3 246/7/3
f 249/4/3 246/4/3 248/4/3
f 253/7/3 249/7/3 248/7/3
f 254/7/3 247/7/3 249/7/3
f 254/7/3 249/7/3 253/7/3
f 255/7/3 247/7/3 254/7/3
f 257/1/3 252/1/3 251/1/3
f 258/1/3 252/1/3 257/1/3
f 259/7/3 256/7/3 255/7/3
f 260/7/3 256/7/3 259/7/3
f 261/1/3 257/1/3 251/1/3
f 261/2/3 258/2/3 257/2/3
f 262/1/3 252/1/3 258/1/3
f 262/2/3 258/2/3 261/2/3
f 263/2/3 251/2/3 250/2/3
f 264/1/3 261/1/3 251/1/3
f 264/2/3 251/2/3 263/2/3
f 264/1/3 262/1/3 261/1/3
f 265/1/3 252/1/3 262/1/3
f 265/1/3 262/1/3 264/1/3
f 271/3/3 267/3/3 266/3/3
f 272/3/3 267/3/3 271/3/3
f 273/1/3 270/1/3 269/1/3
f 274/1/3 270/1/3 273/1/3
f 277/1/3 273/1/3 269/1/3
f 277/2/3 274/2/3 273/2/3
f 278/1/3 270/1/3 274/1/3
f 278/2/3 274/2/3 277/2/3
f 279/2/3 269/2/3 268/2/3
f 280/1/3 277/1/3 269/1/3
f 280/2/3 269/2/3 279/2/3
f 280/1/3 278/1/3 277/1/3
f 281/1/3 270/1/3 278/1/3
f 281/1/3 278/1/3 280/1/3
f 283/7/3 276/7/3 275/7/3
f 284/7/3 276/7/3 283/7/3
f 285/7/3 283/7/3 282/7/3
f 286/7/3 283/7/3 285/7/3
f 287/7/3 285/7/3 282/7/3
f 288/6/3 286/6/3 285/6/3
f 288/7/3 285/7/3 287/7/3
f 289/6/3 286/6/3 288/6/3
f 290/2/3 288/2/3 287/2/3
f 290/7/3 289/7/3 288/7/3
f 291/7/3 289/7/3 290/7/3
f 292/2/3 290/2/3 287/2/3
f 292/2/3 291/2/3 290/2/3
f 293/2/3 291/2/3 292/2/3
f 294/2/3 292/2/3 287/2/3
f 294/4/3 293/4/3 292/4/3
f 295/4/3 293/4/3 294/4/3
f 296/2/3 294/2/3 287/2/3
f 296/2/3 295/2/3 294/2/3
f 297/2/3 295/2/3 296/2/3
f 298/2/3 296/2/3 287/2/3
f 299/2/3 296/2/3 298/2/3
f 300/4/3 297/4/3 296/4/3
f 300/2/3 296/2/3 299/2/3
f 301/4/3 297/4/3 300/4/3
f 302/3/3 300/3/3 299/3/3
f 302/3/3 301/3/3 300/3/3
f 303/3/3 301/3/3 302/3/3
f 304/3/3 301/3/3 303/3/3
f 305/3/3 301/3/3 304/3/3
f 306/3/4 307/3/4 309/3/4
f 308/3/4 309/3/4 311/3/4
f 309/3/4 307/3/4 312/3/4
f 311/3/4 309/3/4 312/3/4
f 310/2/4 311/2/4 313/2/4
f 311/2/4 312/2/4 313/2/4
f 313/2/4 312/2/4 314/2/4
f 310/2/4 313/2/4 315/2/4
f 313/6/4 314/6/4 316/6/4
f 315/2/4 313/2/4 316/2/4
f 316/6/4 314/6/4 317/6/4
f 315/7/4 316/7/4 321/7/4
f 316/7/4 317/7/4 321/7/4
f 321/7/4 317/7/4 322/7/4
f 322/6/4 323/6/4 324/6/4
f 324/6/4 323/6/4 325/6/4
f 318/2/4 319/2/4 326/2/4
f 319/1/4 320/1/4 327/1/4
f 326/2/4 319/2/4 327/2/4
f 327/1/4 320/1/4 328/1/4
f 329/3/4 330/3/4 334/3/4
f 334/3/4 330/3/4 335/3/4
f 331/2/4 332/2/4 338/2/4
f 332/1/4 333/1/4 339/1/4
f 338/2/4 332/2/4 339/2/4
f 339/1/4 333/1/4 340/1/4
f 336/7/4 337/7/4 342/7/4
f 342/7/4 337/7/4 343/7/4
f 341/7/4 342/7/4 344/7/4
f 344/7/4 342/7/4 345/7/4
f 344/2/4 345/2/4 346/2/4
f 345/7/4 342/7/4 347/7/4
f 346/2/4 345/2/4 347/2/4
f 347/7/4 342/7/4 348/7/4
f 346/4/4 347/4/4 349/4/4
f 347/2/4 348/2/4 350/2/4
f 349/4/4 347/4/4 350/4/4
f 349/2/4 350/2/4 351/2/4
f 351/2/4 350/2/4 352/2/4
f 350/2/4 348/2/4 353/2/4
f 352/2/4 350/2/4 353/2/4
f 352/3/4 353/3/4 354/3/4
f 354/3/4 353/3/4 355/3/4
f 355/3/4 353/3/4 356/3/4
f 356/3/4 353/3/4 357/3/4
f 358/7/4 359/7/4 360/7/4
f 360/7/4 361/7/4 367/7/4
f 361/2/4 362/2/4 367/2/4
f 362/6/4 363/6/4 368/6/4
f 367/2/4 362/2/4 368/2/4
f 363/7/4 364/7/4 369/7/4
f 368/6/4 363/6/4 369/6/4
f 369/7/4 364/7/4 370/7/4
f 365/2/4 366/2/4 372/2/4
f 372/2/4 366/2/4 373/2/4
f 367/4/4 368/4/4 375/4/4
f 360/7/4 367/7/4 375/7/4
f 368/7/4 369/7/4 376/7/4
f 375/4/4 368/4/4 376/4/4
f 369/7/4 370/7/4 376/7/4
f 358/7/4 360/7/4 377/7/4
f 360/7/4 375/7/4 377/7/4
f 377/7/4 375/7/4 378/7/4
f 377/6/4 378/6/4 379/6/4
f 378/7/4 375/7/4 380/7/4
f 379/6/4 378/6/4 380/6/4
f 376/7/4 370/7/4 381/7/4
f 381/7/4 370/7/4 382/7/4
f 370/5/4 371/5/4 383/5/4
f 382/7/4 370/7/4 383/7/4
f 383/5/4 371/5/4 384/5/4
f 373/2/4 374/2/4 386/2/4
f 386/2/4 374/2/4 387/2/4
f 380/7/4 375/7/4 388/7/4
f 379/7/4 380/7/4 388/7/4
f 375/2/4 376/2/4 389/2/4
f 388/7/4 375/7/4 389/7/4
f 376/7/4 381/7/4 390/7/4
f 389/2/4 376/2/4 390/2/4
f 381/6/4 382/6/4 391/6/4
f 390/7/4 381/7/4 391/7/4
f 382/7/4 383/7/4 392/7/4
f 391/6/4 382/6/4 392/6/4
f 392/7/4 383/7/4 393/7/4
f 385/2/4 386/2/4 394/2/4
f 394/2/4 386/2/4 395/2/4
f 379/7/4 388/7/4 396/7/4
f 396/7/4 388/7/4 397/7/4
f 398/2/4 399/2/4 400/2/4
f 400/2/4 399/2/4 401/2/4
f 406/2/5 403/2/5 402/2/5
f 407/2/5 403/2/5 406/2/5
f 408/2/5 405/2/5 404/2/5
f 409/2/5 405/2/5 408/2/5
f 412/7/5 411/7/5 410/7/5
f 413/7/5 411/7/5 412/7/5
f 414/7/5 411/7/5 413/7/5
f 415/7/5 411/7/5 414/7/5
f 416/7/5 412/7/5 410/7/5
f 417/7/5 414/7/5 413/7/5
f 418/7/5 414/7/5 417/7/5
f 419/7/5 414/7/5 418/7/5
f 420/7/5 411/7/5 415/7/5
f 421/7/5 416/7/5 410/7/5
f 421/7/5 417/7/5 416/7/5
f 421/7/5 418/7/5 417/7/5
f 422/6/5 419/6/5 418/6/5
f 422/7/5 418/7/5 421/7/5
f 423/7/5 420/7/5 419/7/5
f 423/6/5 419/6/5 422/6/5
f 424/7/5 411/7/5 420/7/5
f 424/7/5 420/7/5 423/7/5
f 432/2/5 426/2/5 425/2/5
f 432/4/5 427/4/5 426/4/5
f 433/7/5 428/7/5 427/7/5
f 433/4/5 427/4/5 432/4/5
f 434/2/5 431/2/5 430/2/5
f 435/2/5 431/2/5 434/2/5
f 436/2/5 432/2/5 425/2/5
f 436/2/5 433/2/5 432/2/5
f 437/7/5 428/7/5 433/7/5
f 437/2/5 433/2/5 436/2/5
f 438/7/5 428/7/5 437/7/5
f 439/7/5 430/7/5 429/7/5
f 440/2/5 434/2/5 430/2/5
f 440/7/5 430/7/5 439/7/5
f 441/4/5 435/4/5 434/4/5
f 441/2/5 434/2/5 440/2/5
f 442/2/5 431/2/5 435/2/5
f 442/4/5 435/4/5 441/4/5
f 443/2/5 431/2/5 442/2/5
f 448/3/5 445/3/5 444/3/5
f 449/3/5 445/3/5 448/3/5
f 450/3/5 447/3/5 446/3/5
f 451/3/5 447/3/5 450/3/5
f 456/3/5 453/3/5 452/3/5
f 457/3/5 453/3/5 456/3/5
f 458/3/5 455/3/5 454/3/5
f 459/3/5 455/3/5 458/3/5
f 464/3/5 462/3/5 461/3/5
f 465/3/5 462/3/5 464/3/5
f 466/3/5 464/3/5 461/3/5
f 467/3/5 462/3/5 465/3/5
f 468/2/5 461/2/5 460/2/5
f 469/3/5 467/3/5 466/3/5
f 469/2/5 461/2/5 468/2/5
f 469/3/5 466/3/5 461/3/5
f 470/2/5 463/2/5 462/2/5
f 470/3/5 467/3/5 469/3/5
f 470/3/5 462/3/5 467/3/5
f 471/2/5 463/2/5 470/2/5
f 472/2/5 470/2/5 469/2/5
f 473/2/5 470/2/5 472/2/5
f 478/2/5 475/2/5 474/2/5
f 479/2/5 475/2/5 478/2/5
f 480/2/5 477/2/5 476/2/5
f 481/2/5 477/2/5 480/2/5
f 486/2/5 483/2/5 482/2/5
f 487/2/5 483/2/5 486/2/5
f 488/2/5 485/2/5 484/2/5
f 489/2/5 485/2/5 488/2/5
f 492/2/5 491/2/5 490/2/5
f 493/2/5 491/2/5 492/2/5
f 494/6/6 495/6/6 498/6/6
f 498/6/6 495/6/6 499/6/6
f 496/7/6 497/7/6 500/7/6
f 500/7/6 497/7/6 501/7/6
f 498/7/6 499/7/6 502/7/6
f 502/7/6 499/7/6 503/7/6
f 501/7/6 497/7/6 504/7/6
f 504/7/6 497/7/6 505/7/6
f 506/7/6 507/7/6 515/7/6
f 515/7/6 507/7/6 516/7/6
f 508/7/6 509/7/6 517/7/6
f 517/7/6 509/7/6 518/7/6
f 511/2/6 512/2/6 527/2/6
f 512/4/6 513/4/6 527/4/6
f 513/2/6 514/2/6 528/2/6
f 527/4/6 513/4/6 528/4/6
f 514/7/6 515/7/6 529/7/6
f 528/2/6 514/2/6 529/2/6
f 529/7/6 515/7/6 530/7/6
f 530/7/6 515/7/6 531/7/6
f 518/7/6 519/7/6 532/7/6
f 519/6/6 520/6/6 532/6/6
f 520/7/6 521/7/6 533/7/6
f 532/6/6 520/6/6 533/6/6
f 522/4/6 523/4/6 534/4/6
f 521/2/6 522/2/6 534/2/6
f 523/2/6 524/2/6 535/2/6
f 534/4/6 523/4/6 535/4/6
f 524/4/6 525/4/6 536/4/6
f 535/2/6 524/2/6 536/2/6
f 525/3/6 526/3/6 537/3/6
f 536/4/6 525/4/6 537/4/6
f 510/3/6 511/3/6 538/3/6
f 511/2/6 527/2/6 539/2/6
f 538/3/6 511/3/6 539/3/6
f 527/2/6 528/2/6 539/2/6
f 528/2/6 529/2/6 539/2/6
f 529/6/6 530/6/6 540/6/6
f 539/2/6 529/2/6 540/2/6
f 530/7/6 531/7/6 541/7/6
f 540/6/6 530/6/6 541/6/6
f 541/7/6 531/7/6 542/7/6
f 518/7/6 532/7/6 545/7/6
f 532/7/6 533/7/6 545/7/6
f 535/2/6 536/2/6 546/2/6
f 534/2/6 535/2/6 546/2/6
f 545/7/6 533/7/6 546/7/6
f 521/2/6 534/2/6 546/2/6
f 536/2/6 537/2/6 546/2/6
f 533/7/6 521/7/6 546/7/6
f 537/3/6 526/3/6 547/3/6
f 546/2/6 537/2/6 547/2/6
f 547/3/6 526/3/6 548/3/6
f 542/7/6 543/7/6 549/7/6
f 549/7/6 543/7/6 550/7/6
f 544/7/6 545/7/6 551/7/6
f 551/7/6 545/7/6 552/7/6
f 553/5/6 554/5/6 556/5/6
f 556/5/6 554/5/6 557/5/6
f 557/5/6 554/5/6 558/5/6
f 558/5/6 554/5/6 559/5/6
f 555/7/6 556/7/6 561/7/6
f 556/5/6 557/5/6 562/5/6
f 561/7/6 556/7/6 562/7/6
f 561/6/6 562/6/6 563/6/6
f 562/5/6 557/5/6 564/5/6
f 563/6/6 562/6/6 564/6/6
f 564/5/6 557/5/6 565/5/6
f 558/5/6 559/5/6 566/5/6
f 559/7/6 560/7/6 567/7/6
f 566/5/6 559/5/6 567/5/6
f 567/7/6 560/7/6 568/7/6
f 565/5/6 566/5/6 569/5/6
f 564/5/6 565/5/6 569/5/6
f 566/5/6 567/5/6 569/5/6
f 569/5/6 567/5/6 570/5/6
f 571/2/6 572/2/6 575/2/6
f 575/2/6 572/2/6 576/2/6
f 573/2/6 574/2/6 577/2/6
f 577/2/6 574/2/6 578/2/6
f 576/2/6 577/2/6 579/2/6
f 579/2/6 577/2/6 580/2/6
f 581/2/6 582/2/6 583/2/6
f 583/2/6 582/2/6 584/2/6
