# MagicaVoxel @ Ephtracy

# group
o 

# material
mtllib RightLava.mtl
usemtl palette

# normals
vn -1 0 0
vn 1 0 0
vn 0 0 1
vn 0 0 -1
vn 0 -1 0
vn 0 1 0

# texcoords
vt 0.228516 0.5

# verts
v 0.1 0 2
v 0.1 0 1.6
v 0.1 0.1 2
v 0.1 0.1 1.6
v 0.2 0 1.6
v 0.2 0 1.5
v 0.2 0.1 1.6
v 0.2 0.1 1.5
v 0.6 0 1.6
v 0.6 0 1.5
v 0.6 0.1 1.6
v 0.6 0.1 1.5
v 0.7 0 1.7
v 0.7 0 1.6
v 0.7 0.1 1.7
v 0.7 0.1 1.6
v 0.9 0 1.8
v 0.9 0 1.7
v 0.9 0.1 1.8
v 0.9 0.1 1.7
v 1 0 1.9
v 1 0 1.8
v 1 0.1 1.9
v 1 0.1 1.8
v 1.1 0 2
v 1.1 0 1.9
v 1.1 0.1 2
v 1.1 0.1 1.9
v 0.1 0 2
v 0.1 0.1 2
v 1.1 0 2
v 1.1 0.1 2
v 1 0 1.9
v 1 0.1 1.9
v 1.1 0 1.9
v 1.1 0.1 1.9
v 0.9 0 1.8
v 0.9 0.1 1.8
v 1 0 1.8
v 1 0.1 1.8
v 0.7 0 1.7
v 0.7 0.1 1.7
v 0.9 0 1.7
v 0.9 0.1 1.7
v 0.1 0 1.6
v 0.1 0.1 1.6
v 0.2 0 1.6
v 0.2 0.1 1.6
v 0.6 0 1.6
v 0.6 0.1 1.6
v 0.7 0 1.6
v 0.7 0.1 1.6
v 0.2 0 1.5
v 0.2 0.1 1.5
v 0.6 0 1.5
v 0.6 0.1 1.5
v 0.1 0 2
v 1.1 0 2
v 1 0 1.9
v 1.1 0 1.9
v 0.9 0 1.8
v 1 0 1.8
v 0.7 0 1.7
v 0.9 0 1.7
v 0.1 0 1.6
v 0.2 0 1.6
v 0.6 0 1.6
v 0.7 0 1.6
v 0.2 0 1.5
v 0.6 0 1.5
v 0.1 0.1 2
v 1.1 0.1 2
v 1 0.1 1.9
v 1.1 0.1 1.9
v 0.9 0.1 1.8
v 1 0.1 1.8
v 0.7 0.1 1.7
v 0.9 0.1 1.7
v 0.1 0.1 1.6
v 0.2 0.1 1.6
v 0.6 0.1 1.6
v 0.7 0.1 1.6
v 0.2 0.1 1.5
v 0.6 0.1 1.5

# faces
f 3/1/1 2/1/1 1/1/1
f 4/1/1 2/1/1 3/1/1
f 7/1/1 6/1/1 5/1/1
f 8/1/1 6/1/1 7/1/1
f 9/1/2 10/1/2 11/1/2
f 11/1/2 10/1/2 12/1/2
f 13/1/2 14/1/2 15/1/2
f 15/1/2 14/1/2 16/1/2
f 17/1/2 18/1/2 19/1/2
f 19/1/2 18/1/2 20/1/2
f 21/1/2 22/1/2 23/1/2
f 23/1/2 22/1/2 24/1/2
f 25/1/2 26/1/2 27/1/2
f 27/1/2 26/1/2 28/1/2
f 31/1/3 30/1/3 29/1/3
f 32/1/3 30/1/3 31/1/3
f 33/1/4 34/1/4 35/1/4
f 35/1/4 34/1/4 36/1/4
f 37/1/4 38/1/4 39/1/4
f 39/1/4 38/1/4 40/1/4
f 41/1/4 42/1/4 43/1/4
f 43/1/4 42/1/4 44/1/4
f 45/1/4 46/1/4 47/1/4
f 47/1/4 46/1/4 48/1/4
f 49/1/4 50/1/4 51/1/4
f 51/1/4 50/1/4 52/1/4
f 53/1/4 54/1/4 55/1/4
f 55/1/4 54/1/4 56/1/4
f 59/1/5 58/1/5 57/1/5
f 60/1/5 58/1/5 59/1/5
f 61/1/5 59/1/5 57/1/5
f 62/1/5 59/1/5 61/1/5
f 63/1/5 61/1/5 57/1/5
f 64/1/5 61/1/5 63/1/5
f 65/1/5 63/1/5 57/1/5
f 66/1/5 63/1/5 65/1/5
f 67/1/5 63/1/5 66/1/5
f 68/1/5 63/1/5 67/1/5
f 69/1/5 67/1/5 66/1/5
f 70/1/5 67/1/5 69/1/5
f 71/1/6 72/1/6 73/1/6
f 73/1/6 72/1/6 74/1/6
f 71/1/6 73/1/6 75/1/6
f 75/1/6 73/1/6 76/1/6
f 71/1/6 75/1/6 77/1/6
f 77/1/6 75/1/6 78/1/6
f 71/1/6 77/1/6 79/1/6
f 79/1/6 77/1/6 80/1/6
f 80/1/6 77/1/6 81/1/6
f 81/1/6 77/1/6 82/1/6
f 80/1/6 81/1/6 83/1/6
f 83/1/6 81/1/6 84/1/6
