# MagicaVoxel @ Ephtracy

# group
o 

# material
mtllib Dummy.mtl
usemtl palette

# normals
vn -1 0 0
vn 1 0 0
vn 0 0 1
vn 0 0 -1
vn 0 -1 0
vn 0 1 0

# texcoords
vt 0.0214844 0.5
vt 0.123047 0.5
vt 0.955078 0.5
vt 0.994141 0.5

# verts
v -1.2 0.3 1.6
v -1.2 0.3 -1.3
v -1.2 0.7 1.6
v -1.2 0.7 -1.3
v -1.1 0.2 1.5
v -1.1 0.2 -1.2
v -1.1 0.3 1.5
v -1.1 0.3 -1.2
v -1.1 0.7 1.5
v -1.1 0.7 -1.2
v -1.1 1.1 1.5
v -1.1 1.1 -1.2
v -1 0.1 1.3
v -1 0.1 -1
v -1 0.2 1.3
v -1 0.2 -1
v -1 1.1 1.4
v -1 1.1 -1
v -1 1.6 1.4
v -1 1.6 -1
v -0.9 0 1.2
v -0.9 0 -0.9
v -0.9 0.1 1.2
v -0.9 0.1 -0.9
v -0.9 1.6 1.3
v -0.9 1.6 -0.9
v -0.9 2 1.3
v -0.9 2 -0.9
v -0.8 2 1.2
v -0.8 2 -0.8
v -0.8 2.4 1.2
v -0.8 2.4 -0.8
v -0.7 2.4 1.1
v -0.7 2.4 -0.7
v -0.7 2.7 1.1
v -0.7 2.7 -0.7
v -0.6 2.7 1
v -0.6 2.7 -0.6
v -0.6 3 1
v -0.6 3 -0.6
v -0.5 3 0.9
v -0.5 3 -0.5
v -0.5 3.2 0.9
v -0.5 3.2 -0.5
v -0.4 3.2 0.8
v -0.4 3.2 -0.4
v -0.4 3.3 0.8
v -0.4 3.3 -0.4
v -0.3 3.3 0.7
v -0.3 3.3 -0.3
v -0.3 3.4 0.7
v -0.3 3.4 -0.3
v -0.2 3.4 0.6
v -0.2 3.4 -0.1
v -0.2 3.5 0.6
v -0.2 3.5 -0.1
v -0.0999999 3.5 0.5
v -0.0999999 3.5 0
v -0.0999999 3.6 0.5
v -0.0999999 3.6 0
v 1.19209e-07 3.6 0.4
v 1.19209e-07 3.6 0.1
v 1.19209e-07 3.7 0.4
v 1.19209e-07 3.7 0.1
v 0.2 3.6 0.4
v 0.2 3.6 0.1
v 0.2 3.7 0.4
v 0.2 3.7 0.1
v 0.3 3.5 0.5
v 0.3 3.5 0
v 0.3 3.6 0.5
v 0.3 3.6 0
v 0.4 3.4 0.6
v 0.4 3.4 -0.1
v 0.4 3.5 0.6
v 0.4 3.5 -0.1
v 0.5 3.3 0.7
v 0.5 3.3 -0.3
v 0.5 3.4 0.7
v 0.5 3.4 -0.3
v 0.6 3.2 0.8
v 0.6 3.2 -0.4
v 0.6 3.3 0.8
v 0.6 3.3 -0.4
v 0.7 3 0.9
v 0.7 3 -0.5
v 0.7 3.2 0.9
v 0.7 3.2 -0.5
v 0.8 2.7 1
v 0.8 2.7 -0.6
v 0.8 3 1
v 0.8 3 -0.6
v 0.9 2.4 1.1
v 0.9 2.4 -0.7
v 0.9 2.7 1.1
v 0.9 2.7 -0.7
v 1 2 1.2
v 1 2 -0.8
v 1 2.4 1.2
v 1 2.4 -0.8
v 1.1 0 1.2
v 1.1 0 -0.9
v 1.1 0.1 1.2
v 1.1 0.1 -0.9
v 1.1 1.6 1.3
v 1.1 1.6 -0.9
v 1.1 2 1.3
v 1.1 2 -0.9
v 1.2 0.1 1.3
v 1.2 0.1 -1
v 1.2 0.2 1.3
v 1.2 0.2 -1
v 1.2 1.1 1.4
v 1.2 1.1 -1
v 1.2 1.6 1.4
v 1.2 1.6 -1
v 1.3 0.2 1.5
v 1.3 0.2 -1.2
v 1.3 0.3 1.5
v 1.3 0.3 -1.2
v 1.3 0.7 1.5
v 1.3 0.7 -1.2
v 1.3 1.1 1.5
v 1.3 1.1 -1.2
v 1.4 0.3 1.6
v 1.4 0.3 -1.3
v 1.4 0.7 1.6
v 1.4 0.7 -1.3
v -1.2 0.3 1.6
v -1.2 0.7 1.6
v -0.2 0.3 1.6
v -0.2 0.4 1.6
v -0.0999999 0.4 1.6
v -0.0999999 0.5 1.6
v 1.19209e-07 0.5 1.6
v 1.19209e-07 0.6 1.6
v 0.1 0.5 1.6
v 0.1 0.6 1.6
v 0.2 0.4 1.6
v 0.2 0.5 1.6
v 0.3 0.3 1.6
v 0.3 0.4 1.6
v 1.4 0.3 1.6
v 1.4 0.7 1.6
v -1.1 0.2 1.5
v -1.1 0.3 1.5
v -1.1 0.7 1.5
v -1.1 1.1 1.5
v -0.5 0.7 1.5
v -0.5 1.1 1.5
v -0.4 0.7 1.5
v -0.4 0.8 1.5
v -0.3 0.8 1.5
v -0.3 0.9 1.5
v -0.3 1 1.5
v -0.3 1.1 1.5
v -0.2 0.3 1.5
v -0.2 0.9 1.5
v -0.2 1 1.5
v 0.3 0.3 1.5
v 0.3 0.9 1.5
v 0.3 1 1.5
v 0.4 0.8 1.5
v 0.4 0.9 1.5
v 0.4 1 1.5
v 0.4 1.1 1.5
v 0.5 0.7 1.5
v 0.5 0.8 1.5
v 0.6 0.7 1.5
v 0.6 1.1 1.5
v 1.3 0.2 1.5
v 1.3 0.3 1.5
v 1.3 0.7 1.5
v 1.3 1.1 1.5
v -1 1.1 1.4
v -1 1.6 1.4
v -0.5 1.1 1.4
v -0.5 1.2 1.4
v -0.4 1.1 1.4
v -0.4 1.2 1.4
v -0.3 1.1 1.4
v -0.2 1.5 1.4
v -0.2 1.6 1.4
v -0.0999999 1.4 1.4
v -0.0999999 1.5 1.4
v 1.19209e-07 1.3 1.4
v 1.19209e-07 1.4 1.4
v 0.1 1.3 1.4
v 0.1 1.4 1.4
v 0.2 1.4 1.4
v 0.2 1.5 1.4
v 0.3 1.5 1.4
v 0.3 1.6 1.4
v 0.4 1.1 1.4
v 0.5 1.1 1.4
v 0.5 1.2 1.4
v 0.6 1.1 1.4
v 0.6 1.2 1.4
v 1.2 1.1 1.4
v 1.2 1.6 1.4
v -1 0.1 1.3
v -1 0.2 1.3
v -0.9 1.6 1.3
v -0.9 2 1.3
v -0.2 1.6 1.3
v 0.3 1.6 1.3
v 0.5 1.9 1.3
v 0.5 2 1.3
v 0.6 1.8 1.3
v 0.6 1.9 1.3
v 0.8 1.8 1.3
v 0.8 1.9 1.3
v 0.9 1.9 1.3
v 0.9 2 1.3
v 1.1 1.6 1.3
v 1.1 2 1.3
v 1.2 0.1 1.3
v 1.2 0.2 1.3
v -0.9 0 1.2
v -0.9 0.1 1.2
v -0.8 2 1.2
v -0.8 2.4 1.2
v -0.5 2 1.2
v -0.5 2.1 1.2
v -0.4 2 1.2
v -0.4 2.1 1.2
v -0.4 2.2 1.2
v 1.19209e-07 2.1 1.2
v 1.19209e-07 2.2 1.2
v 1.19209e-07 2.3 1.2
v 0.3 2.1 1.2
v 0.3 2.2 1.2
v 0.4 2 1.2
v 0.4 2.1 1.2
v 0.5 2 1.2
v 0.5 2.2 1.2
v 0.5 2.3 1.2
v 0.5 2.4 1.2
v 0.9 2 1.2
v 0.9 2.3 1.2
v 0.9 2.4 1.2
v 1 2 1.2
v 1 2.4 1.2
v 1.1 0 1.2
v 1.1 0.1 1.2
v -0.7 2.4 1.1
v -0.7 2.7 1.1
v 0.5 2.4 1.1
v 0.9 2.4 1.1
v 0.9 2.7 1.1
v -0.6 2.7 1
v -0.6 3 1
v -0.5 2.7 1
v -0.5 2.8 1
v -0.5 2.9 1
v -0.5 3 1
v -0.4 2.7 1
v -0.4 2.8 1
v -0.4 2.9 1
v -0.4 3 1
v -0.3 2.7 1
v -0.3 2.8 1
v -0.3 2.9 1
v -0.3 3 1
v -0.2 2.7 1
v -0.2 2.8 1
v -0.2 2.9 1
v -0.2 3 1
v 0.4 2.7 1
v 0.4 2.8 1
v 0.4 2.9 1
v 0.4 3 1
v 0.5 2.7 1
v 0.5 2.8 1
v 0.5 2.9 1
v 0.5 3 1
v 0.6 2.7 1
v 0.6 2.8 1
v 0.6 2.9 1
v 0.6 3 1
v 0.7 2.7 1
v 0.7 2.8 1
v 0.7 2.9 1
v 0.7 3 1
v 0.8 2.7 1
v 0.8 3 1
v -0.5 3 0.9
v -0.5 3.2 0.9
v -0.4 3 0.9
v -0.3 3 0.9
v -0.2 3 0.9
v 0.4 3 0.9
v 0.5 3 0.9
v 0.6 3 0.9
v 0.7 3 0.9
v 0.7 3.2 0.9
v -0.4 3.2 0.8
v -0.4 3.3 0.8
v 0.6 3.2 0.8
v 0.6 3.3 0.8
v -0.3 3.3 0.7
v -0.3 3.4 0.7
v 0.5 3.3 0.7
v 0.5 3.4 0.7
v -0.2 3.4 0.6
v -0.2 3.5 0.6
v 0.4 3.4 0.6
v 0.4 3.5 0.6
v -0.0999999 3.5 0.5
v -0.0999999 3.6 0.5
v 0.3 3.5 0.5
v 0.3 3.6 0.5
v 1.19209e-07 3.6 0.4
v 1.19209e-07 3.7 0.4
v 0.2 3.6 0.4
v 0.2 3.7 0.4
v 1.19209e-07 3.6 0.1
v 1.19209e-07 3.7 0.1
v 0.2 3.6 0.1
v 0.2 3.7 0.1
v -0.0999999 3.5 0
v -0.0999999 3.6 0
v 0.3 3.5 0
v 0.3 3.6 0
v -0.2 3.4 -0.1
v -0.2 3.5 -0.1
v 0.4 3.4 -0.1
v 0.4 3.5 -0.1
v -0.3 3.3 -0.3
v -0.3 3.4 -0.3
v 0.5 3.3 -0.3
v 0.5 3.4 -0.3
v -0.4 3.2 -0.4
v -0.4 3.3 -0.4
v 0.6 3.2 -0.4
v 0.6 3.3 -0.4
v -0.5 3 -0.5
v -0.5 3.2 -0.5
v 0.7 3 -0.5
v 0.7 3.2 -0.5
v -0.6 2.7 -0.6
v -0.6 3 -0.6
v 0.8 2.7 -0.6
v 0.8 3 -0.6
v -0.7 2.4 -0.7
v -0.7 2.7 -0.7
v 0.9 2.4 -0.7
v 0.9 2.7 -0.7
v -0.8 2 -0.8
v -0.8 2.4 -0.8
v 1 2 -0.8
v 1 2.4 -0.8
v -0.9 0 -0.9
v -0.9 0.1 -0.9
v -0.9 1.6 -0.9
v -0.9 2 -0.9
v 1.1 0 -0.9
v 1.1 0.1 -0.9
v 1.1 1.6 -0.9
v 1.1 2 -0.9
v -1 0.1 -1
v -1 0.2 -1
v -1 1.1 -1
v -1 1.6 -1
v 1.2 0.1 -1
v 1.2 0.2 -1
v 1.2 1.1 -1
v 1.2 1.6 -1
v -1.1 0.2 -1.2
v -1.1 0.3 -1.2
v -1.1 0.7 -1.2
v -1.1 1.1 -1.2
v 1.3 0.2 -1.2
v 1.3 0.3 -1.2
v 1.3 0.7 -1.2
v 1.3 1.1 -1.2
v -1.2 0.3 -1.3
v -1.2 0.7 -1.3
v 1.4 0.3 -1.3
v 1.4 0.7 -1.3
v -0.9 0 1.2
v 1.1 0 1.2
v -0.9 0 -0.9
v 1.1 0 -0.9
v -1 0.1 1.3
v 1.2 0.1 1.3
v -0.9 0.1 1.2
v 1.1 0.1 1.2
v -0.9 0.1 -0.9
v 1.1 0.1 -0.9
v -1 0.1 -1
v 1.2 0.1 -1
v -1.1 0.2 1.5
v 1.3 0.2 1.5
v -1 0.2 1.3
v 1.2 0.2 1.3
v -1 0.2 -1
v 1.2 0.2 -1
v -1.1 0.2 -1.2
v 1.3 0.2 -1.2
v -1.2 0.3 1.6
v -0.2 0.3 1.6
v 0.3 0.3 1.6
v 1.4 0.3 1.6
v -1.1 0.3 1.5
v -0.2 0.3 1.5
v 0.3 0.3 1.5
v 1.3 0.3 1.5
v -1.1 0.3 -1.2
v 1.3 0.3 -1.2
v -1.2 0.3 -1.3
v 1.4 0.3 -1.3
v -1.2 0.7 1.6
v 1.4 0.7 1.6
v -1.1 0.7 1.5
v -0.5 0.7 1.5
v -0.4 0.7 1.5
v 0.5 0.7 1.5
v 0.6 0.7 1.5
v 1.3 0.7 1.5
v -1.1 0.7 -1.2
v 1.3 0.7 -1.2
v -1.2 0.7 -1.3
v 1.4 0.7 -1.3
v -1.1 1.1 1.5
v -0.5 1.1 1.5
v -0.3 1.1 1.5
v 0.4 1.1 1.5
v 0.6 1.1 1.5
v 1.3 1.1 1.5
v -1 1.1 1.4
v -0.5 1.1 1.4
v -0.4 1.1 1.4
v -0.3 1.1 1.4
v 0.4 1.1 1.4
v 0.5 1.1 1.4
v 0.6 1.1 1.4
v 1.2 1.1 1.4
v -1 1.1 -1
v 1.2 1.1 -1
v -1.1 1.1 -1.2
v 1.3 1.1 -1.2
v -1 1.6 1.4
v -0.2 1.6 1.4
v 0.3 1.6 1.4
v 1.2 1.6 1.4
v -0.9 1.6 1.3
v -0.2 1.6 1.3
v 0.3 1.6 1.3
v 1.1 1.6 1.3
v -0.9 1.6 -0.9
v 1.1 1.6 -0.9
v -1 1.6 -1
v 1.2 1.6 -1
v -0.9 2 1.3
v 0.5 2 1.3
v 0.9 2 1.3
v 1.1 2 1.3
v -0.8 2 1.2
v -0.5 2 1.2
v -0.4 2 1.2
v 0.4 2 1.2
v 0.5 2 1.2
v 0.9 2 1.2
v 1 2 1.2
v -0.8 2 -0.8
v 1 2 -0.8
v -0.9 2 -0.9
v 1.1 2 -0.9
v -0.8 2.4 1.2
v 0.5 2.4 1.2
v 0.9 2.4 1.2
v 1 2.4 1.2
v -0.7 2.4 1.1
v 0.5 2.4 1.1
v 0.9 2.4 1.1
v -0.7 2.4 -0.7
v 0.9 2.4 -0.7
v -0.8 2.4 -0.8
v 1 2.4 -0.8
v -0.7 2.7 1.1
v 0.9 2.7 1.1
v -0.6 2.7 1
v -0.5 2.7 1
v -0.4 2.7 1
v -0.3 2.7 1
v -0.2 2.7 1
v 0.4 2.7 1
v 0.5 2.7 1
v 0.6 2.7 1
v 0.7 2.7 1
v 0.8 2.7 1
v -0.6 2.7 -0.6
v 0.8 2.7 -0.6
v -0.7 2.7 -0.7
v 0.9 2.7 -0.7
v -0.6 3 1
v -0.5 3 1
v -0.4 3 1
v -0.3 3 1
v -0.2 3 1
v 0.4 3 1
v 0.5 3 1
v 0.6 3 1
v 0.7 3 1
v 0.8 3 1
v -0.5 3 0.9
v -0.4 3 0.9
v -0.3 3 0.9
v -0.2 3 0.9
v 0.4 3 0.9
v 0.5 3 0.9
v 0.6 3 0.9
v 0.7 3 0.9
v -0.5 3 -0.5
v 0.7 3 -0.5
v -0.6 3 -0.6
v 0.8 3 -0.6
v -0.5 3.2 0.9
v 0.7 3.2 0.9
v -0.4 3.2 0.8
v 0.6 3.2 0.8
v -0.4 3.2 -0.4
v 0.6 3.2 -0.4
v -0.5 3.2 -0.5
v 0.7 3.2 -0.5
v -0.4 3.3 0.8
v 0.6 3.3 0.8
v -0.3 3.3 0.7
v 0.5 3.3 0.7
v -0.3 3.3 -0.3
v 0.5 3.3 -0.3
v -0.4 3.3 -0.4
v 0.6 3.3 -0.4
v -0.3 3.4 0.7
v 0.5 3.4 0.7
v -0.2 3.4 0.6
v 0.4 3.4 0.6
v -0.2 3.4 -0.1
v 0.4 3.4 -0.1
v -0.3 3.4 -0.3
v 0.5 3.4 -0.3
v -0.2 3.5 0.6
v 0.4 3.5 0.6
v -0.0999999 3.5 0.5
v 0.3 3.5 0.5
v -0.0999999 3.5 0
v 0.3 3.5 0
v -0.2 3.5 -0.1
v 0.4 3.5 -0.1
v -0.0999999 3.6 0.5
v 0.3 3.6 0.5
v 1.19209e-07 3.6 0.4
v 0.2 3.6 0.4
v 1.19209e-07 3.6 0.1
v 0.2 3.6 0.1
v -0.0999999 3.6 0
v 0.3 3.6 0
v 1.19209e-07 3.7 0.4
v 0.2 3.7 0.4
v 1.19209e-07 3.7 0.1
v 0.2 3.7 0.1

# faces
f 3/1/1 2/1/1 1/1/1
f 4/1/1 2/1/1 3/1/1
f 7/1/1 6/1/1 5/1/1
f 8/1/1 6/1/1 7/1/1
f 11/1/1 10/1/1 9/1/1
f 12/1/1 10/1/1 11/1/1
f 15/1/1 14/1/1 13/1/1
f 16/1/1 14/1/1 15/1/1
f 19/1/1 18/1/1 17/1/1
f 20/1/1 18/1/1 19/1/1
f 23/1/1 22/1/1 21/1/1
f 24/1/1 22/1/1 23/1/1
f 27/1/1 26/1/1 25/1/1
f 28/1/1 26/1/1 27/1/1
f 31/1/1 30/1/1 29/1/1
f 32/1/1 30/1/1 31/1/1
f 35/1/1 34/1/1 33/1/1
f 36/1/1 34/1/1 35/1/1
f 39/1/1 38/1/1 37/1/1
f 40/1/1 38/1/1 39/1/1
f 43/1/1 42/1/1 41/1/1
f 44/1/1 42/1/1 43/1/1
f 47/1/1 46/1/1 45/1/1
f 48/1/1 46/1/1 47/1/1
f 51/1/1 50/1/1 49/1/1
f 52/1/1 50/1/1 51/1/1
f 55/1/1 54/1/1 53/1/1
f 56/1/1 54/1/1 55/1/1
f 59/1/1 58/1/1 57/1/1
f 60/1/1 58/1/1 59/1/1
f 63/1/1 62/1/1 61/1/1
f 64/1/1 62/1/1 63/1/1
f 65/1/2 66/1/2 67/1/2
f 67/1/2 66/1/2 68/1/2
f 69/1/2 70/1/2 71/1/2
f 71/1/2 70/1/2 72/1/2
f 73/1/2 74/1/2 75/1/2
f 75/1/2 74/1/2 76/1/2
f 77/1/2 78/1/2 79/1/2
f 79/1/2 78/1/2 80/1/2
f 81/1/2 82/1/2 83/1/2
f 83/1/2 82/1/2 84/1/2
f 85/1/2 86/1/2 87/1/2
f 87/1/2 86/1/2 88/1/2
f 89/1/2 90/1/2 91/1/2
f 91/1/2 90/1/2 92/1/2
f 93/1/2 94/1/2 95/1/2
f 95/1/2 94/1/2 96/1/2
f 97/1/2 98/1/2 99/1/2
f 99/1/2 98/1/2 100/1/2
f 101/1/2 102/1/2 103/1/2
f 103/1/2 102/1/2 104/1/2
f 105/1/2 106/1/2 107/1/2
f 107/1/2 106/1/2 108/1/2
f 109/1/2 110/1/2 111/1/2
f 111/1/2 110/1/2 112/1/2
f 113/1/2 114/1/2 115/1/2
f 115/1/2 114/1/2 116/1/2
f 117/1/2 118/1/2 119/1/2
f 119/1/2 118/1/2 120/1/2
f 121/1/2 122/1/2 123/1/2
f 123/1/2 122/1/2 124/1/2
f 125/1/2 126/1/2 127/1/2
f 127/1/2 126/1/2 128/1/2
f 131/1/3 130/1/3 129/1/3
f 132/1/3 130/1/3 131/1/3
f 133/4/3 132/4/3 131/4/3
f 133/1/3 130/1/3 132/1/3
f 134/1/3 130/1/3 133/1/3
f 135/4/3 134/4/3 133/4/3
f 135/1/3 130/1/3 134/1/3
f 136/1/3 130/1/3 135/1/3
f 137/4/3 135/4/3 133/4/3
f 137/4/3 136/4/3 135/4/3
f 138/1/3 130/1/3 136/1/3
f 138/4/3 136/4/3 137/4/3
f 139/4/3 133/4/3 131/4/3
f 139/4/3 137/4/3 133/4/3
f 140/1/3 138/1/3 137/1/3
f 140/4/3 137/4/3 139/4/3
f 141/4/3 139/4/3 131/4/3
f 142/1/3 140/1/3 139/1/3
f 142/4/3 139/4/3 141/4/3
f 143/1/3 142/1/3 141/1/3
f 144/1/3 130/1/3 138/1/3
f 144/1/3 142/1/3 143/1/3
f 144/1/3 138/1/3 140/1/3
f 144/1/3 140/1/3 142/1/3
f 149/1/3 148/1/3 147/1/3
f 150/1/3 148/1/3 149/1/3
f 151/4/3 150/4/3 149/4/3
f 152/4/3 150/4/3 151/4/3
f 153/1/3 152/1/3 151/1/3
f 153/4/3 150/4/3 152/4/3
f 154/4/3 150/4/3 153/4/3
f 155/4/3 150/4/3 154/4/3
f 156/4/3 150/4/3 155/4/3
f 157/1/3 146/1/3 145/1/3
f 158/1/3 154/1/3 153/1/3
f 158/4/3 155/4/3 154/4/3
f 159/1/3 156/1/3 155/1/3
f 159/4/3 155/4/3 158/4/3
f 160/1/3 157/1/3 145/1/3
f 161/1/3 158/1/3 153/1/3
f 161/1/3 159/1/3 158/1/3
f 162/1/3 156/1/3 159/1/3
f 162/1/3 159/1/3 161/1/3
f 163/1/3 153/1/3 151/1/3
f 163/1/3 161/1/3 153/1/3
f 164/4/3 162/4/3 161/4/3
f 164/1/3 161/1/3 163/1/3
f 165/1/3 156/1/3 162/1/3
f 165/4/3 162/4/3 164/4/3
f 166/1/3 156/1/3 165/1/3
f 167/1/3 163/1/3 151/1/3
f 168/4/3 164/4/3 163/4/3
f 168/1/3 163/1/3 167/1/3
f 168/4/3 165/4/3 164/4/3
f 168/4/3 166/4/3 165/4/3
f 169/4/3 168/4/3 167/4/3
f 170/4/3 166/4/3 168/4/3
f 170/4/3 168/4/3 169/4/3
f 171/1/3 160/1/3 145/1/3
f 172/1/3 160/1/3 171/1/3
f 173/1/3 170/1/3 169/1/3
f 174/1/3 170/1/3 173/1/3
f 177/1/3 176/1/3 175/1/3
f 178/1/3 176/1/3 177/1/3
f 179/4/3 178/4/3 177/4/3
f 180/1/3 176/1/3 178/1/3
f 180/4/3 178/4/3 179/4/3
f 181/1/3 180/1/3 179/1/3
f 182/1/3 176/1/3 180/1/3
f 182/1/3 180/1/3 181/1/3
f 183/1/3 176/1/3 182/1/3
f 184/1/3 182/1/3 181/1/3
f 185/4/3 183/4/3 182/4/3
f 185/1/3 182/1/3 184/1/3
f 186/1/3 184/1/3 181/1/3
f 187/4/3 185/4/3 184/4/3
f 187/1/3 184/1/3 186/1/3
f 188/1/3 186/1/3 181/1/3
f 188/4/3 187/4/3 186/4/3
f 189/4/3 185/4/3 187/4/3
f 189/4/3 187/4/3 188/4/3
f 190/1/3 189/1/3 188/1/3
f 190/4/3 185/4/3 189/4/3
f 191/4/3 183/4/3 185/4/3
f 191/4/3 185/4/3 190/4/3
f 192/1/3 191/1/3 190/1/3
f 192/4/3 183/4/3 191/4/3
f 193/4/3 183/4/3 192/4/3
f 194/1/3 190/1/3 188/1/3
f 194/1/3 188/1/3 181/1/3
f 194/1/3 193/1/3 192/1/3
f 194/1/3 192/1/3 190/1/3
f 195/1/3 193/1/3 194/1/3
f 196/1/3 193/1/3 195/1/3
f 197/4/3 196/4/3 195/4/3
f 198/1/3 193/1/3 196/1/3
f 198/4/3 196/4/3 197/4/3
f 199/1/3 198/1/3 197/1/3
f 200/1/3 193/1/3 198/1/3
f 200/1/3 198/1/3 199/1/3
f 205/1/3 204/1/3 203/1/3
f 206/1/3 204/1/3 205/1/3
f 207/1/3 204/1/3 206/1/3
f 208/1/3 204/1/3 207/1/3
f 209/1/3 207/1/3 206/1/3
f 210/2/3 208/2/3 207/2/3
f 210/1/3 207/1/3 209/1/3
f 211/1/3 209/1/3 206/1/3
f 211/2/3 210/2/3 209/2/3
f 212/2/3 208/2/3 210/2/3
f 212/2/3 210/2/3 211/2/3
f 213/1/3 212/1/3 211/1/3
f 213/2/3 208/2/3 212/2/3
f 214/2/3 208/2/3 213/2/3
f 215/1/3 211/1/3 206/1/3
f 215/1/3 213/1/3 211/1/3
f 215/1/3 214/1/3 213/1/3
f 216/1/3 214/1/3 215/1/3
f 217/1/3 202/1/3 201/1/3
f 218/1/3 202/1/3 217/1/3
f 223/1/3 222/1/3 221/1/3
f 224/1/3 222/1/3 223/1/3
f 225/3/3 224/3/3 223/3/3
f 226/1/3 222/1/3 224/1/3
f 226/3/3 224/3/3 225/3/3
f 227/1/3 222/1/3 226/1/3
f 228/1/3 226/1/3 225/1/3
f 228/3/3 227/3/3 226/3/3
f 229/1/3 222/1/3 227/1/3
f 229/3/3 227/3/3 228/3/3
f 230/1/3 222/1/3 229/1/3
f 231/1/3 228/1/3 225/1/3
f 231/1/3 229/1/3 228/1/3
f 232/3/3 230/3/3 229/3/3
f 232/1/3 229/1/3 231/1/3
f 233/1/3 231/1/3 225/1/3
f 234/2/3 232/2/3 231/2/3
f 234/1/3 231/1/3 233/1/3
f 235/2/3 234/2/3 233/2/3
f 236/3/3 230/3/3 232/3/3
f 236/2/3 234/2/3 235/2/3
f 236/2/3 232/2/3 234/2/3
f 237/1/3 222/1/3 230/1/3
f 237/3/3 230/3/3 236/3/3
f 238/1/3 222/1/3 237/1/3
f 239/2/3 236/2/3 235/2/3
f 239/2/3 237/2/3 236/2/3
f 240/3/3 238/3/3 237/3/3
f 240/2/3 237/2/3 239/2/3
f 241/3/3 238/3/3 240/3/3
f 242/1/3 240/1/3 239/1/3
f 242/1/3 241/1/3 240/1/3
f 243/1/3 241/1/3 242/1/3
f 244/1/3 220/1/3 219/1/3
f 245/1/3 220/1/3 244/1/3
f 248/1/3 247/1/3 246/1/3
f 249/1/3 247/1/3 248/1/3
f 250/1/3 247/1/3 249/1/3
f 253/1/3 252/1/3 251/1/3
f 254/1/3 252/1/3 253/1/3
f 255/1/3 252/1/3 254/1/3
f 256/1/3 252/1/3 255/1/3
f 257/3/3 254/3/3 253/3/3
f 258/1/3 255/1/3 254/1/3
f 258/3/3 254/3/3 257/3/3
f 259/3/3 256/3/3 255/3/3
f 259/1/3 255/1/3 258/1/3
f 260/3/3 256/3/3 259/3/3
f 261/1/3 258/1/3 257/1/3
f 262/3/3 259/3/3 258/3/3
f 262/1/3 258/1/3 261/1/3
f 263/1/3 260/1/3 259/1/3
f 263/3/3 259/3/3 262/3/3
f 264/1/3 260/1/3 263/1/3
f 265/3/3 262/3/3 261/3/3
f 266/1/3 263/1/3 262/1/3
f 266/3/3 262/3/3 265/3/3
f 267/3/3 264/3/3 263/3/3
f 267/1/3 263/1/3 266/1/3
f 268/3/3 264/3/3 267/3/3
f 269/1/3 266/1/3 265/1/3
f 269/1/3 267/1/3 266/1/3
f 269/1/3 268/1/3 267/1/3
f 270/1/3 268/1/3 269/1/3
f 271/1/3 268/1/3 270/1/3
f 272/1/3 268/1/3 271/1/3
f 273/4/3 270/4/3 269/4/3
f 274/1/3 271/1/3 270/1/3
f 274/4/3 270/4/3 273/4/3
f 275/4/3 272/4/3 271/4/3
f 275/1/3 271/1/3 274/1/3
f 276/4/3 272/4/3 275/4/3
f 277/1/3 274/1/3 273/1/3
f 278/4/3 275/4/3 274/4/3
f 278/1/3 274/1/3 277/1/3
f 279/1/3 276/1/3 275/1/3
f 279/4/3 275/4/3 278/4/3
f 280/1/3 276/1/3 279/1/3
f 281/4/3 278/4/3 277/4/3
f 282/1/3 279/1/3 278/1/3
f 282/4/3 278/4/3 281/4/3
f 283/4/3 280/4/3 279/4/3
f 283/1/3 279/1/3 282/1/3
f 284/4/3 280/4/3 283/4/3
f 285/1/3 282/1/3 281/1/3
f 285/1/3 283/1/3 282/1/3
f 285/1/3 284/1/3 283/1/3
f 286/1/3 284/1/3 285/1/3
f 289/1/3 288/1/3 287/1/3
f 290/1/3 288/1/3 289/1/3
f 291/1/3 288/1/3 290/1/3
f 292/1/3 288/1/3 291/1/3
f 293/1/3 288/1/3 292/1/3
f 294/1/3 288/1/3 293/1/3
f 295/1/3 288/1/3 294/1/3
f 296/1/3 288/1/3 295/1/3
f 299/1/3 298/1/3 297/1/3
f 300/1/3 298/1/3 299/1/3
f 303/1/3 302/1/3 301/1/3
f 304/1/3 302/1/3 303/1/3
f 307/1/3 306/1/3 305/1/3
f 308/1/3 306/1/3 307/1/3
f 311/1/3 310/1/3 309/1/3
f 312/1/3 310/1/3 311/1/3
f 315/1/3 314/1/3 313/1/3
f 316/1/3 314/1/3 315/1/3
f 317/1/4 318/1/4 319/1/4
f 319/1/4 318/1/4 320/1/4
f 321/1/4 322/1/4 323/1/4
f 323/1/4 322/1/4 324/1/4
f 325/1/4 326/1/4 327/1/4
f 327/1/4 326/1/4 328/1/4
f 329/1/4 330/1/4 331/1/4
f 331/1/4 330/1/4 332/1/4
f 333/1/4 334/1/4 335/1/4
f 335/1/4 334/1/4 336/1/4
f 337/1/4 338/1/4 339/1/4
f 339/1/4 338/1/4 340/1/4
f 341/1/4 342/1/4 343/1/4
f 343/1/4 342/1/4 344/1/4
f 345/1/4 346/1/4 347/1/4
f 347/1/4 346/1/4 348/1/4
f 349/1/4 350/1/4 351/1/4
f 351/1/4 350/1/4 352/1/4
f 353/1/4 354/1/4 357/1/4
f 357/1/4 354/1/4 358/1/4
f 355/1/4 356/1/4 359/1/4
f 359/1/4 356/1/4 360/1/4
f 361/1/4 362/1/4 365/1/4
f 365/1/4 362/1/4 366/1/4
f 363/1/4 364/1/4 367/1/4
f 367/1/4 364/1/4 368/1/4
f 369/1/4 370/1/4 373/1/4
f 373/1/4 370/1/4 374/1/4
f 371/1/4 372/1/4 375/1/4
f 375/1/4 372/1/4 376/1/4
f 377/1/4 378/1/4 379/1/4
f 379/1/4 378/1/4 380/1/4
f 383/1/5 382/1/5 381/1/5
f 384/1/5 382/1/5 383/1/5
f 387/1/5 386/1/5 385/1/5
f 388/1/5 386/1/5 387/1/5
f 389/1/5 387/1/5 385/1/5
f 390/1/5 386/1/5 388/1/5
f 391/1/5 389/1/5 385/1/5
f 391/1/5 390/1/5 389/1/5
f 392/1/5 386/1/5 390/1/5
f 392/1/5 390/1/5 391/1/5
f 395/1/5 394/1/5 393/1/5
f 396/1/5 394/1/5 395/1/5
f 397/1/5 395/1/5 393/1/5
f 398/1/5 394/1/5 396/1/5
f 399/1/5 397/1/5 393/1/5
f 399/1/5 398/1/5 397/1/5
f 400/1/5 394/1/5 398/1/5
f 400/1/5 398/1/5 399/1/5
f 405/1/5 402/1/5 401/1/5
f 406/4/5 403/4/5 402/4/5
f 406/1/5 402/1/5 405/1/5
f 407/1/5 404/1/5 403/1/5
f 407/4/5 403/4/5 406/4/5
f 408/1/5 404/1/5 407/1/5
f 409/1/5 405/1/5 401/1/5
f 410/1/5 404/1/5 408/1/5
f 411/1/5 409/1/5 401/1/5
f 411/1/5 410/1/5 409/1/5
f 412/1/5 404/1/5 410/1/5
f 412/1/5 410/1/5 411/1/5
f 413/1/6 414/1/6 415/1/6
f 415/1/6 414/1/6 416/1/6
f 416/1/6 414/1/6 417/1/6
f 417/1/6 414/1/6 418/1/6
f 418/1/6 414/1/6 419/1/6
f 419/1/6 414/1/6 420/1/6
f 413/1/6 415/1/6 421/1/6
f 420/1/6 414/1/6 422/1/6
f 413/1/6 421/1/6 423/1/6
f 421/1/6 422/1/6 423/1/6
f 422/1/6 414/1/6 424/1/6
f 423/1/6 422/1/6 424/1/6
f 425/1/6 426/1/6 431/1/6
f 426/4/6 427/4/6 432/4/6
f 431/1/6 426/1/6 432/1/6
f 432/4/6 427/4/6 433/4/6
f 427/1/6 428/1/6 434/1/6
f 433/4/6 427/4/6 434/4/6
f 428/4/6 429/4/6 435/4/6
f 434/1/6 428/1/6 435/1/6
f 435/4/6 429/4/6 436/4/6
f 429/1/6 430/1/6 437/1/6
f 436/4/6 429/4/6 437/4/6
f 437/1/6 430/1/6 438/1/6
f 425/1/6 431/1/6 439/1/6
f 438/1/6 430/1/6 440/1/6
f 425/1/6 439/1/6 441/1/6
f 439/1/6 440/1/6 441/1/6
f 440/1/6 430/1/6 442/1/6
f 441/1/6 440/1/6 442/1/6
f 443/1/6 444/1/6 447/1/6
f 444/4/6 445/4/6 448/4/6
f 447/1/6 444/1/6 448/1/6
f 445/1/6 446/1/6 449/1/6
f 448/4/6 445/4/6 449/4/6
f 449/1/6 446/1/6 450/1/6
f 443/1/6 447/1/6 451/1/6
f 450/1/6 446/1/6 452/1/6
f 443/1/6 451/1/6 453/1/6
f 451/1/6 452/1/6 453/1/6
f 452/1/6 446/1/6 454/1/6
f 453/1/6 452/1/6 454/1/6
f 455/1/6 456/1/6 459/1/6
f 459/1/6 456/1/6 460/1/6
f 460/1/6 456/1/6 461/1/6
f 461/1/6 456/1/6 462/1/6
f 456/2/6 457/2/6 463/2/6
f 462/1/6 456/1/6 463/1/6
f 457/1/6 458/1/6 464/1/6
f 463/2/6 457/2/6 464/2/6
f 464/1/6 458/1/6 465/1/6
f 455/1/6 459/1/6 466/1/6
f 465/1/6 458/1/6 467/1/6
f 455/1/6 466/1/6 468/1/6
f 466/1/6 467/1/6 468/1/6
f 467/1/6 458/1/6 469/1/6
f 468/1/6 467/1/6 469/1/6
f 470/1/6 471/1/6 474/1/6
f 471/3/6 472/3/6 475/3/6
f 474/1/6 471/1/6 475/1/6
f 472/1/6 473/1/6 476/1/6
f 475/3/6 472/3/6 476/3/6
f 470/1/6 474/1/6 477/1/6
f 476/1/6 473/1/6 478/1/6
f 470/1/6 477/1/6 479/1/6
f 477/1/6 478/1/6 479/1/6
f 478/1/6 473/1/6 480/1/6
f 479/1/6 478/1/6 480/1/6
f 481/1/6 482/1/6 483/1/6
f 483/1/6 482/1/6 484/1/6
f 484/1/6 482/1/6 485/1/6
f 485/1/6 482/1/6 486/1/6
f 486/1/6 482/1/6 487/1/6
f 487/1/6 482/1/6 488/1/6
f 488/1/6 482/1/6 489/1/6
f 489/1/6 482/1/6 490/1/6
f 490/1/6 482/1/6 491/1/6
f 491/1/6 482/1/6 492/1/6
f 481/1/6 483/1/6 493/1/6
f 492/1/6 482/1/6 494/1/6
f 481/1/6 493/1/6 495/1/6
f 493/1/6 494/1/6 495/1/6
f 494/1/6 482/1/6 496/1/6
f 495/1/6 494/1/6 496/1/6
f 497/1/6 498/1/6 507/1/6
f 498/3/6 499/3/6 507/3/6
f 499/1/6 500/1/6 508/1/6
f 507/3/6 499/3/6 508/3/6
f 500/3/6 501/3/6 509/3/6
f 508/1/6 500/1/6 509/1/6
f 501/1/6 502/1/6 510/1/6
f 509/3/6 501/3/6 510/3/6
f 502/4/6 503/4/6 511/4/6
f 510/1/6 502/1/6 511/1/6
f 503/1/6 504/1/6 512/1/6
f 511/4/6 503/4/6 512/4/6
f 504/4/6 505/4/6 513/4/6
f 512/1/6 504/1/6 513/1/6
f 505/1/6 506/1/6 514/1/6
f 513/4/6 505/4/6 514/4/6
f 497/1/6 507/1/6 515/1/6
f 514/1/6 506/1/6 516/1/6
f 497/1/6 515/1/6 517/1/6
f 515/1/6 516/1/6 517/1/6
f 516/1/6 506/1/6 518/1/6
f 517/1/6 516/1/6 518/1/6
f 519/1/6 520/1/6 521/1/6
f 521/1/6 520/1/6 522/1/6
f 519/1/6 521/1/6 523/1/6
f 522/1/6 520/1/6 524/1/6
f 519/1/6 523/1/6 525/1/6
f 523/1/6 524/1/6 525/1/6
f 524/1/6 520/1/6 526/1/6
f 525/1/6 524/1/6 526/1/6
f 527/1/6 528/1/6 529/1/6
f 529/1/6 528/1/6 530/1/6
f 527/1/6 529/1/6 531/1/6
f 530/1/6 528/1/6 532/1/6
f 527/1/6 531/1/6 533/1/6
f 531/1/6 532/1/6 533/1/6
f 532/1/6 528/1/6 534/1/6
f 533/1/6 532/1/6 534/1/6
f 535/1/6 536/1/6 537/1/6
f 537/1/6 536/1/6 538/1/6
f 535/1/6 537/1/6 539/1/6
f 538/1/6 536/1/6 540/1/6
f 535/1/6 539/1/6 541/1/6
f 539/1/6 540/1/6 541/1/6
f 540/1/6 536/1/6 542/1/6
f 541/1/6 540/1/6 542/1/6
f 543/1/6 544/1/6 545/1/6
f 545/1/6 544/1/6 546/1/6
f 543/1/6 545/1/6 547/1/6
f 546/1/6 544/1/6 548/1/6
f 543/1/6 547/1/6 549/1/6
f 547/1/6 548/1/6 549/1/6
f 548/1/6 544/1/6 550/1/6
f 549/1/6 548/1/6 550/1/6
f 551/1/6 552/1/6 553/1/6
f 553/1/6 552/1/6 554/1/6
f 551/1/6 553/1/6 555/1/6
f 554/1/6 552/1/6 556/1/6
f 551/1/6 555/1/6 557/1/6
f 555/1/6 556/1/6 557/1/6
f 556/1/6 552/1/6 558/1/6
f 557/1/6 556/1/6 558/1/6
f 559/1/6 560/1/6 561/1/6
f 561/1/6 560/1/6 562/1/6
