# MagicaVoxel @ Ephtracy

# group
o 

# material
mtllib Stepping stone test.mtl
usemtl palette

# normals
vn -1 0 0
vn 1 0 0
vn 0 0 1
vn 0 0 -1
vn 0 -1 0
vn 0 1 0

# texcoords
vt 0.986328 0.5
vt 0.990234 0.5

# verts
v -1.7 -0.3 1.7
v -1.7 -0.3 -1.7
v -1.7 -0.1 1.7
v -1.7 -0.1 -1.7
v -1.6 -0.1 1.6
v -1.6 -0.1 1.3
v -1.6 -0.1 1.2
v -1.6 -0.1 -0.4
v -1.6 -0.1 -0.5
v -1.6 -0.1 -1.6
v -1.6 0 1.6
v -1.6 0 1.3
v -1.6 0 1.2
v -1.6 0 -0.4
v -1.6 0 -0.5
v -1.6 0 -1.6
v -1.5 0 1.2
v -1.5 0 -0.1
v -1.5 0 -0.7
v -1.5 0 -1.5
v -1.5 0.1 1.2
v -1.5 0.1 -0.1
v -1.5 0.1 -0.7
v -1.5 0.1 -1.5
v -1.3 0 1.5
v -1.3 0 1.2
v -1.3 0 -0.1
v -1.3 0 -0.2
v -1.3 0 -0.4
v -1.3 0 -0.7
v -1.3 0.1 1.5
v -1.3 0.1 1.2
v -1.3 0.1 -0.1
v -1.3 0.1 -0.7
v -1 -0.1 -1.1
v -1 -0.1 -1.2
v -1 -0.1 -1.3
v -1 -0.1 -1.4
v -1 -0.1 -1.5
v -1 0 -1.5
v -1 0.1 -1.1
v -1 0.1 -1.5
v -0.7 0 1.1
v -0.7 0 0.8
v -0.7 0 0.7
v -0.7 0.1 1.1
v -0.7 0.1 0.7
v -0.5 0 0.4
v -0.5 0 0.0999999
v -0.5 0 -0.1
v -0.5 0.1 0.4
v -0.5 0.1 -0.1
v -0.0999999 -0.1 -0.8
v -0.0999999 -0.1 -1.2
v -0.0999999 0.1 -0.8
v -0.0999999 0.1 -1.2
v 0.2 -0.1 0.8
v 0.2 -0.1 0.7
v 0.2 0 0.8
v 0.2 0 0.7
v 0.3 -0.1 0.7
v 0.3 -0.1 0.6
v 0.3 0 0.9
v 0.3 0 0.7
v 0.3 0 0.6
v 0.3 0 0.4
v 0.3 0.1 0.9
v 0.3 0.1 0.4
v 0.4 -0.1 -0.1
v 0.4 -0.1 -0.2
v 0.4 -0.1 -0.4
v 0.4 -0.1 -0.5
v 0.4 0.1 -0.1
v 0.4 0.1 -0.5
v 0.9 -0.1 0.7
v 0.9 -0.1 0.4
v 0.9 -0.1 0.3
v 0.9 0.1 0.7
v 0.9 0.1 0.3
v 1.3 -0.1 1.4
v 1.3 -0.1 1.2
v 1.3 -0.1 1.1
v 1.3 0 1.1
v 1.3 0 1
v 1.3 0.1 1.4
v 1.3 0.1 1
v 1.5 -0.1 -0.4
v 1.5 -0.1 -0.6
v 1.5 -0.1 -1.1
v 1.5 0 -0.4
v 1.5 0 -1.1
v -1.2 -0.1 -1.1
v -1.2 -0.1 -1.5
v -1.2 0 -1.5
v -1.2 0.1 -1.1
v -1.2 0.1 -1.5
v -1 0 1.1
v -1 0 0.7
v -1 0.1 1.1
v -1 0.1 0.7
v -0.8 0 0.4
v -0.8 0 -0.1
v -0.8 0.1 0.4
v -0.8 0.1 -0.1
v -0.4 -0.1 -0.8
v -0.4 -0.1 -1
v -0.4 -0.1 -1.2
v -0.4 0.1 -0.8
v -0.4 0.1 -1.2
v 0.1 -0.1 0.8
v 0.1 -0.1 0.6
v 0.1 0 0.9
v 0.1 0 0.8
v 0.1 0 0.6
v 0.1 0 0.4
v 0.1 0.1 0.9
v 0.1 0.1 0.4
v 0.2 -0.1 -0.1
v 0.2 -0.1 -0.5
v 0.2 0.1 -0.1
v 0.2 0.1 -0.5
v 0.7 -0.1 0.7
v 0.7 -0.1 0.6
v 0.7 -0.1 0.5
v 0.7 -0.1 0.3
v 0.7 0.1 0.7
v 0.7 0.1 0.3
v 0.9 -0.1 1.4
v 0.9 -0.1 1.2
v 0.9 -0.1 1.1
v 0.9 0 1.1
v 0.9 0 1
v 0.9 0.1 1.4
v 0.9 0.1 1
v 1 -0.1 -0.4
v 1 -0.1 -0.6
v 1 -0.1 -0.7
v 1 -0.1 -1.1
v 1 0.1 -0.4
v 1 0.1 -1.1
v 1.5 0 1.5
v 1.5 0 -0.4
v 1.5 0 -1.1
v 1.5 0 -1.5
v 1.5 0.1 1.5
v 1.5 0.1 -0.4
v 1.5 0.1 -1.1
v 1.5 0.1 -1.5
v 1.6 -0.1 1.6
v 1.6 -0.1 -1.6
v 1.6 0 1.6
v 1.6 0 -1.6
v 1.7 -0.3 1.7
v 1.7 -0.3 -1.7
v 1.7 -0.1 1.7
v 1.7 -0.1 -1.7
v -1.7 -0.3 1.7
v -1.7 -0.1 1.7
v 1.7 -0.3 1.7
v 1.7 -0.1 1.7
v -1.6 -0.1 1.6
v -1.6 0 1.6
v -1.4 -0.1 1.6
v -1.4 0 1.6
v -1.3 -0.1 1.6
v -1.3 0 1.6
v 1.6 -0.1 1.6
v 1.6 0 1.6
v -1.3 0 1.5
v -1.3 0.1 1.5
v 1.5 0 1.5
v 1.5 0.1 1.5
v -1.5 0 1.2
v -1.5 0.1 1.2
v -1.3 0 1.2
v -1.3 0.1 1.2
v 0.9 -0.1 1.1
v 0.9 0 1.1
v 1.1 -0.1 1.1
v 1.1 0 1.1
v 1.2 -0.1 1.1
v 1.2 0 1.1
v 1.3 -0.1 1.1
v 1.3 0 1.1
v 0.9 0 1
v 0.9 0.1 1
v 1.1 0 1
v 1.2 0 1
v 1.3 0 1
v 1.3 0.1 1
v -1 0 0.7
v -1 0.1 0.7
v -0.7 0 0.7
v -0.7 0.1 0.7
v 0.1 -0.1 0.6
v 0.1 0 0.6
v 0.3 -0.1 0.6
v 0.3 0 0.6
v 0.1 0 0.4
v 0.1 0.1 0.4
v 0.3 0 0.4
v 0.3 0.1 0.4
v 0.7 -0.1 0.3
v 0.7 0.1 0.3
v 0.8 -0.1 0.3
v 0.9 -0.1 0.3
v 0.9 0.1 0.3
v -0.8 0 -0.1
v -0.8 0.1 -0.1
v -0.7 0 -0.1
v -0.6 0 -0.1
v -0.5 0 -0.1
v -0.5 0.1 -0.1
v 0.2 -0.1 -0.5
v 0.2 0.1 -0.5
v 0.4 -0.1 -0.5
v 0.4 0.1 -0.5
v -1.5 0 -0.7
v -1.5 0.1 -0.7
v -1.3 0 -0.7
v -1.3 0.1 -0.7
v 1 -0.1 -1.1
v 1 0.1 -1.1
v 1.5 -0.1 -1.1
v 1.5 0 -1.1
v 1.5 0.1 -1.1
v -0.4 -0.1 -1.2
v -0.4 0.1 -1.2
v -0.2 -0.1 -1.2
v -0.0999999 -0.1 -1.2
v -0.0999999 0.1 -1.2
v -1.2 -0.1 -1.5
v -1.2 0 -1.5
v -1.1 -0.1 -1.5
v -1 -0.1 -1.5
v -1 0 -1.5
v 0.9 -0.1 1.4
v 0.9 0.1 1.4
v 1.3 -0.1 1.4
v 1.3 0.1 1.4
v -1 0 1.1
v -1 0.1 1.1
v -0.8 0 1.1
v -0.7 0 1.1
v -0.7 0.1 1.1
v 0.1 0 0.9
v 0.1 0.1 0.9
v 0.3 0 0.9
v 0.3 0.1 0.9
v 0.1 -0.1 0.8
v 0.1 0 0.8
v 0.2 -0.1 0.8
v 0.2 0 0.8
v 0.2 -0.1 0.7
v 0.2 0 0.7
v 0.3 -0.1 0.7
v 0.3 0 0.7
v 0.7 -0.1 0.7
v 0.7 0.1 0.7
v 0.9 -0.1 0.7
v 0.9 0.1 0.7
v -0.8 0 0.4
v -0.8 0.1 0.4
v -0.7 0 0.4
v -0.5 0 0.4
v -0.5 0.1 0.4
v -1.5 0 -0.1
v -1.5 0.1 -0.1
v -1.3 0 -0.1
v -1.3 0.1 -0.1
v 0.2 -0.1 -0.1
v 0.2 0.1 -0.1
v 0.4 -0.1 -0.1
v 0.4 0.1 -0.1
v 1 -0.1 -0.4
v 1 0.1 -0.4
v 1.2 -0.1 -0.4
v 1.5 -0.1 -0.4
v 1.5 0 -0.4
v 1.5 0.1 -0.4
v -0.4 -0.1 -0.8
v -0.4 0.1 -0.8
v -0.0999999 -0.1 -0.8
v -0.0999999 0.1 -0.8
v -1.2 -0.1 -1.1
v -1.2 0.1 -1.1
v -1 -0.1 -1.1
v -1 0.1 -1.1
v -1.5 0 -1.5
v -1.5 0.1 -1.5
v -1.2 0 -1.5
v -1.2 0.1 -1.5
v -1 0 -1.5
v -1 0.1 -1.5
v 1.5 0 -1.5
v 1.5 0.1 -1.5
v -1.6 -0.1 -1.6
v -1.6 0 -1.6
v 1.6 -0.1 -1.6
v 1.6 0 -1.6
v -1.7 -0.3 -1.7
v -1.7 -0.1 -1.7
v 1.7 -0.3 -1.7
v 1.7 -0.1 -1.7
v -1.7 -0.3 1.7
v 1.7 -0.3 1.7
v -1.7 -0.3 -1.7
v 1.7 -0.3 -1.7
v -1.7 -0.1 1.7
v 1.7 -0.1 1.7
v -1.6 -0.1 1.6
v -1.4 -0.1 1.6
v -1.3 -0.1 1.6
v 1.6 -0.1 1.6
v 0.9 -0.1 1.4
v 1.3 -0.1 1.4
v -1.6 -0.1 1.3
v -1.6 -0.1 1.2
v 0.9 -0.1 1.2
v 1.3 -0.1 1.2
v 0.9 -0.1 1.1
v 1.1 -0.1 1.1
v 1.2 -0.1 1.1
v 1.3 -0.1 1.1
v 0.1 -0.1 0.8
v 0.2 -0.1 0.8
v 0.2 -0.1 0.7
v 0.3 -0.1 0.7
v 0.7 -0.1 0.7
v 0.9 -0.1 0.7
v 0.1 -0.1 0.6
v 0.3 -0.1 0.6
v 0.7 -0.1 0.6
v 0.8 -0.1 0.6
v 0.7 -0.1 0.5
v 0.8 -0.1 0.5
v 0.8 -0.1 0.4
v 0.9 -0.1 0.4
v 0.7 -0.1 0.3
v 0.8 -0.1 0.3
v 0.9 -0.1 0.3
v 0.2 -0.1 -0.1
v 0.4 -0.1 -0.1
v 0.3 -0.1 -0.2
v 0.4 -0.1 -0.2
v -1.6 -0.1 -0.4
v 0.3 -0.1 -0.4
v 0.4 -0.1 -0.4
v 1 -0.1 -0.4
v 1.2 -0.1 -0.4
v 1.5 -0.1 -0.4
v -1.6 -0.1 -0.5
v 0.2 -0.1 -0.5
v 0.4 -0.1 -0.5
v 1 -0.1 -0.6
v 1.2 -0.1 -0.6
v 1.5 -0.1 -0.6
v 1 -0.1 -0.7
v 1.2 -0.1 -0.7
v -0.4 -0.1 -0.8
v -0.0999999 -0.1 -0.8
v -0.4 -0.1 -1
v -0.2 -0.1 -1
v -1.2 -0.1 -1.1
v -1 -0.1 -1.1
v 1 -0.1 -1.1
v 1.5 -0.1 -1.1
v -1.1 -0.1 -1.2
v -1 -0.1 -1.2
v -0.4 -0.1 -1.2
v -0.2 -0.1 -1.2
v -0.0999999 -0.1 -1.2
v -1.1 -0.1 -1.3
v -1 -0.1 -1.3
v -1.1 -0.1 -1.4
v -1 -0.1 -1.4
v -1.2 -0.1 -1.5
v -1.1 -0.1 -1.5
v -1 -0.1 -1.5
v -1.6 -0.1 -1.6
v 1.6 -0.1 -1.6
v -1.7 -0.1 -1.7
v 1.7 -0.1 -1.7
v -1.6 0 1.6
v -1.4 0 1.6
v -1.3 0 1.6
v 1.6 0 1.6
v -1.3 0 1.5
v 1.5 0 1.5
v -1.5 0 1.4
v -1.4 0 1.4
v -1.6 0 1.3
v -1.5 0 1.3
v -1.6 0 1.2
v -1.5 0 1.2
v -1.3 0 1.2
v -1 0 1.1
v -0.8 0 1.1
v -0.7 0 1.1
v 0.9 0 1.1
v 1.1 0 1.1
v 1.2 0 1.1
v 1.3 0 1.1
v -0.9 0 1
v -0.8 0 1
v 0.9 0 1
v 1.1 0 1
v 1.2 0 1
v 1.3 0 1
v -0.9 0 0.9
v -0.8 0 0.9
v 0.1 0 0.9
v 0.3 0 0.9
v -0.8 0 0.8
v -0.7 0 0.8
v 0.1 0 0.8
v 0.2 0 0.8
v -1 0 0.7
v -0.7 0 0.7
v 0.2 0 0.7
v 0.3 0 0.7
v 0.1 0 0.6
v 0.3 0 0.6
v -0.8 0 0.4
v -0.7 0 0.4
v -0.5 0 0.4
v 0.1 0 0.4
v 0.3 0 0.4
v -0.7 0 0.0999999
v -0.5 0 0.0999999
v -0.7 0 -1.19209e-07
v -0.6 0 -1.19209e-07
v -1.5 0 -0.1
v -1.3 0 -0.1
v -0.8 0 -0.1
v -0.7 0 -0.1
v -0.6 0 -0.1
v -0.5 0 -0.1
v -1.5 0 -0.2
v -1.3 0 -0.2
v -1.6 0 -0.4
v -1.5 0 -0.4
v -1.4 0 -0.4
v -1.3 0 -0.4
v 1.5 0 -0.4
v -1.6 0 -0.5
v -1.4 0 -0.5
v -1.5 0 -0.7
v -1.3 0 -0.7
v 1.5 0 -1.1
v -1.5 0 -1.5
v -1.2 0 -1.5
v -1 0 -1.5
v 1.5 0 -1.5
v -1.6 0 -1.6
v 1.6 0 -1.6
v -1.3 0.1 1.5
v 1.5 0.1 1.5
v 0.9 0.1 1.4
v 1.3 0.1 1.4
v -1.5 0.1 1.2
v -1.3 0.1 1.2
v -1 0.1 1.1
v -0.7 0.1 1.1
v 0.9 0.1 1
v 1.3 0.1 1
v 0.1 0.1 0.9
v 0.3 0.1 0.9
v -1 0.1 0.7
v -0.7 0.1 0.7
v 0.7 0.1 0.7
v 0.9 0.1 0.7
v -0.8 0.1 0.4
v -0.5 0.1 0.4
v 0.1 0.1 0.4
v 0.3 0.1 0.4
v 0.7 0.1 0.3
v 0.9 0.1 0.3
v -1.5 0.1 -0.1
v -1.3 0.1 -0.1
v -0.8 0.1 -0.1
v -0.5 0.1 -0.1
v 0.2 0.1 -0.1
v 0.4 0.1 -0.1
v 1 0.1 -0.4
v 1.5 0.1 -0.4
v 0.2 0.1 -0.5
v 0.4 0.1 -0.5
v -1.5 0.1 -0.7
v -1.3 0.1 -0.7
v -0.4 0.1 -0.8
v -0.0999999 0.1 -0.8
v -1.2 0.1 -1.1
v -1 0.1 -1.1
v 1 0.1 -1.1
v 1.5 0.1 -1.1
v -0.4 0.1 -1.2
v -0.0999999 0.1 -1.2
v -1.5 0.1 -1.5
v -1.2 0.1 -1.5
v -1 0.1 -1.5
v 1.5 0.1 -1.5

# faces
f 3/1/1 2/1/1 1/1/1
f 4/1/1 2/1/1 3/1/1
f 11/1/1 6/1/1 5/1/1
f 12/2/1 7/2/1 6/2/1
f 12/1/1 6/1/1 11/1/1
f 13/1/1 8/1/1 7/1/1
f 13/2/1 7/2/1 12/2/1
f 14/2/1 9/2/1 8/2/1
f 14/1/1 8/1/1 13/1/1
f 15/1/1 10/1/1 9/1/1
f 15/2/1 9/2/1 14/2/1
f 16/1/1 10/1/1 15/1/1
f 21/1/1 18/1/1 17/1/1
f 22/1/1 18/1/1 21/1/1
f 23/1/1 20/1/1 19/1/1
f 24/1/1 20/1/1 23/1/1
f 31/1/1 26/1/1 25/1/1
f 32/1/1 26/1/1 31/1/1
f 33/1/1 30/1/1 29/1/1
f 33/1/1 28/1/1 27/1/1
f 33/1/1 29/1/1 28/1/1
f 34/1/1 30/1/1 33/1/1
f 40/1/1 36/1/1 35/1/1
f 40/1/1 39/1/1 38/1/1
f 40/1/1 38/1/1 37/1/1
f 40/1/1 37/1/1 36/1/1
f 41/1/1 40/1/1 35/1/1
f 42/1/1 40/1/1 41/1/1
f 46/1/1 44/1/1 43/1/1
f 46/1/1 45/1/1 44/1/1
f 47/1/1 45/1/1 46/1/1
f 51/1/1 49/1/1 48/1/1
f 51/1/1 50/1/1 49/1/1
f 52/1/1 50/1/1 51/1/1
f 55/1/1 54/1/1 53/1/1
f 56/1/1 54/1/1 55/1/1
f 59/1/1 58/1/1 57/1/1
f 60/1/1 58/1/1 59/1/1
f 64/1/1 62/1/1 61/1/1
f 65/1/1 62/1/1 64/1/1
f 67/1/1 64/1/1 63/1/1
f 67/1/1 66/1/1 65/1/1
f 67/1/1 65/1/1 64/1/1
f 68/1/1 66/1/1 67/1/1
f 73/1/1 70/1/1 69/1/1
f 73/1/1 72/1/1 71/1/1
f 73/1/1 71/1/1 70/1/1
f 74/1/1 72/1/1 73/1/1
f 78/1/1 76/1/1 75/1/1
f 78/1/1 77/1/1 76/1/1
f 79/1/1 77/1/1 78/1/1
f 83/1/1 81/1/1 80/1/1
f 83/1/1 82/1/1 81/1/1
f 85/1/1 83/1/1 80/1/1
f 85/1/1 84/1/1 83/1/1
f 86/1/1 84/1/1 85/1/1
f 90/1/1 88/1/1 87/1/1
f 90/1/1 89/1/1 88/1/1
f 91/1/1 89/1/1 90/1/1
f 92/1/2 93/1/2 94/1/2
f 92/1/2 94/1/2 95/1/2
f 95/1/2 94/1/2 96/1/2
f 97/1/2 98/1/2 99/1/2
f 99/1/2 98/1/2 100/1/2
f 101/1/2 102/1/2 103/1/2
f 103/1/2 102/1/2 104/1/2
f 105/1/2 106/1/2 108/1/2
f 106/1/2 107/1/2 108/1/2
f 108/1/2 107/1/2 109/1/2
f 110/1/2 111/1/2 113/1/2
f 113/1/2 111/1/2 114/1/2
f 112/1/2 113/1/2 116/1/2
f 114/1/2 115/1/2 116/1/2
f 113/1/2 114/1/2 116/1/2
f 116/1/2 115/1/2 117/1/2
f 118/1/2 119/1/2 120/1/2
f 120/1/2 119/1/2 121/1/2
f 122/1/2 123/1/2 126/1/2
f 124/1/2 125/1/2 126/1/2
f 123/1/2 124/1/2 126/1/2
f 126/1/2 125/1/2 127/1/2
f 128/1/2 129/1/2 131/1/2
f 129/1/2 130/1/2 131/1/2
f 128/1/2 131/1/2 133/1/2
f 131/1/2 132/1/2 133/1/2
f 133/1/2 132/1/2 134/1/2
f 135/1/2 136/1/2 139/1/2
f 137/1/2 138/1/2 139/1/2
f 136/1/2 137/1/2 139/1/2
f 139/1/2 138/1/2 140/1/2
f 141/1/2 142/1/2 145/1/2
f 145/1/2 142/1/2 146/1/2
f 143/1/2 144/1/2 147/1/2
f 147/1/2 144/1/2 148/1/2
f 149/1/2 150/1/2 151/1/2
f 151/1/2 150/1/2 152/1/2
f 153/1/2 154/1/2 155/1/2
f 155/1/2 154/1/2 156/1/2
f 159/1/3 158/1/3 157/1/3
f 160/1/3 158/1/3 159/1/3
f 163/1/3 162/1/3 161/1/3
f 164/1/3 162/1/3 163/1/3
f 165/2/3 164/2/3 163/2/3
f 166/2/3 164/2/3 165/2/3
f 167/1/3 166/1/3 165/1/3
f 168/1/3 166/1/3 167/1/3
f 171/1/3 170/1/3 169/1/3
f 172/1/3 170/1/3 171/1/3
f 175/1/3 174/1/3 173/1/3
f 176/1/3 174/1/3 175/1/3
f 179/1/3 178/1/3 177/1/3
f 180/1/3 178/1/3 179/1/3
f 181/2/3 180/2/3 179/2/3
f 182/2/3 180/2/3 181/2/3
f 183/1/3 182/1/3 181/1/3
f 184/1/3 182/1/3 183/1/3
f 187/1/3 186/1/3 185/1/3
f 188/1/3 186/1/3 187/1/3
f 189/1/3 186/1/3 188/1/3
f 190/1/3 186/1/3 189/1/3
f 193/1/3 192/1/3 191/1/3
f 194/1/3 192/1/3 193/1/3
f 197/1/3 196/1/3 195/1/3
f 198/1/3 196/1/3 197/1/3
f 201/1/3 200/1/3 199/1/3
f 202/1/3 200/1/3 201/1/3
f 205/1/3 204/1/3 203/1/3
f 206/1/3 204/1/3 205/1/3
f 207/1/3 204/1/3 206/1/3
f 210/1/3 209/1/3 208/1/3
f 211/1/3 209/1/3 210/1/3
f 212/1/3 209/1/3 211/1/3
f 213/1/3 209/1/3 212/1/3
f 216/1/3 215/1/3 214/1/3
f 217/1/3 215/1/3 216/1/3
f 220/1/3 219/1/3 218/1/3
f 221/1/3 219/1/3 220/1/3
f 224/1/3 223/1/3 222/1/3
f 225/1/3 223/1/3 224/1/3
f 226/1/3 223/1/3 225/1/3
f 229/1/3 228/1/3 227/1/3
f 230/1/3 228/1/3 229/1/3
f 231/1/3 228/1/3 230/1/3
f 234/1/3 233/1/3 232/1/3
f 235/1/3 233/1/3 234/1/3
f 236/1/3 233/1/3 235/1/3
f 237/1/4 238/1/4 239/1/4
f 239/1/4 238/1/4 240/1/4
f 241/1/4 242/1/4 243/1/4
f 243/1/4 242/1/4 244/1/4
f 244/1/4 242/1/4 245/1/4
f 246/1/4 247/1/4 248/1/4
f 248/1/4 247/1/4 249/1/4
f 250/1/4 251/1/4 252/1/4
f 252/1/4 251/1/4 253/1/4
f 254/1/4 255/1/4 256/1/4
f 256/1/4 255/1/4 257/1/4
f 258/1/4 259/1/4 260/1/4
f 260/1/4 259/1/4 261/1/4
f 262/1/4 263/1/4 264/1/4
f 264/1/4 263/1/4 265/1/4
f 265/1/4 263/1/4 266/1/4
f 267/1/4 268/1/4 269/1/4
f 269/1/4 268/1/4 270/1/4
f 271/1/4 272/1/4 273/1/4
f 273/1/4 272/1/4 274/1/4
f 275/1/4 276/1/4 277/1/4
f 277/1/4 276/1/4 278/1/4
f 278/1/4 276/1/4 279/1/4
f 279/1/4 276/1/4 280/1/4
f 281/1/4 282/1/4 283/1/4
f 283/1/4 282/1/4 284/1/4
f 285/1/4 286/1/4 287/1/4
f 287/1/4 286/1/4 288/1/4
f 289/1/4 290/1/4 291/1/4
f 291/1/4 290/1/4 292/1/4
f 293/1/4 294/1/4 295/1/4
f 295/1/4 294/1/4 296/1/4
f 297/1/4 298/1/4 299/1/4
f 299/1/4 298/1/4 300/1/4
f 301/1/4 302/1/4 303/1/4
f 303/1/4 302/1/4 304/1/4
f 307/1/5 306/1/5 305/1/5
f 308/1/5 306/1/5 307/1/5
f 309/1/6 310/1/6 311/1/6
f 311/1/6 310/1/6 312/1/6
f 312/1/6 310/1/6 313/1/6
f 313/1/6 310/1/6 314/1/6
f 309/1/6 311/1/6 317/1/6
f 309/1/6 317/1/6 318/1/6
f 315/1/6 316/1/6 319/1/6
f 319/1/6 316/1/6 320/1/6
f 319/2/6 320/2/6 321/2/6
f 321/2/6 320/2/6 322/2/6
f 322/2/6 320/2/6 323/2/6
f 323/2/6 320/2/6 324/2/6
f 325/2/6 326/2/6 327/2/6
f 325/2/6 327/2/6 331/2/6
f 327/2/6 328/2/6 331/2/6
f 331/2/6 328/2/6 332/2/6
f 329/1/6 330/1/6 333/1/6
f 333/1/6 330/1/6 334/1/6
f 333/2/6 334/2/6 335/2/6
f 334/1/6 330/1/6 336/1/6
f 335/2/6 334/2/6 336/2/6
f 335/1/6 336/1/6 337/1/6
f 336/1/6 330/1/6 337/1/6
f 337/1/6 330/1/6 338/1/6
f 335/1/6 337/1/6 339/1/6
f 337/2/6 338/2/6 340/2/6
f 339/1/6 337/1/6 340/1/6
f 340/2/6 338/2/6 341/2/6
f 342/1/6 343/1/6 344/1/6
f 344/1/6 343/1/6 345/1/6
f 309/1/6 318/1/6 346/1/6
f 342/1/6 344/1/6 347/1/6
f 344/2/6 345/2/6 347/2/6
f 347/2/6 345/2/6 348/2/6
f 309/1/6 346/1/6 352/1/6
f 347/1/6 348/1/6 353/1/6
f 342/1/6 347/1/6 353/1/6
f 353/1/6 348/1/6 354/1/6
f 349/1/6 350/1/6 355/1/6
f 350/2/6 351/2/6 356/2/6
f 355/1/6 350/1/6 356/1/6
f 356/2/6 351/2/6 357/2/6
f 355/2/6 356/2/6 358/2/6
f 356/1/6 357/1/6 359/1/6
f 358/2/6 356/2/6 359/2/6
f 360/1/6 361/1/6 362/1/6
f 362/1/6 361/1/6 363/1/6
f 358/1/6 359/1/6 366/1/6
f 359/1/6 357/1/6 367/1/6
f 366/1/6 359/1/6 367/1/6
f 364/1/6 365/1/6 368/1/6
f 368/1/6 365/1/6 369/1/6
f 362/2/6 363/2/6 370/2/6
f 363/1/6 361/1/6 371/1/6
f 370/2/6 363/2/6 371/2/6
f 371/1/6 361/1/6 372/1/6
f 368/2/6 369/2/6 373/2/6
f 364/1/6 368/1/6 373/1/6
f 373/2/6 369/2/6 374/2/6
f 364/1/6 373/1/6 375/1/6
f 373/1/6 374/1/6 375/1/6
f 375/1/6 374/1/6 376/1/6
f 364/1/6 375/1/6 377/1/6
f 375/2/6 376/2/6 378/2/6
f 377/1/6 375/1/6 378/1/6
f 378/2/6 376/2/6 379/2/6
f 309/1/6 352/1/6 380/1/6
f 314/1/6 310/1/6 381/1/6
f 309/1/6 380/1/6 382/1/6
f 380/1/6 381/1/6 382/1/6
f 381/1/6 310/1/6 383/1/6
f 382/1/6 381/1/6 383/1/6
f 385/2/6 386/2/6 388/2/6
f 386/1/6 387/1/6 388/1/6
f 388/1/6 387/1/6 389/1/6
f 384/1/6 385/1/6 390/1/6
f 385/2/6 388/2/6 391/2/6
f 390/1/6 385/1/6 391/1/6
f 384/1/6 390/1/6 392/1/6
f 390/2/6 391/2/6 393/2/6
f 392/1/6 390/1/6 393/1/6
f 392/2/6 393/2/6 394/2/6
f 393/2/6 391/2/6 395/2/6
f 394/2/6 393/2/6 395/2/6
f 391/2/6 388/2/6 396/2/6
f 395/2/6 391/2/6 396/2/6
f 397/1/6 398/1/6 404/1/6
f 398/2/6 399/2/6 405/2/6
f 404/1/6 398/1/6 405/1/6
f 400/1/6 401/1/6 406/1/6
f 401/2/6 402/2/6 407/2/6
f 406/1/6 401/1/6 407/1/6
f 402/1/6 403/1/6 408/1/6
f 407/2/6 402/2/6 408/2/6
f 408/1/6 403/1/6 409/1/6
f 397/1/6 404/1/6 410/1/6
f 404/2/6 405/2/6 410/2/6
f 405/2/6 399/2/6 411/2/6
f 410/2/6 405/2/6 411/2/6
f 410/1/6 411/1/6 414/1/6
f 411/2/6 399/2/6 414/2/6
f 414/2/6 399/2/6 415/2/6
f 412/1/6 413/1/6 416/1/6
f 416/1/6 413/1/6 417/1/6
f 397/1/6 410/1/6 418/1/6
f 414/1/6 415/1/6 418/1/6
f 410/1/6 414/1/6 418/1/6
f 418/1/6 415/1/6 419/1/6
f 417/1/6 413/1/6 420/1/6
f 420/1/6 413/1/6 421/1/6
f 422/1/6 423/1/6 427/1/6
f 427/1/6 423/1/6 428/1/6
f 425/2/6 426/2/6 429/2/6
f 424/1/6 425/1/6 429/1/6
f 429/2/6 426/2/6 430/2/6
f 424/1/6 429/1/6 431/1/6
f 429/1/6 430/1/6 431/1/6
f 431/1/6 430/1/6 432/1/6
f 394/1/6 395/1/6 433/1/6
f 424/1/6 431/1/6 435/1/6
f 431/2/6 432/2/6 436/2/6
f 435/1/6 431/1/6 436/1/6
f 432/1/6 430/1/6 437/1/6
f 436/2/6 432/2/6 437/2/6
f 437/1/6 430/1/6 438/1/6
f 433/1/6 434/1/6 439/1/6
f 394/1/6 433/1/6 439/1/6
f 439/1/6 434/1/6 440/1/6
f 394/1/6 439/1/6 441/1/6
f 439/2/6 440/2/6 442/2/6
f 441/1/6 439/1/6 442/1/6
f 442/2/6 440/2/6 443/2/6
f 443/2/6 440/2/6 444/2/6
f 389/1/6 387/1/6 445/1/6
f 442/2/6 443/2/6 446/2/6
f 441/2/6 442/2/6 446/2/6
f 443/1/6 444/1/6 447/1/6
f 446/2/6 443/2/6 447/2/6
f 446/1/6 447/1/6 448/1/6
f 447/1/6 444/1/6 449/1/6
f 448/1/6 447/1/6 449/1/6
f 445/1/6 387/1/6 450/1/6
f 446/1/6 448/1/6 451/1/6
f 450/1/6 387/1/6 454/1/6
f 452/1/6 453/1/6 455/1/6
f 453/1/6 454/1/6 455/1/6
f 446/1/6 451/1/6 455/1/6
f 451/1/6 452/1/6 455/1/6
f 454/1/6 387/1/6 456/1/6
f 455/1/6 454/1/6 456/1/6
f 457/1/6 458/1/6 459/1/6
f 459/1/6 458/1/6 460/1/6
f 457/1/6 459/1/6 462/1/6
f 462/1/6 459/1/6 463/1/6
f 461/1/6 462/1/6 463/1/6
f 463/1/6 459/1/6 464/1/6
f 464/1/6 459/1/6 465/1/6
f 460/1/6 458/1/6 466/1/6
f 464/1/6 465/1/6 467/1/6
f 465/1/6 466/1/6 467/1/6
f 467/1/6 466/1/6 468/1/6
f 461/1/6 463/1/6 469/1/6
f 464/1/6 467/1/6 470/1/6
f 468/1/6 466/1/6 471/1/6
f 471/1/6 466/1/6 472/1/6
f 469/1/6 470/1/6 473/1/6
f 470/1/6 467/1/6 474/1/6
f 473/1/6 470/1/6 474/1/6
f 474/1/6 467/1/6 475/1/6
f 468/1/6 471/1/6 476/1/6
f 474/1/6 475/1/6 477/1/6
f 475/1/6 476/1/6 477/1/6
f 476/1/6 471/1/6 477/1/6
f 472/1/6 466/1/6 478/1/6
f 461/1/6 469/1/6 479/1/6
f 469/1/6 473/1/6 479/1/6
f 479/1/6 473/1/6 480/1/6
f 480/1/6 473/1/6 481/1/6
f 474/1/6 477/1/6 482/1/6
f 477/1/6 478/1/6 482/1/6
f 482/1/6 478/1/6 483/1/6
f 483/1/6 478/1/6 484/1/6
f 484/1/6 478/1/6 485/1/6
f 478/1/6 466/1/6 485/1/6
f 466/1/6 458/1/6 486/1/6
f 485/1/6 466/1/6 486/1/6
f 480/1/6 481/1/6 487/1/6
f 482/1/6 483/1/6 487/1/6
f 481/1/6 482/1/6 487/1/6
f 484/1/6 485/1/6 488/1/6
f 480/1/6 487/1/6 490/1/6
f 487/1/6 488/1/6 490/1/6
f 490/1/6 488/1/6 491/1/6
f 489/1/6 490/1/6 491/1/6
f 491/1/6 488/1/6 492/1/6
f 489/1/6 491/1/6 493/1/6
f 493/1/6 491/1/6 494/1/6
f 488/1/6 485/1/6 495/1/6
f 492/1/6 488/1/6 495/1/6
f 494/1/6 491/1/6 497/1/6
f 495/1/6 496/1/6 498/1/6
f 492/1/6 495/1/6 498/1/6
f 489/1/6 493/1/6 499/1/6
f 499/1/6 493/1/6 500/1/6
f 494/1/6 497/1/6 501/1/6
f 497/1/6 498/1/6 501/1/6
f 498/1/6 496/1/6 502/1/6
f 501/1/6 498/1/6 502/1/6
