# MagicaVoxel @ Ephtracy

# group
o 

# material
mtllib Skull.mtl
usemtl palette

# normals
vn -1 0 0
vn 1 0 0
vn 0 0 1
vn 0 0 -1
vn 0 -1 0
vn 0 1 0

# texcoords
vt 0.955078 0.5
vt 0.958984 0.5
vt 0.962891 0.5

# verts
v -0.6 0.4 0.5
v -0.6 0.4 0.4
v -0.6 0.4 0
v -0.6 0.5 0.3
v -0.6 0.5 0
v -0.6 0.7 0.5
v -0.6 0.7 0.4
v -0.6 0.7 0.3
v -0.6 0.7 0
v -0.5 0.2 0.5
v -0.5 0.2 0.3
v -0.5 0.2 0
v -0.5 0.3 0
v -0.5 0.3 -0.2
v -0.5 0.4 0.5
v -0.5 0.4 0.4
v -0.5 0.4 0.3
v -0.5 0.4 0
v -0.5 0.5 0
v -0.5 0.7 0.5
v -0.5 0.7 0.4
v -0.5 0.7 0.3
v -0.5 0.7 0
v -0.5 0.7 -0.2
v -0.5 0.8 0.5
v -0.5 0.8 0.4
v -0.5 0.9 0.5
v -0.5 0.9 0
v -0.5 0.9 -0.2
v -0.4 0.4 -0.2
v -0.4 0.4 -0.3
v -0.4 0.6 -0.2
v -0.4 0.6 -0.3
v -0.4 0.7 -0.2
v -0.4 0.8 -0.2
v -0.4 0.8 -0.3
v -0.4 0.9 0.4
v -0.4 0.9 0.1
v -0.4 0.9 0
v -0.4 0.9 -0.1
v -0.4 1 0.4
v -0.4 1 0.1
v -0.4 1 -0.1
v -0.3 0 0.5
v -0.3 0 0.4
v -0.3 0.2 0.5
v -0.3 0.2 0.4
v -0.2 0.4 0.5
v -0.2 0.4 0.4
v -0.2 0.5 0.5
v -0.2 0.5 0.4
v -0.1 0 0.5
v -0.1 0 0.4
v -0.1 0.1 0.5
v -0.1 0.1 0.4
v -0.1 0.3 0.4
v -0.1 0.3 0.3
v -0.1 0.4 0.4
v -0.1 0.4 0.3
v -0.1 0.5 0.5
v -0.1 0.5 0.4
v -0.1 0.7 0.5
v -0.1 0.7 0.4
v -5.96046e-08 0.3 0.5
v -5.96046e-08 0.3 0.4
v -5.96046e-08 0.4 0.5
v -5.96046e-08 0.4 0.4
v -5.96046e-08 0.5 0.4
v -5.96046e-08 0.5 0.3
v -5.96046e-08 0.7 0.4
v -5.96046e-08 0.7 0.3
v 0.1 0 0.5
v 0.1 0 0.4
v 0.1 0.1 0.5
v 0.1 0.1 0.4
v 0.1 0.4 0.4
v 0.1 0.4 0.3
v 0.1 0.5 0.4
v 0.1 0.5 0.3
v 0.2 0.6 0.5
v 0.2 0.6 0.4
v 0.2 0.7 0.5
v 0.2 0.7 0.4
v 0.2 0.8 0.4
v 0.2 0.8 -0.1
v 0.2 0.9 0.4
v 0.2 0.9 0.2
v 0.2 0.9 0
v 0.2 0.9 -0.1
v 0.3 0.3 0.4
v 0.3 0.3 0
v 0.3 0.4 0.5
v 0.3 0.4 0.4
v 0.3 0.4 0.3
v 0.3 0.6 0.5
v 0.3 0.6 0.4
v 0.3 0.6 0
v 0.3 0.6 -0.1
v 0.3 0.7 0.4
v 0.3 0.7 0.3
v 0.3 0.8 0.4
v 0.3 0.8 -0.1
v -0.4 0.3 0.4
v -0.4 0.3 0.3
v -0.4 0.3 0
v -0.4 0.4 0.5
v -0.4 0.4 0.4
v -0.4 0.4 0.3
v -0.4 0.4 0
v -0.4 0.5 0.5
v -0.4 0.5 0.4
v -0.4 0.6 0.5
v -0.4 0.6 0.4
v -0.4 0.6 0
v -0.4 0.6 -0.1
v -0.4 0.7 0.4
v -0.4 0.7 0.3
v -0.4 0.7 0
v -0.4 0.7 -0.1
v -0.4 0.8 0.4
v -0.4 0.8 0
v -0.4 0.8 -0.1
v -0.3 0.6 0.5
v -0.3 0.6 0.4
v -0.3 0.7 0.5
v -0.3 0.7 0.4
v -0.3 0.8 0.4
v -0.3 0.8 -0.1
v -0.3 0.9 0.4
v -0.3 0.9 0.1
v -0.3 0.9 -0.1
v -0.2 0 0.5
v -0.2 0 0.4
v -0.2 0.1 0.5
v -0.2 0.1 0.4
v -0.2 0.4 0.4
v -0.2 0.4 0.3
v -0.2 0.5 0.4
v -0.2 0.5 0.3
v -0.1 0.3 0.5
v -0.1 0.3 0.4
v -0.1 0.4 0.5
v -0.1 0.4 0.4
v -0.1 0.5 0.4
v -0.1 0.5 0.3
v -0.1 0.7 0.4
v -0.1 0.7 0.3
v -5.96046e-08 0 0.5
v -5.96046e-08 0 0.4
v -5.96046e-08 0.1 0.5
v -5.96046e-08 0.1 0.4
v -5.96046e-08 0.3 0.4
v -5.96046e-08 0.3 0.3
v -5.96046e-08 0.4 0.4
v -5.96046e-08 0.4 0.3
v -5.96046e-08 0.5 0.5
v -5.96046e-08 0.5 0.4
v -5.96046e-08 0.7 0.5
v -5.96046e-08 0.7 0.4
v 0.1 0.4 0.5
v 0.1 0.4 0.4
v 0.1 0.5 0.5
v 0.1 0.5 0.4
v 0.2 0 0.5
v 0.2 0 0.4
v 0.2 0.1 0.5
v 0.2 0.1 0.4
v 0.2 0.2 0.5
v 0.2 0.2 0.4
v 0.3 0.4 -0.2
v 0.3 0.4 -0.3
v 0.3 0.6 -0.2
v 0.3 0.6 -0.3
v 0.3 0.8 -0.2
v 0.3 0.8 -0.3
v 0.3 0.9 0.4
v 0.3 0.9 0.2
v 0.3 0.9 0
v 0.3 0.9 -0.1
v 0.3 1 0.4
v 0.3 1 0.2
v 0.3 1 0
v 0.3 1 -0.1
v 0.4 0.2 0.5
v 0.4 0.2 0.4
v 0.4 0.2 0.2
v 0.4 0.2 0
v 0.4 0.3 0.2
v 0.4 0.3 0
v 0.4 0.3 -0.1
v 0.4 0.3 -0.2
v 0.4 0.4 0.5
v 0.4 0.4 0.4
v 0.4 0.4 0
v 0.4 0.4 -0.1
v 0.4 0.5 0
v 0.4 0.7 0.5
v 0.4 0.7 0.1
v 0.4 0.7 0
v 0.4 0.8 0.5
v 0.4 0.8 0.4
v 0.4 0.8 0
v 0.4 0.8 -0.2
v 0.4 0.9 0.5
v 0.4 0.9 0.4
v 0.4 0.9 0
v 0.4 0.9 -0.2
v 0.5 0.4 0.5
v 0.5 0.4 0
v 0.5 0.5 0.5
v 0.5 0.5 0.3
v 0.5 0.5 0.1
v 0.5 0.5 0
v 0.5 0.6 0.5
v 0.5 0.6 0.3
v 0.5 0.7 0.5
v 0.5 0.7 0.1
v 0.5 0.7 0
v -0.6 0.4 0.5
v -0.6 0.7 0.5
v -0.5 0.2 0.5
v -0.5 0.4 0.5
v -0.5 0.5 0.5
v -0.5 0.6 0.5
v -0.5 0.7 0.5
v -0.5 0.8 0.5
v -0.5 0.9 0.5
v -0.4 0.4 0.5
v -0.4 0.5 0.5
v -0.4 0.6 0.5
v -0.4 0.7 0.5
v -0.4 0.8 0.5
v -0.4 0.9 0.5
v -0.3 0 0.5
v -0.3 0.2 0.5
v -0.3 0.6 0.5
v -0.3 0.7 0.5
v -0.3 0.8 0.5
v -0.3 0.9 0.5
v -0.2 0 0.5
v -0.2 0.1 0.5
v -0.2 0.2 0.5
v -0.2 0.3 0.5
v -0.2 0.4 0.5
v -0.2 0.5 0.5
v -0.1 0 0.5
v -0.1 0.1 0.5
v -0.1 0.3 0.5
v -0.1 0.4 0.5
v -0.1 0.5 0.5
v -0.1 0.7 0.5
v -5.96046e-08 0 0.5
v -5.96046e-08 0.1 0.5
v -5.96046e-08 0.3 0.5
v -5.96046e-08 0.4 0.5
v -5.96046e-08 0.5 0.5
v -5.96046e-08 0.7 0.5
v -5.96046e-08 0.8 0.5
v -5.96046e-08 0.9 0.5
v 0.1 0 0.5
v 0.1 0.1 0.5
v 0.1 0.4 0.5
v 0.1 0.5 0.5
v 0.2 0 0.5
v 0.2 0.1 0.5
v 0.2 0.2 0.5
v 0.2 0.6 0.5
v 0.2 0.7 0.5
v 0.3 0.2 0.5
v 0.3 0.4 0.5
v 0.3 0.6 0.5
v 0.4 0.2 0.5
v 0.4 0.4 0.5
v 0.4 0.5 0.5
v 0.4 0.6 0.5
v 0.4 0.7 0.5
v 0.4 0.8 0.5
v 0.4 0.9 0.5
v 0.5 0.4 0.5
v 0.5 0.5 0.5
v 0.5 0.6 0.5
v 0.5 0.7 0.5
v -0.4 0.4 0.4
v -0.4 0.5 0.4
v -0.4 0.6 0.4
v -0.4 0.9 0.4
v -0.4 1 0.4
v -0.3 0.6 0.4
v -0.3 0.7 0.4
v -0.3 0.9 0.4
v -0.2 0.4 0.4
v -0.2 0.5 0.4
v -0.2 0.9 0.4
v -0.2 1 0.4
v -0.1 0.3 0.4
v -0.1 0.4 0.4
v -0.1 0.5 0.4
v -0.1 0.7 0.4
v -5.96046e-08 0.3 0.4
v -5.96046e-08 0.4 0.4
v -5.96046e-08 0.5 0.4
v -5.96046e-08 0.7 0.4
v -5.96046e-08 0.9 0.4
v 0.1 0.4 0.4
v 0.1 0.5 0.4
v 0.2 0.6 0.4
v 0.2 0.7 0.4
v 0.3 0.4 0.4
v 0.3 0.6 0.4
v 0.3 0.9 0.4
v 0.3 1 0.4
v -0.4 0.3 0
v -0.4 0.4 0
v -0.4 0.6 0
v 0.3 0.3 0
v 0.3 0.6 0
v -0.4 0.6 -0.1
v -0.4 0.7 -0.1
v -0.4 0.8 -0.1
v -0.3 0.8 -0.1
v -0.3 0.9 -0.1
v 0.2 0.8 -0.1
v 0.2 0.9 -0.1
v 0.3 0.6 -0.1
v 0.3 0.8 -0.1
v -0.4 0.3 0.4
v -0.4 0.4 0.4
v -0.4 0.7 0.4
v -0.4 0.8 0.4
v -0.3 0 0.4
v -0.3 0.2 0.4
v -0.3 0.8 0.4
v -0.3 0.9 0.4
v -0.2 0 0.4
v -0.2 0.1 0.4
v -0.2 0.2 0.4
v -0.2 0.3 0.4
v -0.2 0.4 0.4
v -0.2 0.5 0.4
v -0.2 0.9 0.4
v -0.1 0 0.4
v -0.1 0.1 0.4
v -0.1 0.3 0.4
v -0.1 0.4 0.4
v -0.1 0.5 0.4
v -0.1 0.7 0.4
v -5.96046e-08 0 0.4
v -5.96046e-08 0.1 0.4
v -5.96046e-08 0.3 0.4
v -5.96046e-08 0.4 0.4
v -5.96046e-08 0.5 0.4
v -5.96046e-08 0.7 0.4
v -5.96046e-08 0.8 0.4
v -5.96046e-08 0.9 0.4
v 0.1 0 0.4
v 0.1 0.1 0.4
v 0.1 0.4 0.4
v 0.1 0.5 0.4
v 0.2 0 0.4
v 0.2 0.1 0.4
v 0.2 0.2 0.4
v 0.2 0.8 0.4
v 0.2 0.9 0.4
v 0.3 0.3 0.4
v 0.3 0.4 0.4
v 0.3 0.7 0.4
v 0.3 0.8 0.4
v -0.4 0.4 0.3
v -0.4 0.7 0.3
v -0.2 0.4 0.3
v -0.2 0.5 0.3
v -0.1 0.3 0.3
v -0.1 0.4 0.3
v -0.1 0.5 0.3
v -0.1 0.7 0.3
v -5.96046e-08 0.3 0.3
v -5.96046e-08 0.4 0.3
v -5.96046e-08 0.5 0.3
v -5.96046e-08 0.7 0.3
v 0.1 0.4 0.3
v 0.1 0.5 0.3
v 0.3 0.4 0.3
v 0.3 0.7 0.3
v -0.6 0.4 0
v -0.6 0.5 0
v -0.6 0.7 0
v -0.5 0.2 0
v -0.5 0.3 0
v -0.5 0.4 0
v -0.5 0.5 0
v -0.5 0.7 0
v -0.4 0.2 0
v -0.4 0.3 0
v 0.3 0.2 0
v 0.3 0.3 0
v 0.4 0.2 0
v 0.4 0.3 0
v 0.4 0.4 0
v 0.4 0.5 0
v 0.4 0.7 0
v 0.5 0.4 0
v 0.5 0.5 0
v 0.5 0.7 0
v -0.4 0.9 -0.1
v -0.4 1 -0.1
v 0.3 0.9 -0.1
v 0.3 1 -0.1
v -0.5 0.3 -0.2
v -0.5 0.7 -0.2
v -0.5 0.9 -0.2
v -0.4 0.4 -0.2
v -0.4 0.6 -0.2
v -0.4 0.7 -0.2
v -0.4 0.8 -0.2
v -0.4 0.9 -0.2
v -0.1 0.8 -0.2
v 0.1 0.4 -0.2
v 0.3 0.4 -0.2
v 0.3 0.6 -0.2
v 0.3 0.8 -0.2
v 0.3 0.9 -0.2
v 0.4 0.3 -0.2
v 0.4 0.8 -0.2
v 0.4 0.9 -0.2
v -0.4 0.4 -0.3
v -0.4 0.6 -0.3
v -0.4 0.8 -0.3
v -0.1 0.6 -0.3
v -0.1 0.8 -0.3
v 0.1 0.4 -0.3
v 0.1 0.6 -0.3
v 0.3 0.4 -0.3
v 0.3 0.6 -0.3
v 0.3 0.8 -0.3
v -0.3 0 0.5
v -0.2 0 0.5
v -0.1 0 0.5
v -5.96046e-08 0 0.5
v 0.1 0 0.5
v 0.2 0 0.5
v -0.3 0 0.4
v -0.2 0 0.4
v -0.1 0 0.4
v -5.96046e-08 0 0.4
v 0.1 0 0.4
v 0.2 0 0.4
v -0.2 0.1 0.5
v -0.1 0.1 0.5
v -5.96046e-08 0.1 0.5
v 0.1 0.1 0.5
v -0.2 0.1 0.4
v -0.1 0.1 0.4
v -5.96046e-08 0.1 0.4
v 0.1 0.1 0.4
v -0.5 0.2 0.5
v -0.3 0.2 0.5
v 0.2 0.2 0.5
v 0.3 0.2 0.5
v 0.4 0.2 0.5
v -0.3 0.2 0.4
v -0.2 0.2 0.4
v 0.2 0.2 0.4
v 0.3 0.2 0.4
v 0.4 0.2 0.4
v -0.5 0.2 0.3
v -0.4 0.2 0.3
v 0.3 0.2 0.2
v 0.4 0.2 0.2
v -0.5 0.2 0
v -0.4 0.2 0
v 0.3 0.2 0
v 0.4 0.2 0
v -0.5 0.3 0
v -0.4 0.3 0
v 0.3 0.3 0
v 0.4 0.3 0
v 0.3 0.3 -0.1
v 0.4 0.3 -0.1
v -0.5 0.3 -0.2
v 0.4 0.3 -0.2
v -0.6 0.4 0.5
v -0.5 0.4 0.5
v -0.1 0.4 0.5
v -5.96046e-08 0.4 0.5
v 0.4 0.4 0.5
v 0.5 0.4 0.5
v -0.6 0.4 0.4
v -0.5 0.4 0.4
v -0.4 0.4 0.4
v -0.2 0.4 0.4
v -0.1 0.4 0.4
v -5.96046e-08 0.4 0.4
v 0.1 0.4 0.4
v 0.3 0.4 0.4
v 0.4 0.4 0.4
v -0.5 0.4 0.3
v -0.4 0.4 0.3
v -0.2 0.4 0.3
v 0.1 0.4 0.3
v 0.3 0.4 0.3
v -0.6 0.4 0
v -0.5 0.4 0
v 0.4 0.4 0
v 0.5 0.4 0
v -0.4 0.4 -0.2
v 0.1 0.4 -0.2
v 0.3 0.4 -0.2
v -0.4 0.4 -0.3
v 0.1 0.4 -0.3
v 0.3 0.4 -0.3
v -0.2 0.5 0.4
v -0.1 0.5 0.4
v -5.96046e-08 0.5 0.4
v 0.1 0.5 0.4
v -0.2 0.5 0.3
v -0.1 0.5 0.3
v -5.96046e-08 0.5 0.3
v 0.1 0.5 0.3
v -0.4 0.6 0.5
v -0.3 0.6 0.5
v 0.2 0.6 0.5
v 0.3 0.6 0.5
v -0.4 0.6 0.4
v -0.3 0.6 0.4
v 0.2 0.6 0.4
v 0.3 0.6 0.4
v -0.3 0.7 0.5
v -0.1 0.7 0.5
v -5.96046e-08 0.7 0.5
v 0.2 0.7 0.5
v -0.3 0.7 0.4
v -0.1 0.7 0.4
v -5.96046e-08 0.7 0.4
v 0.2 0.7 0.4
v -0.4 0.8 0.4
v -0.3 0.8 0.4
v 0.2 0.8 0.4
v 0.3 0.8 0.4
v -0.4 0.8 0
v -0.4 0.8 -0.1
v -0.3 0.8 -0.1
v 0.2 0.8 -0.1
v 0.3 0.8 -0.1
v -0.3 0.9 0.4
v -0.2 0.9 0.4
v -5.96046e-08 0.9 0.4
v 0.2 0.9 0.4
v -0.1 0.9 0.2
v 0.2 0.9 0.2
v -0.3 0.9 0.1
v -0.2 0.9 0.1
v -0.1 0.9 0
v 0.2 0.9 0
v -0.3 0.9 -0.1
v 0.2 0.9 -0.1
v -0.1 0.3 0.5
v -5.96046e-08 0.3 0.5
v -0.4 0.3 0.4
v -0.2 0.3 0.4
v -0.1 0.3 0.4
v -5.96046e-08 0.3 0.4
v 0.3 0.3 0.4
v -0.4 0.3 0.3
v -0.1 0.3 0.3
v -5.96046e-08 0.3 0.3
v -0.4 0.3 0
v 0.3 0.3 0
v -0.4 0.4 0.5
v -0.2 0.4 0.5
v 0.1 0.4 0.5
v 0.3 0.4 0.5
v -0.4 0.4 0.4
v -0.2 0.4 0.4
v -0.1 0.4 0.4
v -5.96046e-08 0.4 0.4
v 0.1 0.4 0.4
v 0.3 0.4 0.4
v -0.1 0.4 0.3
v -5.96046e-08 0.4 0.3
v -0.2 0.5 0.5
v -0.1 0.5 0.5
v -5.96046e-08 0.5 0.5
v 0.1 0.5 0.5
v -0.2 0.5 0.4
v -0.1 0.5 0.4
v -5.96046e-08 0.5 0.4
v 0.1 0.5 0.4
v -0.4 0.6 0
v 0.3 0.6 0
v -0.4 0.6 -0.1
v 0.3 0.6 -0.1
v -0.6 0.7 0.5
v -0.5 0.7 0.5
v 0.4 0.7 0.5
v 0.5 0.7 0.5
v -0.6 0.7 0.4
v -0.5 0.7 0.4
v -0.4 0.7 0.4
v -0.1 0.7 0.4
v -5.96046e-08 0.7 0.4
v 0.3 0.7 0.4
v -0.6 0.7 0.3
v -0.5 0.7 0.3
v -0.4 0.7 0.3
v -0.1 0.7 0.3
v -5.96046e-08 0.7 0.3
v 0.3 0.7 0.3
v 0.4 0.7 0.1
v 0.5 0.7 0.1
v -0.6 0.7 0
v -0.5 0.7 0
v 0.4 0.7 0
v 0.5 0.7 0
v -0.4 0.8 -0.2
v -0.1 0.8 -0.2
v 0.3 0.8 -0.2
v -0.4 0.8 -0.3
v -0.1 0.8 -0.3
v 0.3 0.8 -0.3
v -0.5 0.9 0.5
v -0.4 0.9 0.5
v -0.3 0.9 0.5
v -5.96046e-08 0.9 0.5
v 0.4 0.9 0.5
v -0.4 0.9 0.4
v -0.3 0.9 0.4
v -0.2 0.9 0.4
v -5.96046e-08 0.9 0.4
v 0.3 0.9 0.4
v 0.4 0.9 0.4
v 0.3 0.9 0.2
v -0.4 0.9 0.1
v -0.5 0.9 0
v -0.4 0.9 0
v 0.3 0.9 0
v 0.4 0.9 0
v -0.4 0.9 -0.1
v 0.3 0.9 -0.1
v -0.5 0.9 -0.2
v -0.4 0.9 -0.2
v 0.3 0.9 -0.2
v 0.4 0.9 -0.2
v -0.4 1 0.4
v -0.2 1 0.4
v 0.3 1 0.4
v -0.1 1 0.2
v 0.3 1 0.2
v -0.4 1 0.1
v -0.2 1 0.1
v -0.1 1 0
v 0.3 1 0
v -0.4 1 -0.1
v 0.3 1 -0.1

# faces
f 4/2/1 3/2/1 2/2/1
f 5/2/1 3/2/1 4/2/1
f 6/3/1 2/3/1 1/3/1
f 7/2/1 4/2/1 2/2/1
f 7/3/1 2/3/1 6/3/1
f 8/3/1 5/3/1 4/3/1
f 8/2/1 4/2/1 7/2/1
f 9/3/1 5/3/1 8/3/1
f 13/3/1 12/3/1 11/3/1
f 15/2/1 11/2/1 10/2/1
f 16/2/1 11/2/1 15/2/1
f 17/3/1 13/3/1 11/3/1
f 17/2/1 11/2/1 16/2/1
f 18/2/1 14/2/1 13/2/1
f 18/3/1 13/3/1 17/3/1
f 19/2/1 14/2/1 18/2/1
f 23/2/1 14/2/1 19/2/1
f 24/2/1 14/2/1 23/2/1
f 25/3/1 21/3/1 20/3/1
f 26/2/1 22/2/1 21/2/1
f 26/3/1 21/3/1 25/3/1
f 26/2/1 23/2/1 22/2/1
f 27/2/1 26/2/1 25/2/1
f 28/3/1 24/3/1 23/3/1
f 28/2/1 26/2/1 27/2/1
f 28/2/1 23/2/1 26/2/1
f 29/3/1 24/3/1 28/3/1
f 32/2/1 31/2/1 30/2/1
f 33/2/1 31/2/1 32/2/1
f 34/3/1 33/3/1 32/3/1
f 35/3/1 33/3/1 34/3/1
f 36/3/1 33/3/1 35/3/1
f 41/3/1 38/3/1 37/3/1
f 42/2/1 40/2/1 39/2/1
f 42/3/1 38/3/1 41/3/1
f 42/2/1 39/2/1 38/2/1
f 43/2/1 40/2/1 42/2/1
f 46/3/1 45/3/1 44/3/1
f 47/3/1 45/3/1 46/3/1
f 50/3/1 49/3/1 48/3/1
f 51/3/1 49/3/1 50/3/1
f 54/2/1 53/2/1 52/2/1
f 55/2/1 53/2/1 54/2/1
f 58/1/1 57/1/1 56/1/1
f 59/1/1 57/1/1 58/1/1
f 62/2/1 61/2/1 60/2/1
f 63/2/1 61/2/1 62/2/1
f 66/2/1 65/2/1 64/2/1
f 67/2/1 65/2/1 66/2/1
f 70/1/1 69/1/1 68/1/1
f 71/1/1 69/1/1 70/1/1
f 74/3/1 73/3/1 72/3/1
f 75/3/1 73/3/1 74/3/1
f 78/1/1 77/1/1 76/1/1
f 79/1/1 77/1/1 78/1/1
f 82/2/1 81/2/1 80/2/1
f 83/2/1 81/2/1 82/2/1
f 86/2/1 85/2/1 84/2/1
f 87/2/1 85/2/1 86/2/1
f 88/2/1 85/2/1 87/2/1
f 89/2/1 85/2/1 88/2/1
f 93/2/1 91/2/1 90/2/1
f 94/2/1 91/2/1 93/2/1
f 95/2/1 93/2/1 92/2/1
f 96/2/1 93/2/1 95/2/1
f 97/2/1 91/2/1 94/2/1
f 100/2/1 98/2/1 97/2/1
f 100/2/1 97/2/1 94/2/1
f 101/2/1 100/2/1 99/2/1
f 102/2/1 98/2/1 100/2/1
f 102/2/1 100/2/1 101/2/1
f 103/2/2 104/2/2 107/2/2
f 104/3/2 105/3/2 108/3/2
f 107/2/2 104/2/2 108/2/2
f 108/3/2 105/3/2 109/3/2
f 106/2/2 107/2/2 110/2/2
f 110/2/2 107/2/2 111/2/2
f 110/3/2 111/3/2 112/3/2
f 112/3/2 111/3/2 113/3/2
f 108/2/2 109/2/2 114/2/2
f 108/2/2 114/2/2 117/2/2
f 114/2/2 115/2/2 117/2/2
f 117/2/2 115/2/2 118/2/2
f 118/2/2 115/2/2 119/2/2
f 116/2/2 117/2/2 120/2/2
f 117/2/2 118/2/2 120/2/2
f 118/3/2 119/3/2 121/3/2
f 120/2/2 118/2/2 121/2/2
f 121/3/2 119/3/2 122/3/2
f 123/2/2 124/2/2 125/2/2
f 125/2/2 124/2/2 126/2/2
f 127/2/2 128/2/2 129/2/2
f 129/2/2 128/2/2 130/2/2
f 130/2/2 128/2/2 131/2/2
f 132/3/2 133/3/2 134/3/2
f 134/3/2 133/3/2 135/3/2
f 136/1/2 137/1/2 138/1/2
f 138/1/2 137/1/2 139/1/2
f 140/3/2 141/3/2 142/3/2
f 142/3/2 141/3/2 143/3/2
f 144/1/2 145/1/2 146/1/2
f 146/1/2 145/1/2 147/1/2
f 148/2/2 149/2/2 150/2/2
f 150/2/2 149/2/2 151/2/2
f 152/1/2 153/1/2 154/1/2
f 154/1/2 153/1/2 155/1/2
f 156/2/2 157/2/2 158/2/2
f 158/2/2 157/2/2 159/2/2
f 160/2/2 161/2/2 162/2/2
f 162/2/2 161/2/2 163/2/2
f 164/3/2 165/3/2 166/3/2
f 166/3/2 165/3/2 167/3/2
f 166/2/2 167/2/2 168/2/2
f 168/2/2 167/2/2 169/2/2
f 170/3/2 171/3/2 172/3/2
f 172/3/2 171/3/2 173/3/2
f 172/2/2 173/2/2 174/2/2
f 174/2/2 173/2/2 175/2/2
f 176/2/2 177/2/2 180/2/2
f 177/3/2 178/3/2 181/3/2
f 180/2/2 177/2/2 181/2/2
f 178/2/2 179/2/2 182/2/2
f 181/3/2 178/3/2 182/3/2
f 182/2/2 179/2/2 183/2/2
f 185/2/2 186/2/2 188/2/2
f 186/3/2 187/3/2 188/3/2
f 188/3/2 187/3/2 189/3/2
f 184/3/2 185/3/2 192/3/2
f 185/2/2 188/2/2 193/2/2
f 192/3/2 185/3/2 193/3/2
f 188/2/2 189/2/2 193/2/2
f 189/3/2 190/3/2 194/3/2
f 193/2/2 189/2/2 194/2/2
f 190/2/2 191/2/2 195/2/2
f 194/3/2 190/3/2 195/3/2
f 194/2/2 195/2/2 196/2/2
f 196/2/2 195/2/2 199/2/2
f 197/2/2 198/2/2 200/2/2
f 198/2/2 199/2/2 200/2/2
f 200/2/2 199/2/2 201/2/2
f 199/2/2 195/2/2 202/2/2
f 201/2/2 199/2/2 202/2/2
f 195/2/2 191/2/2 203/2/2
f 202/2/2 195/2/2 203/2/2
f 200/3/2 201/3/2 204/3/2
f 201/2/2 202/2/2 205/2/2
f 204/3/2 201/3/2 205/3/2
f 202/3/2 203/3/2 206/3/2
f 205/2/2 202/2/2 206/2/2
f 206/3/2 203/3/2 207/3/2
f 208/2/2 209/2/2 210/2/2
f 210/2/2 209/2/2 211/2/2
f 211/2/2 209/2/2 212/2/2
f 212/2/2 209/2/2 213/2/2
f 210/3/2 211/3/2 214/3/2
f 211/2/2 212/2/2 215/2/2
f 214/3/2 211/3/2 215/3/2
f 214/2/2 215/2/2 216/2/2
f 212/3/2 213/3/2 217/3/2
f 216/2/2 215/2/2 217/2/2
f 215/2/2 212/2/2 217/2/2
f 217/3/2 213/3/2 218/3/2
f 222/3/3 220/3/3 219/3/3
f 223/3/3 220/3/3 222/3/3
f 224/3/3 220/3/3 223/3/3
f 225/3/3 220/3/3 224/3/3
f 228/2/3 222/2/3 221/2/3
f 228/2/3 223/2/3 222/2/3
f 229/3/3 224/3/3 223/3/3
f 229/2/3 223/2/3 228/2/3
f 230/2/3 225/2/3 224/2/3
f 230/3/3 224/3/3 229/3/3
f 231/3/3 226/3/3 225/3/3
f 231/2/3 225/2/3 230/2/3
f 232/2/3 227/2/3 226/2/3
f 232/3/3 226/3/3 231/3/3
f 233/2/3 227/2/3 232/2/3
f 235/2/3 228/2/3 221/2/3
f 236/2/3 231/2/3 230/2/3
f 236/2/3 232/2/3 231/2/3
f 237/2/3 232/2/3 236/2/3
f 238/3/3 233/3/3 232/3/3
f 238/2/3 232/2/3 237/2/3
f 239/3/3 233/3/3 238/3/3
f 240/3/3 235/3/3 234/3/3
f 241/3/3 235/3/3 240/3/3
f 242/2/3 228/2/3 235/2/3
f 242/3/3 235/3/3 241/3/3
f 243/2/3 228/2/3 242/2/3
f 244/2/3 228/2/3 243/2/3
f 247/2/3 242/2/3 241/2/3
f 247/2/3 243/2/3 242/2/3
f 248/3/3 245/3/3 244/3/3
f 248/3/3 244/3/3 243/3/3
f 248/2/3 243/2/3 247/2/3
f 249/3/3 245/3/3 248/3/3
f 250/3/3 245/3/3 249/3/3
f 251/2/3 239/2/3 238/2/3
f 251/2/3 238/2/3 237/2/3
f 252/2/3 247/2/3 246/2/3
f 252/2/3 248/2/3 247/2/3
f 253/2/3 248/2/3 252/2/3
f 254/2/3 248/2/3 253/2/3
f 255/3/3 250/3/3 249/3/3
f 256/2/3 251/2/3 250/2/3
f 256/3/3 250/3/3 255/3/3
f 257/2/3 239/2/3 251/2/3
f 257/2/3 251/2/3 256/2/3
f 258/2/3 239/2/3 257/2/3
f 259/2/3 239/2/3 258/2/3
f 261/2/3 255/2/3 254/2/3
f 261/2/3 254/2/3 253/2/3
f 261/2/3 256/2/3 255/2/3
f 262/2/3 256/2/3 261/2/3
f 263/2/3 256/2/3 262/2/3
f 264/3/3 261/3/3 260/3/3
f 265/2/3 262/2/3 261/2/3
f 265/3/3 261/3/3 264/3/3
f 266/2/3 262/2/3 265/2/3
f 268/2/3 258/2/3 257/2/3
f 269/2/3 262/2/3 266/2/3
f 270/2/3 262/2/3 269/2/3
f 271/2/3 268/2/3 267/2/3
f 272/3/3 270/3/3 269/3/3
f 273/2/3 271/2/3 270/2/3
f 273/3/3 270/3/3 272/3/3
f 274/2/3 271/2/3 273/2/3
f 275/2/3 268/2/3 271/2/3
f 275/2/3 271/2/3 274/2/3
f 276/2/3 258/2/3 268/2/3
f 276/2/3 268/2/3 275/2/3
f 277/3/3 259/3/3 258/3/3
f 277/2/3 258/2/3 276/2/3
f 278/3/3 259/3/3 277/3/3
f 279/2/3 274/2/3 273/2/3
f 280/3/3 275/3/3 274/3/3
f 280/2/3 274/2/3 279/2/3
f 281/2/3 276/2/3 275/2/3
f 281/3/3 275/3/3 280/3/3
f 282/2/3 276/2/3 281/2/3
f 288/1/3 284/1/3 283/1/3
f 288/1/3 285/1/3 284/1/3
f 290/3/3 287/3/3 286/3/3
f 291/1/3 289/1/3 288/1/3
f 291/1/3 288/1/3 283/1/3
f 292/1/3 289/1/3 291/1/3
f 293/3/3 287/3/3 290/3/3
f 294/3/3 287/3/3 293/3/3
f 297/1/3 289/1/3 292/1/3
f 298/1/3 289/1/3 297/1/3
f 299/1/3 296/1/3 295/1/3
f 300/1/3 296/1/3 299/1/3
f 303/2/3 294/2/3 293/2/3
f 305/1/3 302/1/3 301/1/3
f 306/1/3 302/1/3 305/1/3
f 306/1/3 305/1/3 304/1/3
f 307/1/3 302/1/3 306/1/3
f 308/1/3 306/1/3 304/1/3
f 309/1/3 306/1/3 308/1/3
f 310/2/3 294/2/3 303/2/3
f 311/2/3 294/2/3 310/2/3
f 315/2/3 313/2/3 312/2/3
f 315/2/3 314/2/3 313/2/3
f 316/2/3 314/2/3 315/2/3
f 320/2/3 318/2/3 317/2/3
f 320/2/3 319/2/3 318/2/3
f 322/2/3 320/2/3 317/2/3
f 322/2/3 321/2/3 320/2/3
f 323/2/3 321/2/3 322/2/3
f 324/2/3 322/2/3 317/2/3
f 325/2/3 322/2/3 324/2/3
f 328/2/4 329/2/4 332/2/4
f 330/3/4 331/3/4 334/3/4
f 334/3/4 331/3/4 335/3/4
f 335/3/4 331/3/4 336/3/4
f 326/2/4 327/2/4 337/2/4
f 337/2/4 327/2/4 338/2/4
f 332/2/4 333/2/4 340/2/4
f 335/2/4 336/2/4 342/2/4
f 338/3/4 339/3/4 343/3/4
f 337/3/4 338/3/4 343/3/4
f 343/3/4 339/3/4 344/3/4
f 344/3/4 339/3/4 345/3/4
f 332/2/4 340/2/4 346/2/4
f 328/2/4 332/2/4 346/2/4
f 341/2/4 342/2/4 347/2/4
f 342/2/4 336/2/4 348/2/4
f 347/2/4 342/2/4 348/2/4
f 344/3/4 345/3/4 350/3/4
f 345/2/4 346/2/4 351/2/4
f 350/3/4 345/3/4 351/3/4
f 346/2/4 340/2/4 352/2/4
f 351/2/4 346/2/4 352/2/4
f 352/2/4 340/2/4 353/2/4
f 353/2/4 340/2/4 354/2/4
f 348/2/4 336/2/4 356/2/4
f 349/2/4 350/2/4 357/2/4
f 350/2/4 351/2/4 357/2/4
f 357/2/4 351/2/4 358/2/4
f 355/3/4 356/3/4 359/3/4
f 356/2/4 336/2/4 360/2/4
f 359/3/4 356/3/4 360/3/4
f 360/2/4 336/2/4 361/2/4
f 352/2/4 353/2/4 362/2/4
f 353/3/4 354/3/4 362/3/4
f 362/3/4 354/3/4 363/3/4
f 349/2/4 357/2/4 364/2/4
f 364/2/4 357/2/4 365/2/4
f 352/2/4 362/2/4 366/2/4
f 366/2/4 362/2/4 367/2/4
f 368/1/4 369/1/4 370/1/4
f 370/1/4 369/1/4 371/1/4
f 371/1/4 369/1/4 374/1/4
f 374/1/4 369/1/4 375/1/4
f 372/1/4 373/1/4 376/1/4
f 376/1/4 373/1/4 377/1/4
f 378/1/4 379/1/4 381/1/4
f 380/1/4 381/1/4 382/1/4
f 381/1/4 379/1/4 383/1/4
f 382/1/4 381/1/4 383/1/4
f 384/2/4 385/2/4 389/2/4
f 385/3/4 386/3/4 390/3/4
f 389/2/4 385/2/4 390/2/4
f 390/3/4 386/3/4 391/3/4
f 387/3/4 388/3/4 392/3/4
f 392/3/4 388/3/4 393/3/4
f 392/2/4 393/2/4 394/2/4
f 394/2/4 393/2/4 395/2/4
f 394/3/4 395/3/4 396/3/4
f 396/3/4 395/3/4 397/3/4
f 398/2/4 399/2/4 401/2/4
f 399/3/4 400/3/4 402/3/4
f 401/2/4 399/2/4 402/2/4
f 402/3/4 400/3/4 403/3/4
f 404/2/4 405/2/4 406/2/4
f 406/2/4 405/2/4 407/2/4
f 408/2/4 409/2/4 411/2/4
f 411/2/4 409/2/4 412/2/4
f 409/3/4 410/3/4 413/3/4
f 412/2/4 409/2/4 413/2/4
f 413/3/4 410/3/4 414/3/4
f 414/3/4 410/3/4 415/3/4
f 414/2/4 415/2/4 416/2/4
f 408/2/4 411/2/4 417/2/4
f 408/2/4 417/2/4 418/2/4
f 416/2/4 415/2/4 420/2/4
f 420/2/4 415/2/4 421/2/4
f 418/2/4 419/2/4 422/2/4
f 408/2/4 418/2/4 422/2/4
f 419/2/4 420/2/4 422/2/4
f 420/3/4 421/3/4 423/3/4
f 422/2/4 420/2/4 423/2/4
f 423/3/4 421/3/4 424/3/4
f 425/2/4 426/2/4 428/2/4
f 426/3/4 427/3/4 428/3/4
f 428/3/4 427/3/4 429/3/4
f 425/2/4 428/2/4 430/2/4
f 428/2/4 429/2/4 430/2/4
f 430/2/4 429/2/4 431/2/4
f 430/3/4 431/3/4 432/3/4
f 431/2/4 429/2/4 433/2/4
f 432/3/4 431/3/4 433/3/4
f 433/2/4 429/2/4 434/2/4
f 441/3/5 436/3/5 435/3/5
f 442/3/5 436/3/5 441/3/5
f 443/2/5 438/2/5 437/2/5
f 444/2/5 438/2/5 443/2/5
f 445/3/5 440/3/5 439/3/5
f 446/3/5 440/3/5 445/3/5
f 451/2/5 448/2/5 447/2/5
f 452/2/5 448/2/5 451/2/5
f 453/2/5 450/2/5 449/2/5
f 454/2/5 450/2/5 453/2/5
f 460/2/5 456/2/5 455/2/5
f 462/2/5 458/2/5 457/2/5
f 463/3/5 459/3/5 458/3/5
f 463/2/5 458/2/5 462/2/5
f 464/3/5 459/3/5 463/3/5
f 465/2/5 462/2/5 461/2/5
f 465/2/5 461/2/5 460/2/5
f 465/2/5 464/2/5 463/2/5
f 465/2/5 463/2/5 462/2/5
f 465/2/5 460/2/5 455/2/5
f 466/2/5 464/2/5 465/2/5
f 467/2/5 464/2/5 466/2/5
f 468/2/5 464/2/5 467/2/5
f 469/3/5 466/3/5 465/3/5
f 470/2/5 467/2/5 466/2/5
f 470/3/5 466/3/5 469/3/5
f 471/3/5 468/3/5 467/3/5
f 471/2/5 467/2/5 470/2/5
f 472/3/5 468/3/5 471/3/5
f 477/2/5 474/2/5 473/2/5
f 477/3/5 476/3/5 475/3/5
f 477/2/5 475/2/5 474/2/5
f 478/3/5 476/3/5 477/3/5
f 479/2/5 477/2/5 473/2/5
f 479/2/5 478/2/5 477/2/5
f 480/2/5 478/2/5 479/2/5
f 487/3/5 482/3/5 481/3/5
f 488/3/5 482/3/5 487/3/5
f 491/3/5 484/3/5 483/3/5
f 492/3/5 484/3/5 491/3/5
f 495/2/5 486/2/5 485/2/5
f 496/2/5 488/2/5 487/2/5
f 497/1/5 490/1/5 489/1/5
f 498/1/5 490/1/5 497/1/5
f 499/1/5 494/1/5 493/1/5
f 500/1/5 494/1/5 499/1/5
f 501/2/5 496/2/5 487/2/5
f 502/2/5 496/2/5 501/2/5
f 503/2/5 486/2/5 495/2/5
f 504/2/5 486/2/5 503/2/5
f 508/2/5 506/2/5 505/2/5
f 509/3/5 507/3/5 506/3/5
f 509/2/5 506/2/5 508/2/5
f 510/3/5 507/3/5 509/3/5
f 515/1/5 512/1/5 511/1/5
f 516/1/5 512/1/5 515/1/5
f 517/1/5 514/1/5 513/1/5
f 518/1/5 514/1/5 517/1/5
f 523/2/5 520/2/5 519/2/5
f 524/2/5 520/2/5 523/2/5
f 525/2/5 522/2/5 521/2/5
f 526/2/5 522/2/5 525/2/5
f 531/2/5 528/2/5 527/2/5
f 532/2/5 528/2/5 531/2/5
f 533/2/5 530/2/5 529/2/5
f 534/2/5 530/2/5 533/2/5
f 539/2/5 536/2/5 535/2/5
f 540/2/5 536/2/5 539/2/5
f 541/2/5 536/2/5 540/2/5
f 542/2/5 538/2/5 537/2/5
f 543/2/5 538/2/5 542/2/5
f 548/2/5 546/2/5 545/2/5
f 548/2/5 547/2/5 546/2/5
f 549/2/5 547/2/5 548/2/5
f 550/3/5 545/3/5 544/3/5
f 551/2/5 548/2/5 545/2/5
f 551/3/5 545/3/5 550/3/5
f 552/3/5 549/3/5 548/3/5
f 552/2/5 548/2/5 551/2/5
f 552/2/5 551/2/5 550/2/5
f 553/3/5 549/3/5 552/3/5
f 554/2/5 552/2/5 550/2/5
f 554/2/5 553/2/5 552/2/5
f 555/2/5 553/2/5 554/2/5
f 556/2/6 557/2/6 560/2/6
f 560/2/6 557/2/6 561/2/6
f 558/2/6 559/2/6 563/2/6
f 559/2/6 560/2/6 563/2/6
f 563/2/6 560/2/6 564/2/6
f 561/2/6 562/2/6 565/2/6
f 563/2/6 564/2/6 566/2/6
f 564/2/6 565/2/6 566/2/6
f 565/2/6 562/2/6 567/2/6
f 566/2/6 565/2/6 567/2/6
f 568/2/6 569/2/6 572/2/6
f 572/2/6 569/2/6 573/2/6
f 570/2/6 571/2/6 576/2/6
f 576/2/6 571/2/6 577/2/6
f 574/1/6 575/1/6 578/1/6
f 578/1/6 575/1/6 579/1/6
f 580/3/6 581/3/6 584/3/6
f 584/3/6 581/3/6 585/3/6
f 582/2/6 583/2/6 586/2/6
f 586/2/6 583/2/6 587/2/6
f 588/2/6 589/2/6 590/2/6
f 590/2/6 589/2/6 591/2/6
f 592/3/6 593/3/6 596/3/6
f 596/3/6 593/3/6 597/3/6
f 596/2/6 597/2/6 602/2/6
f 602/2/6 597/2/6 603/2/6
f 598/1/6 599/1/6 604/1/6
f 604/1/6 599/1/6 605/1/6
f 600/1/6 601/1/6 606/1/6
f 606/1/6 601/1/6 607/1/6
f 594/2/6 595/2/6 608/2/6
f 608/2/6 595/2/6 609/2/6
f 602/3/6 603/3/6 610/3/6
f 610/3/6 603/3/6 611/3/6
f 608/3/6 609/3/6 612/3/6
f 612/3/6 609/3/6 613/3/6
f 614/3/6 615/3/6 617/3/6
f 615/2/6 616/2/6 618/2/6
f 617/3/6 615/3/6 618/3/6
f 618/2/6 616/2/6 619/2/6
f 620/2/6 621/2/6 625/2/6
f 621/3/6 622/3/6 625/3/6
f 622/2/6 623/2/6 626/2/6
f 625/3/6 622/3/6 626/3/6
f 626/2/6 623/2/6 627/2/6
f 623/3/6 624/3/6 628/3/6
f 627/2/6 623/2/6 628/2/6
f 628/3/6 624/3/6 629/3/6
f 629/3/6 624/3/6 630/3/6
f 629/2/6 630/2/6 631/2/6
f 620/2/6 625/2/6 632/2/6
f 620/2/6 632/2/6 633/2/6
f 633/2/6 632/2/6 634/2/6
f 631/2/6 630/2/6 635/2/6
f 635/2/6 630/2/6 636/2/6
f 633/3/6 634/3/6 637/3/6
f 635/3/6 636/3/6 638/3/6
f 633/3/6 637/3/6 639/3/6
f 637/2/6 638/2/6 640/2/6
f 639/3/6 637/3/6 640/3/6
f 638/3/6 636/3/6 641/3/6
f 640/2/6 638/2/6 641/2/6
f 641/3/6 636/3/6 642/3/6
f 644/2/6 645/2/6 646/2/6
f 646/2/6 645/2/6 647/2/6
f 643/3/6 644/3/6 648/3/6
f 644/2/6 646/2/6 649/2/6
f 648/3/6 644/3/6 649/3/6
f 646/3/6 647/3/6 650/3/6
f 649/2/6 646/2/6 650/2/6
f 648/2/6 649/2/6 650/2/6
f 650/3/6 647/3/6 651/3/6
f 648/2/6 650/2/6 652/2/6
f 650/2/6 651/2/6 652/2/6
f 652/2/6 651/2/6 653/2/6
