# MagicaVoxel @ Ephtracy

# group
o 

# material
mtllib Sword1.mtl
usemtl palette

# normals
vn -1 0 0
vn 1 0 0
vn 0 0 1
vn 0 0 -1
vn 0 -1 0
vn 0 1 0

# texcoords
vt 0.271484 0.5
vt 0.310547 0.5
vt 0.755859 0.5
vt 0.791016 0.5
vt 0.923828 0.5
vt 0.931641 0.5
vt 0.935547 0.5
vt 0.990234 0.5

# verts
v -1 0 0.2
v -1 0 -0.1
v -1 0.3 0.2
v -1 0.3 -0.1
v -0.8 0.3 0.2
v -0.8 0.3 -0.1
v -0.8 0.4 0.2
v -0.8 0.4 -0.1
v -0.7 0.4 0.2
v -0.7 0.4 -0.1
v -0.7 0.5 0.2
v -0.7 0.5 -0.1
v -0.7 0.9 0.2
v -0.7 0.9 -0.1
v -0.7 1 0.2
v -0.7 1 -0.1
v -0.6 0.5 0.2
v -0.6 0.5 -0.1
v -0.6 0.6 0.2
v -0.6 0.6 -0.1
v -0.6 0.8 0.2
v -0.6 0.8 -0.1
v -0.6 0.9 0.2
v -0.6 0.9 -0.1
v -0.5 0.6 0.2
v -0.5 0.6 -0.1
v -0.5 0.8 0.2
v -0.5 0.8 -0.1
v -0.3 0.9 0.2
v -0.3 0.9 -0.1
v -0.3 1 0.2
v -0.3 1 -0.1
v -0.2 0.4 0.2
v -0.2 0.4 -0.1
v -0.2 0.5 0.2
v -0.2 0.5 -0.1
v -0.2 1 0.2
v -0.2 1 -0.1
v -0.2 1.1 0.2
v -0.2 1.1 -0.1
v -0.1 0.3 0.2
v -0.1 0.3 -0.1
v -0.1 0.4 0.2
v -0.1 0.4 -0.1
v -0.1 1.1 0.2
v -0.1 1.1 -0.1
v -0.1 1.2 0.2
v -0.1 1.2 -0.1
v 0 1.2 0.2
v 0 1.2 -0.1
v 0 1.3 0.2
v 0 1.3 -0.1
v 0.1 1.3 0.2
v 0.1 1.3 -0.1
v 0.1 1.4 0.2
v 0.1 1.4 -0.1
v 0.2 1.4 0.2
v 0.2 1.4 -0.1
v 0.2 1.5 0.2
v 0.2 1.5 -0.1
v 0.3 1.5 0.2
v 0.3 1.5 -0.1
v 0.3 1.6 0.2
v 0.3 1.6 -0.1
v 0.4 1.6 0.2
v 0.4 1.6 -0.1
v 0.4 1.7 0.2
v 0.4 1.7 -0.1
v 0.5 1.7 0.2
v 0.5 1.7 -0.1
v 0.5 1.8 0.2
v 0.5 1.8 -0.1
v 0.6 1.8 0.2
v 0.6 1.8 -0.1
v 0.6 1.9 0.2
v 0.6 1.9 -0.1
v 0.7 1.9 0.2
v 0.7 1.9 -0.1
v 0.7 2 0.2
v 0.7 2 -0.1
v -0.7 0 0.2
v -0.7 0 -0.1
v -0.7 0.2 0.2
v -0.7 0.2 -0.1
v -0.6 0.2 0.2
v -0.6 0.2 -0.1
v -0.6 0.3 0.2
v -0.6 0.3 -0.1
v -0.5 0.3 0.2
v -0.5 0.3 -0.1
v -0.5 0.4 0.2
v -0.5 0.4 -0.1
v -0.4 0.4 0.2
v -0.4 0.4 -0.1
v -0.4 0.5 0.2
v -0.4 0.5 -0.1
v -0.4 0.9 0.2
v -0.4 0.9 -0.1
v -0.4 1 0.2
v -0.4 1 -0.1
v -0.1 0.6 0.2
v -0.1 0.6 -0.1
v -0.1 0.7 0.2
v -0.1 0.7 -0.1
v 0 0.3 0.2
v 0 0.3 -0.1
v 0 0.6 0.2
v 0 0.6 -0.1
v 0 0.7 0.2
v 0 0.7 -0.1
v 0 0.8 0.2
v 0 0.8 -0.1
v 0.1 0.8 0.2
v 0.1 0.8 -0.1
v 0.1 0.9 0.2
v 0.1 0.9 -0.1
v 0.2 0.9 0.2
v 0.2 0.9 -0.1
v 0.2 1 0.2
v 0.2 1 -0.1
v 0.3 1 0.2
v 0.3 1 -0.1
v 0.3 1.1 0.2
v 0.3 1.1 -0.1
v 0.4 1.1 0.2
v 0.4 1.1 -0.1
v 0.4 1.2 0.2
v 0.4 1.2 -0.1
v 0.5 1.2 0.2
v 0.5 1.2 -0.1
v 0.5 1.3 0.2
v 0.5 1.3 -0.1
v 0.6 1.3 0.2
v 0.6 1.3 -0.1
v 0.6 1.4 0.2
v 0.6 1.4 -0.1
v 0.7 1.4 0.2
v 0.7 1.4 -0.1
v 0.7 1.5 0.2
v 0.7 1.5 -0.1
v 0.8 1.5 0.2
v 0.8 1.5 -0.1
v 0.8 1.6 0.2
v 0.8 1.6 -0.1
v 0.9 1.6 0.2
v 0.9 1.6 -0.1
v 0.9 1.7 0.2
v 0.9 1.7 -0.1
v 1 1.7 0.2
v 1 1.7 -0.1
v 1 2 0.2
v 1 2 -0.1
v -1 0 0.2
v -1 0.3 0.2
v -0.9 0.1 0.2
v -0.9 0.2 0.2
v -0.8 0.1 0.2
v -0.8 0.2 0.2
v -0.8 0.3 0.2
v -0.8 0.4 0.2
v -0.7 0 0.2
v -0.7 0.2 0.2
v -0.7 0.3 0.2
v -0.7 0.4 0.2
v -0.7 0.5 0.2
v -0.7 0.9 0.2
v -0.7 1 0.2
v -0.6 0.2 0.2
v -0.6 0.3 0.2
v -0.6 0.4 0.2
v -0.6 0.5 0.2
v -0.6 0.6 0.2
v -0.6 0.8 0.2
v -0.6 0.9 0.2
v -0.5 0.3 0.2
v -0.5 0.4 0.2
v -0.5 0.5 0.2
v -0.5 0.6 0.2
v -0.5 0.8 0.2
v -0.5 0.9 0.2
v -0.4 0.4 0.2
v -0.4 0.5 0.2
v -0.4 0.6 0.2
v -0.4 0.7 0.2
v -0.4 0.8 0.2
v -0.4 0.9 0.2
v -0.4 1 0.2
v -0.3 0.6 0.2
v -0.3 0.7 0.2
v -0.3 0.8 0.2
v -0.3 0.9 0.2
v -0.3 1 0.2
v -0.2 0.4 0.2
v -0.2 0.5 0.2
v -0.2 0.6 0.2
v -0.2 0.7 0.2
v -0.2 0.8 0.2
v -0.2 0.9 0.2
v -0.2 1 0.2
v -0.2 1.1 0.2
v -0.1 0.3 0.2
v -0.1 0.4 0.2
v -0.1 0.5 0.2
v -0.1 0.6 0.2
v -0.1 0.7 0.2
v -0.1 0.8 0.2
v -0.1 0.9 0.2
v -0.1 1 0.2
v -0.1 1.1 0.2
v -0.1 1.2 0.2
v 0 0.3 0.2
v 0 0.6 0.2
v 0 0.7 0.2
v 0 0.8 0.2
v 0 0.9 0.2
v 0 1 0.2
v 0 1.1 0.2
v 0 1.2 0.2
v 0 1.3 0.2
v 0.1 0.8 0.2
v 0.1 0.9 0.2
v 0.1 1 0.2
v 0.1 1.1 0.2
v 0.1 1.2 0.2
v 0.1 1.3 0.2
v 0.1 1.4 0.2
v 0.2 0.9 0.2
v 0.2 1 0.2
v 0.2 1.1 0.2
v 0.2 1.2 0.2
v 0.2 1.3 0.2
v 0.2 1.4 0.2
v 0.2 1.5 0.2
v 0.3 1 0.2
v 0.3 1.1 0.2
v 0.3 1.2 0.2
v 0.3 1.3 0.2
v 0.3 1.4 0.2
v 0.3 1.5 0.2
v 0.3 1.6 0.2
v 0.4 1.1 0.2
v 0.4 1.2 0.2
v 0.4 1.3 0.2
v 0.4 1.4 0.2
v 0.4 1.5 0.2
v 0.4 1.6 0.2
v 0.4 1.7 0.2
v 0.5 1.2 0.2
v 0.5 1.3 0.2
v 0.5 1.4 0.2
v 0.5 1.5 0.2
v 0.5 1.6 0.2
v 0.5 1.7 0.2
v 0.5 1.8 0.2
v 0.6 1.3 0.2
v 0.6 1.4 0.2
v 0.6 1.5 0.2
v 0.6 1.6 0.2
v 0.6 1.7 0.2
v 0.6 1.8 0.2
v 0.6 1.9 0.2
v 0.7 1.4 0.2
v 0.7 1.5 0.2
v 0.7 1.6 0.2
v 0.7 1.7 0.2
v 0.7 1.8 0.2
v 0.7 1.9 0.2
v 0.7 2 0.2
v 0.8 1.5 0.2
v 0.8 1.6 0.2
v 0.8 1.7 0.2
v 0.8 1.8 0.2
v 0.8 1.9 0.2
v 0.9 1.6 0.2
v 0.9 1.7 0.2
v 0.9 1.8 0.2
v 0.9 1.9 0.2
v 1 1.7 0.2
v 1 2 0.2
v -1 0 -0.1
v -1 0.3 -0.1
v -0.9 0.1 -0.1
v -0.9 0.2 -0.1
v -0.8 0.1 -0.1
v -0.8 0.2 -0.1
v -0.8 0.3 -0.1
v -0.8 0.4 -0.1
v -0.7 0 -0.1
v -0.7 0.2 -0.1
v -0.7 0.3 -0.1
v -0.7 0.4 -0.1
v -0.7 0.5 -0.1
v -0.7 0.9 -0.1
v -0.7 1 -0.1
v -0.6 0.2 -0.1
v -0.6 0.3 -0.1
v -0.6 0.4 -0.1
v -0.6 0.5 -0.1
v -0.6 0.6 -0.1
v -0.6 0.8 -0.1
v -0.6 0.9 -0.1
v -0.5 0.3 -0.1
v -0.5 0.4 -0.1
v -0.5 0.5 -0.1
v -0.5 0.6 -0.1
v -0.5 0.8 -0.1
v -0.5 0.9 -0.1
v -0.4 0.4 -0.1
v -0.4 0.5 -0.1
v -0.4 0.6 -0.1
v -0.4 0.7 -0.1
v -0.4 0.8 -0.1
v -0.4 0.9 -0.1
v -0.4 1 -0.1
v -0.3 0.6 -0.1
v -0.3 0.7 -0.1
v -0.3 0.8 -0.1
v -0.3 0.9 -0.1
v -0.3 1 -0.1
v -0.2 0.4 -0.1
v -0.2 0.5 -0.1
v -0.2 0.6 -0.1
v -0.2 0.7 -0.1
v -0.2 0.8 -0.1
v -0.2 0.9 -0.1
v -0.2 1 -0.1
v -0.2 1.1 -0.1
v -0.1 0.3 -0.1
v -0.1 0.4 -0.1
v -0.1 0.5 -0.1
v -0.1 0.6 -0.1
v -0.1 0.7 -0.1
v -0.1 0.8 -0.1
v -0.1 0.9 -0.1
v -0.1 1 -0.1
v -0.1 1.1 -0.1
v -0.1 1.2 -0.1
v 0 0.3 -0.1
v 0 0.6 -0.1
v 0 0.7 -0.1
v 0 0.8 -0.1
v 0 0.9 -0.1
v 0 1 -0.1
v 0 1.1 -0.1
v 0 1.2 -0.1
v 0 1.3 -0.1
v 0.1 0.8 -0.1
v 0.1 0.9 -0.1
v 0.1 1 -0.1
v 0.1 1.1 -0.1
v 0.1 1.2 -0.1
v 0.1 1.3 -0.1
v 0.1 1.4 -0.1
v 0.2 0.9 -0.1
v 0.2 1 -0.1
v 0.2 1.1 -0.1
v 0.2 1.2 -0.1
v 0.2 1.3 -0.1
v 0.2 1.4 -0.1
v 0.2 1.5 -0.1
v 0.3 1 -0.1
v 0.3 1.1 -0.1
v 0.3 1.2 -0.1
v 0.3 1.3 -0.1
v 0.3 1.4 -0.1
v 0.3 1.5 -0.1
v 0.3 1.6 -0.1
v 0.4 1.1 -0.1
v 0.4 1.2 -0.1
v 0.4 1.3 -0.1
v 0.4 1.4 -0.1
v 0.4 1.5 -0.1
v 0.4 1.6 -0.1
v 0.4 1.7 -0.1
v 0.5 1.2 -0.1
v 0.5 1.3 -0.1
v 0.5 1.4 -0.1
v 0.5 1.5 -0.1
v 0.5 1.6 -0.1
v 0.5 1.7 -0.1
v 0.5 1.8 -0.1
v 0.6 1.3 -0.1
v 0.6 1.4 -0.1
v 0.6 1.5 -0.1
v 0.6 1.6 -0.1
v 0.6 1.7 -0.1
v 0.6 1.8 -0.1
v 0.6 1.9 -0.1
v 0.7 1.4 -0.1
v 0.7 1.5 -0.1
v 0.7 1.6 -0.1
v 0.7 1.7 -0.1
v 0.7 1.8 -0.1
v 0.7 1.9 -0.1
v 0.7 2 -0.1
v 0.8 1.5 -0.1
v 0.8 1.6 -0.1
v 0.8 1.7 -0.1
v 0.8 1.8 -0.1
v 0.8 1.9 -0.1
v 0.9 1.6 -0.1
v 0.9 1.7 -0.1
v 0.9 1.8 -0.1
v 0.9 1.9 -0.1
v 1 1.7 -0.1
v 1 2 -0.1
v -1 0 0.2
v -0.7 0 0.2
v -1 0 -0.1
v -0.7 0 -0.1
v -0.7 0.2 0.2
v -0.6 0.2 0.2
v -0.7 0.2 -0.1
v -0.6 0.2 -0.1
v -0.6 0.3 0.2
v -0.5 0.3 0.2
v -0.1 0.3 0.2
v 0 0.3 0.2
v -0.6 0.3 -0.1
v -0.5 0.3 -0.1
v -0.1 0.3 -0.1
v 0 0.3 -0.1
v -0.5 0.4 0.2
v -0.4 0.4 0.2
v -0.2 0.4 0.2
v -0.1 0.4 0.2
v -0.5 0.4 -0.1
v -0.4 0.4 -0.1
v -0.2 0.4 -0.1
v -0.1 0.4 -0.1
v -0.4 0.5 0.2
v -0.2 0.5 0.2
v -0.4 0.5 -0.1
v -0.2 0.5 -0.1
v -0.1 0.7 0.2
v 0 0.7 0.2
v -0.1 0.7 -0.1
v 0 0.7 -0.1
v -0.6 0.8 0.2
v -0.5 0.8 0.2
v 0 0.8 0.2
v 0.1 0.8 0.2
v -0.6 0.8 -0.1
v -0.5 0.8 -0.1
v 0 0.8 -0.1
v 0.1 0.8 -0.1
v -0.7 0.9 0.2
v -0.6 0.9 0.2
v 0.1 0.9 0.2
v 0.2 0.9 0.2
v -0.7 0.9 -0.1
v -0.6 0.9 -0.1
v 0.1 0.9 -0.1
v 0.2 0.9 -0.1
v 0.2 1 0.2
v 0.3 1 0.2
v 0.2 1 -0.1
v 0.3 1 -0.1
v 0.3 1.1 0.2
v 0.4 1.1 0.2
v 0.3 1.1 -0.1
v 0.4 1.1 -0.1
v 0.4 1.2 0.2
v 0.5 1.2 0.2
v 0.4 1.2 -0.1
v 0.5 1.2 -0.1
v 0.5 1.3 0.2
v 0.6 1.3 0.2
v 0.5 1.3 -0.1
v 0.6 1.3 -0.1
v 0.6 1.4 0.2
v 0.7 1.4 0.2
v 0.6 1.4 -0.1
v 0.7 1.4 -0.1
v 0.7 1.5 0.2
v 0.8 1.5 0.2
v 0.7 1.5 -0.1
v 0.8 1.5 -0.1
v 0.8 1.6 0.2
v 0.9 1.6 0.2
v 0.8 1.6 -0.1
v 0.9 1.6 -0.1
v 0.9 1.7 0.2
v 1 1.7 0.2
v 0.9 1.7 -0.1
v 1 1.7 -0.1
v -1 0.3 0.2
v -0.8 0.3 0.2
v -1 0.3 -0.1
v -0.8 0.3 -0.1
v -0.8 0.4 0.2
v -0.7 0.4 0.2
v -0.8 0.4 -0.1
v -0.7 0.4 -0.1
v -0.7 0.5 0.2
v -0.6 0.5 0.2
v -0.7 0.5 -0.1
v -0.6 0.5 -0.1
v -0.6 0.6 0.2
v -0.5 0.6 0.2
v -0.1 0.6 0.2
v 0 0.6 0.2
v -0.6 0.6 -0.1
v -0.5 0.6 -0.1
v -0.1 0.6 -0.1
v 0 0.6 -0.1
v -0.4 0.9 0.2
v -0.3 0.9 0.2
v -0.4 0.9 -0.1
v -0.3 0.9 -0.1
v -0.7 1 0.2
v -0.4 1 0.2
v -0.3 1 0.2
v -0.2 1 0.2
v -0.7 1 -0.1
v -0.4 1 -0.1
v -0.3 1 -0.1
v -0.2 1 -0.1
v -0.2 1.1 0.2
v -0.1 1.1 0.2
v -0.2 1.1 -0.1
v -0.1 1.1 -0.1
v -0.1 1.2 0.2
v 0 1.2 0.2
v -0.1 1.2 -0.1
v 0 1.2 -0.1
v 0 1.3 0.2
v 0.1 1.3 0.2
v 0 1.3 -0.1
v 0.1 1.3 -0.1
v 0.1 1.4 0.2
v 0.2 1.4 0.2
v 0.1 1.4 -0.1
v 0.2 1.4 -0.1
v 0.2 1.5 0.2
v 0.3 1.5 0.2
v 0.2 1.5 -0.1
v 0.3 1.5 -0.1
v 0.3 1.6 0.2
v 0.4 1.6 0.2
v 0.3 1.6 -0.1
v 0.4 1.6 -0.1
v 0.4 1.7 0.2
v 0.5 1.7 0.2
v 0.4 1.7 -0.1
v 0.5 1.7 -0.1
v 0.5 1.8 0.2
v 0.6 1.8 0.2
v 0.5 1.8 -0.1
v 0.6 1.8 -0.1
v 0.6 1.9 0.2
v 0.7 1.9 0.2
v 0.6 1.9 -0.1
v 0.7 1.9 -0.1
v 0.7 2 0.2
v 1 2 0.2
v 0.7 2 -0.1
v 1 2 -0.1

# faces
f 3/8/1 2/8/1 1/8/1
f 4/8/1 2/8/1 3/8/1
f 7/8/1 6/8/1 5/8/1
f 8/8/1 6/8/1 7/8/1
f 11/8/1 10/8/1 9/8/1
f 12/8/1 10/8/1 11/8/1
f 15/8/1 14/8/1 13/8/1
f 16/8/1 14/8/1 15/8/1
f 19/8/1 18/8/1 17/8/1
f 20/8/1 18/8/1 19/8/1
f 23/8/1 22/8/1 21/8/1
f 24/8/1 22/8/1 23/8/1
f 27/8/1 26/8/1 25/8/1
f 28/8/1 26/8/1 27/8/1
f 31/8/1 30/8/1 29/8/1
f 32/8/1 30/8/1 31/8/1
f 35/8/1 34/8/1 33/8/1
f 36/8/1 34/8/1 35/8/1
f 39/8/1 38/8/1 37/8/1
f 40/8/1 38/8/1 39/8/1
f 43/8/1 42/8/1 41/8/1
f 44/8/1 42/8/1 43/8/1
f 47/8/1 46/8/1 45/8/1
f 48/8/1 46/8/1 47/8/1
f 51/8/1 50/8/1 49/8/1
f 52/8/1 50/8/1 51/8/1
f 55/8/1 54/8/1 53/8/1
f 56/8/1 54/8/1 55/8/1
f 59/8/1 58/8/1 57/8/1
f 60/8/1 58/8/1 59/8/1
f 63/8/1 62/8/1 61/8/1
f 64/8/1 62/8/1 63/8/1
f 67/8/1 66/8/1 65/8/1
f 68/8/1 66/8/1 67/8/1
f 71/8/1 70/8/1 69/8/1
f 72/8/1 70/8/1 71/8/1
f 75/8/1 74/8/1 73/8/1
f 76/8/1 74/8/1 75/8/1
f 79/8/1 78/8/1 77/8/1
f 80/8/1 78/8/1 79/8/1
f 81/8/2 82/8/2 83/8/2
f 83/8/2 82/8/2 84/8/2
f 85/8/2 86/8/2 87/8/2
f 87/8/2 86/8/2 88/8/2
f 89/8/2 90/8/2 91/8/2
f 91/8/2 90/8/2 92/8/2
f 93/8/2 94/8/2 95/8/2
f 95/8/2 94/8/2 96/8/2
f 97/8/2 98/8/2 99/8/2
f 99/8/2 98/8/2 100/8/2
f 101/8/2 102/8/2 103/8/2
f 103/8/2 102/8/2 104/8/2
f 105/8/2 106/8/2 107/8/2
f 107/8/2 106/8/2 108/8/2
f 109/8/2 110/8/2 111/8/2
f 111/8/2 110/8/2 112/8/2
f 113/8/2 114/8/2 115/8/2
f 115/8/2 114/8/2 116/8/2
f 117/8/2 118/8/2 119/8/2
f 119/8/2 118/8/2 120/8/2
f 121/8/2 122/8/2 123/8/2
f 123/8/2 122/8/2 124/8/2
f 125/8/2 126/8/2 127/8/2
f 127/8/2 126/8/2 128/8/2
f 129/8/2 130/8/2 131/8/2
f 131/8/2 130/8/2 132/8/2
f 133/8/2 134/8/2 135/8/2
f 135/8/2 134/8/2 136/8/2
f 137/8/2 138/8/2 139/8/2
f 139/8/2 138/8/2 140/8/2
f 141/8/2 142/8/2 143/8/2
f 143/8/2 142/8/2 144/8/2
f 145/8/2 146/8/2 147/8/2
f 147/8/2 146/8/2 148/8/2
f 149/8/2 150/8/2 151/8/2
f 151/8/2 150/8/2 152/8/2
f 155/8/3 154/8/3 153/8/3
f 156/8/3 154/8/3 155/8/3
f 157/8/3 155/8/3 153/8/3
f 157/4/3 156/4/3 155/4/3
f 158/8/3 154/8/3 156/8/3
f 158/4/3 156/4/3 157/4/3
f 159/8/3 154/8/3 158/8/3
f 161/8/3 157/8/3 153/8/3
f 161/8/3 160/8/3 159/8/3
f 161/8/3 159/8/3 158/8/3
f 161/8/3 158/8/3 157/8/3
f 162/8/3 160/8/3 161/8/3
f 163/8/3 160/8/3 162/8/3
f 164/8/3 160/8/3 163/8/3
f 168/8/3 163/8/3 162/8/3
f 169/2/3 164/2/3 163/2/3
f 169/8/3 163/8/3 168/8/3
f 170/8/3 165/8/3 164/8/3
f 170/2/3 164/2/3 169/2/3
f 171/8/3 165/8/3 170/8/3
f 174/8/3 167/8/3 166/8/3
f 175/8/3 170/8/3 169/8/3
f 176/1/3 171/1/3 170/1/3
f 176/8/3 170/8/3 175/8/3
f 177/8/3 172/8/3 171/8/3
f 177/1/3 171/1/3 176/1/3
f 178/8/3 172/8/3 177/8/3
f 179/8/3 174/8/3 173/8/3
f 180/8/3 167/8/3 174/8/3
f 180/8/3 174/8/3 179/8/3
f 181/8/3 177/8/3 176/8/3
f 182/2/3 178/2/3 177/2/3
f 182/8/3 177/8/3 181/8/3
f 183/8/3 179/8/3 178/8/3
f 183/2/3 178/2/3 182/2/3
f 184/8/3 179/8/3 183/8/3
f 185/4/3 180/4/3 179/4/3
f 185/8/3 179/8/3 184/8/3
f 186/8/3 167/8/3 180/8/3
f 186/4/3 180/4/3 185/4/3
f 187/8/3 167/8/3 186/8/3
f 188/1/3 184/1/3 183/1/3
f 188/8/3 183/8/3 182/8/3
f 189/3/3 185/3/3 184/3/3
f 189/1/3 184/1/3 188/1/3
f 190/8/3 186/8/3 185/8/3
f 190/3/3 185/3/3 189/3/3
f 191/8/3 186/8/3 190/8/3
f 194/8/3 188/8/3 182/8/3
f 195/4/3 189/4/3 188/4/3
f 195/8/3 188/8/3 194/8/3
f 196/6/3 190/6/3 189/6/3
f 196/4/3 189/4/3 195/4/3
f 197/5/3 191/5/3 190/5/3
f 197/6/3 190/6/3 196/6/3
f 198/8/3 192/8/3 191/8/3
f 198/5/3 191/5/3 197/5/3
f 199/8/3 192/8/3 198/8/3
f 202/8/3 194/8/3 193/8/3
f 203/3/3 195/3/3 194/3/3
f 203/8/3 194/8/3 202/8/3
f 204/8/3 196/8/3 195/8/3
f 204/3/3 195/3/3 203/3/3
f 205/7/3 197/7/3 196/7/3
f 205/8/3 196/8/3 204/8/3
f 206/6/3 198/6/3 197/6/3
f 206/7/3 197/7/3 205/7/3
f 207/5/3 199/5/3 198/5/3
f 207/6/3 198/6/3 206/6/3
f 208/8/3 200/8/3 199/8/3
f 208/5/3 199/5/3 207/5/3
f 209/8/3 200/8/3 208/8/3
f 211/8/3 204/8/3 203/8/3
f 211/8/3 202/8/3 201/8/3
f 211/8/3 203/8/3 202/8/3
f 212/8/3 204/8/3 211/8/3
f 213/8/3 206/8/3 205/8/3
f 214/7/3 207/7/3 206/7/3
f 214/8/3 206/8/3 213/8/3
f 215/6/3 208/6/3 207/6/3
f 215/7/3 207/7/3 214/7/3
f 216/5/3 209/5/3 208/5/3
f 216/6/3 208/6/3 215/6/3
f 217/8/3 210/8/3 209/8/3
f 217/5/3 209/5/3 216/5/3
f 218/8/3 210/8/3 217/8/3
f 220/8/3 215/8/3 214/8/3
f 221/7/3 216/7/3 215/7/3
f 221/8/3 215/8/3 220/8/3
f 222/6/3 217/6/3 216/6/3
f 222/7/3 216/7/3 221/7/3
f 223/5/3 218/5/3 217/5/3
f 223/6/3 217/6/3 222/6/3
f 224/8/3 219/8/3 218/8/3
f 224/5/3 218/5/3 223/5/3
f 225/8/3 219/8/3 224/8/3
f 227/8/3 222/8/3 221/8/3
f 228/7/3 223/7/3 222/7/3
f 228/8/3 222/8/3 227/8/3
f 229/6/3 224/6/3 223/6/3
f 229/7/3 223/7/3 228/7/3
f 230/5/3 225/5/3 224/5/3
f 230/6/3 224/6/3 229/6/3
f 231/8/3 226/8/3 225/8/3
f 231/5/3 225/5/3 230/5/3
f 232/8/3 226/8/3 231/8/3
f 234/8/3 229/8/3 228/8/3
f 235/7/3 230/7/3 229/7/3
f 235/8/3 229/8/3 234/8/3
f 236/6/3 231/6/3 230/6/3
f 236/7/3 230/7/3 235/7/3
f 237/5/3 232/5/3 231/5/3
f 237/6/3 231/6/3 236/6/3
f 238/8/3 233/8/3 232/8/3
f 238/5/3 232/5/3 237/5/3
f 239/8/3 233/8/3 238/8/3
f 241/8/3 236/8/3 235/8/3
f 242/7/3 237/7/3 236/7/3
f 242/8/3 236/8/3 241/8/3
f 243/6/3 238/6/3 237/6/3
f 243/7/3 237/7/3 242/7/3
f 244/5/3 239/5/3 238/5/3
f 244/6/3 238/6/3 243/6/3
f 245/8/3 240/8/3 239/8/3
f 245/5/3 239/5/3 244/5/3
f 246/8/3 240/8/3 245/8/3
f 248/8/3 243/8/3 242/8/3
f 249/7/3 244/7/3 243/7/3
f 249/8/3 243/8/3 248/8/3
f 250/6/3 245/6/3 244/6/3
f 250/7/3 244/7/3 249/7/3
f 251/5/3 246/5/3 245/5/3
f 251/6/3 245/6/3 250/6/3
f 252/8/3 247/8/3 246/8/3
f 252/5/3 246/5/3 251/5/3
f 253/8/3 247/8/3 252/8/3
f 255/8/3 250/8/3 249/8/3
f 256/7/3 251/7/3 250/7/3
f 256/8/3 250/8/3 255/8/3
f 257/6/3 252/6/3 251/6/3
f 257/7/3 251/7/3 256/7/3
f 258/5/3 253/5/3 252/5/3
f 258/6/3 252/6/3 257/6/3
f 259/8/3 254/8/3 253/8/3
f 259/5/3 253/5/3 258/5/3
f 260/8/3 254/8/3 259/8/3
f 262/8/3 257/8/3 256/8/3
f 263/7/3 258/7/3 257/7/3
f 263/8/3 257/8/3 262/8/3
f 264/6/3 259/6/3 258/6/3
f 264/7/3 258/7/3 263/7/3
f 265/5/3 260/5/3 259/5/3
f 265/6/3 259/6/3 264/6/3
f 266/8/3 261/8/3 260/8/3
f 266/5/3 260/5/3 265/5/3
f 267/8/3 261/8/3 266/8/3
f 269/8/3 264/8/3 263/8/3
f 270/7/3 265/7/3 264/7/3
f 270/8/3 264/8/3 269/8/3
f 271/6/3 266/6/3 265/6/3
f 271/7/3 265/7/3 270/7/3
f 272/5/3 267/5/3 266/5/3
f 272/6/3 266/6/3 271/6/3
f 273/8/3 268/8/3 267/8/3
f 273/5/3 267/5/3 272/5/3
f 274/8/3 271/8/3 270/8/3
f 275/7/3 272/7/3 271/7/3
f 275/8/3 271/8/3 274/8/3
f 276/6/3 273/6/3 272/6/3
f 276/7/3 272/7/3 275/7/3
f 277/8/3 268/8/3 273/8/3
f 277/6/3 273/6/3 276/6/3
f 278/8/3 276/8/3 275/8/3
f 278/8/3 277/8/3 276/8/3
f 279/8/3 268/8/3 277/8/3
f 279/8/3 277/8/3 278/8/3
f 280/8/4 281/8/4 282/8/4
f 282/8/4 281/8/4 283/8/4
f 280/8/4 282/8/4 284/8/4
f 282/4/4 283/4/4 284/4/4
f 283/8/4 281/8/4 285/8/4
f 284/4/4 283/4/4 285/4/4
f 285/8/4 281/8/4 286/8/4
f 280/8/4 284/8/4 288/8/4
f 286/8/4 287/8/4 288/8/4
f 285/8/4 286/8/4 288/8/4
f 284/8/4 285/8/4 288/8/4
f 288/8/4 287/8/4 289/8/4
f 289/8/4 287/8/4 290/8/4
f 290/8/4 287/8/4 291/8/4
f 289/8/4 290/8/4 295/8/4
f 290/2/4 291/2/4 296/2/4
f 295/8/4 290/8/4 296/8/4
f 291/8/4 292/8/4 297/8/4
f 296/2/4 291/2/4 297/2/4
f 297/8/4 292/8/4 298/8/4
f 293/8/4 294/8/4 301/8/4
f 296/8/4 297/8/4 302/8/4
f 297/1/4 298/1/4 303/1/4
f 302/8/4 297/8/4 303/8/4
f 298/8/4 299/8/4 304/8/4
f 303/1/4 298/1/4 304/1/4
f 304/8/4 299/8/4 305/8/4
f 300/8/4 301/8/4 306/8/4
f 301/8/4 294/8/4 307/8/4
f 306/8/4 301/8/4 307/8/4
f 303/8/4 304/8/4 308/8/4
f 304/2/4 305/2/4 309/2/4
f 308/8/4 304/8/4 309/8/4
f 305/8/4 306/8/4 310/8/4
f 309/2/4 305/2/4 310/2/4
f 310/8/4 306/8/4 311/8/4
f 306/4/4 307/4/4 312/4/4
f 311/8/4 306/8/4 312/8/4
f 307/8/4 294/8/4 313/8/4
f 312/4/4 307/4/4 313/4/4
f 313/8/4 294/8/4 314/8/4
f 310/1/4 311/1/4 315/1/4
f 309/8/4 310/8/4 315/8/4
f 311/3/4 312/3/4 316/3/4
f 315/1/4 311/1/4 316/1/4
f 312/8/4 313/8/4 317/8/4
f 316/3/4 312/3/4 317/3/4
f 317/8/4 313/8/4 318/8/4
f 309/8/4 315/8/4 321/8/4
f 315/4/4 316/4/4 322/4/4
f 321/8/4 315/8/4 322/8/4
f 316/6/4 317/6/4 323/6/4
f 322/4/4 316/4/4 323/4/4
f 317/5/4 318/5/4 324/5/4
f 323/6/4 317/6/4 324/6/4
f 318/8/4 319/8/4 325/8/4
f 324/5/4 318/5/4 325/5/4
f 325/8/4 319/8/4 326/8/4
f 320/8/4 321/8/4 329/8/4
f 321/3/4 322/3/4 330/3/4
f 329/8/4 321/8/4 330/8/4
f 322/8/4 323/8/4 331/8/4
f 330/3/4 322/3/4 331/3/4
f 323/7/4 324/7/4 332/7/4
f 331/8/4 323/8/4 332/8/4
f 324/6/4 325/6/4 333/6/4
f 332/7/4 324/7/4 333/7/4
f 325/5/4 326/5/4 334/5/4
f 333/6/4 325/6/4 334/6/4
f 326/8/4 327/8/4 335/8/4
f 334/5/4 326/5/4 335/5/4
f 335/8/4 327/8/4 336/8/4
f 330/8/4 331/8/4 338/8/4
f 328/8/4 329/8/4 338/8/4
f 329/8/4 330/8/4 338/8/4
f 338/8/4 331/8/4 339/8/4
f 332/8/4 333/8/4 340/8/4
f 333/7/4 334/7/4 341/7/4
f 340/8/4 333/8/4 341/8/4
f 334/6/4 335/6/4 342/6/4
f 341/7/4 334/7/4 342/7/4
f 335/5/4 336/5/4 343/5/4
f 342/6/4 335/6/4 343/6/4
f 336/8/4 337/8/4 344/8/4
f 343/5/4 336/5/4 344/5/4
f 344/8/4 337/8/4 345/8/4
f 341/8/4 342/8/4 347/8/4
f 342/7/4 343/7/4 348/7/4
f 347/8/4 342/8/4 348/8/4
f 343/6/4 344/6/4 349/6/4
f 348/7/4 343/7/4 349/7/4
f 344/5/4 345/5/4 350/5/4
f 349/6/4 344/6/4 350/6/4
f 345/8/4 346/8/4 351/8/4
f 350/5/4 345/5/4 351/5/4
f 351/8/4 346/8/4 352/8/4
f 348/8/4 349/8/4 354/8/4
f 349/7/4 350/7/4 355/7/4
f 354/8/4 349/8/4 355/8/4
f 350/6/4 351/6/4 356/6/4
f 355/7/4 350/7/4 356/7/4
f 351/5/4 352/5/4 357/5/4
f 356/6/4 351/6/4 357/6/4
f 352/8/4 353/8/4 358/8/4
f 357/5/4 352/5/4 358/5/4
f 358/8/4 353/8/4 359/8/4
f 355/8/4 356/8/4 361/8/4
f 356/7/4 357/7/4 362/7/4
f 361/8/4 356/8/4 362/8/4
f 357/6/4 358/6/4 363/6/4
f 362/7/4 357/7/4 363/7/4
f 358/5/4 359/5/4 364/5/4
f 363/6/4 358/6/4 364/6/4
f 359/8/4 360/8/4 365/8/4
f 364/5/4 359/5/4 365/5/4
f 365/8/4 360/8/4 366/8/4
f 362/8/4 363/8/4 368/8/4
f 363/7/4 364/7/4 369/7/4
f 368/8/4 363/8/4 369/8/4
f 364/6/4 365/6/4 370/6/4
f 369/7/4 364/7/4 370/7/4
f 365/5/4 366/5/4 371/5/4
f 370/6/4 365/6/4 371/6/4
f 366/8/4 367/8/4 372/8/4
f 371/5/4 366/5/4 372/5/4
f 372/8/4 367/8/4 373/8/4
f 369/8/4 370/8/4 375/8/4
f 370/7/4 371/7/4 376/7/4
f 375/8/4 370/8/4 376/8/4
f 371/6/4 372/6/4 377/6/4
f 376/7/4 371/7/4 377/7/4
f 372/5/4 373/5/4 378/5/4
f 377/6/4 372/6/4 378/6/4
f 373/8/4 374/8/4 379/8/4
f 378/5/4 373/5/4 379/5/4
f 379/8/4 374/8/4 380/8/4
f 376/8/4 377/8/4 382/8/4
f 377/7/4 378/7/4 383/7/4
f 382/8/4 377/8/4 383/8/4
f 378/6/4 379/6/4 384/6/4
f 383/7/4 378/7/4 384/7/4
f 379/5/4 380/5/4 385/5/4
f 384/6/4 379/6/4 385/6/4
f 380/8/4 381/8/4 386/8/4
f 385/5/4 380/5/4 386/5/4
f 386/8/4 381/8/4 387/8/4
f 383/8/4 384/8/4 389/8/4
f 384/7/4 385/7/4 390/7/4
f 389/8/4 384/8/4 390/8/4
f 385/6/4 386/6/4 391/6/4
f 390/7/4 385/7/4 391/7/4
f 386/5/4 387/5/4 392/5/4
f 391/6/4 386/6/4 392/6/4
f 387/8/4 388/8/4 393/8/4
f 392/5/4 387/5/4 393/5/4
f 393/8/4 388/8/4 394/8/4
f 390/8/4 391/8/4 396/8/4
f 391/7/4 392/7/4 397/7/4
f 396/8/4 391/8/4 397/8/4
f 392/6/4 393/6/4 398/6/4
f 397/7/4 392/7/4 398/7/4
f 393/5/4 394/5/4 399/5/4
f 398/6/4 393/6/4 399/6/4
f 394/8/4 395/8/4 400/8/4
f 399/5/4 394/5/4 400/5/4
f 397/8/4 398/8/4 401/8/4
f 398/7/4 399/7/4 402/7/4
f 401/8/4 398/8/4 402/8/4
f 399/6/4 400/6/4 403/6/4
f 402/7/4 399/7/4 403/7/4
f 400/8/4 395/8/4 404/8/4
f 403/6/4 400/6/4 404/6/4
f 402/8/4 403/8/4 405/8/4
f 403/8/4 404/8/4 405/8/4
f 404/8/4 395/8/4 406/8/4
f 405/8/4 404/8/4 406/8/4
f 409/8/5 408/8/5 407/8/5
f 410/8/5 408/8/5 409/8/5
f 413/8/5 412/8/5 411/8/5
f 414/8/5 412/8/5 413/8/5
f 419/8/5 416/8/5 415/8/5
f 420/8/5 416/8/5 419/8/5
f 421/8/5 418/8/5 417/8/5
f 422/8/5 418/8/5 421/8/5
f 427/8/5 424/8/5 423/8/5
f 428/8/5 424/8/5 427/8/5
f 429/8/5 426/8/5 425/8/5
f 430/8/5 426/8/5 429/8/5
f 433/8/5 432/8/5 431/8/5
f 434/8/5 432/8/5 433/8/5
f 437/8/5 436/8/5 435/8/5
f 438/8/5 436/8/5 437/8/5
f 443/8/5 440/8/5 439/8/5
f 444/8/5 440/8/5 443/8/5
f 445/8/5 442/8/5 441/8/5
f 446/8/5 442/8/5 445/8/5
f 451/8/5 448/8/5 447/8/5
f 452/8/5 448/8/5 451/8/5
f 453/8/5 450/8/5 449/8/5
f 454/8/5 450/8/5 453/8/5
f 457/8/5 456/8/5 455/8/5
f 458/8/5 456/8/5 457/8/5
f 461/8/5 460/8/5 459/8/5
f 462/8/5 460/8/5 461/8/5
f 465/8/5 464/8/5 463/8/5
f 466/8/5 464/8/5 465/8/5
f 469/8/5 468/8/5 467/8/5
f 470/8/5 468/8/5 469/8/5
f 473/8/5 472/8/5 471/8/5
f 474/8/5 472/8/5 473/8/5
f 477/8/5 476/8/5 475/8/5
f 478/8/5 476/8/5 477/8/5
f 481/8/5 480/8/5 479/8/5
f 482/8/5 480/8/5 481/8/5
f 485/8/5 484/8/5 483/8/5
f 486/8/5 484/8/5 485/8/5
f 487/8/6 488/8/6 489/8/6
f 489/8/6 488/8/6 490/8/6
f 491/8/6 492/8/6 493/8/6
f 493/8/6 492/8/6 494/8/6
f 495/8/6 496/8/6 497/8/6
f 497/8/6 496/8/6 498/8/6
f 499/8/6 500/8/6 503/8/6
f 503/8/6 500/8/6 504/8/6
f 501/8/6 502/8/6 505/8/6
f 505/8/6 502/8/6 506/8/6
f 507/8/6 508/8/6 509/8/6
f 509/8/6 508/8/6 510/8/6
f 511/8/6 512/8/6 515/8/6
f 515/8/6 512/8/6 516/8/6
f 513/8/6 514/8/6 517/8/6
f 517/8/6 514/8/6 518/8/6
f 519/8/6 520/8/6 521/8/6
f 521/8/6 520/8/6 522/8/6
f 523/8/6 524/8/6 525/8/6
f 525/8/6 524/8/6 526/8/6
f 527/8/6 528/8/6 529/8/6
f 529/8/6 528/8/6 530/8/6
f 531/8/6 532/8/6 533/8/6
f 533/8/6 532/8/6 534/8/6
f 535/8/6 536/8/6 537/8/6
f 537/8/6 536/8/6 538/8/6
f 539/8/6 540/8/6 541/8/6
f 541/8/6 540/8/6 542/8/6
f 543/8/6 544/8/6 545/8/6
f 545/8/6 544/8/6 546/8/6
f 547/8/6 548/8/6 549/8/6
f 549/8/6 548/8/6 550/8/6
f 551/8/6 552/8/6 553/8/6
f 553/8/6 552/8/6 554/8/6
f 555/8/6 556/8/6 557/8/6
f 557/8/6 556/8/6 558/8/6
