# MagicaVoxel @ Ephtracy

# group
o 

# material
mtllib OutpostFlag.mtl
usemtl palette

# normals
vn -1 0 0
vn 1 0 0
vn 0 0 1
vn 0 0 -1
vn 0 -1 0
vn 0 1 0

# texcoords
vt 0.205078 0.5
vt 0.208984 0.5
vt 0.263672 0.5

# verts
v -0.4 0 0.1
v -0.4 0 0
v -0.4 0.7 0.1
v -0.4 0.7 0
v -0.1 0.5 0
v -0.1 0.5 -0.1
v -0.1 0.7 0
v -0.1 0.7 -0.1
v -0.3 0 0.1
v -0.3 0 0
v -0.3 0.5 0.1
v -0.3 0.5 0
v -0.1 0.5 0.1
v -0.1 0.5 0
v -0.1 0.7 0.1
v -0.1 0.7 0
v 0.1 0.5 0
v 0.1 0.5 -0.1
v 0.1 0.7 0
v 0.1 0.7 -0.1
v -0.4 0 0.1
v -0.4 0.7 0.1
v -0.3 0 0.1
v -0.3 0.5 0.1
v -0.3 0.7 0.1
v -0.1 0.5 0.1
v -0.1 0.7 0.1
v -0.1 0.5 0
v -0.1 0.7 0
v 0.1 0.5 0
v 0.1 0.7 0
v -0.4 0 0
v -0.4 0.7 0
v -0.3 0 0
v -0.3 0.5 0
v -0.3 0.7 0
v -0.1 0.5 0
v -0.1 0.7 0
v -0.1 0.5 -0.1
v -0.1 0.7 -0.1
v 0.1 0.5 -0.1
v 0.1 0.7 -0.1
v -0.4 0 0.1
v -0.3 0 0.1
v -0.4 0 0
v -0.3 0 0
v -0.3 0.5 0.1
v -0.1 0.5 0.1
v -0.3 0.5 0
v -0.1 0.5 0
v 0.1 0.5 0
v -0.1 0.5 -0.1
v 0.1 0.5 -0.1
v -0.4 0.7 0.1
v -0.3 0.7 0.1
v -0.1 0.7 0.1
v -0.4 0.7 0
v -0.3 0.7 0
v -0.1 0.7 0
v 0.1 0.7 0
v -0.1 0.7 -0.1
v 0.1 0.7 -0.1

# faces
f 3/3/1 2/3/1 1/3/1
f 4/3/1 2/3/1 3/3/1
f 7/2/1 6/2/1 5/2/1
f 8/2/1 6/2/1 7/2/1
f 9/3/2 10/3/2 11/3/2
f 11/3/2 10/3/2 12/3/2
f 13/1/2 14/1/2 15/1/2
f 15/1/2 14/1/2 16/1/2
f 17/2/2 18/2/2 19/2/2
f 19/2/2 18/2/2 20/2/2
f 23/3/3 22/3/3 21/3/3
f 24/3/3 22/3/3 23/3/3
f 25/3/3 22/3/3 24/3/3
f 26/1/3 25/1/3 24/1/3
f 27/1/3 25/1/3 26/1/3
f 30/2/3 29/2/3 28/2/3
f 31/2/3 29/2/3 30/2/3
f 32/3/4 33/3/4 34/3/4
f 34/3/4 33/3/4 35/3/4
f 35/3/4 33/3/4 36/3/4
f 35/1/4 36/1/4 37/1/4
f 37/1/4 36/1/4 38/1/4
f 39/2/4 40/2/4 41/2/4
f 41/2/4 40/2/4 42/2/4
f 45/3/5 44/3/5 43/3/5
f 46/3/5 44/3/5 45/3/5
f 49/1/5 48/1/5 47/1/5
f 50/1/5 48/1/5 49/1/5
f 52/2/5 51/2/5 50/2/5
f 53/2/5 51/2/5 52/2/5
f 54/3/6 55/3/6 57/3/6
f 55/1/6 56/1/6 58/1/6
f 57/3/6 55/3/6 58/3/6
f 58/1/6 56/1/6 59/1/6
f 59/2/6 60/2/6 61/2/6
f 61/2/6 60/2/6 62/2/6
