# MagicaVoxel @ Ephtracy

# group
o 

# material
mtllib PlayerFlag.mtl
usemtl palette

# normals
vn -1 0 0
vn 1 0 0
vn 0 0 1
vn 0 0 -1
vn 0 -1 0
vn 0 1 0

# texcoords
vt 0.103516 0.5
vt 0.107422 0.5
vt 0.177734 0.5

# verts
v -0.4 0 -7.45058e-09
v -0.4 0 -0.1
v -0.4 0.7 -7.45058e-09
v -0.4 0.7 -0.1
v 0 0.5 -0.1
v 0 0.5 -0.2
v 0 0.7 -0.1
v 0 0.7 -0.2
v -0.3 0 -7.45058e-09
v -0.3 0 -0.1
v -0.3 0.5 -7.45058e-09
v -0.3 0.5 -0.1
v 0 0.5 -7.45058e-09
v 0 0.5 -0.1
v 0 0.7 -7.45058e-09
v 0 0.7 -0.1
v 0.3 0.5 -0.1
v 0.3 0.5 -0.2
v 0.3 0.7 -0.1
v 0.3 0.7 -0.2
v -0.4 0 -7.45058e-09
v -0.4 0.7 -7.45058e-09
v -0.3 0 -7.45058e-09
v -0.3 0.5 -7.45058e-09
v -0.3 0.7 -7.45058e-09
v 0 0.5 -7.45058e-09
v 0 0.7 -7.45058e-09
v 0 0.5 -0.1
v 0 0.7 -0.1
v 0.3 0.5 -0.1
v 0.3 0.7 -0.1
v -0.4 0 -0.1
v -0.4 0.7 -0.1
v -0.3 0 -0.1
v -0.3 0.5 -0.1
v -0.3 0.7 -0.1
v 0 0.5 -0.1
v 0 0.7 -0.1
v 0 0.5 -0.2
v 0 0.7 -0.2
v 0.3 0.5 -0.2
v 0.3 0.7 -0.2
v -0.4 0 -7.45058e-09
v -0.3 0 -7.45058e-09
v -0.4 0 -0.1
v -0.3 0 -0.1
v -0.3 0.5 -7.45058e-09
v 0 0.5 -7.45058e-09
v -0.3 0.5 -0.1
v 0 0.5 -0.1
v 0.3 0.5 -0.1
v 0 0.5 -0.2
v 0.3 0.5 -0.2
v -0.4 0.7 -7.45058e-09
v -0.3 0.7 -7.45058e-09
v 0 0.7 -7.45058e-09
v -0.4 0.7 -0.1
v -0.3 0.7 -0.1
v 0 0.7 -0.1
v 0.3 0.7 -0.1
v 0 0.7 -0.2
v 0.3 0.7 -0.2

# faces
f 3/3/1 2/3/1 1/3/1
f 4/3/1 2/3/1 3/3/1
f 7/1/1 6/1/1 5/1/1
f 8/1/1 6/1/1 7/1/1
f 9/3/2 10/3/2 11/3/2
f 11/3/2 10/3/2 12/3/2
f 13/2/2 14/2/2 15/2/2
f 15/2/2 14/2/2 16/2/2
f 17/1/2 18/1/2 19/1/2
f 19/1/2 18/1/2 20/1/2
f 23/3/3 22/3/3 21/3/3
f 24/3/3 22/3/3 23/3/3
f 25/3/3 22/3/3 24/3/3
f 26/2/3 25/2/3 24/2/3
f 27/2/3 25/2/3 26/2/3
f 30/1/3 29/1/3 28/1/3
f 31/1/3 29/1/3 30/1/3
f 32/3/4 33/3/4 34/3/4
f 34/3/4 33/3/4 35/3/4
f 35/3/4 33/3/4 36/3/4
f 35/2/4 36/2/4 37/2/4
f 37/2/4 36/2/4 38/2/4
f 39/1/4 40/1/4 41/1/4
f 41/1/4 40/1/4 42/1/4
f 45/3/5 44/3/5 43/3/5
f 46/3/5 44/3/5 45/3/5
f 49/2/5 48/2/5 47/2/5
f 50/2/5 48/2/5 49/2/5
f 52/1/5 51/1/5 50/1/5
f 53/1/5 51/1/5 52/1/5
f 54/3/6 55/3/6 57/3/6
f 55/2/6 56/2/6 58/2/6
f 57/3/6 55/3/6 58/3/6
f 58/2/6 56/2/6 59/2/6
f 59/1/6 60/1/6 61/1/6
f 61/1/6 60/1/6 62/1/6
