# MagicaVoxel @ Ephtracy

# group
o 

# material
mtllib horse.mtl
usemtl palette

# normals
vn -1 0 0
vn 1 0 0
vn 0 0 1
vn 0 0 -1
vn 0 -1 0
vn 0 1 0

# texcoords
vt 0.560547 0.5
vt 0.701172 0.5
vt 0.876953 0.5

# verts
v -0.3 0.1 1.1
v -0.3 0.1 1
v -0.3 0.1 0.1
v -0.3 0.1 0
v -0.3 0.2 1.1
v -0.3 0.2 1
v -0.3 0.2 0.1
v -0.3 0.2 0
v -0.3 0.3 1.1
v -0.3 0.3 1
v -0.3 0.3 0.1
v -0.3 0.3 0
v -0.3 0.6 1
v -0.3 0.6 0.1
v -0.3 1 1.1
v -0.3 1 0
v -0.2 1 1.1
v -0.2 1 0.1
v -0.2 1.1 1.1
v -0.2 1.1 0.8
v -0.2 1.1 0.1
v -0.2 1.2 1.4
v -0.2 1.2 1.1
v -0.2 1.2 0.9
v -0.2 1.2 0.8
v -0.2 1.3 1.5
v -0.2 1.3 1.4
v -0.2 1.5 1.5
v -0.2 1.5 1.4
v -0.2 1.5 1.2
v -0.2 1.5 1.1
v -0.2 1.6 1.4
v -0.2 1.6 1.3
v -0.2 1.6 1.2
v -0.2 1.6 1.1
v -0.2 1.7 1.3
v -0.2 1.7 1
v -0.2 1.9 1
v -0.2 1.9 0.9
v -0.1 0.4 -0.1
v -0.1 0.4 -0.2
v -0.1 0.9 0
v -0.1 0.9 -0.1
v -0.1 0.9 -0.2
v -0.1 1 0
v -0.1 1 -0.1
v -0.1 1.1 0.8
v -0.1 1.1 0.5
v -0.1 1.2 0.9
v -0.1 1.2 0.8
v -0.1 1.2 0.5
v -0.1 1.3 1.6
v -0.1 1.3 1.5
v -0.1 1.5 1.6
v -0.1 1.5 1.5
v -0.1 1.5 1.4
v -0.1 1.6 1.5
v -0.1 1.6 1.4
v -0.1 1.6 1.3
v -0.1 1.7 1.4
v -0.1 1.7 1.3
v -0.1 1.7 1
v -0.1 1.7 0.9
v -0.1 1.7 0.8
v -0.1 1.8 1.3
v -0.1 1.8 1
v 0.1 1.8 1
v 0.1 1.8 0.9
v 0.1 1.9 1
v 0.1 1.9 0.9
v 0.2 0.1 1.1
v 0.2 0.1 1
v 0.2 0.1 0.1
v 0.2 0.1 0
v 0.2 0.2 1.1
v 0.2 0.2 1
v 0.2 0.2 0.1
v 0.2 0.2 0
v 0.2 0.3 1.1
v 0.2 0.3 1
v 0.2 0.3 0.1
v 0.2 0.3 0
v 0.2 0.6 1.1
v 0.2 0.6 1
v 0.2 0.6 0.1
v 0.2 0.6 0
v -0.2 0.1 1.1
v -0.2 0.1 1
v -0.2 0.1 0.1
v -0.2 0.1 0
v -0.2 0.2 1.1
v -0.2 0.2 1
v -0.2 0.2 0.1
v -0.2 0.2 0
v -0.2 0.3 1.1
v -0.2 0.3 1
v -0.2 0.3 0.1
v -0.2 0.3 0
v -0.2 0.6 1.1
v -0.2 0.6 1
v -0.2 0.6 0.1
v -0.2 0.6 0
v -0.1 1.8 1
v -0.1 1.8 0.9
v -0.1 1.9 1
v -0.1 1.9 0.9
v 0.1 0.4 -0.1
v 0.1 0.4 -0.2
v 0.1 0.9 0
v 0.1 0.9 -0.1
v 0.1 0.9 -0.2
v 0.1 1 0
v 0.1 1 -0.1
v 0.1 1.1 0.8
v 0.1 1.1 0.5
v 0.1 1.2 0.9
v 0.1 1.2 0.8
v 0.1 1.2 0.5
v 0.1 1.3 1.6
v 0.1 1.3 1.5
v 0.1 1.5 1.6
v 0.1 1.5 1.5
v 0.1 1.5 1.4
v 0.1 1.6 1.5
v 0.1 1.6 1.4
v 0.1 1.6 1.3
v 0.1 1.7 1.4
v 0.1 1.7 1.3
v 0.1 1.7 1
v 0.1 1.7 0.9
v 0.1 1.7 0.8
v 0.1 1.8 1.3
v 0.1 1.8 1
v 0.2 1 1.1
v 0.2 1 0.1
v 0.2 1.1 1.1
v 0.2 1.1 0.8
v 0.2 1.1 0.1
v 0.2 1.2 1.4
v 0.2 1.2 1.1
v 0.2 1.2 0.9
v 0.2 1.2 0.8
v 0.2 1.3 1.5
v 0.2 1.3 1.4
v 0.2 1.5 1.5
v 0.2 1.5 1.4
v 0.2 1.5 1.2
v 0.2 1.5 1.1
v 0.2 1.6 1.4
v 0.2 1.6 1.3
v 0.2 1.6 1.2
v 0.2 1.6 1.1
v 0.2 1.7 1.3
v 0.2 1.7 1
v 0.2 1.9 1
v 0.2 1.9 0.9
v 0.3 0.1 1.1
v 0.3 0.1 1
v 0.3 0.1 0.1
v 0.3 0.1 0
v 0.3 0.2 1.1
v 0.3 0.2 1
v 0.3 0.2 0.1
v 0.3 0.2 0
v 0.3 0.3 1.1
v 0.3 0.3 1
v 0.3 0.3 0.1
v 0.3 0.3 0
v 0.3 0.6 1
v 0.3 0.6 0.1
v 0.3 1 1.1
v 0.3 1 0
v -0.1 1.3 1.6
v -0.1 1.5 1.6
v 0.1 1.3 1.6
v 0.1 1.5 1.6
v -0.2 1.3 1.5
v -0.2 1.5 1.5
v -0.1 1.3 1.5
v -0.1 1.5 1.5
v -0.1 1.6 1.5
v 0.1 1.3 1.5
v 0.1 1.5 1.5
v 0.1 1.6 1.5
v 0.2 1.3 1.5
v 0.2 1.5 1.5
v -0.2 1.2 1.4
v -0.2 1.3 1.4
v -0.2 1.5 1.4
v -0.2 1.6 1.4
v -0.1 1.5 1.4
v -0.1 1.6 1.4
v -0.1 1.7 1.4
v 0.1 1.5 1.4
v 0.1 1.6 1.4
v 0.1 1.7 1.4
v 0.2 1.2 1.4
v 0.2 1.3 1.4
v 0.2 1.5 1.4
v 0.2 1.6 1.4
v -0.2 1.6 1.3
v -0.2 1.7 1.3
v -0.1 1.6 1.3
v -0.1 1.7 1.3
v -0.1 1.8 1.3
v 0.1 1.6 1.3
v 0.1 1.7 1.3
v 0.1 1.8 1.3
v 0.2 1.6 1.3
v 0.2 1.7 1.3
v -0.3 0.1 1.1
v -0.3 0.2 1.1
v -0.3 0.3 1.1
v -0.3 1 1.1
v -0.2 0.1 1.1
v -0.2 0.2 1.1
v -0.2 0.3 1.1
v -0.2 0.6 1.1
v -0.2 1 1.1
v -0.2 1.1 1.1
v -0.2 1.2 1.1
v 0.2 0.1 1.1
v 0.2 0.2 1.1
v 0.2 0.3 1.1
v 0.2 0.6 1.1
v 0.2 1 1.1
v 0.2 1.1 1.1
v 0.2 1.2 1.1
v 0.3 0.1 1.1
v 0.3 0.2 1.1
v 0.3 0.3 1.1
v 0.3 1 1.1
v -0.2 1.7 1
v -0.2 1.9 1
v -0.1 1.7 1
v -0.1 1.8 1
v -0.1 1.9 1
v 0.1 1.7 1
v 0.1 1.8 1
v 0.1 1.9 1
v 0.2 1.7 1
v 0.2 1.9 1
v -0.3 0.1 0.1
v -0.3 0.2 0.1
v -0.3 0.3 0.1
v -0.3 0.6 0.1
v -0.2 0.1 0.1
v -0.2 0.2 0.1
v -0.2 0.3 0.1
v -0.2 0.6 0.1
v 0.2 0.1 0.1
v 0.2 0.2 0.1
v 0.2 0.3 0.1
v 0.2 0.6 0.1
v 0.3 0.1 0.1
v 0.3 0.2 0.1
v 0.3 0.3 0.1
v 0.3 0.6 0.1
v -0.1 0.4 -0.1
v -0.1 0.9 -0.1
v 0.1 0.4 -0.1
v 0.1 0.9 -0.1
v -0.3 0.1 1
v -0.3 0.2 1
v -0.3 0.3 1
v -0.3 0.6 1
v -0.2 0.1 1
v -0.2 0.2 1
v -0.2 0.3 1
v -0.2 0.6 1
v 0.2 0.1 1
v 0.2 0.2 1
v 0.2 0.3 1
v 0.2 0.6 1
v 0.3 0.1 1
v 0.3 0.2 1
v 0.3 0.3 1
v 0.3 0.6 1
v -0.2 1.2 0.9
v -0.2 1.9 0.9
v -0.1 1.2 0.9
v -0.1 1.7 0.9
v -0.1 1.8 0.9
v -0.1 1.9 0.9
v 0.1 1.2 0.9
v 0.1 1.7 0.9
v 0.1 1.8 0.9
v 0.1 1.9 0.9
v 0.2 1.2 0.9
v 0.2 1.9 0.9
v -0.2 1.1 0.8
v -0.2 1.2 0.8
v -0.1 1.1 0.8
v -0.1 1.2 0.8
v -0.1 1.7 0.8
v 0.1 1.1 0.8
v 0.1 1.2 0.8
v 0.1 1.7 0.8
v 0.2 1.1 0.8
v 0.2 1.2 0.8
v -0.1 1.1 0.5
v -0.1 1.2 0.5
v 0.1 1.1 0.5
v 0.1 1.2 0.5
v -0.2 1 0.1
v -0.2 1.1 0.1
v 0.2 1 0.1
v 0.2 1.1 0.1
v -0.3 0.1 0
v -0.3 0.2 0
v -0.3 0.3 0
v -0.3 1 0
v -0.2 0.1 0
v -0.2 0.2 0
v -0.2 0.3 0
v -0.2 0.6 0
v -0.1 0.9 0
v -0.1 1 0
v 0.1 0.9 0
v 0.1 1 0
v 0.2 0.1 0
v 0.2 0.2 0
v 0.2 0.3 0
v 0.2 0.6 0
v 0.3 0.1 0
v 0.3 0.2 0
v 0.3 0.3 0
v 0.3 1 0
v -0.1 0.9 -0.1
v -0.1 1 -0.1
v 0.1 0.9 -0.1
v 0.1 1 -0.1
v -0.1 0.4 -0.2
v -0.1 0.9 -0.2
v 0.1 0.4 -0.2
v 0.1 0.9 -0.2
v -0.3 0.1 1.1
v -0.2 0.1 1.1
v 0.2 0.1 1.1
v 0.3 0.1 1.1
v -0.3 0.1 1
v -0.2 0.1 1
v 0.2 0.1 1
v 0.3 0.1 1
v -0.3 0.1 0.1
v -0.2 0.1 0.1
v 0.2 0.1 0.1
v 0.3 0.1 0.1
v -0.3 0.1 0
v -0.2 0.1 0
v 0.2 0.1 0
v 0.3 0.1 0
v -0.1 0.4 -0.1
v 0.1 0.4 -0.1
v -0.1 0.4 -0.2
v 0.1 0.4 -0.2
v -0.2 0.6 1.1
v 0.2 0.6 1.1
v -0.3 0.6 1
v -0.2 0.6 1
v 0.2 0.6 1
v 0.3 0.6 1
v -0.3 0.6 0.1
v -0.2 0.6 0.1
v 0.2 0.6 0.1
v 0.3 0.6 0.1
v -0.2 0.6 0
v 0.2 0.6 0
v -0.1 0.9 0
v 0.1 0.9 0
v -0.1 0.9 -0.1
v 0.1 0.9 -0.1
v -0.2 1.2 1.4
v 0.2 1.2 1.4
v -0.2 1.2 1.1
v 0.2 1.2 1.1
v -0.1 1.3 1.6
v 0.1 1.3 1.6
v -0.2 1.3 1.5
v -0.1 1.3 1.5
v 0.1 1.3 1.5
v 0.2 1.3 1.5
v -0.2 1.3 1.4
v 0.2 1.3 1.4
v -0.1 0.9 -0.1
v 0.1 0.9 -0.1
v -0.1 0.9 -0.2
v 0.1 0.9 -0.2
v -0.3 1 1.1
v -0.2 1 1.1
v 0.2 1 1.1
v 0.3 1 1.1
v -0.2 1 0.1
v 0.2 1 0.1
v -0.3 1 0
v -0.1 1 0
v 0.1 1 0
v 0.3 1 0
v -0.1 1 -0.1
v 0.1 1 -0.1
v -0.2 1.1 0.8
v -0.1 1.1 0.8
v 0.1 1.1 0.8
v 0.2 1.1 0.8
v -0.1 1.1 0.5
v 0.1 1.1 0.5
v -0.2 1.1 0.1
v 0.2 1.1 0.1
v -0.2 1.2 0.9
v -0.1 1.2 0.9
v 0.1 1.2 0.9
v 0.2 1.2 0.9
v -0.2 1.2 0.8
v -0.1 1.2 0.8
v 0.1 1.2 0.8
v 0.2 1.2 0.8
v -0.1 1.2 0.5
v 0.1 1.2 0.5
v -0.1 1.5 1.6
v 0.1 1.5 1.6
v -0.2 1.5 1.5
v -0.1 1.5 1.5
v 0.1 1.5 1.5
v 0.2 1.5 1.5
v -0.2 1.5 1.4
v -0.1 1.5 1.4
v 0.1 1.5 1.4
v 0.2 1.5 1.4
v -0.1 1.6 1.5
v 0.1 1.6 1.5
v -0.2 1.6 1.4
v -0.1 1.6 1.4
v 0.1 1.6 1.4
v 0.2 1.6 1.4
v -0.2 1.6 1.3
v -0.1 1.6 1.3
v 0.1 1.6 1.3
v 0.2 1.6 1.3
v -0.1 1.7 1.4
v 0.1 1.7 1.4
v -0.2 1.7 1.3
v -0.1 1.7 1.3
v 0.1 1.7 1.3
v 0.2 1.7 1.3
v -0.2 1.7 1
v -0.1 1.7 1
v 0.1 1.7 1
v 0.2 1.7 1
v -0.1 1.7 0.9
v 0.1 1.7 0.9
v -0.1 1.7 0.8
v 0.1 1.7 0.8
v -0.1 1.8 1.3
v 0.1 1.8 1.3
v -0.1 1.8 1
v 0.1 1.8 1
v -0.1 1.8 0.9
v 0.1 1.8 0.9
v -0.2 1.9 1
v -0.1 1.9 1
v 0.1 1.9 1
v 0.2 1.9 1
v -0.2 1.9 0.9
v -0.1 1.9 0.9
v 0.1 1.9 0.9
v 0.2 1.9 0.9

# faces
f 5/3/1 2/3/1 1/3/1
f 6/3/1 2/3/1 5/3/1
f 7/3/1 4/3/1 3/3/1
f 8/3/1 4/3/1 7/3/1
f 9/1/1 6/1/1 5/1/1
f 10/1/1 6/1/1 9/1/1
f 11/1/1 8/1/1 7/1/1
f 12/1/1 8/1/1 11/1/1
f 13/2/1 10/2/1 9/2/1
f 14/2/1 12/2/1 11/2/1
f 15/2/1 13/2/1 9/2/1
f 15/2/1 14/2/1 13/2/1
f 16/2/1 12/2/1 14/2/1
f 16/2/1 14/2/1 15/2/1
f 19/2/1 18/2/1 17/2/1
f 20/2/1 18/2/1 19/2/1
f 21/2/1 18/2/1 20/2/1
f 23/1/1 20/1/1 19/1/1
f 24/1/1 20/1/1 23/1/1
f 25/1/1 20/1/1 24/1/1
f 27/2/1 23/2/1 22/2/1
f 27/2/1 24/2/1 23/2/1
f 28/2/1 27/2/1 26/2/1
f 29/2/1 24/2/1 27/2/1
f 29/2/1 27/2/1 28/2/1
f 30/2/1 24/2/1 29/2/1
f 31/2/1 24/2/1 30/2/1
f 32/2/1 30/2/1 29/2/1
f 33/2/1 30/2/1 32/2/1
f 34/3/1 31/3/1 30/3/1
f 34/2/1 30/2/1 33/2/1
f 35/2/1 24/2/1 31/2/1
f 35/3/1 31/3/1 34/3/1
f 36/2/1 34/2/1 33/2/1
f 36/2/1 35/2/1 34/2/1
f 37/2/1 24/2/1 35/2/1
f 37/2/1 35/2/1 36/2/1
f 38/2/1 24/2/1 37/2/1
f 39/2/1 24/2/1 38/2/1
f 43/3/1 41/3/1 40/3/1
f 44/3/1 41/3/1 43/3/1
f 45/3/1 43/3/1 42/3/1
f 46/3/1 43/3/1 45/3/1
f 50/3/1 48/3/1 47/3/1
f 51/3/1 48/3/1 50/3/1
f 54/3/1 53/3/1 52/3/1
f 55/3/1 53/3/1 54/3/1
f 57/3/1 56/3/1 55/3/1
f 58/3/1 56/3/1 57/3/1
f 60/3/1 59/3/1 58/3/1
f 61/3/1 59/3/1 60/3/1
f 63/3/1 50/3/1 49/3/1
f 64/3/1 50/3/1 63/3/1
f 65/3/1 62/3/1 61/3/1
f 66/3/1 62/3/1 65/3/1
f 69/2/1 68/2/1 67/2/1
f 70/2/1 68/2/1 69/2/1
f 75/3/1 72/3/1 71/3/1
f 76/3/1 72/3/1 75/3/1
f 77/3/1 74/3/1 73/3/1
f 78/3/1 74/3/1 77/3/1
f 79/1/1 76/1/1 75/1/1
f 80/1/1 76/1/1 79/1/1
f 81/1/1 78/1/1 77/1/1
f 82/1/1 78/1/1 81/1/1
f 83/2/1 80/2/1 79/2/1
f 84/2/1 80/2/1 83/2/1
f 85/2/1 82/2/1 81/2/1
f 86/2/1 82/2/1 85/2/1
f 87/3/2 88/3/2 91/3/2
f 91/3/2 88/3/2 92/3/2
f 89/3/2 90/3/2 93/3/2
f 93/3/2 90/3/2 94/3/2
f 91/1/2 92/1/2 95/1/2
f 95/1/2 92/1/2 96/1/2
f 93/1/2 94/1/2 97/1/2
f 97/1/2 94/1/2 98/1/2
f 95/2/2 96/2/2 99/2/2
f 99/2/2 96/2/2 100/2/2
f 97/2/2 98/2/2 101/2/2
f 101/2/2 98/2/2 102/2/2
f 103/2/2 104/2/2 105/2/2
f 105/2/2 104/2/2 106/2/2
f 107/3/2 108/3/2 110/3/2
f 110/3/2 108/3/2 111/3/2
f 109/3/2 110/3/2 112/3/2
f 112/3/2 110/3/2 113/3/2
f 114/3/2 115/3/2 117/3/2
f 117/3/2 115/3/2 118/3/2
f 119/3/2 120/3/2 121/3/2
f 121/3/2 120/3/2 122/3/2
f 122/3/2 123/3/2 124/3/2
f 124/3/2 123/3/2 125/3/2
f 125/3/2 126/3/2 127/3/2
f 127/3/2 126/3/2 128/3/2
f 116/3/2 117/3/2 130/3/2
f 130/3/2 117/3/2 131/3/2
f 128/3/2 129/3/2 132/3/2
f 132/3/2 129/3/2 133/3/2
f 134/2/2 135/2/2 136/2/2
f 136/2/2 135/2/2 137/2/2
f 137/2/2 135/2/2 138/2/2
f 136/1/2 137/1/2 140/1/2
f 140/1/2 137/1/2 141/1/2
f 141/1/2 137/1/2 142/1/2
f 139/2/2 140/2/2 144/2/2
f 140/2/2 141/2/2 144/2/2
f 143/2/2 144/2/2 145/2/2
f 144/2/2 141/2/2 146/2/2
f 145/2/2 144/2/2 146/2/2
f 146/2/2 141/2/2 147/2/2
f 147/2/2 141/2/2 148/2/2
f 146/2/2 147/2/2 149/2/2
f 149/2/2 147/2/2 150/2/2
f 147/3/2 148/3/2 151/3/2
f 150/2/2 147/2/2 151/2/2
f 148/2/2 141/2/2 152/2/2
f 151/3/2 148/3/2 152/3/2
f 150/2/2 151/2/2 153/2/2
f 151/2/2 152/2/2 153/2/2
f 152/2/2 141/2/2 154/2/2
f 153/2/2 152/2/2 154/2/2
f 154/2/2 141/2/2 155/2/2
f 155/2/2 141/2/2 156/2/2
f 157/3/2 158/3/2 161/3/2
f 161/3/2 158/3/2 162/3/2
f 159/3/2 160/3/2 163/3/2
f 163/3/2 160/3/2 164/3/2
f 161/1/2 162/1/2 165/1/2
f 165/1/2 162/1/2 166/1/2
f 163/1/2 164/1/2 167/1/2
f 167/1/2 164/1/2 168/1/2
f 165/2/2 166/2/2 169/2/2
f 167/2/2 168/2/2 170/2/2
f 165/2/2 169/2/2 171/2/2
f 169/2/2 170/2/2 171/2/2
f 170/2/2 168/2/2 172/2/2
f 171/2/2 170/2/2 172/2/2
f 175/3/3 174/3/3 173/3/3
f 176/3/3 174/3/3 175/3/3
f 179/2/3 178/2/3 177/2/3
f 180/2/3 178/2/3 179/2/3
f 183/3/3 181/3/3 180/3/3
f 184/3/3 181/3/3 183/3/3
f 185/2/3 183/2/3 182/2/3
f 186/2/3 183/2/3 185/2/3
f 191/2/3 190/2/3 189/2/3
f 192/2/3 190/2/3 191/2/3
f 195/3/3 193/3/3 192/3/3
f 196/3/3 193/3/3 195/3/3
f 197/2/3 188/2/3 187/2/3
f 198/2/3 188/2/3 197/2/3
f 199/2/3 195/2/3 194/2/3
f 200/2/3 195/2/3 199/2/3
f 203/2/3 202/2/3 201/2/3
f 204/2/3 202/2/3 203/2/3
f 207/3/3 205/3/3 204/3/3
f 208/3/3 205/3/3 207/3/3
f 209/2/3 207/2/3 206/2/3
f 210/2/3 207/2/3 209/2/3
f 215/3/3 212/3/3 211/3/3
f 216/1/3 213/1/3 212/1/3
f 216/3/3 212/3/3 215/3/3
f 217/2/3 214/2/3 213/2/3
f 217/1/3 213/1/3 216/1/3
f 218/2/3 214/2/3 217/2/3
f 219/2/3 214/2/3 218/2/3
f 225/2/3 220/2/3 219/2/3
f 225/2/3 219/2/3 218/2/3
f 226/2/3 220/2/3 225/2/3
f 227/1/3 221/1/3 220/1/3
f 227/2/3 220/2/3 226/2/3
f 228/1/3 221/1/3 227/1/3
f 229/3/3 223/3/3 222/3/3
f 230/1/3 224/1/3 223/1/3
f 230/3/3 223/3/3 229/3/3
f 231/2/3 226/2/3 225/2/3
f 231/1/3 224/1/3 230/1/3
f 231/2/3 225/2/3 224/2/3
f 232/2/3 226/2/3 231/2/3
f 235/2/3 234/2/3 233/2/3
f 236/2/3 234/2/3 235/2/3
f 237/2/3 234/2/3 236/2/3
f 241/2/3 239/2/3 238/2/3
f 241/2/3 240/2/3 239/2/3
f 242/2/3 240/2/3 241/2/3
f 247/3/3 244/3/3 243/3/3
f 248/1/3 245/1/3 244/1/3
f 248/3/3 244/3/3 247/3/3
f 249/2/3 246/2/3 245/2/3
f 249/1/3 245/1/3 248/1/3
f 250/2/3 246/2/3 249/2/3
f 255/3/3 252/3/3 251/3/3
f 256/1/3 253/1/3 252/1/3
f 256/3/3 252/3/3 255/3/3
f 257/2/3 254/2/3 253/2/3
f 257/1/3 253/1/3 256/1/3
f 258/2/3 254/2/3 257/2/3
f 261/3/3 260/3/3 259/3/3
f 262/3/3 260/3/3 261/3/3
f 263/3/4 264/3/4 267/3/4
f 264/1/4 265/1/4 268/1/4
f 267/3/4 264/3/4 268/3/4
f 265/2/4 266/2/4 269/2/4
f 268/1/4 265/1/4 269/1/4
f 269/2/4 266/2/4 270/2/4
f 271/3/4 272/3/4 275/3/4
f 272/1/4 273/1/4 276/1/4
f 275/3/4 272/3/4 276/3/4
f 273/2/4 274/2/4 277/2/4
f 276/1/4 273/1/4 277/1/4
f 277/2/4 274/2/4 278/2/4
f 279/2/4 280/2/4 281/2/4
f 281/2/4 280/2/4 282/2/4
f 282/2/4 280/2/4 283/2/4
f 283/2/4 280/2/4 284/2/4
f 282/3/4 283/3/4 286/3/4
f 286/3/4 283/3/4 287/3/4
f 285/2/4 286/2/4 289/2/4
f 287/2/4 288/2/4 289/2/4
f 286/2/4 287/2/4 289/2/4
f 289/2/4 288/2/4 290/2/4
f 291/1/4 292/1/4 293/1/4
f 293/1/4 292/1/4 294/1/4
f 294/3/4 295/3/4 297/3/4
f 297/3/4 295/3/4 298/3/4
f 296/1/4 297/1/4 299/1/4
f 299/1/4 297/1/4 300/1/4
f 301/3/4 302/3/4 303/3/4
f 303/3/4 302/3/4 304/3/4
f 305/2/4 306/2/4 307/2/4
f 307/2/4 306/2/4 308/2/4
f 309/3/4 310/3/4 313/3/4
f 310/1/4 311/1/4 314/1/4
f 313/3/4 310/3/4 314/3/4
f 311/2/4 312/2/4 315/2/4
f 314/1/4 311/1/4 315/1/4
f 315/2/4 312/2/4 316/2/4
f 316/2/4 312/2/4 317/2/4
f 317/2/4 312/2/4 318/2/4
f 316/2/4 317/2/4 319/2/4
f 316/2/4 319/2/4 324/2/4
f 319/2/4 320/2/4 324/2/4
f 321/3/4 322/3/4 325/3/4
f 322/1/4 323/1/4 326/1/4
f 325/3/4 322/3/4 326/3/4
f 323/2/4 324/2/4 327/2/4
f 326/1/4 323/1/4 327/1/4
f 324/2/4 320/2/4 328/2/4
f 327/2/4 324/2/4 328/2/4
f 329/3/4 330/3/4 331/3/4
f 331/3/4 330/3/4 332/3/4
f 333/3/4 334/3/4 335/3/4
f 335/3/4 334/3/4 336/3/4
f 341/3/5 338/3/5 337/3/5
f 342/3/5 338/3/5 341/3/5
f 343/3/5 340/3/5 339/3/5
f 344/3/5 340/3/5 343/3/5
f 349/3/5 346/3/5 345/3/5
f 350/3/5 346/3/5 349/3/5
f 351/3/5 348/3/5 347/3/5
f 352/3/5 348/3/5 351/3/5
f 355/3/5 354/3/5 353/3/5
f 356/3/5 354/3/5 355/3/5
f 360/2/5 358/2/5 357/2/5
f 361/2/5 358/2/5 360/2/5
f 363/2/5 360/2/5 359/2/5
f 363/2/5 362/2/5 361/2/5
f 363/2/5 361/2/5 360/2/5
f 364/2/5 362/2/5 363/2/5
f 365/2/5 362/2/5 364/2/5
f 366/2/5 362/2/5 365/2/5
f 367/2/5 365/2/5 364/2/5
f 368/2/5 365/2/5 367/2/5
f 371/3/5 370/3/5 369/3/5
f 372/3/5 370/3/5 371/3/5
f 375/2/5 374/2/5 373/2/5
f 376/2/5 374/2/5 375/2/5
f 380/3/5 378/3/5 377/3/5
f 381/3/5 378/3/5 380/3/5
f 383/2/5 380/2/5 379/2/5
f 383/2/5 382/2/5 381/2/5
f 383/2/5 381/2/5 380/2/5
f 384/2/5 382/2/5 383/2/5
f 385/3/6 386/3/6 387/3/6
f 387/3/6 386/3/6 388/3/6
f 389/2/6 390/2/6 393/2/6
f 391/2/6 392/2/6 394/2/6
f 389/2/6 393/2/6 395/2/6
f 393/2/6 394/2/6 395/2/6
f 395/2/6 394/2/6 396/2/6
f 396/2/6 394/2/6 397/2/6
f 394/2/6 392/2/6 398/2/6
f 397/2/6 394/2/6 398/2/6
f 396/3/6 397/3/6 399/3/6
f 399/3/6 397/3/6 400/3/6
f 401/2/6 402/2/6 405/2/6
f 403/2/6 404/2/6 406/2/6
f 401/2/6 405/2/6 407/2/6
f 405/2/6 406/2/6 407/2/6
f 406/2/6 404/2/6 408/2/6
f 407/2/6 406/2/6 408/2/6
f 409/1/6 410/1/6 413/1/6
f 413/1/6 410/1/6 414/1/6
f 411/1/6 412/1/6 415/1/6
f 415/1/6 412/1/6 416/1/6
f 414/3/6 415/3/6 417/3/6
f 417/3/6 415/3/6 418/3/6
f 419/3/6 420/3/6 422/3/6
f 422/3/6 420/3/6 423/3/6
f 421/2/6 422/2/6 425/2/6
f 425/2/6 422/2/6 426/2/6
f 423/2/6 424/2/6 427/2/6
f 427/2/6 424/2/6 428/2/6
f 429/3/6 430/3/6 432/3/6
f 432/3/6 430/3/6 433/3/6
f 431/2/6 432/2/6 435/2/6
f 435/2/6 432/2/6 436/2/6
f 433/2/6 434/2/6 437/2/6
f 437/2/6 434/2/6 438/2/6
f 439/3/6 440/3/6 442/3/6
f 442/3/6 440/3/6 443/3/6
f 441/2/6 442/2/6 445/2/6
f 445/2/6 442/2/6 446/2/6
f 443/2/6 444/2/6 447/2/6
f 447/2/6 444/2/6 448/2/6
f 449/3/6 450/3/6 451/3/6
f 451/3/6 450/3/6 452/3/6
f 453/3/6 454/3/6 455/3/6
f 455/3/6 454/3/6 456/3/6
f 455/3/6 456/3/6 457/3/6
f 457/3/6 456/3/6 458/3/6
f 459/2/6 460/2/6 463/2/6
f 463/2/6 460/2/6 464/2/6
f 461/2/6 462/2/6 465/2/6
f 465/2/6 462/2/6 466/2/6
